<svg width="900" height="500" viewBox="0 0 900 500" fill="none" xmlns="http://www.w3.org/2000/svg">
<rect width="900" height="500" fill="white"/>
<path d="M624.99 466.956H276.136C275.894 466.835 275.663 466.719 275.372 466.686C254.579 464.637 242.66 451.833 235.583 433.464C234.022 429.419 234.137 424.875 234.137 420.523C234.099 307.321 234.236 194.118 234 80.9218C233.951 57.8374 250.925 41.248 267.514 35.6596C271.124 34.4452 275.026 34.5606 278.828 34.3188C280.054 34.3188 281.273 34.3188 282.499 34.3188C394.63 34.3188 506.766 34.3188 618.891 34.3188C620.028 34.3188 621.166 34.3188 622.298 34.3188C634.222 34.0221 644.047 38.7643 652.548 46.8034C657.592 51.5731 661.439 57.1065 664.323 63.4203C665.983 67.0524 665.829 70.9649 666.73 74.696V427.403C666.087 433.826 664.06 439.728 660.493 445.151C654.317 454.548 646.031 461.29 635.541 465.274C632.172 466.554 628.474 466.219 624.979 466.956H624.99Z" fill="#689049"/>
<path d="M619.517 34.5061C618.786 34.5336 618.056 34.5886 617.325 34.5886C506.332 34.5886 395.338 34.5886 284.345 34.5886C283.614 34.5886 282.883 34.5336 282.153 34.5006C281.773 34.3303 281.784 34.1764 282.175 34.0391H619.495C619.885 34.1764 619.896 34.3303 619.517 34.5006V34.5061Z" fill="#C7D6BB"/>
<path d="M619.517 34.5055C619.506 34.3517 619.501 34.1978 619.495 34.0439H622.792C622.792 34.1978 622.803 34.3572 622.814 34.511H619.517V34.5055Z" fill="#E0E8D9"/>
<path d="M282.174 34.0439C282.169 34.1978 282.163 34.3517 282.152 34.5055H278.855C278.866 34.3517 278.872 34.1978 278.877 34.0439H282.174V34.0439Z" fill="#DFE7D8"/>
<path d="M373.661 183.827C368.44 187.525 363.726 190.959 358.907 194.24C354.285 197.388 348.516 194.971 347.812 189.624C347.4 186.475 348.95 184.261 351.472 182.48C366.193 172.073 380.881 161.611 395.58 151.176C413.785 138.246 432.012 125.338 450.184 112.353C451.668 111.293 452.596 111.172 454.157 112.315C486.039 135.702 517.97 159.022 549.901 182.343C551.561 183.557 553.056 184.86 553.561 186.959C554.27 189.893 553.182 192.844 550.803 194.46C548.418 196.081 545.341 196.119 542.818 194.344C538.703 191.448 534.669 188.432 530.587 185.486C529.867 184.964 529.246 184.244 528.268 184.112C527.537 184.678 527.861 185.47 527.861 186.146C527.817 197.954 527.85 209.769 527.735 221.577C527.718 223.534 528.449 223.957 530.202 224.231C544.22 226.429 558.111 229.182 571.513 233.996C572.629 234.397 573.788 234.738 574.832 235.282C576.805 236.304 577.519 237.969 576.805 240.106C576.101 242.211 574.629 242.711 572.475 242.343C531.515 235.298 490.226 231.996 448.689 231.941C409.439 231.891 370.43 234.974 331.745 241.771C330.932 241.914 330.118 242.046 329.327 242.271C327.146 242.892 325.514 242.332 324.7 240.112C323.931 238.013 324.887 235.996 327.206 235.067C332.816 232.826 338.636 231.21 344.471 229.677C353.324 227.353 362.281 225.534 371.314 224.072C372.463 223.885 373.683 223.918 373.677 222.121C373.633 209.587 373.655 197.059 373.655 183.827H373.661Z" fill="#FEFEFE"/>
<path d="M361.467 367.963C359.181 367.963 356.884 368.04 354.604 367.936C353.005 367.859 352.318 368.271 352.373 370.04C352.494 374.062 352.45 378.096 352.395 382.124C352.373 383.624 352.703 384.794 354.164 385.503C355.115 385.965 355.846 386.684 355.483 387.904C355.175 388.932 354.291 389.366 353.373 389.377C348.982 389.437 344.586 389.437 340.196 389.377C339.278 389.366 338.383 388.937 338.086 387.91C337.74 386.701 338.432 385.998 339.427 385.542C340.8 384.904 341.119 383.772 341.114 382.387C341.097 372.502 341.097 362.616 341.114 352.725C341.114 351.335 340.778 350.22 339.41 349.588C338.416 349.126 337.778 348.384 338.069 347.192C338.328 346.131 339.229 345.692 340.136 345.681C344.619 345.626 349.103 345.631 353.582 345.714C354.505 345.73 355.357 346.269 355.543 347.34C355.725 348.39 355.236 349.148 354.28 349.505C352.708 350.093 352.389 351.28 352.411 352.78C352.455 355.709 352.466 358.638 352.4 361.567C352.373 362.858 352.823 363.342 354.131 363.325C358.983 363.276 363.835 363.276 368.687 363.325C370.05 363.342 370.677 362.963 370.627 361.468C370.534 358.539 370.578 355.61 370.605 352.681C370.616 351.269 370.133 350.203 368.803 349.577C367.808 349.11 367.132 348.39 367.435 347.197C367.698 346.164 368.589 345.692 369.506 345.681C373.99 345.626 378.469 345.626 382.952 345.708C383.859 345.725 384.733 346.23 384.92 347.318C385.096 348.368 384.628 349.11 383.678 349.505C382.057 350.181 381.716 351.5 381.716 353.077C381.727 362.688 381.733 372.299 381.711 381.915C381.711 383.497 382.106 384.789 383.639 385.536C384.524 385.97 385.123 386.64 384.914 387.718C384.678 388.926 383.689 389.361 382.672 389.377C378.37 389.448 374.067 389.443 369.77 389.393C368.742 389.383 367.742 388.97 367.435 387.827C367.105 386.608 367.852 385.992 368.858 385.525C370.193 384.899 370.578 383.695 370.583 382.343C370.6 378.134 370.561 373.92 370.622 369.71C370.638 368.414 370.199 367.914 368.885 367.952C366.418 368.018 363.945 367.974 361.473 367.969L361.467 367.963Z" fill="#FEFEFE"/>
<path d="M435.49 367.519C435.446 380.443 424.517 390.493 410.664 390.339C396.926 390.191 386.667 380.262 386.816 367.26C386.964 354.281 397.481 344.522 411.164 344.671C425.335 344.824 435.529 354.397 435.49 367.519Z" fill="#FEFEFE"/>
<path d="M502.87 390.334C498.721 390.23 494.644 389.752 490.88 387.839C488.209 386.482 485.945 384.663 484.72 381.828C483.929 379.992 483.852 378.135 485.731 376.943C487.704 375.684 489.308 376.701 490.363 378.41C492.753 382.289 495.935 384.899 500.589 385.443C503.689 385.801 506.645 385.399 509.249 383.608C513.299 380.822 512.893 375.844 508.464 373.767C505.788 372.514 502.853 372.146 500.023 371.415C498.166 370.937 496.292 370.497 494.479 369.876C489.929 368.327 486.583 365.59 485.995 360.485C485.368 355.04 487.533 350.726 492.039 347.83C498.342 343.775 505.255 344.193 512.2 345.775C513.09 345.978 513.953 346.297 514.81 346.61C519.305 348.248 520.673 350.825 519.574 355.551C519.118 357.518 517.283 358.089 515.865 356.584C514.937 355.595 514.31 354.331 513.497 353.226C510.552 349.204 504.985 347.748 500.501 349.819C498.463 350.765 497.034 352.177 496.946 354.589C496.858 357.012 498.183 358.535 500.177 359.573C502.639 360.853 505.375 361.276 508.024 361.969C510.145 362.524 512.31 362.969 514.36 363.716C523.284 366.975 525.718 376.3 519.618 383.658C515.959 388.076 510.035 390.438 502.859 390.323L502.87 390.334Z" fill="#FEFEFE"/>
<path d="M543.511 389.438C538.477 389.438 533.444 389.443 528.41 389.432C527.202 389.432 525.932 389.344 525.421 387.992C524.844 386.465 526.015 385.882 527.086 385.311C528.229 384.701 528.405 383.64 528.405 382.503C528.405 372.436 528.405 362.369 528.421 352.297C528.421 350.978 528.092 349.967 526.691 349.56C525.679 349.264 525.157 348.522 525.267 347.494C525.394 346.302 526.311 345.835 527.361 345.653C527.987 345.549 528.636 345.56 529.279 345.56C538.34 345.56 547.401 345.544 556.462 345.56C560.314 345.571 562.913 350.11 560.935 353.434C559.946 355.094 558.221 355.022 557.237 353.764C553.319 348.753 547.94 349.94 542.807 350.077C540.697 350.132 539.483 351.154 539.653 353.572C539.829 356.121 539.741 358.699 539.675 361.259C539.637 362.595 539.955 363.281 541.483 363.221C544.132 363.117 546.791 363.166 549.445 363.182C550.907 363.188 552.039 362.545 553.165 361.677C554.896 360.336 556.138 361.045 556.611 362.957C556.907 364.177 556.858 365.501 556.82 366.776C556.704 370.227 555.352 370.941 552.396 369.101C549.759 367.458 546.863 368.238 544.082 368.161C539.703 368.04 539.692 368.128 539.708 372.436C539.714 375.184 539.769 377.926 539.78 380.673C539.791 383.036 540.84 384.541 543.274 384.772C548.956 385.311 554.699 386.13 558.82 380.629C559.638 379.541 560.908 378.744 562.441 379.536C564.089 380.382 563.573 381.871 563.364 383.179C563.205 384.162 562.71 385.085 562.512 386.064C561.985 388.685 560.446 389.586 557.798 389.492C553.044 389.322 548.28 389.443 543.522 389.443L543.511 389.438Z" fill="#FEFEFE"/>
<path d="M521.783 313.887C521.794 325.542 512.2 334.532 499.727 334.554C487.286 334.581 478.054 325.795 478.071 313.947C478.087 302.199 487.484 293.374 499.897 293.457C512.508 293.539 521.772 302.183 521.789 313.887H521.783Z" fill="#FEFEFE"/>
<path d="M441.205 363.183C441.205 359.798 441.2 356.418 441.205 353.034C441.205 351.522 441.178 350.083 439.315 349.555C438.276 349.259 437.952 348.412 438.1 347.385C438.26 346.286 439.117 345.731 440.018 345.72C444.771 345.637 449.53 345.637 454.283 345.709C455.195 345.72 456.075 346.242 456.239 347.33C456.404 348.407 455.789 349.105 454.855 349.423C452.871 350.099 452.409 351.561 452.305 353.479C451.909 360.787 451.272 368.101 451.893 375.415C452.607 383.778 459.361 387.938 467.235 384.965C471.472 383.366 472.906 379.761 473.367 375.651C473.955 370.442 473.367 365.232 473.158 360.023C473.071 357.919 472.779 355.82 472.834 353.72C472.884 351.682 472.433 350.154 470.345 349.385C469.444 349.05 468.817 348.319 469.048 347.236C469.274 346.165 470.158 345.731 471.081 345.703C473.823 345.615 476.571 345.604 479.313 345.676C480.34 345.703 481.33 346.121 481.527 347.346C481.703 348.44 481.027 349.127 480.132 349.451C477.934 350.253 477.774 351.924 477.923 353.896C478.384 360.1 478.956 366.298 478.884 372.535C478.747 383.992 473.576 389.449 462.108 390.251C459.443 390.438 456.783 390.356 454.173 389.916C445.629 388.482 440.991 382.97 440.502 373.618C440.32 370.15 440.474 366.672 440.474 363.194H441.216L441.205 363.183Z" fill="#FEFEFE"/>
<path d="M532.196 304.76C532.196 312.711 532.196 319.932 532.196 327.147C532.196 328.746 533.092 329.647 534.499 330.202C535.4 330.559 536.125 331.13 535.944 332.251C535.757 333.416 534.795 333.625 533.872 333.647C531.224 333.702 528.569 333.713 525.921 333.653C525.02 333.631 524.025 333.493 523.805 332.312C523.602 331.213 524.19 330.542 525.157 330.235C527.086 329.625 527.514 328.191 527.509 326.388C527.481 318.514 527.498 310.645 527.487 302.771C527.487 300.474 527.251 298.325 524.366 297.765C523.437 297.584 523.052 296.798 523.184 295.869C523.322 294.897 524.014 294.451 524.921 294.44C528.399 294.413 531.877 294.391 535.35 294.451C536.669 294.473 537.4 295.578 538.197 296.435C543.747 302.441 548.115 309.337 552.896 315.926C553.451 316.695 553.742 317.739 555.066 318.223C555.066 312.173 555.094 306.271 555.044 300.375C555.033 299.007 553.956 298.336 552.802 297.869C551.874 297.49 551.209 296.93 551.363 295.825C551.522 294.649 552.429 294.424 553.39 294.418C556.138 294.396 558.88 294.402 561.627 294.435C562.49 294.446 563.292 294.715 563.49 295.715C563.699 296.781 563.204 297.512 562.188 297.809C559.929 298.463 559.743 300.194 559.748 302.144C559.776 311.48 559.781 320.816 559.737 330.158C559.732 331.521 560.341 333.449 558.374 333.872C556.281 334.318 554.193 334.537 552.588 332.153C546.67 323.339 540.34 314.816 533.762 306.48C533.433 306.068 533.048 305.694 532.196 304.766V304.76Z" fill="#FEFEFE"/>
<path d="M356.181 320.96C355.082 320.96 353.983 320.96 352.884 320.96C348.405 320.96 346.191 323.389 346.378 327.944C346.433 329.279 347.219 329.867 348.169 330.466C348.818 330.878 349.296 331.433 349.136 332.279C348.949 333.285 348.153 333.587 347.306 333.615C344.839 333.681 342.372 333.708 339.91 333.67C339.086 333.659 338.256 333.428 338.042 332.395C337.872 331.576 338.135 330.856 338.822 330.499C340.597 329.581 340.938 327.856 341.438 326.202C344.581 315.838 349.07 306.052 354.12 296.496C355.236 294.381 356.818 293.88 359.033 293.837C361.198 293.793 362.335 294.688 363.291 296.513C368.319 306.085 372.331 316.086 375.957 326.251C376.54 327.883 377.04 329.439 378.628 330.56C380.068 331.571 379.655 333.296 377.919 333.516C373.831 334.027 369.699 334.016 365.61 333.527C363.775 333.307 363.357 331.752 364.852 330.708C366.292 329.702 366.336 328.697 365.934 327.213C364.253 320.971 364.286 320.96 357.829 320.96C357.28 320.96 356.73 320.96 356.181 320.96V320.96Z" fill="#FEFEFE"/>
<path d="M398.327 334.554C389.568 334.543 381.101 328.57 378.815 319.75C375.771 307.98 384.128 295.941 396.734 293.891C402.844 292.896 408.559 293.874 413.84 297.127C415.697 298.27 416.961 304.09 415.725 305.837C414.746 307.216 413.411 307.326 412.224 306.161C411.603 305.551 411.252 304.639 410.873 303.815C407.68 296.99 399.52 295.369 393.964 300.474C387.629 306.293 387.233 320.217 393.228 326.388C397.344 330.625 404.487 330.927 409.51 327.037C410.807 326.031 411.994 324.877 413.301 323.888C414.17 323.234 415.219 323.135 416.087 323.888C416.977 324.663 416.873 325.663 416.373 326.647C414.873 329.592 412.263 331.229 409.4 332.543C406.367 333.938 403.163 334.587 398.327 334.548V334.554Z" fill="#FEFEFE"/>
<path d="M442.546 314.134C442.546 318.343 442.579 322.553 442.53 326.762C442.513 328.322 442.683 329.663 444.343 330.377C445.052 330.685 445.475 331.306 445.348 332.152C445.2 333.147 444.469 333.548 443.607 333.609C439.502 333.9 435.386 333.9 431.281 333.609C430.391 333.543 429.704 333.037 429.545 332.114C429.397 331.273 429.935 330.663 430.622 330.377C432.188 329.729 432.419 328.443 432.419 327.015C432.424 318.415 432.386 309.815 432.446 301.216C432.463 298.897 431.457 298.1 429.259 298.364C426.863 298.649 424.94 299.737 423.341 301.49C422.506 302.408 421.5 303.205 420.225 302.578C418.874 301.913 419.236 300.622 419.407 299.43C420.137 294.38 420.148 294.352 425.16 294.352C433.853 294.352 442.541 294.341 451.234 294.363C454.289 294.369 457.13 299.353 455.432 301.88C454.283 303.589 452.866 302.815 451.767 301.65C450.003 299.787 447.992 298.523 445.359 298.347C443.42 298.221 442.486 298.869 442.53 300.968C442.623 305.359 442.557 309.749 442.557 314.145L442.546 314.134Z" fill="#FEFEFE"/>
<path d="M467.163 294.385C469.081 294.385 470.999 294.363 472.917 294.396C473.867 294.413 474.774 294.654 475.054 295.737C475.296 296.666 474.867 297.341 474.038 297.743C472.46 298.506 472.263 299.875 472.268 301.424C472.296 309.919 472.296 318.415 472.268 326.91C472.268 328.388 472.515 329.608 474.01 330.3C474.818 330.674 475.285 331.328 475.071 332.295C474.851 333.279 474.054 333.63 473.23 333.641C469.218 333.685 465.202 333.674 461.19 333.625C460.317 333.614 459.591 333.152 459.388 332.213C459.179 331.24 459.756 330.636 460.553 330.278C462.091 329.597 462.262 328.273 462.262 326.855C462.262 318.178 462.256 309.502 462.262 300.82C462.262 299.446 462.031 298.287 460.487 297.819C459.553 297.539 459.196 296.781 459.371 295.885C459.547 294.99 460.218 294.457 461.135 294.44C463.141 294.402 465.152 294.429 467.158 294.429V294.38L467.163 294.385Z" fill="#FEFEFE"/>
<path d="M427.226 279.626C424.61 280.12 423.506 279.368 423.709 276.4C424.006 272.032 423.731 267.63 423.83 263.245C423.852 262.267 423 260.432 424.923 260.492C426.814 260.553 429.363 259.091 430.38 262.366C431.589 266.273 433.078 270.098 434.622 274.461C436.221 270.076 437.639 266.158 439.078 262.256C439.655 260.696 444.238 259.487 445.293 260.674C445.65 261.075 445.645 261.872 445.645 262.487C445.672 267.515 445.628 272.543 445.678 277.565C445.689 278.961 445.475 279.741 443.76 279.736C442.09 279.725 441.535 279.23 441.584 277.543C441.689 273.642 441.617 269.74 441.084 265.713C439.749 269.526 438.403 273.334 437.073 277.148C436.595 278.516 436.347 279.807 434.248 279.763C432.215 279.725 432.155 278.373 431.737 277.148C430.528 273.609 429.363 270.048 428.182 266.498C426.88 266.9 427.561 267.966 427.517 268.707C427.303 272.34 427.797 275.994 427.226 279.62V279.626Z" fill="#FDFEFD"/>
<path d="M396.443 279.615C394.054 279.688 392.858 278.562 392.854 276.235C392.854 271.751 392.822 267.267 392.882 262.784C392.893 261.926 392.338 260.333 393.921 260.492C395.701 260.668 398.124 259.041 399.196 261.778C400.427 264.927 401.443 268.158 402.619 271.323C402.927 272.153 402.927 273.147 403.921 273.971C405.306 270.163 406.652 266.46 407.999 262.756C408.719 260.772 412.516 259.393 414.213 260.498C414.873 260.926 414.703 261.63 414.708 262.245C414.725 267.372 414.675 272.493 414.741 277.62C414.763 279.093 414.417 279.747 412.779 279.719C411.263 279.692 410.697 279.296 410.735 277.708C410.834 273.636 410.768 269.564 410.307 265.41C408.861 269.498 407.35 273.57 406.004 277.691C405.537 279.126 404.91 279.714 403.322 279.736C401.668 279.758 401.383 278.79 400.998 277.637C399.866 274.263 398.696 270.9 397.542 267.537C396.08 267.751 396.811 268.894 396.761 269.597C396.531 272.933 397.064 276.29 396.448 279.62L396.443 279.615Z" fill="#FDFEFD"/>
<path d="M484.797 265.12C484.797 269.79 484.758 273.675 484.819 277.555C484.841 278.962 484.605 279.72 482.912 279.725C481.258 279.731 480.956 279.077 480.978 277.621C481.049 272.868 480.95 268.109 481.049 263.356C481.071 262.367 480.159 260.636 482.011 260.476C483.67 260.334 485.522 259.718 486.857 261.85C489.363 265.856 492.177 269.659 495.325 274.214C495.325 269.779 495.38 266.092 495.298 262.411C495.265 260.921 495.638 260.334 497.259 260.328C498.974 260.317 499.166 261.097 499.15 262.493C499.095 267.158 499.183 271.818 499.089 276.483C499.067 277.527 499.925 279.225 498.315 279.528C496.567 279.857 494.644 280.236 493.325 277.972C491.16 274.269 488.638 270.779 486.259 267.202C485.929 266.702 485.577 266.219 484.802 265.109L484.797 265.12Z" fill="#FDFEFD"/>
<path d="M364.517 270.043C364.517 264.212 368.864 259.965 374.842 259.948C380.837 259.937 385.112 264.163 385.074 270.081C385.035 276.021 380.848 280.093 374.749 280.12C368.688 280.148 364.517 276.043 364.517 270.043V270.043Z" fill="#FDFEFD"/>
<path d="M454.508 267.268C454.508 265.713 454.58 264.152 454.486 262.603C454.393 261.042 454.761 260.333 456.564 260.322C458.47 260.311 458.591 261.207 458.558 262.669C458.492 265.685 458.476 268.708 458.564 271.724C458.668 275.071 460.372 276.802 463.388 276.835C466.361 276.868 467.839 275.412 467.993 271.961C468.136 268.763 468.136 265.559 468.065 262.361C468.026 260.778 468.603 260.322 470.136 260.344C471.576 260.366 472.312 260.614 472.246 262.295C472.125 265.587 472.318 268.884 472.164 272.17C471.917 277.494 468.696 280.225 463.053 280.121C457.531 280.016 454.668 277.285 454.514 271.933C454.47 270.378 454.508 268.823 454.503 267.268H454.508Z" fill="#FDFDFD"/>
<path d="M357.95 273.648C356.274 278.736 351.835 281.005 346.389 279.89C341.163 278.824 338.3 274.889 338.641 269.257C338.965 263.96 342.795 260.289 348.345 259.96C353.324 259.663 357.077 262.141 357.846 266.295C355.928 266.548 354.28 266.735 352.807 264.768C351.45 262.954 349.164 262.861 346.999 263.537C344.416 264.339 342.999 266.504 342.905 269.697C342.812 272.977 344.142 275.516 346.642 276.417C349.274 277.362 351.736 277.12 353.478 274.62C354.67 272.906 356.285 273.939 357.945 273.648H357.95Z" fill="#FDFDFD"/>
<path d="M542.681 260.712C546.126 259.696 548.11 260.767 549.456 263.591C550.308 265.383 551.594 266.971 552.775 268.79C554.49 267.103 555.605 265.097 556.655 263.141C558.001 260.641 559.809 259.855 562.809 260.674C561.188 263.047 559.748 265.454 558.017 267.63C555.654 270.598 554.088 273.719 554.742 277.637C554.984 279.098 554.457 279.714 552.825 279.736C551.11 279.758 550.445 279.203 550.714 277.549C551.341 273.741 549.841 270.685 547.544 267.784C545.807 265.592 544.357 263.179 542.675 260.718L542.681 260.712Z" fill="#FDFEFD"/>
<path d="M528.114 260.394C530.493 260.394 532.872 260.438 535.246 260.377C536.488 260.344 537.043 260.696 537.049 262.064C537.06 263.465 536.444 263.674 535.235 263.735C529.987 263.987 529.993 264.02 529.993 269.312C529.993 272.147 529.927 274.988 530.02 277.818C530.064 279.247 529.608 279.774 528.158 279.708C526.872 279.648 525.866 279.725 525.916 277.901C526.026 273.878 525.872 269.85 525.982 265.828C526.026 264.119 525.432 263.52 523.778 263.691C522.784 263.795 521.767 263.658 520.761 263.724C519.553 263.8 518.932 263.509 518.948 262.092C518.965 260.756 519.426 260.344 520.712 260.383C523.179 260.454 525.652 260.405 528.119 260.405L528.114 260.394Z" fill="#FEFEFE"/>
<path d="M508.03 270.004C508.03 267.35 508.107 264.69 508.002 262.042C507.936 260.366 508.898 260.344 510.09 260.371C511.206 260.399 512.294 260.218 512.272 261.954C512.211 267.355 512.217 272.752 512.272 278.153C512.288 279.934 511.112 279.62 510.041 279.686C508.788 279.763 507.936 279.587 508.002 277.966C508.107 275.318 508.03 272.658 508.03 270.004V270.004Z" fill="#FBFCFA"/>
<path d="M427.226 279.626V264.768C428.017 265.339 428.143 265.894 428.182 266.504C427.368 269.73 428.088 273.01 427.847 276.258C427.764 277.401 428.176 278.642 427.226 279.632V279.626Z" fill="#8BAA73"/>
<path d="M396.443 279.615V265.108C397.35 265.993 397.536 266.724 397.536 267.532C396.47 270.18 397.273 272.939 397.042 275.637C396.926 276.978 397.333 278.39 396.443 279.61V279.615Z" fill="#7A9D5F"/>
<path d="M514.975 197.833C514.975 205.152 514.937 212.477 515.003 219.796C515.019 221.483 514.618 222.027 512.816 221.78C498.848 219.873 484.792 218.884 470.713 218.252C468.823 218.17 468.252 217.67 468.268 215.747C468.367 206.411 468.257 197.075 468.356 187.739C468.378 185.766 467.955 185.052 465.812 185.079C455.745 185.194 445.678 185.189 435.611 185.085C433.606 185.063 433.21 185.749 433.227 187.59C433.309 196.833 433.21 206.081 433.309 215.323C433.331 217.34 432.957 218.12 430.677 218.186C416.676 218.582 402.724 219.73 388.833 221.483C387.036 221.709 386.486 221.401 386.497 219.494C386.591 205.218 386.596 190.937 386.563 176.661C386.563 175.221 387.003 174.342 388.19 173.507C408.9 158.901 429.589 144.268 450.234 129.574C451.695 128.536 452.613 128.635 454.02 129.662C473.73 144.092 493.479 158.467 513.256 172.809C514.585 173.77 515.124 174.77 515.102 176.419C515.014 183.557 515.063 190.695 515.063 197.833H514.975V197.833Z" fill="#69904A"/>
<path d="M423.472 367.271C423.533 371.59 422.967 375.552 421.115 379.217C419.011 383.388 415.719 385.789 410.872 385.701C406.213 385.619 403.124 383.13 401.322 379.091C398.047 371.744 397.789 364.21 400.91 356.759C402.806 352.237 406.092 349.264 411.372 349.346C416.653 349.429 419.714 352.55 421.615 357.078C423.011 360.402 423.533 363.919 423.467 367.271H423.472Z" fill="#69904A"/>
<path d="M511.079 314.26C510.898 317.645 510.552 320.992 509.09 324.118C507.271 328.009 504.37 330.344 499.957 330.394C495.611 330.443 492.682 328.146 491.012 324.338C488.176 317.871 487.901 311.216 490.578 304.644C492.27 300.49 495.182 297.649 500.089 297.704C504.364 297.753 507.601 300.221 509.436 304.869C510.629 307.886 510.947 311.057 511.085 314.255L511.079 314.26Z" fill="#69904A"/>
<path d="M356.137 302.579C358.703 306.667 360.176 310.975 361.791 315.217C362.171 316.212 361.698 316.509 360.747 316.498C357.725 316.47 354.703 316.459 351.686 316.498C350.323 316.52 350.175 316.019 350.631 314.844C352.219 310.75 353.934 306.722 356.137 302.573V302.579Z" fill="#69914A"/>
<path d="M368.847 269.856C368.885 265.823 371.336 263.141 374.891 263.24C378.441 263.339 380.815 266.086 380.798 270.081C380.782 274.12 378.375 276.851 374.847 276.835C371.182 276.824 368.814 274.065 368.852 269.85L368.847 269.856Z" fill="#69914A"/>
</svg>
