<svg width="500" height="500" viewBox="0 0 500 500" fill="none" xmlns="http://www.w3.org/2000/svg">
<rect width="500" height="500" fill="white"/>
<rect width="500" height="500" fill="#011F26"/>
<path d="M174.476 252.112C169.401 255.707 164.817 259.046 160.131 262.236C155.638 265.297 150.028 262.947 149.344 257.748C148.944 254.687 150.45 252.534 152.903 250.803C167.216 240.684 181.496 230.511 195.788 220.366C213.488 207.795 231.21 195.245 248.878 182.62C250.32 181.589 251.223 181.471 252.741 182.583C283.739 205.321 314.785 227.995 345.831 250.669C347.444 251.85 348.897 253.116 349.389 255.157C350.078 258.01 349.02 260.879 346.707 262.45C344.388 264.026 341.396 264.063 338.944 262.338C334.942 259.522 331.021 256.589 327.051 253.725C326.351 253.218 325.748 252.518 324.797 252.39C324.086 252.94 324.401 253.709 324.401 254.366C324.359 265.848 324.391 277.334 324.279 288.816C324.262 290.718 324.973 291.129 326.677 291.396C340.306 293.533 353.813 296.21 366.843 300.89C367.928 301.28 369.055 301.611 370.07 302.14C371.988 303.134 372.683 304.753 371.988 306.831C371.304 308.877 369.873 309.363 367.778 309.006C327.954 302.156 287.81 298.945 247.425 298.892C209.262 298.844 171.335 301.841 133.723 308.45C132.932 308.589 132.141 308.717 131.372 308.936C129.251 309.54 127.664 308.995 126.873 306.836C126.125 304.795 127.055 302.835 129.31 301.932C134.764 299.752 140.422 298.181 146.096 296.691C154.703 294.431 163.412 292.662 172.195 291.241C173.312 291.06 174.498 291.092 174.492 289.345C174.45 277.158 174.471 264.977 174.471 252.112H174.476Z" fill="white"/>
<path d="M162.622 431.143C160.399 431.143 158.166 431.218 155.949 431.116C154.394 431.042 153.726 431.442 153.779 433.163C153.897 437.073 153.854 440.995 153.801 444.911C153.779 446.37 154.1 447.508 155.521 448.197C156.445 448.646 157.156 449.345 156.803 450.531C156.504 451.531 155.644 451.953 154.752 451.963C150.483 452.022 146.209 452.022 141.94 451.963C141.048 451.953 140.177 451.536 139.889 450.537C139.552 449.361 140.225 448.678 141.192 448.234C142.528 447.614 142.838 446.514 142.832 445.167C142.816 435.556 142.816 425.945 142.832 416.328C142.832 414.976 142.506 413.892 141.176 413.277C140.209 412.828 139.589 412.107 139.873 410.948C140.124 409.917 141 409.489 141.881 409.479C146.241 409.425 150.601 409.431 154.955 409.511C155.852 409.527 156.68 410.05 156.862 411.092C157.038 412.113 156.563 412.85 155.633 413.197C154.105 413.769 153.795 414.923 153.817 416.381C153.86 419.229 153.87 422.077 153.806 424.924C153.779 426.18 154.218 426.65 155.489 426.634C160.207 426.586 164.924 426.586 169.642 426.634C170.967 426.65 171.576 426.281 171.528 424.828C171.437 421.98 171.48 419.133 171.506 416.285C171.517 414.912 171.047 413.876 169.754 413.267C168.787 412.812 168.13 412.113 168.424 410.953C168.68 409.949 169.546 409.489 170.438 409.479C174.797 409.425 179.152 409.425 183.511 409.505C184.393 409.521 185.242 410.013 185.424 411.071C185.595 412.091 185.141 412.812 184.216 413.197C182.64 413.854 182.309 415.136 182.309 416.67C182.32 426.014 182.325 435.358 182.304 444.708C182.304 446.247 182.688 447.502 184.179 448.229C185.039 448.651 185.622 449.303 185.419 450.35C185.189 451.525 184.227 451.947 183.239 451.963C179.055 452.033 174.872 452.027 170.694 451.979C169.695 451.969 168.723 451.568 168.424 450.457C168.103 449.271 168.83 448.672 169.807 448.218C171.106 447.609 171.48 446.439 171.485 445.125C171.501 441.032 171.464 436.934 171.522 432.842C171.538 431.581 171.111 431.095 169.834 431.132C167.435 431.196 165.031 431.154 162.627 431.148L162.622 431.143Z" fill="white"/>
<path d="M234.592 430.71C234.55 443.276 223.923 453.048 210.454 452.898C197.098 452.754 187.123 443.1 187.267 430.459C187.411 417.84 197.637 408.352 210.94 408.496C224.719 408.645 234.63 417.952 234.592 430.71Z" fill="white"/>
<path d="M300.103 452.894C296.069 452.793 292.105 452.328 288.445 450.469C285.849 449.149 283.648 447.381 282.456 444.624C281.687 442.84 281.612 441.034 283.439 439.874C285.357 438.651 286.917 439.639 287.943 441.301C290.267 445.073 293.36 447.61 297.886 448.139C300.899 448.487 303.773 448.097 306.306 446.355C310.243 443.646 309.848 438.806 305.542 436.786C302.94 435.568 300.087 435.21 297.335 434.5C295.53 434.035 293.708 433.607 291.945 433.004C287.521 431.497 284.267 428.836 283.696 423.873C283.087 418.579 285.192 414.385 289.573 411.569C295.701 407.626 302.422 408.032 309.175 409.571C310.04 409.769 310.879 410.078 311.712 410.383C316.083 411.975 317.413 414.481 316.345 419.075C315.901 420.988 314.117 421.544 312.738 420.08C311.835 419.118 311.226 417.889 310.436 416.816C307.572 412.905 302.16 411.489 297.8 413.503C295.818 414.422 294.429 415.795 294.344 418.14C294.258 420.497 295.546 421.977 297.485 422.986C299.879 424.231 302.539 424.642 305.114 425.316C307.177 425.855 309.282 426.288 311.274 427.015C319.951 430.183 322.318 439.249 316.387 446.403C312.829 450.699 307.07 452.996 300.092 452.884L300.103 452.894Z" fill="white"/>
<path d="M339.617 452.024C334.723 452.024 329.83 452.029 324.936 452.018C323.76 452.018 322.526 451.933 322.029 450.618C321.468 449.133 322.606 448.567 323.648 448.011C324.759 447.418 324.93 446.387 324.93 445.281C324.93 435.493 324.93 425.706 324.946 415.913C324.946 414.63 324.626 413.647 323.263 413.252C322.28 412.964 321.773 412.242 321.88 411.243C322.003 410.084 322.895 409.63 323.915 409.453C324.524 409.352 325.155 409.363 325.78 409.363C334.59 409.363 343.4 409.347 352.21 409.363C355.955 409.373 358.482 413.786 356.559 417.019C355.597 418.632 353.92 418.563 352.963 417.339C349.154 412.467 343.923 413.621 338.933 413.754C336.882 413.808 335.701 414.801 335.867 417.152C336.038 419.631 335.952 422.137 335.888 424.627C335.851 425.925 336.161 426.593 337.646 426.534C340.221 426.432 342.807 426.48 345.387 426.496C346.809 426.502 347.909 425.877 349.004 425.033C350.687 423.729 351.895 424.418 352.354 426.277C352.643 427.463 352.595 428.751 352.557 429.991C352.445 433.346 351.131 434.04 348.256 432.25C345.692 430.653 342.876 431.412 340.173 431.337C335.915 431.219 335.904 431.305 335.92 435.493C335.926 438.165 335.979 440.831 335.99 443.502C336 445.799 337.021 447.263 339.388 447.488C344.912 448.011 350.495 448.807 354.502 443.459C355.298 442.401 356.532 441.627 358.023 442.396C359.625 443.219 359.123 444.667 358.92 445.938C358.765 446.895 358.284 447.792 358.092 448.743C357.579 451.292 356.083 452.168 353.508 452.077C348.887 451.911 344.255 452.029 339.628 452.029L339.617 452.024Z" fill="white"/>
<path d="M318.492 378.567C318.503 389.898 309.175 398.639 297.047 398.66C284.951 398.687 275.976 390.144 275.992 378.625C276.008 367.203 285.144 358.623 297.213 358.703C309.474 358.783 318.482 367.187 318.498 378.567H318.492Z" fill="white"/>
<path d="M240.148 426.495C240.148 423.204 240.143 419.918 240.148 416.627C240.148 415.158 240.121 413.758 238.31 413.245C237.3 412.957 236.985 412.134 237.129 411.135C237.284 410.066 238.118 409.527 238.994 409.516C243.615 409.436 248.242 409.436 252.863 409.505C253.75 409.516 254.605 410.024 254.765 411.081C254.926 412.129 254.327 412.807 253.419 413.117C251.49 413.774 251.042 415.195 250.94 417.06C250.555 424.166 249.936 431.277 250.539 438.388C251.234 446.519 257.8 450.564 265.456 447.673C269.575 446.118 270.97 442.614 271.418 438.617C271.99 433.553 271.418 428.488 271.215 423.423C271.13 421.377 270.847 419.336 270.9 417.295C270.948 415.313 270.51 413.828 268.48 413.08C267.604 412.754 266.995 412.043 267.219 410.991C267.438 409.949 268.298 409.527 269.196 409.5C271.862 409.415 274.533 409.404 277.199 409.473C278.198 409.5 279.16 409.906 279.352 411.097C279.523 412.161 278.866 412.829 277.995 413.144C275.858 413.924 275.703 415.548 275.847 417.466C276.296 423.498 276.852 429.524 276.782 435.588C276.649 446.728 271.621 452.033 260.471 452.813C257.88 452.994 255.294 452.914 252.757 452.487C244.449 451.092 239.94 445.734 239.464 436.641C239.288 433.269 239.437 429.888 239.437 426.506H240.159L240.148 426.495Z" fill="white"/>
<path d="M328.617 369.691C328.617 377.422 328.617 384.442 328.617 391.457C328.617 393.011 329.488 393.888 330.856 394.427C331.732 394.774 332.437 395.33 332.261 396.42C332.079 397.553 331.144 397.756 330.247 397.777C327.671 397.83 325.091 397.841 322.516 397.782C321.64 397.761 320.672 397.627 320.459 396.479C320.261 395.41 320.833 394.758 321.773 394.459C323.648 393.866 324.065 392.472 324.06 390.719C324.033 383.063 324.049 375.413 324.038 367.757C324.038 365.523 323.809 363.434 321.004 362.89C320.101 362.713 319.727 361.949 319.855 361.046C319.989 360.101 320.662 359.668 321.543 359.657C324.925 359.631 328.307 359.609 331.684 359.668C332.966 359.689 333.676 360.763 334.451 361.597C339.847 367.436 344.095 374.141 348.743 380.547C349.282 381.295 349.565 382.31 350.853 382.78C350.853 376.898 350.88 371.16 350.832 365.427C350.821 364.097 349.774 363.445 348.652 362.991C347.749 362.622 347.103 362.077 347.252 361.004C347.407 359.86 348.289 359.641 349.224 359.636C351.895 359.614 354.561 359.62 357.232 359.652C358.071 359.663 358.851 359.924 359.043 360.897C359.246 361.933 358.766 362.644 357.777 362.932C355.581 363.568 355.4 365.251 355.405 367.148C355.432 376.225 355.437 385.302 355.394 394.384C355.389 395.709 355.982 397.585 354.069 397.996C352.034 398.429 350.004 398.642 348.444 396.324C342.69 387.754 336.535 379.468 330.14 371.363C329.819 370.962 329.445 370.599 328.617 369.696V369.691Z" fill="white"/>
<path d="M157.482 385.443C156.413 385.443 155.345 385.443 154.276 385.443C149.922 385.443 147.769 387.805 147.95 392.234C148.004 393.532 148.768 394.103 149.692 394.686C150.323 395.087 150.787 395.626 150.632 396.449C150.451 397.427 149.676 397.72 148.853 397.747C146.455 397.811 144.056 397.838 141.662 397.801C140.861 397.79 140.054 397.566 139.846 396.561C139.68 395.765 139.937 395.065 140.604 394.718C142.33 393.826 142.661 392.148 143.147 390.54C146.203 380.464 150.568 370.948 155.478 361.658C156.563 359.601 158.101 359.115 160.255 359.072C162.36 359.029 163.466 359.9 164.395 361.674C169.284 370.981 173.184 380.704 176.71 390.588C177.276 392.175 177.762 393.687 179.306 394.777C180.706 395.76 180.306 397.437 178.617 397.651C174.642 398.148 170.625 398.137 166.65 397.662C164.865 397.448 164.459 395.936 165.912 394.921C167.312 393.943 167.355 392.966 166.965 391.523C165.33 385.454 165.362 385.443 159.085 385.443C158.55 385.443 158.016 385.443 157.482 385.443V385.443Z" fill="white"/>
<path d="M198.459 398.659C189.943 398.649 181.71 392.841 179.487 384.266C176.527 372.822 184.654 361.117 196.91 359.124C202.851 358.157 208.407 359.108 213.541 362.271C215.347 363.382 216.576 369.04 215.374 370.739C214.423 372.08 213.125 372.187 211.971 371.054C211.367 370.461 211.025 369.574 210.656 368.773C207.552 362.137 199.618 360.561 194.217 365.524C188.057 371.182 187.672 384.72 193.501 390.72C197.503 394.839 204.448 395.133 209.331 391.351C210.592 390.373 211.746 389.251 213.018 388.289C213.862 387.653 214.882 387.557 215.726 388.289C216.592 389.043 216.49 390.015 216.004 390.971C214.546 393.835 212.008 395.427 209.224 396.704C206.275 398.061 203.161 398.691 198.459 398.654V398.659Z" fill="white"/>
<path d="M241.452 378.807C241.452 382.9 241.484 386.992 241.436 391.085C241.42 392.602 241.585 393.906 243.199 394.6C243.888 394.899 244.299 395.503 244.177 396.326C244.032 397.293 243.322 397.683 242.483 397.742C238.492 398.025 234.49 398.025 230.499 397.742C229.634 397.678 228.966 397.186 228.811 396.289C228.667 395.471 229.191 394.878 229.858 394.6C231.381 393.97 231.605 392.72 231.605 391.331C231.611 382.969 231.573 374.608 231.632 366.247C231.648 363.992 230.67 363.218 228.533 363.474C226.204 363.752 224.334 364.81 222.779 366.514C221.967 367.406 220.99 368.181 219.75 367.572C218.436 366.925 218.788 365.67 218.954 364.511C219.665 359.601 219.675 359.574 224.548 359.574C233 359.574 241.447 359.563 249.899 359.585C252.869 359.59 255.631 364.436 253.98 366.893C252.864 368.555 251.485 367.802 250.417 366.669C248.702 364.858 246.746 363.629 244.187 363.458C242.301 363.335 241.393 363.966 241.436 366.006C241.527 370.275 241.463 374.544 241.463 378.818L241.452 378.807Z" fill="white"/>
<path d="M265.386 359.606C267.251 359.606 269.115 359.584 270.98 359.616C271.904 359.632 272.786 359.867 273.058 360.92C273.293 361.823 272.876 362.48 272.07 362.87C270.536 363.613 270.344 364.943 270.349 366.45C270.376 374.709 270.376 382.969 270.349 391.229C270.349 392.666 270.59 393.852 272.043 394.525C272.828 394.888 273.282 395.524 273.074 396.464C272.86 397.421 272.086 397.763 271.284 397.773C267.384 397.816 263.479 397.805 259.579 397.757C258.729 397.747 258.024 397.298 257.826 396.384C257.623 395.439 258.184 394.851 258.959 394.504C260.455 393.841 260.62 392.554 260.62 391.175C260.62 382.739 260.615 374.303 260.62 365.862C260.62 364.526 260.396 363.399 258.895 362.945C257.986 362.672 257.639 361.935 257.81 361.064C257.981 360.193 258.633 359.675 259.525 359.659C261.475 359.622 263.431 359.648 265.381 359.648V359.6L265.386 359.606Z" fill="white"/>
<path d="M226.557 345.255C224.014 345.736 222.94 345.004 223.137 342.119C223.426 337.872 223.159 333.592 223.255 329.329C223.276 328.378 222.448 326.593 224.318 326.652C226.156 326.711 228.635 325.29 229.623 328.474C230.799 332.273 232.247 335.991 233.748 340.233C235.303 335.97 236.681 332.16 238.081 328.367C238.642 326.85 243.097 325.674 244.123 326.828C244.471 327.218 244.465 327.993 244.465 328.591C244.492 333.48 244.449 338.369 244.497 343.252C244.508 344.609 244.3 345.367 242.633 345.362C241.008 345.351 240.469 344.871 240.517 343.23C240.618 339.437 240.549 335.644 240.031 331.728C238.733 335.435 237.424 339.138 236.131 342.846C235.666 344.176 235.425 345.431 233.385 345.389C231.408 345.351 231.349 344.037 230.943 342.846C229.768 339.405 228.635 335.943 227.486 332.492C226.22 332.882 226.883 333.918 226.84 334.639C226.631 338.171 227.112 341.724 226.557 345.25V345.255Z" fill="white"/>
<path d="M196.627 345.244C194.305 345.315 193.142 344.22 193.138 341.958C193.138 337.598 193.106 333.239 193.165 328.879C193.175 328.046 192.636 326.496 194.175 326.651C195.906 326.822 198.262 325.241 199.303 327.902C200.5 330.963 201.489 334.104 202.632 337.182C202.931 337.988 202.931 338.955 203.898 339.757C205.244 336.054 206.553 332.453 207.862 328.853C208.562 326.924 212.254 325.583 213.905 326.657C214.546 327.073 214.38 327.757 214.386 328.356C214.402 333.34 214.354 338.32 214.418 343.304C214.439 344.736 214.103 345.372 212.51 345.345C211.036 345.319 210.486 344.934 210.523 343.39C210.619 339.431 210.555 335.472 210.106 331.433C208.701 335.408 207.232 339.367 205.923 343.374C205.469 344.768 204.86 345.34 203.316 345.361C201.708 345.383 201.43 344.442 201.056 343.32C199.955 340.04 198.817 336.77 197.695 333.501C196.274 333.709 196.985 334.82 196.937 335.504C196.712 338.747 197.23 342.011 196.632 345.249L196.627 345.244Z" fill="white"/>
<path d="M282.531 331.15C282.531 335.691 282.494 339.468 282.552 343.24C282.574 344.608 282.344 345.345 280.698 345.35C279.09 345.356 278.796 344.72 278.818 343.304C278.887 338.683 278.791 334.056 278.887 329.435C278.909 328.473 278.022 326.79 279.822 326.635C281.436 326.496 283.236 325.898 284.534 327.971C286.971 331.866 289.706 335.563 292.767 339.992C292.767 335.68 292.821 332.095 292.741 328.516C292.709 327.068 293.072 326.496 294.648 326.491C296.315 326.48 296.502 327.239 296.486 328.596C296.433 333.132 296.518 337.662 296.427 342.198C296.406 343.213 297.239 344.864 295.674 345.158C293.975 345.479 292.105 345.847 290.823 343.646C288.718 340.045 286.265 336.653 283.952 333.175C283.632 332.688 283.29 332.218 282.536 331.139L282.531 331.15Z" fill="white"/>
<path d="M165.586 335.937C165.586 330.269 169.812 326.139 175.625 326.123C181.454 326.112 185.61 330.221 185.573 335.975C185.535 341.75 181.464 345.709 175.534 345.736C169.641 345.763 165.586 341.772 165.586 335.937V335.937Z" fill="white"/>
<path d="M253.082 333.24C253.082 331.728 253.152 330.21 253.061 328.704C252.97 327.186 253.328 326.497 255.08 326.486C256.934 326.476 257.052 327.347 257.02 328.768C256.956 331.701 256.94 334.639 257.025 337.572C257.127 340.826 258.783 342.509 261.716 342.541C264.606 342.573 266.043 341.157 266.193 337.802C266.332 334.693 266.332 331.578 266.262 328.469C266.225 326.93 266.786 326.486 268.277 326.508C269.676 326.529 270.392 326.77 270.328 328.404C270.211 331.605 270.398 334.81 270.248 338.005C270.008 343.182 266.877 345.837 261.39 345.736C256.021 345.634 253.237 342.979 253.088 337.775C253.045 336.263 253.082 334.751 253.077 333.24H253.082Z" fill="white"/>
<path d="M159.202 339.442C157.573 344.389 153.256 346.596 147.962 345.511C142.881 344.475 140.097 340.65 140.428 335.173C140.744 330.023 144.467 326.454 149.864 326.134C154.704 325.845 158.353 328.255 159.101 332.294C157.236 332.539 155.634 332.721 154.202 330.808C152.882 329.045 150.66 328.955 148.555 329.612C146.044 330.392 144.665 332.497 144.574 335.601C144.483 338.79 145.776 341.259 148.207 342.135C150.766 343.054 153.16 342.819 154.854 340.388C156.013 338.721 157.584 339.725 159.197 339.442H159.202Z" fill="white"/>
<path d="M338.811 326.866C342.16 325.877 344.089 326.919 345.398 329.665C346.226 331.407 347.476 332.951 348.625 334.719C350.292 333.079 351.376 331.129 352.397 329.227C353.706 326.796 355.464 326.032 358.381 326.828C356.805 329.136 355.405 331.476 353.722 333.592C351.424 336.477 349.902 339.512 350.538 343.321C350.773 344.742 350.26 345.341 348.673 345.362C347.006 345.383 346.36 344.844 346.621 343.236C347.231 339.533 345.772 336.563 343.539 333.742C341.85 331.61 340.44 329.265 338.805 326.871L338.811 326.866Z" fill="white"/>
<path d="M324.647 326.555C326.96 326.555 329.273 326.598 331.581 326.539C332.789 326.507 333.328 326.849 333.334 328.179C333.345 329.542 332.746 329.745 331.571 329.803C326.469 330.049 326.474 330.081 326.474 335.226C326.474 337.983 326.41 340.745 326.501 343.497C326.543 344.886 326.1 345.399 324.689 345.335C323.439 345.276 322.462 345.351 322.51 343.577C322.616 339.666 322.467 335.75 322.574 331.839C322.616 330.177 322.039 329.595 320.431 329.761C319.464 329.862 318.476 329.729 317.498 329.793C316.323 329.868 315.719 329.584 315.735 328.206C315.751 326.908 316.2 326.507 317.45 326.544C319.849 326.614 322.253 326.566 324.652 326.566L324.647 326.555Z" fill="white"/>
<path d="M305.12 335.9C305.12 333.319 305.194 330.734 305.093 328.158C305.029 326.529 305.964 326.508 307.123 326.534C308.208 326.561 309.265 326.385 309.244 328.073C309.185 333.325 309.191 338.571 309.244 343.823C309.26 345.554 308.117 345.25 307.075 345.314C305.857 345.388 305.029 345.218 305.093 343.641C305.194 341.066 305.12 338.48 305.12 335.9V335.9Z" fill="white"/>
<path d="M226.556 345.255V330.809C227.325 331.364 227.448 331.904 227.485 332.497C226.695 335.633 227.394 338.823 227.159 341.98C227.079 343.091 227.48 344.299 226.556 345.26V345.255Z" fill="#011F26"/>
<path d="M196.626 345.244V331.14C197.508 332 197.69 332.71 197.69 333.496C196.653 336.071 197.433 338.753 197.209 341.376C197.097 342.68 197.492 344.053 196.626 345.239V345.244Z" fill="#011F26"/>
<path d="M311.872 265.73C311.872 272.846 311.835 279.968 311.899 287.084C311.915 288.724 311.525 289.253 309.773 289.013C296.192 287.159 282.525 286.197 268.837 285.583C267 285.503 266.444 285.017 266.46 283.147C266.556 274.07 266.449 264.992 266.546 255.915C266.567 253.997 266.155 253.303 264.072 253.329C254.284 253.442 244.496 253.436 234.709 253.335C232.759 253.313 232.374 253.981 232.39 255.771C232.47 264.757 232.374 273.749 232.47 282.735C232.492 284.696 232.128 285.455 229.911 285.519C216.298 285.904 202.733 287.02 189.227 288.724C187.48 288.944 186.946 288.644 186.956 286.79C187.047 272.91 187.052 259.025 187.02 245.145C187.02 243.745 187.448 242.89 188.602 242.078C208.738 227.877 228.853 213.65 248.925 199.363C250.347 198.354 251.239 198.45 252.607 199.449C271.771 213.479 290.972 227.455 310.2 241.399C311.493 242.334 312.017 243.307 311.995 244.909C311.91 251.85 311.958 258.79 311.958 265.73H311.872V265.73Z" fill="#011F26"/>
<path d="M222.908 430.47C222.967 434.67 222.416 438.522 220.616 442.085C218.57 446.14 215.37 448.475 210.657 448.39C206.127 448.309 203.124 445.889 201.372 441.962C198.188 434.819 197.937 427.494 200.971 420.25C202.814 415.853 206.009 412.963 211.144 413.043C216.278 413.123 219.254 416.157 221.102 420.56C222.459 423.792 222.967 427.211 222.903 430.47H222.908Z" fill="#011F26"/>
<path d="M308.084 378.93C307.908 382.221 307.571 385.475 306.15 388.515C304.382 392.297 301.561 394.568 297.271 394.616C293.045 394.664 290.197 392.431 288.573 388.729C285.816 382.44 285.549 375.97 288.151 369.581C289.797 365.541 292.628 362.779 297.399 362.833C301.556 362.881 304.703 365.28 306.487 369.8C307.646 372.733 307.956 375.815 308.09 378.925L308.084 378.93Z" fill="#011F26"/>
<path d="M157.438 367.571C159.933 371.546 161.365 375.734 162.936 379.859C163.304 380.826 162.845 381.114 161.92 381.104C158.982 381.077 156.044 381.066 153.11 381.104C151.785 381.125 151.641 380.639 152.085 379.496C153.629 375.515 155.296 371.599 157.438 367.565V367.571Z" fill="#011F26"/>
<path d="M169.796 335.756C169.834 331.835 172.217 329.228 175.673 329.324C179.125 329.42 181.433 332.091 181.417 335.975C181.401 339.902 179.061 342.558 175.631 342.542C172.067 342.531 169.764 339.849 169.802 335.751L169.796 335.756Z" fill="#011F26"/>
</svg>
