<svg width="500" height="500" viewBox="0 0 500 500" fill="none" xmlns="http://www.w3.org/2000/svg">
<rect width="500" height="500" fill="white"/>
<rect width="500" height="500" fill="#011F26"/>
<path d="M365.993 460.898H134.019C133.858 460.818 133.704 460.741 133.511 460.719C119.684 459.357 111.759 450.843 107.052 438.628C106.015 435.938 106.091 432.917 106.091 430.023C106.066 354.748 106.157 279.472 106 204.201C105.967 188.851 117.254 177.82 128.286 174.103C130.686 173.296 133.28 173.373 135.809 173.212C136.624 173.212 137.435 173.212 138.25 173.212C212.812 173.212 287.379 173.212 361.937 173.212C362.694 173.212 363.45 173.212 364.203 173.212C372.132 173.015 378.665 176.168 384.318 181.514C387.672 184.685 390.23 188.365 392.148 192.563C393.252 194.978 393.15 197.58 393.749 200.061V434.597C393.321 438.869 391.973 442.793 389.602 446.4C385.495 452.648 379.984 457.131 373.009 459.78C370.769 460.632 368.31 460.409 365.986 460.898H365.993Z" fill="white"/>
<path d="M362.354 173.337C361.868 173.355 361.382 173.392 360.896 173.392C287.09 173.392 213.284 173.392 139.477 173.392C138.992 173.392 138.506 173.355 138.02 173.333C137.767 173.22 137.775 173.118 138.034 173.026H362.339C362.599 173.118 362.606 173.22 362.354 173.333V173.337Z" fill="white"/>
<path d="M362.354 173.336C362.347 173.234 362.343 173.132 362.339 173.029H364.532C364.532 173.132 364.539 173.238 364.546 173.34H362.354V173.336Z" fill="#E0E8D9"/>
<path d="M138.034 173.029C138.03 173.132 138.027 173.234 138.02 173.336H135.827C135.834 173.234 135.838 173.132 135.842 173.029H138.034V173.029Z" fill="white"/>
<path d="M198.869 272.629C195.397 275.088 192.262 277.372 189.058 279.553C185.985 281.647 182.148 280.039 181.681 276.484C181.406 274.39 182.437 272.918 184.114 271.734C193.903 264.813 203.67 257.856 213.444 250.917C225.55 242.319 237.67 233.736 249.754 225.102C250.74 224.397 251.358 224.316 252.395 225.076C273.596 240.628 294.829 256.135 316.062 271.642C317.165 272.45 318.159 273.316 318.495 274.712C318.967 276.663 318.243 278.625 316.661 279.699C315.075 280.777 313.029 280.803 311.352 279.623C308.615 277.697 305.933 275.691 303.218 273.732C302.74 273.385 302.327 272.907 301.676 272.819C301.19 273.195 301.406 273.722 301.406 274.171C301.377 282.023 301.399 289.879 301.322 297.732C301.311 299.032 301.797 299.314 302.963 299.496C312.284 300.958 321.521 302.789 330.433 305.99C331.175 306.256 331.946 306.483 332.64 306.845C333.952 307.524 334.427 308.631 333.952 310.053C333.484 311.452 332.505 311.785 331.072 311.54C303.836 306.856 276.38 304.66 248.76 304.623C222.66 304.59 196.72 306.64 170.996 311.16C170.456 311.255 169.915 311.343 169.389 311.492C167.938 311.905 166.853 311.533 166.312 310.056C165.8 308.661 166.436 307.32 167.978 306.702C171.709 305.211 175.578 304.137 179.459 303.118C185.345 301.572 191.301 300.362 197.308 299.391C198.072 299.266 198.883 299.288 198.88 298.093C198.85 289.759 198.865 281.428 198.865 272.629H198.869Z" fill="black"/>
<path d="M190.76 395.073C189.24 395.073 187.713 395.124 186.197 395.054C185.133 395.003 184.677 395.277 184.713 396.454C184.794 399.129 184.764 401.811 184.728 404.489C184.713 405.486 184.932 406.265 185.904 406.736C186.536 407.043 187.022 407.522 186.781 408.333C186.577 409.016 185.988 409.305 185.378 409.312C182.459 409.352 179.536 409.352 176.616 409.312C176.006 409.305 175.41 409.02 175.213 408.337C174.983 407.533 175.443 407.065 176.104 406.762C177.018 406.338 177.23 405.585 177.226 404.664C177.215 398.091 177.215 391.517 177.226 384.94C177.226 384.016 177.003 383.274 176.093 382.854C175.432 382.547 175.008 382.054 175.202 381.261C175.374 380.556 175.973 380.263 176.576 380.256C179.557 380.219 182.539 380.223 185.517 380.278C186.131 380.289 186.697 380.647 186.821 381.359C186.942 382.057 186.617 382.562 185.981 382.799C184.936 383.19 184.724 383.979 184.739 384.977C184.768 386.924 184.775 388.872 184.731 390.82C184.713 391.678 185.013 392 185.882 391.989C189.109 391.956 192.335 391.956 195.562 391.989C196.468 392 196.884 391.748 196.852 390.754C196.789 388.806 196.819 386.859 196.837 384.911C196.844 383.972 196.523 383.263 195.638 382.847C194.977 382.536 194.528 382.057 194.729 381.264C194.904 380.577 195.496 380.263 196.106 380.256C199.088 380.219 202.066 380.219 205.047 380.274C205.65 380.285 206.231 380.621 206.356 381.345C206.472 382.043 206.162 382.536 205.53 382.799C204.452 383.249 204.225 384.125 204.225 385.174C204.233 391.565 204.236 397.956 204.222 404.35C204.222 405.402 204.485 406.261 205.504 406.758C206.092 407.047 206.491 407.492 206.352 408.209C206.195 409.013 205.537 409.301 204.861 409.312C202 409.36 199.139 409.356 196.282 409.323C195.598 409.316 194.933 409.042 194.729 408.282C194.509 407.471 195.006 407.061 195.675 406.751C196.563 406.334 196.819 405.534 196.822 404.635C196.833 401.836 196.808 399.034 196.848 396.235C196.859 395.372 196.567 395.04 195.693 395.065C194.053 395.109 192.408 395.08 190.764 395.076L190.76 395.073Z" fill="black"/>
<path d="M239.983 394.777C239.954 403.371 232.686 410.054 223.474 409.952C214.34 409.853 207.518 403.251 207.616 394.606C207.715 385.975 214.709 379.485 223.807 379.584C233.23 379.686 240.009 386.052 239.983 394.777Z" fill="black"/>
<path d="M284.788 409.948C282.029 409.879 279.318 409.561 276.815 408.29C275.039 407.387 273.534 406.178 272.719 404.292C272.193 403.072 272.142 401.837 273.391 401.044C274.703 400.207 275.77 400.883 276.471 402.019C278.061 404.599 280.177 406.335 283.271 406.696C285.332 406.934 287.298 406.667 289.03 405.476C291.723 403.623 291.453 400.313 288.508 398.932C286.728 398.099 284.777 397.854 282.895 397.368C281.66 397.05 280.414 396.758 279.208 396.345C276.183 395.314 273.958 393.495 273.567 390.1C273.15 386.479 274.59 383.611 277.586 381.685C281.777 378.989 286.374 379.266 290.992 380.319C291.584 380.454 292.158 380.666 292.728 380.874C295.717 381.963 296.627 383.677 295.896 386.819C295.593 388.127 294.372 388.507 293.429 387.506C292.812 386.848 292.395 386.008 291.855 385.273C289.896 382.599 286.195 381.63 283.213 383.008C281.857 383.636 280.907 384.575 280.849 386.179C280.79 387.791 281.671 388.803 282.997 389.494C284.634 390.345 286.454 390.626 288.215 391.087C289.626 391.456 291.065 391.752 292.428 392.249C298.362 394.415 299.981 400.616 295.925 405.509C293.492 408.447 289.553 410.018 284.781 409.941L284.788 409.948Z" fill="black"/>
<path d="M311.813 409.353C308.466 409.353 305.119 409.356 301.772 409.349C300.968 409.349 300.124 409.29 299.784 408.392C299.4 407.376 300.178 406.988 300.891 406.608C301.651 406.203 301.768 405.498 301.768 404.741C301.768 398.047 301.768 391.353 301.779 384.656C301.779 383.779 301.56 383.106 300.628 382.836C299.956 382.639 299.608 382.145 299.681 381.462C299.766 380.669 300.376 380.358 301.074 380.238C301.49 380.168 301.921 380.176 302.349 380.176C308.374 380.176 314.4 380.165 320.425 380.176C322.986 380.183 324.715 383.201 323.399 385.412C322.742 386.515 321.594 386.468 320.94 385.631C318.335 382.299 314.758 383.088 311.345 383.179C309.942 383.216 309.134 383.895 309.248 385.503C309.364 387.199 309.306 388.912 309.262 390.615C309.237 391.503 309.448 391.96 310.464 391.92C312.225 391.85 313.994 391.883 315.759 391.894C316.731 391.898 317.484 391.47 318.233 390.893C319.384 390.001 320.209 390.473 320.524 391.744C320.721 392.555 320.688 393.436 320.662 394.284C320.586 396.578 319.687 397.053 317.721 395.829C315.967 394.737 314.041 395.256 312.193 395.204C309.28 395.124 309.273 395.183 309.284 398.047C309.288 399.874 309.324 401.698 309.332 403.525C309.339 405.096 310.037 406.097 311.655 406.25C315.434 406.608 319.252 407.153 321.993 403.495C322.537 402.772 323.381 402.242 324.4 402.768C325.497 403.331 325.153 404.321 325.014 405.191C324.908 405.845 324.579 406.459 324.448 407.109C324.097 408.852 323.074 409.451 321.313 409.389C318.152 409.276 314.984 409.356 311.82 409.356L311.813 409.353Z" fill="black"/>
<path d="M297.365 359.114C297.372 366.864 290.992 372.842 282.698 372.857C274.425 372.875 268.286 367.032 268.297 359.154C268.308 351.342 274.557 345.474 282.811 345.529C291.197 345.584 297.357 351.331 297.368 359.114H297.365Z" fill="black"/>
<path d="M243.783 391.893C243.783 389.643 243.78 387.395 243.783 385.145C243.783 384.14 243.765 383.182 242.526 382.832C241.836 382.634 241.62 382.072 241.719 381.388C241.825 380.657 242.395 380.288 242.994 380.281C246.155 380.226 249.319 380.226 252.48 380.274C253.086 380.281 253.671 380.628 253.781 381.352C253.89 382.068 253.481 382.532 252.86 382.744C251.541 383.193 251.234 384.165 251.164 385.44C250.901 390.3 250.477 395.164 250.89 400.027C251.365 405.588 255.856 408.354 261.092 406.378C263.909 405.314 264.863 402.917 265.17 400.184C265.561 396.72 265.17 393.256 265.031 389.792C264.973 388.393 264.779 386.997 264.816 385.601C264.848 384.246 264.549 383.23 263.16 382.718C262.561 382.495 262.145 382.009 262.298 381.29C262.448 380.577 263.036 380.288 263.65 380.27C265.473 380.212 267.3 380.204 269.124 380.252C269.807 380.27 270.465 380.548 270.596 381.363C270.713 382.09 270.264 382.547 269.668 382.762C268.206 383.296 268.1 384.406 268.199 385.718C268.506 389.844 268.886 393.965 268.839 398.112C268.747 405.731 265.309 409.359 257.683 409.893C255.911 410.017 254.142 409.962 252.407 409.67C246.725 408.716 243.641 405.051 243.316 398.832C243.195 396.527 243.297 394.214 243.297 391.901H243.791L243.783 391.893Z" fill="black"/>
<path d="M304.289 353.045C304.289 358.332 304.289 363.133 304.289 367.931C304.289 368.994 304.885 369.593 305.82 369.962C306.419 370.2 306.902 370.58 306.781 371.325C306.657 372.1 306.017 372.239 305.403 372.254C303.642 372.29 301.877 372.297 300.116 372.257C299.517 372.243 298.856 372.151 298.709 371.366C298.574 370.635 298.965 370.189 299.608 369.984C300.891 369.579 301.176 368.625 301.172 367.427C301.154 362.191 301.165 356.958 301.158 351.722C301.158 350.195 301 348.766 299.082 348.393C298.465 348.273 298.209 347.75 298.297 347.133C298.388 346.486 298.848 346.19 299.451 346.183C301.764 346.164 304.077 346.15 306.386 346.19C307.263 346.204 307.749 346.939 308.279 347.509C311.97 351.503 314.875 356.088 318.053 360.47C318.423 360.981 318.616 361.675 319.497 361.997C319.497 357.974 319.515 354.05 319.482 350.129C319.475 349.219 318.759 348.773 317.991 348.463C317.374 348.211 316.932 347.838 317.034 347.103C317.14 346.321 317.743 346.172 318.382 346.168C320.209 346.153 322.033 346.157 323.86 346.179C324.433 346.186 324.967 346.365 325.098 347.03C325.237 347.739 324.908 348.225 324.232 348.422C322.731 348.857 322.606 350.008 322.61 351.305C322.628 357.513 322.632 363.722 322.603 369.933C322.599 370.839 323.005 372.122 321.696 372.403C320.304 372.699 318.916 372.845 317.849 371.26C313.914 365.399 309.704 359.731 305.33 354.188C305.111 353.914 304.855 353.666 304.289 353.048V353.045Z" fill="black"/>
<path d="M187.245 363.817C186.515 363.817 185.784 363.817 185.053 363.817C182.075 363.817 180.603 365.432 180.727 368.461C180.763 369.349 181.286 369.74 181.918 370.139C182.349 370.413 182.667 370.782 182.561 371.344C182.437 372.013 181.907 372.214 181.344 372.232C179.704 372.276 178.063 372.294 176.426 372.269C175.878 372.261 175.326 372.108 175.184 371.421C175.071 370.877 175.246 370.398 175.703 370.16C176.883 369.55 177.109 368.403 177.442 367.303C179.532 360.412 182.517 353.904 185.875 347.55C186.617 346.143 187.669 345.811 189.142 345.781C190.582 345.752 191.338 346.348 191.974 347.561C195.317 353.926 197.984 360.576 200.396 367.336C200.783 368.421 201.116 369.455 202.172 370.201C203.129 370.873 202.855 372.02 201.701 372.166C198.982 372.506 196.234 372.499 193.516 372.174C192.295 372.028 192.018 370.994 193.011 370.299C193.969 369.631 193.998 368.962 193.731 367.975C192.613 363.825 192.635 363.817 188.342 363.817C187.976 363.817 187.611 363.817 187.245 363.817V363.817Z" fill="black"/>
<path d="M215.272 372.857C209.447 372.849 203.816 368.877 202.296 363.013C200.272 355.186 205.83 347.18 214.212 345.817C218.275 345.156 222.075 345.806 225.587 347.969C226.822 348.729 227.662 352.599 226.84 353.761C226.19 354.678 225.302 354.751 224.512 353.977C224.099 353.571 223.866 352.964 223.614 352.416C221.491 347.878 216.064 346.8 212.37 350.195C208.157 354.064 207.894 363.323 211.881 367.427C214.617 370.244 219.368 370.445 222.707 367.858C223.57 367.189 224.359 366.422 225.229 365.764C225.806 365.329 226.504 365.264 227.081 365.764C227.673 366.279 227.604 366.944 227.271 367.598C226.274 369.557 224.538 370.646 222.634 371.519C220.617 372.447 218.487 372.878 215.272 372.853V372.857Z" fill="black"/>
<path d="M244.675 359.278C244.675 362.077 244.697 364.876 244.664 367.675C244.653 368.713 244.766 369.604 245.87 370.079C246.341 370.284 246.623 370.697 246.539 371.259C246.44 371.921 245.954 372.188 245.38 372.228C242.651 372.421 239.914 372.421 237.185 372.228C236.593 372.184 236.136 371.848 236.03 371.234C235.931 370.675 236.289 370.269 236.746 370.079C237.787 369.648 237.941 368.793 237.941 367.843C237.945 362.125 237.919 356.406 237.959 350.688C237.97 349.146 237.301 348.616 235.84 348.791C234.247 348.981 232.968 349.705 231.905 350.87C231.349 351.481 230.681 352.01 229.833 351.594C228.934 351.152 229.175 350.293 229.288 349.5C229.774 346.142 229.782 346.124 233.114 346.124C238.895 346.124 244.671 346.117 250.452 346.131C252.484 346.135 254.373 349.449 253.244 351.13C252.48 352.266 251.537 351.751 250.806 350.976C249.634 349.738 248.296 348.897 246.546 348.78C245.256 348.696 244.635 349.127 244.664 350.523C244.726 353.443 244.682 356.362 244.682 359.285L244.675 359.278Z" fill="black"/>
<path d="M261.045 346.146C262.32 346.146 263.595 346.132 264.87 346.154C265.502 346.165 266.105 346.325 266.292 347.045C266.452 347.663 266.167 348.112 265.616 348.379C264.567 348.887 264.435 349.797 264.439 350.827C264.457 356.476 264.457 362.125 264.439 367.774C264.439 368.757 264.604 369.568 265.597 370.029C266.135 370.277 266.445 370.712 266.303 371.355C266.156 372.009 265.627 372.243 265.079 372.25C262.411 372.279 259.74 372.272 257.073 372.239C256.492 372.232 256.009 371.925 255.874 371.3C255.735 370.653 256.119 370.252 256.649 370.014C257.672 369.561 257.785 368.68 257.785 367.738C257.785 361.968 257.782 356.198 257.785 350.425C257.785 349.512 257.632 348.741 256.605 348.43C255.984 348.244 255.746 347.739 255.863 347.144C255.98 346.548 256.426 346.194 257.036 346.183C258.37 346.157 259.707 346.176 261.041 346.176V346.143L261.045 346.146Z" fill="black"/>
<path d="M234.488 336.332C232.749 336.661 232.014 336.16 232.149 334.187C232.347 331.282 232.164 328.355 232.23 325.439C232.244 324.789 231.678 323.568 232.957 323.609C234.214 323.649 235.909 322.677 236.585 324.855C237.389 327.453 238.379 329.996 239.406 332.897C240.469 329.981 241.412 327.376 242.369 324.782C242.753 323.744 245.801 322.94 246.502 323.729C246.74 323.996 246.736 324.526 246.736 324.935C246.754 328.278 246.725 331.622 246.758 334.961C246.765 335.89 246.623 336.408 245.483 336.405C244.372 336.398 244.003 336.069 244.036 334.947C244.105 332.353 244.058 329.758 243.703 327.08C242.815 329.616 241.92 332.148 241.036 334.684C240.718 335.594 240.553 336.452 239.158 336.423C237.806 336.397 237.765 335.499 237.488 334.684C236.684 332.331 235.909 329.963 235.124 327.602C234.258 327.869 234.711 328.578 234.682 329.071C234.539 331.487 234.868 333.916 234.488 336.328V336.332Z" fill="black"/>
<path d="M214.018 336.324C212.43 336.373 211.634 335.624 211.632 334.077C211.632 331.096 211.61 328.114 211.65 325.132C211.657 324.562 211.288 323.503 212.341 323.609C213.525 323.726 215.136 322.644 215.849 324.464C216.667 326.557 217.343 328.706 218.125 330.811C218.33 331.362 218.33 332.024 218.991 332.572C219.912 330.04 220.807 327.577 221.702 325.114C222.181 323.795 224.706 322.878 225.835 323.612C226.273 323.897 226.16 324.365 226.164 324.774C226.175 328.183 226.142 331.589 226.186 334.998C226.2 335.977 225.97 336.412 224.881 336.394C223.873 336.376 223.496 336.113 223.522 335.057C223.588 332.349 223.544 329.641 223.237 326.879C222.276 329.598 221.271 332.305 220.376 335.046C220.065 335.999 219.649 336.39 218.593 336.405C217.493 336.419 217.303 335.776 217.047 335.009C216.294 332.765 215.516 330.529 214.749 328.293C213.777 328.436 214.263 329.196 214.23 329.663C214.076 331.881 214.431 334.114 214.022 336.328L214.018 336.324Z" fill="black"/>
<path d="M272.77 326.685C272.77 329.791 272.745 332.374 272.785 334.954C272.799 335.889 272.642 336.394 271.517 336.397C270.417 336.401 270.216 335.966 270.231 334.998C270.278 331.837 270.212 328.673 270.278 325.512C270.293 324.855 269.686 323.704 270.918 323.598C272.021 323.503 273.253 323.093 274.14 324.511C275.807 327.175 277.678 329.703 279.771 332.732C279.771 329.784 279.808 327.332 279.753 324.884C279.731 323.894 279.979 323.503 281.057 323.499C282.197 323.492 282.325 324.01 282.314 324.939C282.278 328.041 282.336 331.139 282.274 334.241C282.26 334.936 282.83 336.065 281.759 336.266C280.597 336.485 279.318 336.737 278.441 335.232C277.002 332.769 275.324 330.449 273.742 328.07C273.523 327.737 273.289 327.416 272.774 326.678L272.77 326.685Z" fill="black"/>
<path d="M192.789 329.959C192.789 326.083 195.679 323.258 199.654 323.247C203.641 323.24 206.484 326.05 206.458 329.985C206.432 333.935 203.648 336.642 199.592 336.661C195.562 336.679 192.789 333.95 192.789 329.959V329.959Z" fill="black"/>
<path d="M252.629 328.114C252.629 327.08 252.677 326.042 252.615 325.012C252.553 323.974 252.798 323.502 253.996 323.495C255.264 323.488 255.344 324.083 255.322 325.055C255.279 327.061 255.268 329.071 255.326 331.077C255.395 333.302 256.528 334.453 258.534 334.475C260.511 334.497 261.494 333.529 261.596 331.234C261.691 329.108 261.691 326.977 261.644 324.851C261.618 323.798 262.002 323.495 263.021 323.51C263.979 323.524 264.468 323.689 264.424 324.807C264.344 326.996 264.472 329.188 264.37 331.373C264.205 334.914 262.064 336.73 258.311 336.66C254.639 336.591 252.735 334.775 252.633 331.216C252.604 330.182 252.629 329.148 252.626 328.114H252.629Z" fill="black"/>
<path d="M188.422 332.356C187.308 335.74 184.355 337.249 180.734 336.507C177.259 335.798 175.356 333.182 175.582 329.437C175.798 325.914 178.345 323.473 182.035 323.254C185.345 323.057 187.841 324.705 188.353 327.467C187.077 327.635 185.981 327.76 185.002 326.451C184.099 325.246 182.579 325.183 181.14 325.633C179.422 326.166 178.48 327.606 178.418 329.729C178.355 331.91 179.24 333.599 180.902 334.198C182.653 334.826 184.289 334.666 185.448 333.003C186.241 331.863 187.315 332.55 188.418 332.356H188.422Z" fill="black"/>
<path d="M311.26 323.755C313.552 323.079 314.871 323.792 315.766 325.67C316.332 326.861 317.187 327.917 317.973 329.126C319.113 328.005 319.855 326.671 320.552 325.37C321.448 323.708 322.65 323.185 324.645 323.729C323.567 325.308 322.61 326.908 321.459 328.355C319.887 330.328 318.846 332.404 319.281 335.009C319.442 335.981 319.091 336.39 318.006 336.405C316.866 336.42 316.424 336.051 316.603 334.951C317.019 332.419 316.022 330.387 314.494 328.458C313.34 327 312.375 325.396 311.257 323.759L311.26 323.755Z" fill="black"/>
<path d="M301.574 323.543C303.156 323.543 304.738 323.572 306.317 323.532C307.143 323.51 307.512 323.744 307.515 324.653C307.523 325.585 307.113 325.724 306.31 325.764C302.82 325.932 302.824 325.954 302.824 329.473C302.824 331.358 302.78 333.248 302.842 335.129C302.871 336.079 302.568 336.43 301.603 336.386C300.748 336.346 300.08 336.397 300.112 335.184C300.186 332.509 300.083 329.831 300.156 327.156C300.186 326.02 299.791 325.622 298.691 325.735C298.03 325.804 297.354 325.713 296.685 325.757C295.881 325.808 295.468 325.614 295.479 324.672C295.49 323.784 295.797 323.51 296.652 323.535C298.293 323.583 299.937 323.55 301.578 323.55L301.574 323.543Z" fill="black"/>
<path d="M288.219 329.933C288.219 328.168 288.27 326.4 288.201 324.639C288.157 323.524 288.796 323.51 289.589 323.528C290.331 323.546 291.054 323.426 291.04 324.58C291 328.172 291.003 331.76 291.04 335.352C291.051 336.536 290.269 336.328 289.556 336.371C288.723 336.423 288.157 336.306 288.201 335.228C288.27 333.467 288.219 331.698 288.219 329.933V329.933Z" fill="black"/>
<path d="M234.487 336.331V326.451C235.013 326.831 235.098 327.2 235.123 327.606C234.582 329.751 235.061 331.932 234.9 334.092C234.845 334.852 235.119 335.677 234.487 336.335V336.331Z" fill="#8BAA73"/>
<path d="M214.018 336.324V326.678C214.621 327.266 214.745 327.752 214.745 328.289C214.036 330.05 214.57 331.885 214.416 333.679C214.34 334.57 214.61 335.509 214.018 336.321V336.324Z" fill="#7A9D5F"/>
<path d="M292.838 281.943C292.838 286.81 292.812 291.681 292.856 296.548C292.867 297.669 292.6 298.031 291.402 297.867C282.114 296.599 272.767 295.941 263.405 295.521C262.148 295.466 261.768 295.134 261.779 293.855C261.845 287.647 261.772 281.439 261.838 275.231C261.852 273.919 261.571 273.444 260.146 273.462C253.452 273.539 246.758 273.535 240.064 273.466C238.73 273.451 238.467 273.908 238.478 275.132C238.533 281.278 238.467 287.427 238.533 293.573C238.548 294.914 238.299 295.433 236.783 295.477C227.472 295.74 218.195 296.504 208.958 297.669C207.763 297.819 207.398 297.615 207.405 296.347C207.467 286.854 207.471 277.357 207.449 267.864C207.449 266.907 207.741 266.322 208.53 265.767C222.302 256.055 236.059 246.324 249.787 236.553C250.759 235.863 251.369 235.929 252.305 236.612C265.411 246.207 278.544 255.766 291.694 265.303C292.578 265.942 292.937 266.607 292.922 267.703C292.864 272.45 292.896 277.196 292.896 281.943H292.838V281.943Z" fill="white"/>
<path d="M231.992 394.613C232.032 397.485 231.656 400.119 230.424 402.556C229.025 405.33 226.836 406.926 223.613 406.868C220.515 406.813 218.461 405.158 217.263 402.472C215.085 397.587 214.913 392.577 216.989 387.623C218.249 384.615 220.434 382.639 223.946 382.693C227.457 382.748 229.492 384.824 230.757 387.835C231.685 390.045 232.032 392.384 231.988 394.613H231.992Z" fill="white"/>
<path d="M290.247 359.362C290.126 361.613 289.896 363.838 288.924 365.918C287.715 368.505 285.786 370.058 282.851 370.09C279.961 370.123 278.014 368.596 276.903 366.064C275.017 361.763 274.835 357.338 276.614 352.968C277.74 350.206 279.676 348.317 282.939 348.353C285.782 348.386 287.934 350.027 289.154 353.118C289.947 355.124 290.159 357.232 290.251 359.359L290.247 359.362Z" fill="white"/>
<path d="M187.217 351.594C188.923 354.313 189.902 357.178 190.976 359.999C191.229 360.66 190.914 360.857 190.282 360.85C188.273 360.832 186.263 360.824 184.257 360.85C183.351 360.865 183.252 360.532 183.555 359.75C184.611 357.028 185.751 354.35 187.217 351.591V351.594Z" fill="white"/>
<path d="M195.668 329.835C195.694 327.153 197.323 325.37 199.687 325.435C202.048 325.501 203.626 327.328 203.615 329.985C203.604 332.67 202.004 334.486 199.658 334.475C197.221 334.468 195.646 332.634 195.672 329.831L195.668 329.835Z" fill="white"/>
</svg>
