<svg width="500" height="500" viewBox="0 0 500 500" fill="none" xmlns="http://www.w3.org/2000/svg">
<rect width="500" height="500" fill="#2D95BF"/>
<path d="M365.993 393.898H134.019C133.858 393.818 133.704 393.741 133.511 393.719C119.684 392.357 111.759 383.843 107.052 371.628C106.015 368.938 106.091 365.917 106.091 363.023C106.066 287.748 106.157 212.472 106 137.201C105.967 121.851 117.254 110.82 128.286 107.103C130.686 106.296 133.28 106.373 135.809 106.212C136.624 106.212 137.435 106.212 138.25 106.212C212.812 106.212 287.379 106.212 361.937 106.212C362.694 106.212 363.45 106.212 364.203 106.212C372.132 106.015 378.665 109.168 384.318 114.514C387.672 117.685 390.23 121.365 392.148 125.563C393.252 127.978 393.15 130.58 393.749 133.061V367.597C393.321 371.869 391.973 375.793 389.602 379.4C385.495 385.648 379.984 390.131 373.009 392.78C370.769 393.632 368.31 393.409 365.986 393.898H365.993Z" fill="white"/>
<path d="M362.354 106.337C361.868 106.355 361.382 106.392 360.896 106.392C287.09 106.392 213.284 106.392 139.477 106.392C138.992 106.392 138.506 106.355 138.02 106.333C137.767 106.22 137.775 106.118 138.034 106.026H362.339C362.599 106.118 362.606 106.22 362.354 106.333V106.337Z" fill="white"/>
<path d="M362.354 106.336C362.347 106.234 362.343 106.132 362.339 106.029H364.532C364.532 106.132 364.539 106.238 364.546 106.34H362.354V106.336Z" fill="#E0E8D9"/>
<path d="M138.034 106.029C138.03 106.132 138.027 106.234 138.02 106.336H135.827C135.834 106.234 135.838 106.132 135.842 106.029H138.034V106.029Z" fill="white"/>
<path d="M198.869 205.629C195.397 208.088 192.262 210.372 189.058 212.553C185.985 214.647 182.148 213.039 181.681 209.484C181.406 207.39 182.437 205.918 184.114 204.734C193.903 197.813 203.67 190.856 213.444 183.917C225.55 175.319 237.67 166.736 249.754 158.102C250.74 157.397 251.358 157.316 252.395 158.076C273.596 173.628 294.829 189.135 316.062 204.642C317.165 205.45 318.159 206.316 318.495 207.712C318.967 209.663 318.243 211.625 316.661 212.699C315.075 213.777 313.029 213.803 311.352 212.623C308.615 210.697 305.933 208.691 303.218 206.732C302.74 206.385 302.327 205.907 301.676 205.819C301.19 206.195 301.406 206.722 301.406 207.171C301.377 215.023 301.399 222.879 301.322 230.732C301.311 232.032 301.797 232.314 302.963 232.496C312.284 233.958 321.521 235.789 330.433 238.99C331.175 239.256 331.946 239.483 332.64 239.845C333.952 240.524 334.427 241.631 333.952 243.053C333.484 244.452 332.505 244.785 331.072 244.54C303.836 239.856 276.38 237.66 248.76 237.623C222.66 237.59 196.72 239.64 170.996 244.16C170.456 244.255 169.915 244.343 169.389 244.492C167.938 244.905 166.853 244.533 166.312 243.056C165.8 241.661 166.436 240.32 167.978 239.702C171.709 238.211 175.578 237.137 179.459 236.118C185.345 234.572 191.301 233.362 197.308 232.391C198.072 232.266 198.883 232.288 198.88 231.093C198.85 222.759 198.865 214.428 198.865 205.629H198.869Z" fill="black"/>
<path d="M190.76 328.073C189.24 328.073 187.713 328.124 186.197 328.054C185.133 328.003 184.677 328.277 184.713 329.454C184.794 332.129 184.764 334.811 184.728 337.489C184.713 338.486 184.932 339.265 185.904 339.736C186.536 340.043 187.022 340.522 186.781 341.333C186.577 342.016 185.988 342.305 185.378 342.312C182.459 342.352 179.536 342.352 176.616 342.312C176.006 342.305 175.41 342.02 175.213 341.337C174.983 340.533 175.443 340.065 176.104 339.762C177.018 339.338 177.23 338.585 177.226 337.664C177.215 331.091 177.215 324.517 177.226 317.94C177.226 317.016 177.003 316.274 176.093 315.854C175.432 315.547 175.008 315.054 175.202 314.261C175.374 313.556 175.973 313.263 176.576 313.256C179.557 313.219 182.539 313.223 185.517 313.278C186.131 313.289 186.697 313.647 186.821 314.359C186.942 315.057 186.617 315.562 185.981 315.799C184.936 316.19 184.724 316.979 184.739 317.977C184.768 319.924 184.775 321.872 184.731 323.82C184.713 324.678 185.013 325 185.882 324.989C189.109 324.956 192.335 324.956 195.562 324.989C196.468 325 196.884 324.748 196.852 323.754C196.789 321.806 196.819 319.859 196.837 317.911C196.844 316.972 196.523 316.263 195.638 315.847C194.977 315.536 194.528 315.057 194.729 314.264C194.904 313.577 195.496 313.263 196.106 313.256C199.088 313.219 202.066 313.219 205.047 313.274C205.65 313.285 206.231 313.621 206.356 314.345C206.472 315.043 206.162 315.536 205.53 315.799C204.452 316.249 204.225 317.125 204.225 318.174C204.233 324.565 204.236 330.956 204.222 337.35C204.222 338.402 204.485 339.261 205.504 339.758C206.092 340.047 206.491 340.492 206.352 341.209C206.195 342.013 205.537 342.301 204.861 342.312C202 342.36 199.139 342.356 196.282 342.323C195.598 342.316 194.933 342.042 194.729 341.282C194.509 340.471 195.006 340.061 195.675 339.751C196.563 339.334 196.819 338.534 196.822 337.635C196.833 334.836 196.808 332.034 196.848 329.235C196.859 328.372 196.567 328.04 195.693 328.065C194.053 328.109 192.408 328.08 190.764 328.076L190.76 328.073Z" fill="black"/>
<path d="M239.983 327.777C239.954 336.371 232.686 343.054 223.474 342.952C214.34 342.853 207.518 336.251 207.616 327.606C207.715 318.975 214.709 312.485 223.807 312.584C233.23 312.686 240.009 319.052 239.983 327.777Z" fill="black"/>
<path d="M284.788 342.948C282.029 342.879 279.318 342.561 276.815 341.29C275.039 340.387 273.534 339.178 272.719 337.292C272.193 336.072 272.142 334.837 273.391 334.044C274.703 333.207 275.77 333.883 276.471 335.019C278.061 337.599 280.177 339.335 283.271 339.696C285.332 339.934 287.298 339.667 289.03 338.476C291.723 336.623 291.453 333.313 288.508 331.932C286.728 331.099 284.777 330.854 282.895 330.368C281.66 330.05 280.414 329.758 279.208 329.345C276.183 328.314 273.958 326.495 273.567 323.1C273.15 319.479 274.59 316.611 277.586 314.685C281.777 311.989 286.374 312.266 290.992 313.319C291.584 313.454 292.158 313.666 292.728 313.874C295.717 314.963 296.627 316.677 295.896 319.819C295.593 321.127 294.372 321.507 293.429 320.506C292.812 319.848 292.395 319.008 291.855 318.273C289.896 315.599 286.195 314.63 283.213 316.008C281.857 316.636 280.907 317.575 280.849 319.179C280.79 320.791 281.671 321.803 282.997 322.494C284.634 323.345 286.454 323.626 288.215 324.087C289.626 324.456 291.065 324.752 292.428 325.249C298.362 327.415 299.981 333.616 295.925 338.509C293.492 341.447 289.553 343.018 284.781 342.941L284.788 342.948Z" fill="black"/>
<path d="M311.813 342.353C308.466 342.353 305.119 342.356 301.772 342.349C300.968 342.349 300.124 342.29 299.784 341.392C299.4 340.376 300.178 339.988 300.891 339.608C301.651 339.203 301.768 338.498 301.768 337.741C301.768 331.047 301.768 324.353 301.779 317.656C301.779 316.779 301.56 316.106 300.628 315.836C299.956 315.639 299.608 315.145 299.681 314.462C299.766 313.669 300.376 313.358 301.074 313.238C301.49 313.168 301.921 313.176 302.349 313.176C308.374 313.176 314.4 313.165 320.425 313.176C322.986 313.183 324.715 316.201 323.399 318.412C322.742 319.515 321.594 319.468 320.94 318.631C318.335 315.299 314.758 316.088 311.345 316.179C309.942 316.216 309.134 316.895 309.248 318.503C309.364 320.199 309.306 321.912 309.262 323.615C309.237 324.503 309.448 324.96 310.464 324.92C312.225 324.85 313.994 324.883 315.759 324.894C316.731 324.898 317.484 324.47 318.233 323.893C319.384 323.001 320.209 323.473 320.524 324.744C320.721 325.555 320.688 326.436 320.662 327.284C320.586 329.578 319.687 330.053 317.721 328.829C315.967 327.737 314.041 328.256 312.193 328.204C309.28 328.124 309.273 328.183 309.284 331.047C309.288 332.874 309.324 334.698 309.332 336.525C309.339 338.096 310.037 339.097 311.655 339.25C315.434 339.608 319.252 340.153 321.993 336.495C322.537 335.772 323.381 335.242 324.4 335.768C325.497 336.331 325.153 337.321 325.014 338.191C324.908 338.845 324.579 339.459 324.448 340.109C324.097 341.852 323.074 342.451 321.313 342.389C318.152 342.276 314.984 342.356 311.82 342.356L311.813 342.353Z" fill="black"/>
<path d="M297.365 292.114C297.372 299.864 290.992 305.842 282.698 305.857C274.425 305.875 268.286 300.032 268.297 292.154C268.308 284.342 274.557 278.474 282.811 278.529C291.197 278.584 297.357 284.331 297.368 292.114H297.365Z" fill="black"/>
<path d="M243.783 324.893C243.783 322.643 243.78 320.395 243.783 318.145C243.783 317.14 243.765 316.182 242.526 315.832C241.836 315.634 241.62 315.072 241.719 314.388C241.825 313.657 242.395 313.288 242.994 313.281C246.155 313.226 249.319 313.226 252.48 313.274C253.086 313.281 253.671 313.628 253.781 314.352C253.89 315.068 253.481 315.532 252.86 315.744C251.541 316.193 251.234 317.165 251.164 318.44C250.901 323.3 250.477 328.164 250.89 333.027C251.365 338.588 255.856 341.354 261.092 339.378C263.909 338.314 264.863 335.917 265.17 333.184C265.561 329.72 265.17 326.256 265.031 322.792C264.973 321.393 264.779 319.997 264.816 318.601C264.848 317.246 264.549 316.23 263.16 315.718C262.561 315.495 262.145 315.009 262.298 314.29C262.448 313.577 263.036 313.288 263.65 313.27C265.473 313.212 267.3 313.204 269.124 313.252C269.807 313.27 270.465 313.548 270.596 314.363C270.713 315.09 270.264 315.547 269.668 315.762C268.206 316.296 268.1 317.406 268.199 318.718C268.506 322.844 268.886 326.965 268.839 331.112C268.747 338.731 265.309 342.359 257.683 342.893C255.911 343.017 254.142 342.962 252.407 342.67C246.725 341.716 243.641 338.051 243.316 331.832C243.195 329.527 243.297 327.214 243.297 324.901H243.791L243.783 324.893Z" fill="black"/>
<path d="M304.289 286.045C304.289 291.332 304.289 296.133 304.289 300.931C304.289 301.994 304.885 302.593 305.82 302.962C306.419 303.2 306.902 303.58 306.781 304.325C306.657 305.1 306.017 305.239 305.403 305.254C303.642 305.29 301.877 305.297 300.116 305.257C299.517 305.243 298.856 305.151 298.709 304.366C298.574 303.635 298.965 303.189 299.608 302.984C300.891 302.579 301.176 301.625 301.172 300.427C301.154 295.191 301.165 289.958 301.158 284.722C301.158 283.195 301 281.766 299.082 281.393C298.465 281.273 298.209 280.75 298.297 280.133C298.388 279.486 298.848 279.19 299.451 279.183C301.764 279.164 304.077 279.15 306.386 279.19C307.263 279.204 307.749 279.939 308.279 280.509C311.97 284.503 314.875 289.088 318.053 293.47C318.423 293.981 318.616 294.675 319.497 294.997C319.497 290.974 319.515 287.05 319.482 283.129C319.475 282.219 318.759 281.773 317.991 281.463C317.374 281.211 316.932 280.838 317.034 280.103C317.14 279.321 317.743 279.172 318.382 279.168C320.209 279.153 322.033 279.157 323.86 279.179C324.433 279.186 324.967 279.365 325.098 280.03C325.237 280.739 324.908 281.225 324.232 281.422C322.731 281.857 322.606 283.008 322.61 284.305C322.628 290.513 322.632 296.722 322.603 302.933C322.599 303.839 323.005 305.122 321.696 305.403C320.304 305.699 318.916 305.845 317.849 304.26C313.914 298.399 309.704 292.731 305.33 287.188C305.111 286.914 304.855 286.666 304.289 286.048V286.045Z" fill="black"/>
<path d="M187.245 296.817C186.515 296.817 185.784 296.817 185.053 296.817C182.075 296.817 180.603 298.432 180.727 301.461C180.763 302.349 181.286 302.74 181.918 303.139C182.349 303.413 182.667 303.782 182.561 304.344C182.437 305.013 181.907 305.214 181.344 305.232C179.704 305.276 178.063 305.294 176.426 305.269C175.878 305.261 175.326 305.108 175.184 304.421C175.071 303.877 175.246 303.398 175.703 303.16C176.883 302.55 177.109 301.403 177.442 300.303C179.532 293.412 182.517 286.904 185.875 280.55C186.617 279.143 187.669 278.811 189.142 278.781C190.582 278.752 191.338 279.348 191.974 280.561C195.317 286.926 197.984 293.576 200.396 300.336C200.783 301.421 201.116 302.455 202.172 303.201C203.129 303.873 202.855 305.02 201.701 305.166C198.982 305.506 196.234 305.499 193.516 305.174C192.295 305.028 192.018 303.994 193.011 303.299C193.969 302.631 193.998 301.962 193.731 300.975C192.613 296.825 192.635 296.817 188.342 296.817C187.976 296.817 187.611 296.817 187.245 296.817V296.817Z" fill="black"/>
<path d="M215.272 305.857C209.447 305.849 203.816 301.877 202.296 296.013C200.272 288.186 205.83 280.18 214.212 278.817C218.275 278.156 222.075 278.806 225.587 280.969C226.822 281.729 227.662 285.599 226.84 286.761C226.19 287.678 225.302 287.751 224.512 286.977C224.099 286.571 223.866 285.964 223.614 285.416C221.491 280.878 216.064 279.8 212.37 283.195C208.157 287.064 207.894 296.323 211.881 300.427C214.617 303.244 219.368 303.445 222.707 300.858C223.57 300.189 224.359 299.422 225.229 298.764C225.806 298.329 226.504 298.264 227.081 298.764C227.673 299.279 227.604 299.944 227.271 300.598C226.274 302.557 224.538 303.646 222.634 304.519C220.617 305.447 218.487 305.878 215.272 305.853V305.857Z" fill="black"/>
<path d="M244.675 292.278C244.675 295.077 244.697 297.876 244.664 300.675C244.653 301.713 244.766 302.604 245.87 303.079C246.341 303.284 246.623 303.697 246.539 304.259C246.44 304.921 245.954 305.188 245.38 305.228C242.651 305.421 239.914 305.421 237.185 305.228C236.593 305.184 236.136 304.848 236.03 304.234C235.931 303.675 236.289 303.269 236.746 303.079C237.787 302.648 237.941 301.793 237.941 300.843C237.945 295.125 237.919 289.406 237.959 283.688C237.97 282.146 237.301 281.616 235.84 281.791C234.247 281.981 232.968 282.705 231.905 283.87C231.349 284.481 230.681 285.01 229.833 284.594C228.934 284.152 229.175 283.293 229.288 282.5C229.774 279.142 229.782 279.124 233.114 279.124C238.895 279.124 244.671 279.117 250.452 279.131C252.484 279.135 254.373 282.449 253.244 284.13C252.48 285.266 251.537 284.751 250.806 283.976C249.634 282.738 248.296 281.897 246.546 281.78C245.256 281.696 244.635 282.127 244.664 283.523C244.726 286.443 244.682 289.362 244.682 292.285L244.675 292.278Z" fill="black"/>
<path d="M261.045 279.146C262.32 279.146 263.595 279.132 264.87 279.154C265.502 279.165 266.105 279.325 266.292 280.045C266.452 280.663 266.167 281.112 265.616 281.379C264.567 281.887 264.435 282.797 264.439 283.827C264.457 289.476 264.457 295.125 264.439 300.774C264.439 301.757 264.604 302.568 265.597 303.029C266.135 303.277 266.445 303.712 266.303 304.355C266.156 305.009 265.627 305.243 265.079 305.25C262.411 305.279 259.74 305.272 257.073 305.239C256.492 305.232 256.009 304.925 255.874 304.3C255.735 303.653 256.119 303.252 256.649 303.014C257.672 302.561 257.785 301.68 257.785 300.738C257.785 294.968 257.782 289.198 257.785 283.425C257.785 282.512 257.632 281.741 256.605 281.43C255.984 281.244 255.746 280.739 255.863 280.144C255.98 279.548 256.426 279.194 257.036 279.183C258.37 279.157 259.707 279.176 261.041 279.176V279.143L261.045 279.146Z" fill="black"/>
<path d="M234.488 269.332C232.749 269.661 232.014 269.16 232.149 267.187C232.347 264.282 232.164 261.355 232.23 258.439C232.244 257.789 231.678 256.568 232.957 256.609C234.214 256.649 235.909 255.677 236.585 257.855C237.389 260.453 238.379 262.996 239.406 265.897C240.469 262.981 241.412 260.376 242.369 257.782C242.753 256.744 245.801 255.94 246.502 256.729C246.74 256.996 246.736 257.526 246.736 257.935C246.754 261.278 246.725 264.622 246.758 267.961C246.765 268.89 246.623 269.408 245.483 269.405C244.372 269.398 244.003 269.069 244.036 267.947C244.105 265.353 244.058 262.758 243.703 260.08C242.815 262.616 241.92 265.148 241.036 267.684C240.718 268.594 240.553 269.452 239.158 269.423C237.806 269.397 237.765 268.499 237.488 267.684C236.684 265.331 235.909 262.963 235.124 260.602C234.258 260.869 234.711 261.578 234.682 262.071C234.539 264.487 234.868 266.916 234.488 269.328V269.332Z" fill="black"/>
<path d="M214.018 269.324C212.43 269.373 211.634 268.624 211.632 267.077C211.632 264.096 211.61 261.114 211.65 258.132C211.657 257.562 211.288 256.503 212.341 256.609C213.525 256.726 215.136 255.644 215.849 257.464C216.667 259.557 217.343 261.706 218.125 263.811C218.33 264.362 218.33 265.024 218.991 265.572C219.912 263.04 220.807 260.577 221.702 258.114C222.181 256.795 224.706 255.878 225.835 256.612C226.273 256.897 226.16 257.365 226.164 257.774C226.175 261.183 226.142 264.589 226.186 267.998C226.2 268.977 225.97 269.412 224.881 269.394C223.873 269.376 223.496 269.113 223.522 268.057C223.588 265.349 223.544 262.641 223.237 259.879C222.276 262.598 221.271 265.305 220.376 268.046C220.065 268.999 219.649 269.39 218.593 269.405C217.493 269.419 217.303 268.776 217.047 268.009C216.294 265.765 215.516 263.529 214.749 261.293C213.777 261.436 214.263 262.196 214.23 262.663C214.076 264.881 214.431 267.114 214.022 269.328L214.018 269.324Z" fill="black"/>
<path d="M272.77 259.685C272.77 262.791 272.745 265.374 272.785 267.954C272.799 268.889 272.642 269.394 271.517 269.397C270.417 269.401 270.216 268.966 270.231 267.998C270.278 264.837 270.212 261.673 270.278 258.512C270.293 257.855 269.686 256.704 270.918 256.598C272.021 256.503 273.253 256.093 274.14 257.511C275.807 260.175 277.678 262.703 279.771 265.732C279.771 262.784 279.808 260.332 279.753 257.884C279.731 256.894 279.979 256.503 281.057 256.499C282.197 256.492 282.325 257.01 282.314 257.939C282.278 261.041 282.336 264.139 282.274 267.241C282.26 267.936 282.83 269.065 281.759 269.266C280.597 269.485 279.318 269.737 278.441 268.232C277.002 265.769 275.324 263.449 273.742 261.07C273.523 260.737 273.289 260.416 272.774 259.678L272.77 259.685Z" fill="black"/>
<path d="M192.789 262.959C192.789 259.083 195.679 256.258 199.654 256.247C203.641 256.24 206.484 259.05 206.458 262.985C206.432 266.935 203.648 269.642 199.592 269.661C195.562 269.679 192.789 266.95 192.789 262.959V262.959Z" fill="black"/>
<path d="M252.629 261.114C252.629 260.08 252.677 259.042 252.615 258.012C252.553 256.974 252.798 256.502 253.996 256.495C255.264 256.488 255.344 257.083 255.322 258.055C255.279 260.061 255.268 262.071 255.326 264.077C255.395 266.302 256.528 267.453 258.534 267.475C260.511 267.497 261.494 266.529 261.596 264.234C261.691 262.108 261.691 259.977 261.644 257.851C261.618 256.798 262.002 256.495 263.021 256.51C263.979 256.524 264.468 256.689 264.424 257.807C264.344 259.996 264.472 262.188 264.37 264.373C264.205 267.914 262.064 269.73 258.311 269.66C254.639 269.591 252.735 267.775 252.633 264.216C252.604 263.182 252.629 262.148 252.626 261.114H252.629Z" fill="black"/>
<path d="M188.422 265.356C187.308 268.74 184.355 270.249 180.734 269.507C177.259 268.798 175.356 266.182 175.582 262.437C175.798 258.914 178.345 256.473 182.035 256.254C185.345 256.057 187.841 257.705 188.353 260.467C187.077 260.635 185.981 260.76 185.002 259.451C184.099 258.246 182.579 258.183 181.14 258.633C179.422 259.166 178.48 260.606 178.418 262.729C178.355 264.91 179.24 266.599 180.902 267.198C182.653 267.826 184.289 267.666 185.448 266.003C186.241 264.863 187.315 265.55 188.418 265.356H188.422Z" fill="black"/>
<path d="M311.26 256.755C313.552 256.079 314.871 256.792 315.766 258.67C316.332 259.861 317.187 260.917 317.973 262.126C319.113 261.005 319.855 259.671 320.552 258.37C321.448 256.708 322.65 256.185 324.645 256.729C323.567 258.308 322.61 259.908 321.459 261.355C319.887 263.328 318.846 265.404 319.281 268.009C319.442 268.981 319.091 269.39 318.006 269.405C316.866 269.42 316.424 269.051 316.603 267.951C317.019 265.419 316.022 263.387 314.494 261.458C313.34 260 312.375 258.396 311.257 256.759L311.26 256.755Z" fill="black"/>
<path d="M301.574 256.543C303.156 256.543 304.738 256.572 306.317 256.532C307.143 256.51 307.512 256.744 307.515 257.653C307.523 258.585 307.113 258.724 306.31 258.764C302.82 258.932 302.824 258.954 302.824 262.473C302.824 264.358 302.78 266.248 302.842 268.129C302.871 269.079 302.568 269.43 301.603 269.386C300.748 269.346 300.08 269.397 300.112 268.184C300.186 265.509 300.083 262.831 300.156 260.156C300.186 259.02 299.791 258.622 298.691 258.735C298.03 258.804 297.354 258.713 296.685 258.757C295.881 258.808 295.468 258.614 295.479 257.672C295.49 256.784 295.797 256.51 296.652 256.535C298.293 256.583 299.937 256.55 301.578 256.55L301.574 256.543Z" fill="black"/>
<path d="M288.219 262.933C288.219 261.168 288.27 259.4 288.201 257.639C288.157 256.524 288.796 256.51 289.589 256.528C290.331 256.546 291.054 256.426 291.04 257.58C291 261.172 291.003 264.76 291.04 268.352C291.051 269.536 290.269 269.328 289.556 269.371C288.723 269.423 288.157 269.306 288.201 268.228C288.27 266.467 288.219 264.698 288.219 262.933V262.933Z" fill="black"/>
<path d="M234.487 269.331V259.451C235.013 259.831 235.098 260.2 235.123 260.606C234.582 262.751 235.061 264.932 234.9 267.092C234.845 267.852 235.119 268.677 234.487 269.335V269.331Z" fill="#8BAA73"/>
<path d="M214.018 269.324V259.678C214.621 260.266 214.745 260.752 214.745 261.289C214.036 263.05 214.57 264.885 214.416 266.679C214.34 267.57 214.61 268.509 214.018 269.321V269.324Z" fill="#7A9D5F"/>
<path d="M292.838 214.943C292.838 219.81 292.812 224.681 292.856 229.548C292.867 230.669 292.6 231.031 291.402 230.867C282.114 229.599 272.767 228.941 263.405 228.521C262.148 228.466 261.768 228.134 261.779 226.855C261.845 220.647 261.772 214.439 261.838 208.231C261.852 206.919 261.571 206.444 260.146 206.462C253.452 206.539 246.758 206.535 240.064 206.466C238.73 206.451 238.467 206.908 238.478 208.132C238.533 214.278 238.467 220.427 238.533 226.573C238.548 227.914 238.299 228.433 236.783 228.477C227.472 228.74 218.195 229.504 208.958 230.669C207.763 230.819 207.398 230.615 207.405 229.347C207.467 219.854 207.471 210.357 207.449 200.864C207.449 199.907 207.741 199.322 208.53 198.767C222.302 189.055 236.059 179.324 249.787 169.553C250.759 168.863 251.369 168.929 252.305 169.612C265.411 179.207 278.544 188.766 291.694 198.303C292.578 198.942 292.937 199.607 292.922 200.703C292.864 205.45 292.896 210.196 292.896 214.943H292.838V214.943Z" fill="white"/>
<path d="M231.992 327.613C232.032 330.485 231.656 333.119 230.424 335.556C229.025 338.33 226.836 339.926 223.613 339.868C220.515 339.813 218.461 338.158 217.263 335.472C215.085 330.587 214.913 325.577 216.989 320.623C218.249 317.615 220.434 315.639 223.946 315.693C227.457 315.748 229.492 317.824 230.757 320.835C231.685 323.045 232.032 325.384 231.988 327.613H231.992Z" fill="white"/>
<path d="M290.247 292.362C290.126 294.613 289.896 296.838 288.924 298.918C287.715 301.505 285.786 303.058 282.851 303.09C279.961 303.123 278.014 301.596 276.903 299.064C275.017 294.763 274.835 290.338 276.614 285.968C277.74 283.206 279.676 281.317 282.939 281.353C285.782 281.386 287.934 283.027 289.154 286.118C289.947 288.124 290.159 290.232 290.251 292.359L290.247 292.362Z" fill="white"/>
<path d="M187.217 284.594C188.923 287.313 189.902 290.178 190.976 292.999C191.229 293.66 190.914 293.857 190.282 293.85C188.273 293.832 186.263 293.824 184.257 293.85C183.351 293.865 183.252 293.532 183.555 292.75C184.611 290.028 185.751 287.35 187.217 284.591V284.594Z" fill="white"/>
<path d="M195.668 262.835C195.694 260.153 197.323 258.37 199.687 258.435C202.048 258.501 203.626 260.328 203.615 262.985C203.604 265.67 202.004 267.486 199.658 267.475C197.221 267.468 195.646 265.634 195.672 262.831L195.668 262.835Z" fill="white"/>
</svg>
