<svg width="533" height="213" viewBox="0 0 533 213" fill="none" xmlns="http://www.w3.org/2000/svg">
<path d="M11.4379 186.236H26.0969L18.7674 164.914L16.1021 161.582L15.7689 158.028H22.5432L38.0906 201.561H31.3164L27.8737 191.344H9.66101L9.2168 189.012L11.4379 186.236Z" fill="white"/>
<path d="M9.66162 191.344L6.21898 201.561H0L15.7695 158.028L19.7675 162.026L18.768 164.914L11.4385 186.236L12.7711 189.012L9.66162 191.344Z" fill="white"/>
<path d="M71.5176 196.342H84.2887H85.1771H86.1766L86.6208 196.231L87.065 196.12L87.3982 196.009L87.8424 195.898L88.1755 195.786L88.5087 195.675L88.9529 195.453L89.2861 195.342L89.5082 195.12L89.8413 194.898L90.1745 194.676L90.3966 194.454L90.7298 194.232L90.9519 194.01L91.174 193.676L91.3961 193.454L91.5071 193.121L91.7292 192.788L91.8403 192.566L92.0624 192.122L92.1735 191.789L92.2846 191.455L92.3956 191.122V190.678L92.5067 190.345V189.901L92.6177 189.456V189.012V188.568L92.5067 188.124V187.68L92.3956 187.346V186.902L92.2846 186.569L92.1735 186.125L92.0624 185.792L91.8403 185.459L91.7292 185.125L91.5071 184.903L91.285 184.57L91.0629 184.348L90.8408 184.015L90.6187 183.793L90.3966 183.571L90.0635 183.349L89.7303 183.126L89.3971 182.904L89.064 182.793L88.7308 182.571L88.3977 182.46L87.9535 182.238L87.6203 182.127L87.1761 182.016L86.7319 181.905H86.2877L85.7324 181.794L84.844 181.683H83.7334H71.5176L70.296 179.017L71.5176 176.574H83.4003H84.2887L85.0661 176.463L85.8434 176.352L86.5098 176.13L86.7319 176.019L87.065 175.908L87.3982 175.797L87.6203 175.575L87.9535 175.464L88.1756 175.242L88.3977 175.131L88.6198 174.908L88.8419 174.686L89.064 174.464L89.175 174.242L89.3971 173.909L89.5082 173.687L89.7303 173.354V173.021L89.9524 172.798L90.0635 172.021L90.1745 171.355L90.2856 170.577V169.689V168.912L90.1745 168.134V167.801L90.0635 167.468L89.9524 167.135L89.8413 166.802L89.7303 166.468L89.6192 166.246L89.3971 165.913L89.286 165.691L89.0639 165.358L88.8418 165.136L88.7308 165.025L88.3976 164.692L88.1755 164.58L87.9534 164.358L87.6202 164.247L87.3981 164.025L87.065 163.914L86.7318 163.803L86.3987 163.692L86.0655 163.581L85.2881 163.359L84.3997 163.248L83.5113 163.137H82.5118H71.5175L67.9638 162.359L65.1875 158.028H82.5118H83.4002L84.1776 158.139H85.066L85.8434 158.25L86.5097 158.361L87.2871 158.473L87.9534 158.584L88.6197 158.806L89.286 159.028L89.9524 159.25L90.5076 159.472L91.0629 159.694L91.6182 160.027L92.0624 160.249L92.6176 160.583L93.0619 161.027L93.5061 161.36L93.9503 161.693L94.2834 162.137L94.6166 162.582L94.9497 163.026L95.2829 163.581L95.505 164.025L95.7271 164.58L95.9492 165.136L96.1713 165.691L96.2824 166.246L96.3934 166.913L96.5045 167.468L96.6156 168.134V168.801V169.578V170.355V171.133L96.5045 171.91L96.2824 172.576L96.1713 173.243L95.9492 173.798L95.6161 174.464L95.2829 175.019L94.8387 175.575L94.3945 176.019L93.9503 176.574L93.395 177.018L92.8397 177.463L92.1734 177.907L91.5071 178.351L90.7297 178.795L91.7292 179.128L92.7287 179.573L93.5061 179.906L94.3945 180.461L94.7276 180.683L95.0608 180.905L95.394 181.127L95.7271 181.461L96.0603 181.794L96.3934 182.016L96.7266 182.349L96.9487 182.682L97.1708 183.015L97.3929 183.348L97.615 183.682L97.8371 184.015L97.9482 184.348L98.1703 184.792L98.2813 185.125L98.3924 185.57L98.5034 186.014L98.6145 186.347L98.7255 186.791V187.235L98.8366 188.235L98.9477 189.123V189.901L98.8366 190.567L98.7255 191.344L98.6145 192.011L98.5034 192.566L98.3924 193.232L98.1703 193.787L97.9482 194.343L97.615 195.009L97.3929 195.564L97.0597 196.009L96.7266 196.564L96.2824 197.008L95.8381 197.452L95.3939 197.896L94.9497 198.341L94.5055 198.674L93.9502 199.007L93.395 199.34L92.8397 199.673L92.1734 200.006L91.6181 200.229L90.9518 200.451L90.2855 200.673L89.5081 200.895L88.8418 201.006L88.0644 201.228L87.2871 201.339L86.3986 201.45H85.6213L84.7328 201.561H83.8445H65.1875L68.297 197.008L71.5176 196.342Z" fill="white"/>
<path d="M65.1875 201.561V158.028L70.0738 160.027L71.5175 163.137V176.574L73.6275 178.906L71.5175 181.683V196.342L70.5181 199.007L65.1875 201.561Z" fill="white"/>
<path d="M120.27 197.008H120.714H121.269L121.714 196.897L122.269 196.786L122.713 196.675L123.157 196.564L123.601 196.453L123.935 196.231L124.379 196.009L124.823 195.787L125.156 195.564L125.489 195.231L125.823 195.009L126.156 194.676L126.489 194.343L126.822 194.01L127.044 193.565L127.266 193.232L127.599 192.788L127.822 192.344L127.933 191.9L128.155 191.455L128.377 190.9L128.488 190.345L128.71 189.79L128.821 189.234L128.932 188.679V188.124L129.043 187.458V186.902L129.154 186.236V185.57V184.903L129.043 184.348V183.682L128.932 183.127V182.46L128.821 181.905L128.71 181.461L128.488 180.905L128.377 180.35L128.266 179.906L128.044 179.462L127.821 178.907L127.599 178.573L127.377 178.129L127.044 177.685L126.822 177.352L126.489 176.908L126.267 176.574L125.934 176.241L125.6 176.019L125.267 175.686L124.823 175.464L124.49 175.242L124.046 175.02L123.713 174.798L123.268 174.686L122.824 174.575L122.38 174.464L121.936 174.353L121.491 174.242H120.936H120.492L118.271 171.688L120.492 169.134H121.269L122.158 169.245L122.935 169.356L123.713 169.467L124.49 169.578L125.156 169.8L125.934 170.022L126.6 170.355L127.266 170.689L127.933 171.022L128.599 171.355L129.265 171.799L129.82 172.243L130.376 172.688L130.931 173.243L131.486 173.798L131.93 174.353L132.375 174.909L132.819 175.575L133.263 176.13L133.596 176.796L134.04 177.574L134.374 178.24L134.596 178.906L134.818 179.684L135.151 180.461L135.262 181.239L135.484 182.127L135.595 182.904L135.706 183.793V184.681L135.817 185.459L135.706 186.458V187.347L135.595 188.124L135.484 189.012L135.262 189.79L135.151 190.678L134.818 191.456L134.596 192.233L134.263 192.899L134.04 193.677L133.596 194.343L133.263 195.009L132.819 195.676L132.375 196.342L131.93 196.897L131.375 197.452L130.931 198.008L130.376 198.452L129.82 199.007L129.154 199.451L128.599 199.784L127.933 200.229L127.266 200.562L126.489 200.895L125.823 201.117L125.045 201.45L124.379 201.672L123.601 201.783L122.824 202.006H121.936L121.158 202.117H120.27L118.049 199.562L120.27 197.008Z" fill="white"/>
<path d="M120.271 202.117H119.493L118.605 202.006H117.828L117.05 201.783L116.273 201.672L115.606 201.45L114.829 201.228L114.163 200.895L113.496 200.562L112.83 200.229L112.164 199.896L111.497 199.451L110.942 199.007L110.276 198.563L109.832 198.008L109.276 197.452L108.721 196.897L108.277 196.342L107.833 195.676L107.389 195.12L107.055 194.454L106.722 193.677L106.389 193.01L106.056 192.344L105.834 191.567L105.612 190.789L105.39 190.012L105.278 189.123L105.056 188.346V187.458L104.945 186.569V185.681V184.792L105.056 183.904V183.015L105.278 182.238L105.39 181.35L105.612 180.572L105.834 179.795L106.056 179.018L106.389 178.24L106.722 177.574L107.055 176.908L107.5 176.241L107.833 175.575L108.277 174.909L108.832 174.353L109.276 173.798L109.832 173.243L110.387 172.688L110.942 172.243L111.609 171.799L112.164 171.355L112.83 171.022L113.496 170.689L114.274 170.355L114.94 170.022L115.606 169.8L116.384 169.578L117.272 169.467L118.05 169.356L118.827 169.245L119.604 169.134H120.493L122.159 171.688L120.493 174.242H119.938H119.493L118.938 174.353L118.494 174.464L118.05 174.575L117.605 174.686L117.161 174.798L116.717 175.02L116.273 175.242L115.94 175.464L115.606 175.686L115.162 175.908L114.829 176.241L114.496 176.574L114.163 176.908L113.941 177.241L113.607 177.574L113.385 178.018L113.163 178.462L112.941 178.906L112.719 179.351L112.497 179.795L112.275 180.239L112.164 180.794L112.053 181.35L111.942 181.905L111.831 182.46L111.72 183.127L111.609 183.682V184.348V185.014V185.681V186.347V186.902V187.569L111.72 188.124L111.831 188.79L111.942 189.345L112.053 189.901L112.164 190.456L112.275 190.9L112.497 191.456L112.719 191.9L112.941 192.344L113.163 192.788L113.385 193.232L113.607 193.566L113.941 194.01L114.163 194.343L114.496 194.676L114.829 195.009L115.162 195.231L115.495 195.564L115.829 195.787L116.273 196.009L116.606 196.231L117.05 196.453L117.494 196.564L117.939 196.675L118.383 196.786L118.827 196.897L119.271 197.008H119.715H120.271L121.936 199.451L120.271 202.117Z" fill="white"/>
<path d="M162.248 177.574L161.804 177.13L161.36 176.685L160.916 176.352L160.471 176.019L160.027 175.686L159.583 175.464L159.139 175.242L158.583 175.02L158.139 174.798L157.695 174.686L157.14 174.575L156.696 174.464L156.14 174.353L155.585 174.242H155.03H154.475H153.808H153.142L152.587 174.353L152.142 174.464L151.587 174.575L151.143 174.798L150.81 174.909L150.366 175.131L150.032 175.353L149.81 175.686L149.477 175.908L149.366 176.241L149.144 176.574L149.033 177.019V177.352L148.922 177.796L149.033 178.24V178.684L149.144 179.129L149.255 179.462L149.477 179.795L149.699 180.128L150.032 180.461L150.366 180.683L150.81 180.905L151.365 181.128L151.92 181.461L152.587 181.572L153.253 181.794L154.141 182.016L155.03 182.238L156.029 182.46L157.251 182.793L158.361 183.015L159.361 183.349L160.249 183.571L161.027 183.904L161.804 184.237L162.47 184.57L163.137 184.903L163.581 185.236L164.025 185.57L164.469 185.903L164.802 186.347L165.247 186.791L165.58 187.124L165.802 187.569L166.024 188.013L166.357 188.568L166.579 189.012L166.69 189.568L166.801 190.123L166.913 190.567L167.024 191.122V191.678V192.344V192.899V193.454V194.01L166.913 194.454L166.69 195.009L166.579 195.453L166.357 195.898L166.246 196.342L166.024 196.786L165.691 197.23L165.469 197.674L165.136 198.008L164.802 198.452L164.469 198.785L164.136 199.118L163.692 199.451L163.359 199.784L162.915 200.118L162.359 200.34L161.915 200.673L161.36 200.895L160.916 201.006L160.36 201.228L159.805 201.45L159.139 201.561L158.584 201.672L157.917 201.894L157.362 202.006H156.696L156.029 202.117H155.252H154.586H153.475L152.476 202.006L151.476 201.894L150.477 201.783L149.588 201.561L148.7 201.339L147.811 201.117L146.923 200.784L146.146 200.34L145.368 200.007L144.591 199.451L143.813 199.007L143.147 198.341L142.481 197.785L141.703 197.119L141.037 196.342L145.146 192.566L145.59 193.121L146.146 193.677L146.59 194.232L147.145 194.676L147.589 195.009L148.145 195.453L148.589 195.787L149.144 196.009L149.699 196.231L150.255 196.453L150.81 196.675L151.476 196.786L152.142 196.897L152.809 197.008H153.475H154.252H155.03L155.807 196.897H156.474L157.14 196.675L157.806 196.564L158.361 196.342L158.806 196.12L159.25 195.898L159.694 195.676L160.027 195.342L160.36 194.898L160.582 194.565L160.694 194.121L160.916 193.677L161.027 193.232V192.677V192.233L160.916 191.789L160.805 191.456L160.694 191.011L160.471 190.678L160.249 190.345L159.916 190.123L159.472 189.79L159.028 189.568L158.472 189.345L157.806 189.012L157.14 188.79L156.362 188.568L155.363 188.346L154.363 188.013L153.253 187.791L151.92 187.458L150.699 187.124L149.588 186.791L148.589 186.347L148.144 186.125L147.7 185.903L147.256 185.681L146.812 185.459L146.479 185.125L146.034 184.903L145.701 184.681L145.368 184.348L145.146 184.126L144.813 183.793L144.591 183.46L144.369 183.127L144.147 182.793L143.924 182.46L143.702 182.127L143.591 181.683L143.48 181.35L143.369 180.905L143.258 180.572L143.147 180.128V179.684L143.036 179.24V178.795V178.24V177.796V177.241L143.147 176.796V176.241L143.369 175.797L143.48 175.353L143.591 174.909L143.813 174.464L144.035 174.02L144.258 173.687L144.48 173.243L144.813 172.91L145.146 172.576L145.368 172.243L145.812 171.91L146.145 171.577L146.479 171.244L146.923 171.022L147.367 170.8L147.811 170.578L148.256 170.355L148.811 170.133L149.255 169.911L149.81 169.8L150.366 169.578L150.921 169.467L151.476 169.356L152.031 169.245H152.698L153.364 169.134H153.919H154.586H155.474H156.362L157.251 169.245L158.028 169.356L158.806 169.467L159.472 169.689L160.249 169.911L160.916 170.133L161.582 170.355L162.248 170.689L162.915 171.022L163.47 171.466L164.136 171.91L164.691 172.354L165.358 172.91L165.913 173.465L162.248 177.574Z" fill="white"/>
<path d="M201.894 194.343L201.339 195.342L200.784 196.231L200.117 197.008L199.451 197.786L199.118 198.119L198.785 198.563L198.341 198.785L198.007 199.118L197.563 199.451L197.23 199.673L196.786 200.007L196.453 200.229L196.008 200.451L195.564 200.673L195.12 200.895L194.676 201.006L194.232 201.228L193.787 201.339L193.343 201.561L192.788 201.672L191.788 201.895L190.789 202.006L189.678 202.117H188.568H187.79L186.902 202.006H186.125L185.347 201.783L184.681 201.672L183.904 201.45L183.126 201.228L182.46 200.895L181.794 200.673L181.127 200.34L180.461 199.896L179.906 199.451L179.239 199.007L178.684 198.563L178.129 198.119L177.685 197.563L177.129 197.008L176.685 196.453L176.241 195.787L175.908 195.12L175.464 194.565L175.13 193.788L174.797 193.121L174.575 192.344L174.242 191.567L174.02 190.789L173.909 190.012L173.687 189.234L173.576 188.346L173.465 187.458V186.569L173.354 185.681L173.465 184.792V183.904L173.576 183.015L173.687 182.127L173.798 181.35L174.02 180.572L174.242 179.684L174.464 178.906L174.797 178.24L175.13 177.463L175.464 176.796L175.797 176.13L176.241 175.464L176.685 174.909L177.129 174.242L177.574 173.687L178.129 173.243L178.684 172.688L179.239 172.243L179.795 171.799L180.35 171.355L181.016 170.911L181.683 170.577L182.349 170.355L183.015 170.022L183.793 169.8L184.459 169.578L185.236 169.467L186.014 169.356L186.902 169.245L187.679 169.134H188.457H189.567L190.567 169.245L191.566 169.356L192.455 169.578L193.343 169.8L194.232 170.133L194.676 170.355L195.12 170.466L195.564 170.689L195.897 170.911L196.342 171.133L196.675 171.355L197.008 171.688L197.452 171.91L198.118 172.576L198.785 173.243L199.451 173.909L200.117 174.686L200.673 175.575L201.228 176.463L196.119 179.462L195.675 178.684L195.231 178.018L194.898 177.463L194.454 176.908L194.009 176.463L193.565 176.019L193.232 175.686L192.788 175.353L192.344 175.02L191.899 174.798L191.455 174.575L190.9 174.464L190.456 174.353L189.9 174.242H189.234H188.679H188.124H187.679L187.235 174.353L186.68 174.464L186.236 174.575L185.791 174.686L185.347 174.798L185.014 175.02L184.57 175.242L184.237 175.464L183.793 175.686L183.459 175.908L183.126 176.241L182.793 176.574L182.571 176.908L182.238 177.241L182.016 177.574L181.683 178.018L181.46 178.462L181.238 178.907L181.016 179.351L180.794 179.795L180.683 180.239L180.461 180.794L180.35 181.35L180.239 181.905L180.128 182.46L180.017 183.127V183.682V184.348L179.906 185.014V185.681V186.347L180.017 187.013V187.569V188.235L180.128 188.79L180.239 189.457L180.35 190.012L180.461 190.456L180.683 191.011L180.794 191.456L181.016 192.011L181.238 192.455L181.46 192.899L181.683 193.343L181.905 193.677L182.238 194.01L182.46 194.454L182.793 194.787L183.126 195.009L183.459 195.342L183.793 195.564L184.237 195.898L184.57 196.009L185.014 196.231L185.458 196.453L185.903 196.564L186.347 196.675L186.791 196.786L187.235 196.897L187.79 197.008H188.235H188.79H189.456H190.123L190.789 196.897L191.344 196.675L191.899 196.564L192.455 196.342L193.01 196.12L193.454 195.787L193.898 195.453L194.454 195.009L194.898 194.565L195.342 194.121L195.786 193.566L196.23 193.01L196.564 192.344L197.008 191.567L201.894 194.343Z" fill="white"/>
<path d="M208.668 155.808H215.109V174.687L215.442 174.02L215.886 173.354L216.331 172.799L216.775 172.243L217.219 171.688L217.774 171.244L218.33 170.911L218.885 170.467L219.551 170.133L220.218 169.911L220.884 169.689L221.55 169.467L222.328 169.356L222.994 169.245L223.771 169.134H224.66H225.215H225.881L226.436 169.245L226.992 169.356L227.547 169.467L228.102 169.578L228.546 169.689L229.102 169.911L229.546 170.133L229.99 170.356L230.434 170.689L230.879 170.911L231.323 171.244L231.656 171.577L231.989 171.91L232.433 172.355L232.655 172.799L232.989 173.243L233.322 173.687L233.544 174.131L233.766 174.576L233.988 175.131L234.21 175.686L234.432 176.241L234.543 176.908L234.765 177.463V178.129L234.877 178.796L234.988 179.462L235.099 180.128V180.906V181.572V201.562H228.658V181.905V180.906V180.128L228.435 179.24L228.324 178.574L228.102 177.907L227.88 177.241L227.769 177.019L227.547 176.797L227.436 176.463L227.214 176.241L227.103 176.019L226.77 175.797L226.659 175.686L226.436 175.464L226.103 175.242L225.881 175.131L225.659 175.02L225.326 174.909L225.104 174.798L224.771 174.687L224.437 174.576H224.104L223.438 174.465H222.661H222.216H221.772L221.328 174.576H220.995L220.551 174.687L220.217 174.798L219.773 174.909L219.44 175.02L219.107 175.242L218.774 175.353L218.441 175.575L218.219 175.686L217.885 175.908L217.663 176.13L217.33 176.352L217.108 176.575L216.886 176.908L216.664 177.241L216.442 177.463L216.22 177.796L216.108 178.129L215.886 178.462L215.775 178.796L215.553 179.129L215.442 179.573L215.331 179.906L215.22 180.35V180.684L215.109 181.128V181.572V182.016V182.46V201.561H208.668V155.808Z" fill="white"/>
<path d="M299.066 189.346L298.733 190.123L298.4 191.011L298.066 191.678L297.733 192.455L297.4 193.121L297.067 193.788L296.734 194.343L296.289 195.009L295.956 195.454L295.512 196.009L295.068 196.564L294.735 197.008L294.179 197.453L293.735 197.897L293.291 198.341L292.736 198.674L292.181 199.118L291.625 199.563L290.959 199.896L290.404 200.229L289.737 200.562L289.071 200.784L288.405 201.006L287.738 201.228L286.961 201.45L286.295 201.673L285.517 201.784L284.851 201.895L283.963 202.006H283.185L282.408 202.117H281.63H280.52L279.409 202.006L278.299 201.895L277.299 201.673L276.3 201.45L275.3 201.228L274.412 200.895L273.524 200.562L272.524 200.118L271.747 199.674L270.858 199.118L270.081 198.674L269.304 198.008L268.526 197.453L267.86 196.786L267.194 196.009L266.527 195.342L265.972 194.454L265.417 193.677L264.861 192.788L264.417 191.9L263.973 191.011L263.529 190.012L263.196 189.012L262.862 188.013L262.64 186.902L262.307 185.792L262.085 184.681L261.974 183.46L261.863 182.349L261.752 181.128V179.906V178.573L261.863 177.463L261.974 176.241L262.085 175.131L262.307 173.909L262.64 172.91L262.862 171.799L263.196 170.689L263.64 169.689L263.973 168.801L264.417 167.801L264.973 166.913L265.528 166.024L266.083 165.247L266.638 164.359L267.305 163.692L267.971 162.915L268.637 162.249L269.415 161.582L270.192 161.027L270.969 160.472L271.747 159.917L272.635 159.472L273.524 159.028L274.412 158.695L275.411 158.362L276.3 158.029L277.299 157.807L278.299 157.584L279.409 157.473H280.52L281.519 157.362H282.519L283.407 157.473L284.296 157.584L285.184 157.695L286.073 157.807L286.85 158.029L287.627 158.251L288.516 158.473L289.182 158.806L289.959 159.139L290.626 159.472L291.292 159.917L291.958 160.361L292.625 160.805L293.18 161.249L293.846 161.804L294.513 162.582L295.179 163.359L295.512 163.692L295.845 164.137L296.067 164.581L296.401 165.025L296.956 166.024L297.511 167.135L298.066 168.357L298.622 169.8L292.958 171.91L292.514 170.8L292.07 169.689L291.736 169.134L291.514 168.69L291.292 168.134L290.959 167.69L290.737 167.246L290.404 166.913L290.181 166.469L289.848 166.135L289.515 165.691L289.182 165.358L288.849 165.136L288.516 164.803L288.183 164.581L287.849 164.248L287.516 164.025L287.072 163.803L286.739 163.692L286.295 163.47L285.85 163.248L285.517 163.137L284.962 163.026L284.518 162.915L284.074 162.804L283.629 162.693H283.185H282.63L282.186 162.582H281.63L280.853 162.693H280.076L279.409 162.804L278.632 162.915L277.966 163.026L277.299 163.248L276.633 163.47L276.078 163.803L275.523 164.137L274.856 164.47L274.301 164.803L273.857 165.247L273.301 165.691L272.857 166.135L272.302 166.691L271.858 167.246L271.525 167.801L271.08 168.357L270.747 169.023L270.414 169.689L270.081 170.355L269.859 171.022L269.526 171.799L269.304 172.577L269.081 173.465L268.859 174.242L268.748 175.131L268.637 176.019L268.526 176.908L268.415 177.907V178.796V179.795V180.794V181.794L268.526 182.682L268.637 183.571L268.748 184.459L268.859 185.348L269.081 186.125L269.304 187.013L269.526 187.791L269.859 188.457L270.081 189.235L270.414 189.901L270.747 190.567L271.08 191.233L271.525 191.789L271.969 192.344L272.413 192.899L272.857 193.343L273.301 193.899L273.857 194.343L274.412 194.676L274.967 195.12L275.523 195.454L276.078 195.676L276.744 196.009L277.41 196.231L278.077 196.453L278.743 196.564L279.52 196.675L280.187 196.786L280.964 196.897H281.741H282.297H282.852L283.296 196.786H283.851L284.296 196.675L284.851 196.564L285.295 196.453L285.739 196.342L286.184 196.12L286.628 196.009L287.072 195.787L287.516 195.565L287.849 195.342L288.183 195.12L288.627 194.787L288.96 194.565L289.293 194.232L289.626 193.899L289.959 193.566L290.293 193.232L290.626 192.788L290.848 192.344L291.181 191.9L291.514 191.456L291.736 191.011L291.958 190.456L292.181 190.012L292.514 189.457L292.958 188.346L293.291 187.013L299.066 189.346Z" fill="white"/>
<path d="M319.945 197.008H320.389H320.944L321.389 196.897L321.944 196.786L322.277 196.675L322.832 196.564L323.277 196.453L323.61 196.231L324.054 196.009L324.387 195.787L324.831 195.564L325.164 195.231L325.498 195.009L325.831 194.676L326.164 194.343L326.386 194.01L326.719 193.565L326.941 193.232L327.275 192.788L327.386 192.344L327.608 191.9L327.83 191.455L328.052 190.9L328.163 190.345L328.274 189.79L328.496 189.234L328.607 188.679V188.124L328.718 187.458V186.902L328.829 186.236V185.57V184.903L328.718 184.348V183.682L328.607 183.127V182.46L328.496 181.905L328.274 181.461L328.163 180.905L328.052 180.35L327.83 179.906L327.608 179.462L327.497 178.907L327.275 178.573L326.941 178.129L326.719 177.685L326.497 177.352L326.164 176.908L325.831 176.574L325.609 176.241L325.275 176.019L324.831 175.686L324.498 175.464L324.165 175.242L323.721 175.02L323.276 174.798L322.943 174.686L322.499 174.575L322.055 174.464L321.611 174.353L321.166 174.242H320.611H320.167L317.613 171.91L320.167 169.134H320.944L321.722 169.245L322.61 169.356L323.276 169.467L324.054 169.578L324.831 169.8L325.609 170.022L326.275 170.355L326.941 170.689L327.608 171.022L328.274 171.355L328.829 171.799L329.495 172.243L330.051 172.688L330.606 173.243L331.05 173.798L331.606 174.353L332.05 174.909L332.494 175.575L332.938 176.13L333.271 176.796L333.604 177.574L333.938 178.24L334.271 178.906L334.604 179.684L334.715 180.461L334.937 181.239L335.159 182.127L335.27 182.904L335.381 183.793V184.681V185.459V186.458V187.347L335.27 188.124L335.159 189.012L334.937 189.79L334.715 190.678L334.493 191.456L334.271 192.233L333.938 192.899L333.604 193.677L333.271 194.343L332.938 195.009L332.494 195.676L332.05 196.342L331.605 196.897L331.05 197.452L330.606 198.008L329.94 198.452L329.384 199.007L328.829 199.451L328.163 199.784L327.608 200.229L326.83 200.562L326.164 200.895L325.498 201.117L324.72 201.45L323.943 201.672L323.276 201.783L322.388 202.006H321.611L320.833 202.117H319.945L317.391 199.34L319.945 197.008Z" fill="white"/>
<path d="M319.945 202.117H319.167L318.39 202.006H317.501L316.724 201.783L315.947 201.672L315.28 201.45L314.503 201.228L313.837 200.895L313.059 200.562L312.393 200.229L311.838 199.896L311.171 199.451L310.616 199.007L310.061 198.563L309.395 198.008L308.95 197.452L308.395 196.897L307.951 196.342L307.507 195.675L307.062 195.12L306.729 194.454L306.396 193.677L306.063 193.01L305.73 192.344L305.508 191.567L305.286 190.789L305.063 190.012L304.841 189.123L304.73 188.346L304.619 187.458V186.569V185.681V184.792V183.904L304.73 183.015L304.841 182.238L305.063 181.35L305.286 180.572L305.508 179.795L305.73 179.018L306.063 178.24L306.396 177.574L306.729 176.908L307.062 176.241L307.507 175.575L307.951 174.909L308.395 174.353L308.95 173.798L309.506 173.243L310.061 172.688L310.616 172.243L311.171 171.799L311.838 171.355L312.504 171.022L313.17 170.689L313.837 170.355L314.614 170.022L315.391 169.8L316.058 169.578L316.835 169.467L317.724 169.356L318.501 169.245L319.278 169.134H320.167L321.944 171.91L320.167 174.242H319.611H319.167L318.612 174.353L318.168 174.464L317.724 174.575L317.279 174.686L316.835 174.798L316.391 175.02L315.947 175.242L315.614 175.464L315.169 175.686L314.836 175.908L314.503 176.241L314.17 176.574L313.837 176.908L313.615 177.241L313.281 177.574L313.059 178.018L312.726 178.462L312.504 178.906L312.393 179.351L312.171 179.795L311.949 180.239L311.838 180.794L311.727 181.35L311.504 181.905L311.393 182.46V183.127L311.282 183.682V184.348L311.171 185.014V185.681V186.347L311.282 186.902V187.569L311.393 188.124V188.79L311.615 189.345L311.727 189.901L311.838 190.456L311.949 190.9L312.171 191.456L312.393 191.9L312.504 192.344L312.726 192.788L313.059 193.232L313.281 193.566L313.615 194.01L313.837 194.343L314.17 194.676L314.503 195.009L314.836 195.231L315.169 195.564L315.502 195.787L315.947 196.009L316.28 196.231L316.724 196.453L317.168 196.564L317.613 196.675L318.057 196.786L318.501 196.897L318.945 197.008H319.389H319.945L321.721 199.674L319.945 202.117Z" fill="white"/>
<path d="M350.373 174.575L350.817 173.909L351.15 173.243L351.595 172.688L352.039 172.132L352.483 171.688L353.038 171.244L353.482 170.8L354.038 170.466L354.593 170.133L355.148 169.911L355.815 169.689L356.481 169.467L357.147 169.356L357.814 169.245L358.48 169.134H359.146H360.035L360.701 169.245L361.478 169.356L362.145 169.467L362.811 169.689L363.366 169.911L363.921 170.133L364.477 170.466L365.032 170.911L365.587 171.244L366.032 171.799L366.476 172.243L366.92 172.91L367.253 173.465L367.697 174.131L368.03 174.798L368.475 174.131L369.03 173.465L369.474 172.91L370.029 172.243L370.585 171.799L371.14 171.244L371.806 170.911L372.362 170.466L372.917 170.133L373.583 169.911L374.249 169.689L374.916 169.467L375.693 169.356L376.359 169.245L377.137 169.134H377.914H378.469H379.025L379.58 169.245L380.135 169.356L380.691 169.467L381.135 169.578L381.69 169.8L382.134 170.022L382.578 170.133L383.023 170.466L383.467 170.689L383.911 171.022L384.244 171.244L384.688 171.688L385.022 172.021L385.355 172.354L385.688 172.799L385.91 173.243L386.243 173.687L386.465 174.242L386.687 174.686L386.91 175.242L387.132 175.797L387.354 176.352L387.465 176.908L387.576 177.574L387.687 178.129L387.798 178.795L387.909 179.462V180.128L388.02 180.905V181.572V201.561H381.579V181.794V180.905L381.468 180.017L381.357 179.24L381.246 178.573L381.024 177.907L380.801 177.241L380.69 177.019L380.579 176.685L380.468 176.463L380.246 176.241L380.135 176.019L379.913 175.797L379.691 175.575L379.469 175.464L379.358 175.242L379.024 175.131L378.802 175.02L378.58 174.909L378.358 174.798L378.025 174.686L377.803 174.575H377.47L376.803 174.464H376.137H375.804H375.36L375.026 174.575H374.693L374.249 174.686L373.916 174.798L373.583 174.909L373.25 175.02L373.027 175.242L372.694 175.353L372.361 175.575L372.139 175.686L371.806 175.908L371.584 176.13L371.362 176.352L371.139 176.685L370.806 176.908L370.695 177.241L370.473 177.463L370.251 177.796L370.14 178.129L369.918 178.462L369.807 178.795L369.696 179.129L369.584 179.573L369.473 179.906L369.362 180.35V180.683L369.251 181.572L369.14 182.46V201.561H362.811V181.794V180.905L362.7 180.128L362.589 179.24L362.478 178.573L362.256 177.907L362.033 177.241L361.922 177.019L361.811 176.796L361.589 176.574L361.478 176.241L361.256 176.019L361.145 175.908L360.923 175.686L360.701 175.464L360.479 175.353L360.256 175.131L360.034 175.02L359.701 174.909L359.479 174.798L359.146 174.686H358.924L358.591 174.575L358.035 174.464H357.369H356.925H356.592L356.147 174.575H355.815L355.481 174.686L355.148 174.798L354.815 174.909L354.482 175.02L354.149 175.242L353.816 175.353L353.594 175.575L353.26 175.686L353.038 175.908L352.816 176.13L352.483 176.352L352.261 176.685L352.039 176.908L351.817 177.241L351.705 177.463L351.483 177.796L351.261 178.129L351.15 178.462L351.039 178.795L350.817 179.129V179.573L350.706 179.906L350.595 180.35L350.484 180.683V181.572L350.373 182.46V201.561H344.043V169.689H350.373V174.575Z" fill="white"/>
<path d="M413.451 197.008H413.895H414.451L414.895 196.897L415.339 196.786L415.894 196.675H416.228L416.672 196.453L417.116 196.342L417.56 196.12L417.893 195.898L418.227 195.675L418.56 195.453L418.893 195.12L419.226 194.898L419.559 194.565L419.781 194.232L420.003 193.788L420.226 193.454L420.559 193.01L420.67 192.566L420.892 192.122L421.114 191.678L421.225 191.233L421.447 190.678L421.558 190.123L421.669 189.568V189.012L421.78 188.457L421.892 187.791V187.124V186.458V185.792V185.125V184.459V183.793L421.78 183.127L421.669 182.571L421.558 182.016V181.461L421.336 180.905L421.225 180.35L421.003 179.906L420.892 179.351L420.67 178.906L420.448 178.462L420.226 178.018L420.003 177.685L419.67 177.241L419.448 176.908L419.115 176.574L418.893 176.241L418.56 175.908L418.226 175.686L417.782 175.464L417.449 175.242L417.116 175.02L416.672 174.798L416.228 174.686L415.894 174.575L415.45 174.464L414.895 174.353L414.451 174.242H414.006H413.562L412.674 171.688L415.006 169.134H415.783L416.45 169.245H417.227L417.893 169.356L418.56 169.578L419.226 169.8L419.892 170.022L420.559 170.355L421.114 170.577L421.669 170.911L422.224 171.244L422.78 171.688L423.335 172.132L423.779 172.576L424.334 173.132L424.779 173.576L425.223 174.131L425.556 174.686L426 175.353L426.333 176.019L426.667 176.574L426.889 177.352L427.222 178.018L427.444 178.795L427.666 179.573L427.888 180.35L427.999 181.128L428.221 182.016L428.332 182.793V183.682L428.444 184.57V185.459V186.458L428.332 187.346V188.235L428.221 189.123L428.11 190.012L427.888 190.789L427.666 191.567L427.444 192.344L427.222 193.121L427 193.788L426.667 194.565L426.333 195.231L426 195.898L425.556 196.453L425.223 197.008L424.779 197.674L424.334 198.119L423.89 198.674L423.335 199.118L422.891 199.562L422.224 199.896L421.669 200.34L421.114 200.673L420.559 201.006L419.892 201.228L419.226 201.45L418.56 201.672L417.893 201.783L417.227 202.006H416.45L415.783 202.117H415.006L412.674 199.673L413.451 197.008Z" fill="white"/>
<path d="M415.006 202.117H414.117L413.34 202.006L412.562 201.894L411.785 201.783L411.008 201.561L410.341 201.339L409.675 201.006L409.009 200.673L408.342 200.34L407.787 199.896L407.232 199.451L406.566 199.007L406.121 198.341L405.566 197.786L405.122 197.23L404.678 196.564V212.556H398.348V169.689H404.678V174.798L405.122 174.131L405.677 173.465L406.232 172.91L406.677 172.354L407.232 171.799L407.898 171.355L408.454 170.911L409.12 170.577L409.786 170.244L410.452 169.911L411.119 169.689L411.896 169.467L412.562 169.356L413.34 169.245L414.228 169.134H415.006L415.894 171.577L413.562 174.242H413.007H412.451L412.007 174.353L411.563 174.464L411.008 174.575L410.564 174.686L410.119 174.798L409.675 175.02L409.342 175.242L408.898 175.464L408.565 175.686L408.231 175.908L407.898 176.241L407.565 176.574L407.232 176.908L406.899 177.241L406.566 177.574L406.343 178.018L406.121 178.462L405.899 178.907L405.677 179.351L405.455 179.795L405.233 180.35L405.122 180.905L405.011 181.35L404.9 181.905L404.789 182.46L404.677 183.127L404.566 183.682V184.348V185.014V185.681V186.347V187.013V187.569L404.677 188.235L404.789 188.79L404.9 189.346L405.011 189.901L405.122 190.456L405.233 191.011L405.455 191.456L405.566 192.011L405.899 192.455L406.01 192.899L406.343 193.232L406.566 193.677L406.899 194.01L407.121 194.343L407.454 194.676L407.787 195.009L408.12 195.342L408.453 195.564L408.898 195.787L409.231 196.009L409.564 196.231L410.008 196.453L410.452 196.564L410.897 196.675L411.341 196.786L411.896 196.897L412.34 197.008H412.896H413.451L415.894 199.673L415.006 202.117Z" fill="white"/>
<path d="M446.433 197.23L447.21 197.119L448.099 197.008L448.765 196.897L449.542 196.675L450.209 196.453L450.875 196.12L451.208 196.009L451.43 195.787L451.763 195.564L451.986 195.342L452.208 195.12L452.541 195.009L452.763 194.676L452.985 194.454L453.096 194.232L453.318 193.899L453.429 193.676L453.652 193.343L453.763 193.01L453.874 192.788L453.985 192.455V192.122L454.096 191.789V191.455L454.207 191.122V190.789V186.791L452.43 184.57L454.207 182.46V180.794V179.906L454.096 179.24L453.985 178.462L453.874 177.907L453.652 177.241L453.429 176.685L453.207 176.463L453.096 176.241L452.985 176.019L452.763 175.797L452.541 175.575L452.43 175.464L452.097 175.242L451.986 175.131L451.763 174.909L451.43 174.798L451.208 174.686L450.875 174.575L450.32 174.464L449.653 174.353L448.987 174.242H448.21H447.654H446.988L446.433 174.353L445.878 174.464L445.322 174.575L444.767 174.686L444.212 174.909L443.657 175.131L443.101 175.353L442.546 175.575L441.991 175.908L441.435 176.241L440.88 176.685L440.325 177.019L439.77 177.463L439.103 178.018L435.883 173.909L436.549 173.243L437.327 172.687L438.104 172.132L438.77 171.688L439.437 171.244L440.214 170.911L440.991 170.577L441.769 170.244L442.546 170.022L443.323 169.689L444.212 169.578L444.989 169.356L445.878 169.245L446.766 169.134H447.766H448.654H449.431H450.098L450.764 169.245L451.43 169.356H451.986L452.652 169.578L453.207 169.689L453.762 169.911L454.318 170.022L454.873 170.355L455.317 170.577L455.761 170.8L456.317 171.133L456.65 171.355L457.094 171.688L457.538 172.132L457.871 172.465L458.205 172.91L458.538 173.243L458.871 173.687L459.093 174.242L459.315 174.686L459.648 175.242L459.759 175.686L459.981 176.241L460.093 176.796L460.315 177.463V178.018L460.426 178.684L460.537 179.351V180.017V180.683V194.01L460.648 194.343V194.676V195.009L460.759 195.342L460.87 195.675L460.981 195.898L461.092 196.12L461.203 196.342L461.314 196.453L461.536 196.564L461.759 196.675L461.981 196.786L462.314 196.897L462.536 197.008H462.869H463.091H463.424H463.869V201.672H463.091L462.536 201.784H461.981H461.648H460.981H460.315L459.649 201.672L459.093 201.561L458.538 201.339L457.983 201.228L457.539 201.006L457.094 200.673L456.65 200.34L456.317 200.007L455.984 199.673L455.651 199.229L455.318 198.785L455.095 198.23L454.873 197.675L454.651 197.119L454.096 197.786L453.652 198.341L453.096 198.896L452.541 199.34L451.986 199.785L451.431 200.229L450.875 200.673L450.209 200.895L449.654 201.228L448.987 201.45L448.432 201.672L447.766 201.783L447.1 202.006H446.322L445.656 202.117H444.878L444.545 199.34L446.433 197.23Z" fill="white"/>
<path d="M444.88 202.116H444.325H443.769L443.214 202.005H442.77L442.215 201.894L441.77 201.783L441.326 201.672L440.771 201.45L440.327 201.339L439.882 201.117L439.549 200.895L439.105 200.673L438.772 200.451L438.328 200.229L437.994 199.895L437.661 199.673L437.328 199.34L437.106 199.007L436.773 198.674L436.44 198.341L436.218 198.007L435.995 197.563L435.773 197.23L435.662 196.786L435.44 196.342L435.329 195.897L435.218 195.453L435.107 195.009L434.996 194.565V194.121L434.885 193.676V193.121V192.677V192.233L434.996 191.9V191.455L435.107 191.122L435.218 190.678L435.329 190.345L435.44 189.901L435.551 189.567L435.773 189.234L435.884 188.901L436.107 188.568L436.329 188.235L436.44 187.902L436.773 187.568L436.995 187.235L437.217 187.013L437.55 186.68L437.772 186.458L438.106 186.125L438.772 185.681L439.549 185.236L440.327 184.792L441.215 184.348L442.103 184.015L443.103 183.682L444.214 183.46L445.435 183.126L446.546 182.904L447.767 182.793L449.1 182.682L450.655 182.571L452.32 182.46H454.208L455.985 184.459L454.208 186.791H452.654L451.099 186.902L449.766 187.013L448.545 187.124L447.323 187.346L446.324 187.679L445.768 187.791L445.324 187.902L444.88 188.124L444.436 188.346L444.102 188.457L443.769 188.679L443.436 188.901L443.103 189.123L442.77 189.345L442.548 189.678L442.215 189.901L442.103 190.123L441.881 190.456L441.659 190.789L441.548 191.122L441.437 191.344L441.326 191.677V192.011L441.215 192.344V192.788V193.232L441.326 193.787L441.437 194.232L441.548 194.676L441.77 195.009L441.992 195.342L442.326 195.675L442.548 196.008L442.992 196.342L443.325 196.564L443.769 196.675L444.214 196.897L444.769 197.008L445.213 197.119L445.768 197.23H446.435L447.434 199.673L444.88 202.116Z" fill="white"/>
<path d="M471.754 169.689H478.084V174.686L478.529 174.02L478.973 173.354L479.306 172.799L479.861 172.243L480.305 171.688L480.861 171.244L481.416 170.911L481.971 170.466L482.527 170.133L483.193 169.911L483.859 169.689L484.637 169.467L485.303 169.356L486.08 169.245L486.858 169.134H487.635H488.301H488.857L489.523 169.245L490.078 169.356L490.522 169.467L491.078 169.578L491.633 169.689L492.188 169.911L492.632 170.133L493.077 170.355L493.521 170.689L493.854 170.911L494.298 171.244L494.742 171.577L495.076 171.91L495.409 172.354L495.742 172.799L496.075 173.243L496.297 173.687L496.519 174.131L496.852 174.575L497.075 175.131L497.297 175.686L497.408 176.241L497.63 176.908L497.741 177.463L497.852 178.129L497.963 178.795L498.074 179.462V180.128L498.185 180.905V181.572V201.561H491.744V181.905V180.905L491.633 180.128L491.522 179.24L491.411 178.573L491.189 177.907L490.967 177.241L490.745 177.019L490.634 176.796L490.411 176.463L490.3 176.241L490.078 176.019L489.856 175.797L489.634 175.686L489.412 175.464L489.19 175.242L488.968 175.131L488.634 175.02L488.412 174.909L488.079 174.798L487.746 174.686L487.413 174.575H487.08L486.413 174.464H485.636H485.192H484.859L484.414 174.575H483.97L483.637 174.686L483.193 174.798L482.86 174.909L482.526 175.02L482.193 175.242L481.86 175.353L481.527 175.575L481.194 175.686L480.972 175.908L480.638 176.13L480.416 176.352L480.194 176.574L479.861 176.908L479.639 177.241L479.528 177.463L479.306 177.796L479.084 178.129L478.973 178.462L478.75 178.795L478.639 179.129L478.528 179.573L478.417 179.906L478.306 180.35V180.683L478.195 181.128V181.572L478.084 182.016V182.46V201.561H471.754L471.754 169.689Z" fill="white"/>
<path d="M519.84 205.56L519.507 206.448L519.174 207.337L518.73 208.114L518.286 208.78L517.841 209.558L517.286 210.113L516.731 210.668L516.176 211.223L515.953 211.334L515.62 211.557L515.287 211.779L514.954 212.001L514.288 212.223L513.621 212.556L512.955 212.778L512.178 212.889L511.4 213H510.512H510.401H509.512L508.624 212.889L507.847 212.778L507.069 212.556L506.292 212.223L505.514 211.89L504.848 211.557L504.071 211.112L506.181 206.559L506.625 206.892L507.069 207.225L507.624 207.448L508.069 207.559L508.624 207.781L509.068 207.892H509.623H510.068H510.512H510.956L511.289 207.781L511.733 207.67L512.067 207.559L512.4 207.336L512.733 207.225L512.955 207.003L513.177 206.67L513.51 206.448L513.732 206.115L513.955 205.782L514.177 205.338L514.399 205.004L514.51 204.56L514.621 204.116L515.62 201.117L503.516 169.689H510.401L518.73 192.677L526.504 169.689H532.834V169.801L519.84 205.56Z" fill="white"/>
<path d="M25.098 123.38V100.281L12.549 93.2842L0 94.8389V123.38H25.098Z" fill="white"/>
<path d="M25.098 80.2914V79.0698V77.8482L25.2091 76.7377L25.4312 75.6272L25.5423 74.5166L25.7644 73.4061L26.0975 72.4066L26.3196 71.4071L26.6528 70.4077L26.9859 69.5192L27.4302 68.6308L27.8744 67.7424L28.3186 66.965L28.8738 66.1876L29.4291 65.4103L29.9844 64.7439L30.5396 64.0776L31.206 63.4113L31.8723 62.856L32.5386 62.3008L33.316 61.7455L34.0933 61.3013L34.8707 60.8571L35.6481 60.5239L36.5365 60.0797L37.3139 59.8576L38.3133 59.5244L39.2018 59.3023L40.0902 59.1913L41.0897 59.0802L42.0891 58.9692H43.0886H43.866H44.6434L45.3097 59.0802L45.976 59.1913H46.6423L47.1976 59.3023L47.8639 59.5244L48.4192 59.6355L49.0855 59.8576L49.6408 60.0797L50.3071 60.3018L50.8624 60.5239L51.5287 60.8571L52.0839 61.1902L52.7503 61.5234L53.4166 61.8565L59.6356 39.3128L58.8582 38.8686L58.1919 38.4243L57.4145 38.0912L56.7482 37.758L55.9708 37.4249L55.1934 37.0917L54.5271 36.8696L53.7497 36.6475L52.9724 36.4254L52.195 36.3144L51.4176 36.2033L50.6402 36.0923L49.7518 35.9812L48.9744 35.8701H48.086H47.1976H46.3092L45.4207 35.9812H44.5323L43.6439 36.0923L42.8665 36.2033L42.0891 36.4254L41.2007 36.6475L40.4233 36.8696L39.646 37.0917L38.8686 37.4249L38.2023 37.758L37.4249 38.0912L36.6475 38.4243L35.9812 38.8686L35.3149 39.3128L34.6486 39.868L33.9823 40.3122L33.316 40.8675L32.6496 41.4228L31.9833 42.0891L31.317 42.7554L30.7617 43.4217L30.0954 44.1991L29.5401 44.9765L28.9849 45.7539L28.3186 46.5312L27.7633 47.4197L27.208 48.3081L26.6528 49.1965L26.0975 50.196L25.6533 51.1955L25.098 52.306V37.647H0V94.8394L0.888425 95.0615L1.8879 95.2836L2.99844 95.5057L4.10897 95.8388L5.4416 96.0609L6.77424 96.3941L8.21793 96.7273L9.77268 97.0604L11.3274 97.3936L13.1043 97.8378L14.8811 98.1709L16.769 98.6152L18.768 99.0594L20.7669 99.3925L22.877 99.8367L25.098 100.281V80.2914Z" fill="white"/>
<path d="M102.946 125.157H104.167H105.389L106.61 125.046L107.721 124.935L108.942 124.824L110.053 124.713L111.275 124.491L112.385 124.38L113.496 124.158L114.606 123.935L115.606 123.713L116.716 123.38L117.716 123.158L118.826 122.825L119.826 122.492L120.825 122.048L121.825 121.714L122.713 121.27L123.712 120.826L124.601 120.382L125.6 119.827L126.489 119.382L127.377 118.827L128.266 118.272L129.043 117.716L129.931 117.161L130.709 116.495L131.597 115.829L132.264 115.162L133.041 114.496L133.818 113.83L134.596 113.052L100.947 108.499L65.9648 106.944L66.6312 107.944L67.4085 108.943L68.1859 109.943L68.9633 110.942L69.8517 111.831L70.6291 112.719L71.5175 113.608L72.517 114.496L73.4054 115.273L74.4049 116.051L75.4044 116.828L76.4038 117.494L77.5144 118.272L78.6249 118.938L79.7354 119.604L80.846 120.16L82.0676 120.826L83.2891 121.27L84.5107 121.825L85.7323 122.27L87.0649 122.714L88.2865 123.158L89.7302 123.491L91.0629 123.824L92.3955 124.158L93.8392 124.38L95.2829 124.602L96.7266 124.824L98.2813 124.935L99.725 125.046L101.391 125.157H102.946Z" fill="white"/>
<path d="M84.1787 71.5183L84.4008 70.4078L84.734 69.4083L84.9561 68.2978L85.1782 67.2983L85.5113 66.4099L85.8445 65.4104L86.1776 64.522L86.5108 63.7446L86.844 62.8562L87.2882 62.1899L87.7324 61.4125L88.0655 60.7462L88.6208 60.0799L89.065 59.4135L89.5092 58.8583L90.0645 58.303L90.6198 57.7477L91.175 57.3035L91.7303 56.8593L92.3966 56.4151L93.0629 55.9709L93.7293 55.6377L94.3956 55.3046L95.0619 55.0825L95.7282 54.8604L96.5056 54.6383L97.283 54.4162L98.0603 54.3051L98.9488 54.1941L99.8372 54.083H100.726H101.614L105.723 44.8656L101.725 35.5371H99.393L97.0608 35.7592L94.8398 35.9813L92.6187 36.4255L90.3977 36.8697L88.2877 37.425L86.2887 38.0913L84.2897 38.8687L82.2908 39.7571L80.4029 40.7566L78.626 41.7561L76.8492 42.8666L75.1834 44.0882L73.6286 45.4208L72.0739 46.8645L70.6302 48.3082L69.1865 49.863L67.8539 51.5288L66.6323 53.1946L65.5218 54.9714L64.4112 56.8593L63.4117 58.7472L62.5233 60.7462L61.6349 62.7451L60.9686 64.8551L60.3023 67.0762L59.747 69.2973L59.3028 71.5183L58.9696 73.9615L58.6365 76.2936L58.5254 78.7368V81.291V83.0679L58.6365 84.8447L58.7475 86.5105L58.9696 88.2874L59.1917 90.0642L59.5249 91.73L59.9691 93.3958L60.4133 95.0616L60.8575 96.6164L61.4128 98.1711L62.0791 99.7258L62.7454 101.281L63.5228 102.724L64.1891 104.168L65.0776 105.612L65.966 106.944L69.7418 107.5L73.5176 107.944L77.4045 108.388L81.4024 108.943L85.5113 109.387L89.6203 109.832L93.8403 110.165L98.0603 110.609L102.391 110.942L106.834 111.386L111.276 111.72L115.829 112.053L120.382 112.275L125.046 112.608L129.822 112.83L134.597 113.052L135.374 112.275L136.152 111.386L136.818 110.498L137.595 109.61L138.262 108.721L138.928 107.722L139.594 106.833L140.261 105.834L120.715 96.1721L119.938 97.5048L119.049 98.7263L118.605 99.2816L118.161 99.8369L117.717 100.392L117.273 100.836L116.828 101.281L116.273 101.725L115.829 102.169L115.385 102.613L114.829 102.946L114.385 103.391L113.83 103.724L113.386 104.057L112.83 104.279L112.275 104.612L111.72 104.834L111.165 105.056L110.609 105.278L109.943 105.39L109.388 105.612L108.721 105.723L108.166 105.834L107.5 106.056H106.834L106.167 106.167L105.39 106.278H104.724H104.057H103.28H101.503L99.8372 106.056L98.3935 105.834L96.9498 105.501L95.6172 105.056L94.2845 104.612L93.174 104.057L92.0635 103.391L91.175 102.724L90.2866 101.947L89.3982 101.17L88.6208 100.281L87.9545 99.5038L87.3992 98.6154L86.844 97.7269L86.2887 96.8385L85.8445 95.9501L85.5113 95.0617L85.1782 94.1732L84.845 93.2848L84.6229 92.5074L84.4008 91.619L84.2898 90.8416L84.0677 90.1753L83.9566 88.8427L83.7345 87.8432V87.1768V86.8437L87.9545 79.6252L84.1787 71.5183Z" fill="white"/>
<path d="M83.734 86.8437H141.926V80.0694L141.815 77.5152L141.704 74.961L141.482 72.5178L141.148 70.1857L140.815 67.8536L140.371 65.6325L139.816 63.5225L139.149 61.4125L138.483 59.4135L137.595 57.4146L136.817 55.5267L135.818 53.7498L134.818 52.084L133.708 50.4182L132.486 48.8635L131.265 47.3087L129.932 45.9761L128.488 44.6435L127.045 43.4219L125.49 42.3113L123.824 41.2008L122.158 40.3124L120.382 39.424L118.605 38.5355L116.717 37.8692L114.718 37.314L112.719 36.7587L110.609 36.3145L108.499 35.9813L106.389 35.7592L104.057 35.5371H101.725L97.3935 45.3098L101.614 54.083H102.502H103.39L104.279 54.1941L105.056 54.3051L105.945 54.4162L106.611 54.6383L107.388 54.8604L108.055 55.0825L108.832 55.3046L109.387 55.6377L110.054 55.9709L110.609 56.3041L111.275 56.7483L111.83 57.1925L112.275 57.6367L112.83 58.192L113.274 58.7472L113.718 59.3025L114.163 59.9688L114.496 60.6351L114.94 61.3014L115.273 62.0788L115.606 62.8562L115.828 63.6336L116.161 64.522L116.384 65.4104L116.606 66.2988L116.828 67.2983L117.05 68.2978L117.161 69.4083L117.383 70.4078L117.494 71.5183H84.1782L79.625 79.2921L83.734 86.8437Z" fill="white"/>
<path d="M200.673 123.38H229.991L220.996 109.942L206.115 107.499L194.01 112.607L200.673 123.38Z" fill="white"/>
<path d="M165.803 123.38L172.022 113.607L159.695 110.72L146.591 113.496L139.816 123.38H165.803Z" fill="white"/>
<path d="M172.021 113.607L183.459 95.8384L194.009 112.607L195.675 112.496L197.341 112.385L199.007 112.274L200.784 112.163L202.449 111.941L204.115 111.83L205.781 111.608L207.558 111.497L209.224 111.275L210.89 111.164L212.555 110.942L214.221 110.719L215.887 110.608L217.664 110.386L219.33 110.164L220.995 109.942L199.229 77.6256L227.103 37.6465H201.228L186.014 62.0782L170.688 37.6465H141.814L169.689 79.6246L146.59 113.496H148.922L151.254 113.607H153.586H155.918L158.25 113.718H160.693H163.026H165.469H166.246H167.024H167.912H168.689L169.578 113.607H170.355H171.244H172.021Z" fill="white"/>
<path d="M263.307 123.381V103.169L249.425 101.614L238.209 107.5V123.381H263.307Z" fill="white"/>
<path d="M263.307 80.2914V79.0698L263.418 77.8482L263.529 76.7377L263.64 75.6272L263.751 74.5167L263.973 73.4061L264.307 72.4066L264.64 71.4072L264.862 70.4077L265.306 69.5193L265.639 68.6308L266.083 67.7424L266.528 66.965L267.083 66.1877L267.638 65.4103L268.193 64.744L268.86 64.0777L269.415 63.4113L270.081 62.8561L270.859 62.3008L271.525 61.7455L272.302 61.3013L273.08 60.8571L273.857 60.5239L274.745 60.0797L275.523 59.8576L276.522 59.5245L277.411 59.3024L278.299 59.1913L279.299 59.0803L280.298 58.9692H281.298H282.075H282.852L283.519 59.0803L284.185 59.1913H284.851L285.407 59.3024L286.073 59.5245L286.628 59.6355L287.294 59.8576L287.85 60.0797L288.516 60.3018L289.071 60.5239L289.738 60.8571L290.293 61.1902L290.959 61.5234L291.626 61.8566L297.845 39.3128L297.178 38.8686L296.401 38.4243L295.623 38.0912L294.957 37.758L294.18 37.4249L293.402 37.0917L292.736 36.8696L291.959 36.6475L291.181 36.4254L290.404 36.3144L289.627 36.2033L288.849 36.0923L287.961 35.9812L287.183 35.8701H286.295H285.407H284.518L283.63 35.9812H282.741L281.853 36.0923L281.076 36.2033L280.298 36.4254L279.521 36.6475L278.632 36.8696L277.855 37.0917L277.189 37.4249L276.411 37.758L275.634 38.0912L274.857 38.4243L274.19 38.8686L273.524 39.3128L272.858 39.868L272.191 40.3123L271.525 40.8675L270.859 41.4228L270.192 42.0891L269.526 42.7554L268.971 43.4217L268.304 44.1991L267.749 44.9765L267.194 45.7539L266.528 46.5312L265.972 47.4197L265.417 48.3081L264.862 49.1965L264.306 50.196L263.862 51.1955L263.307 52.306V37.647H238.209V107.499L239.764 107.277L241.318 107.055L242.984 106.833L244.539 106.5L246.094 106.278L247.649 106.056L249.203 105.723L250.758 105.5L252.313 105.167L253.979 104.945L255.533 104.612L257.088 104.39L258.643 104.057L260.198 103.835L261.752 103.502L263.307 103.168V80.2914Z" fill="white"/>
<path d="M383.8 80.0694V79.181V78.2925L383.689 77.4041V76.5157L371.14 74.9609L358.258 82.1794V83.401L358.146 84.7336L358.035 85.511L357.924 86.3994L357.813 87.1768L357.702 88.0652L357.591 88.9536L357.369 89.8421L357.147 90.8415L356.925 91.73L356.592 92.7294L356.258 93.6179L355.925 94.6173L355.481 95.5058L355.037 96.3942L354.593 97.3937L354.037 98.2821L353.482 99.0595L352.816 99.9479L352.149 100.725L351.372 101.392L350.484 102.169L349.706 102.835L348.707 103.391L347.707 103.946L346.708 104.39L345.597 104.834L344.376 105.056L343.043 105.39L341.71 105.501L339.934 115.273L343.82 124.935L346.042 124.713L348.152 124.491L350.262 124.046L352.26 123.491L354.37 122.936L356.258 122.27L358.146 121.603L360.034 120.715L361.811 119.826L363.588 118.827L365.254 117.716L366.808 116.606L368.474 115.384L369.918 114.052L371.362 112.719L372.694 111.275L374.027 109.721L375.137 108.166L376.359 106.611L377.358 104.834L378.358 103.057L379.357 101.281L380.135 99.3926L380.912 97.3937L381.579 95.5058L382.134 93.3958L382.689 91.2857L383.022 89.1757L383.355 86.9547L383.689 84.7336L383.8 82.4015L383.8 80.0694Z" fill="white"/>
<path d="M339.934 105.611H338.935L337.935 105.5L336.936 105.389L336.047 105.278L335.159 105.056L334.27 104.834L333.493 104.612L332.716 104.278L331.938 103.945L331.272 103.501L330.606 103.168L329.939 102.724L329.384 102.279L328.829 101.724L328.273 101.28L327.718 100.725L327.274 100.169L326.83 99.6142L326.386 98.9479L325.941 98.3926L325.608 97.7263L325.164 97.0599L324.831 96.3936L324.609 95.8384L324.276 95.172L323.942 94.5057L323.72 93.8394L323.498 93.1731L323.054 91.8404L322.721 90.5078H309.616L298.289 96.0605L298.955 98.2815L299.844 100.392L300.732 102.391L301.732 104.278L302.842 106.055L303.953 107.832L305.174 109.387L306.396 110.942L307.729 112.274L309.172 113.607L310.616 114.94L312.06 116.05L313.503 117.05L315.058 118.049L316.613 118.937L318.168 119.826L319.722 120.492L321.277 121.158L322.832 121.825L324.387 122.38L325.941 122.824L327.385 123.38L328.829 123.713L330.272 124.046L331.716 124.268L333.049 124.49L334.381 124.712L335.603 124.934L336.825 125.045H337.935L338.935 125.156H339.934H340.933L341.933 125.045H342.821L343.821 124.934L341.711 105.5L341.267 105.611H340.822H340.378L339.934 105.611Z" fill="white"/>
<path d="M321.722 80.4026V78.8478L321.833 77.4042V75.9605L321.944 74.5168L322.166 73.1841L322.388 71.8515L322.61 70.6299L322.944 69.4083L323.277 68.2978L323.61 67.0762L323.943 66.0767L324.387 65.0772L324.831 64.0778L325.276 63.1893L325.831 62.3009L326.386 61.5236L327.052 60.6351L327.719 59.9688L328.385 59.3025L329.051 58.6362L329.829 58.0809L330.606 57.5256L331.384 57.0814L332.272 56.6372L333.16 56.3041L334.16 55.9709L335.048 55.6377L336.048 55.4156L337.047 55.1935H338.158L339.268 55.0825H340.379H341.489L342.489 55.1935L343.488 55.3046L344.488 55.4156L345.376 55.6377L346.265 55.9709L347.153 56.3041L348.042 56.6372L348.819 57.1925L349.596 57.6367L350.374 58.192L351.151 58.7472L351.817 59.4135L352.484 60.0799L353.039 60.7462L353.594 61.5236L354.149 62.412L354.705 63.3004L355.149 64.1888L355.593 65.0772L356.037 66.1878L356.482 67.1873L356.815 68.2978L357.148 69.4083L357.37 70.6299L357.592 71.8515L357.814 73.1841L357.925 74.5168L358.147 75.8494V77.2931L358.259 78.7368V80.2915V80.5136V80.9579V81.5131V82.1794L359.813 81.8463L361.479 81.4021L363.145 81.0689L364.7 80.7357L366.254 80.2915L367.92 79.9584L369.475 79.6252L371.03 79.2921L372.695 78.9589L374.25 78.5147L375.805 78.1815L377.36 77.8484L379.025 77.5152L380.58 77.182L382.135 76.8489L383.69 76.5157L383.468 74.7389L383.245 72.962L383.023 71.0741L382.579 69.2973L382.135 67.5204L381.58 65.7436L381.024 63.8557L380.358 62.1899L379.692 60.413L378.803 58.6362L377.915 56.8593L377.026 55.1935L375.916 53.5277L374.805 51.973L373.695 50.4182L372.362 48.9745L371.03 47.5308L369.586 46.0872L368.031 44.7545L366.476 43.5329L364.811 42.3114L363.034 41.2008L361.146 40.2013L359.258 39.3129L357.259 38.4245L355.149 37.7582L352.928 37.0919L350.596 36.5366L348.264 36.0924L345.821 35.7592L343.266 35.6481L340.601 35.5371H338.158L335.715 35.7592L333.383 35.9813L331.161 36.4255L328.94 36.8697L326.719 37.425L324.609 38.0913L322.61 38.8687L320.611 39.7571L318.612 40.6456L316.725 41.7561L314.948 42.8666L313.282 44.0882L311.616 45.3098L310.061 46.7535L308.507 48.1972L307.063 49.7519L305.73 51.4177L304.509 53.0835L303.287 54.8604L302.177 56.6372L301.177 58.5251L300.178 60.5241L299.4 62.523L298.623 64.633L297.957 66.8541L297.401 69.0752L296.957 71.2962L296.624 73.6283L296.402 75.9605L296.18 78.4036V80.9579V81.9573V83.0679V84.0673L296.291 85.0668L296.402 86.0663V87.0658L296.624 88.0653L296.735 88.9537L296.846 89.9532L297.068 90.8416L297.179 91.73L297.401 92.6184L297.735 94.3953L298.29 96.0611L299.734 95.7279L301.399 95.2837L302.843 94.9505L304.398 94.6174L305.953 94.2842L307.507 93.9511L309.062 93.6179L310.506 93.2847L312.06 92.8405L313.615 92.5074L315.17 92.1742L316.725 91.8411L318.168 91.5079L319.723 91.1747L321.278 90.8416L322.722 90.5084L322.61 89.62L322.388 88.7316L322.277 87.8431L322.166 87.0658L321.944 85.511L321.833 84.1784L321.722 82.9568V81.8463V80.9579L321.722 80.4026Z" fill="white"/>
<path d="M425.112 125.157H426.556L428.111 125.046L429.443 124.935L430.887 124.713L432.22 124.49L433.663 124.157L434.885 123.824L436.218 123.491L437.439 123.047L438.661 122.603L439.882 122.047L441.104 121.381L442.215 120.715L443.325 120.048L444.436 119.271L445.546 118.382L439.438 101.725L438.328 102.391L437.217 102.835L436.662 103.168L436.107 103.39L435.662 103.501L435.107 103.723L434.552 103.835L434.108 103.946L433.552 104.057L432.997 104.168L432.442 104.279H431.887L431.331 104.39H430.776H430.332L429.888 104.279H429.443L429.11 104.168H428.666L428.333 104.057L428 103.946L427.667 103.723L427.333 103.612L427 103.501L426.667 103.279L426.334 103.057L426.112 102.835L425.89 102.613L425.556 102.391L425.334 102.058L425.223 101.724L425.001 101.391L424.779 101.058L424.557 100.725L424.446 100.392L424.335 100.059L424.224 99.6145L424.002 99.1703L423.89 98.726V98.2818L423.779 97.7266V97.2824L423.668 96.1718L423.557 95.0613V68.9638L410.897 66.9648L398.57 73.4059V98.0597V99.7255L398.681 101.28L398.792 102.724L399.015 104.168L399.237 105.611L399.57 106.944L399.903 108.277L400.236 109.609L400.791 110.831L401.236 111.941L401.902 113.163L402.457 114.273L403.124 115.273L403.901 116.272L404.678 117.161L405.456 118.049L406.344 118.938L407.233 119.715L408.232 120.492L409.231 121.159L410.342 121.714L411.453 122.38L412.563 122.825L413.785 123.38L415.117 123.713L416.339 124.157L417.672 124.49L419.115 124.712L420.559 124.824L422.003 125.046L423.557 125.157L425.112 125.157Z" fill="white"/>
<path d="M423.557 57.1922H441.659V37.6469H423.557V11.7715L398.57 20.4336V37.6469H386.688V57.1922H398.57V73.406L400.125 73.0728L401.68 72.7397L403.345 72.5176L404.9 72.1844L406.455 71.8513L408.01 71.6291L409.676 71.296L411.23 71.0739L412.785 70.7407L414.34 70.4076L415.894 70.1855L417.449 69.9634L419.004 69.6302L420.559 69.4081L422.113 69.186L423.557 68.9639V57.1922Z" fill="white"/>
<path d="M507.736 71.2963V123.38H532.834V71.8515L520.174 64.7441L507.514 67.4094L507.625 68.2978L507.736 69.2973V70.1857L507.736 71.2963Z" fill="white"/>
<path d="M479.305 123.38V72.8506V71.7401V70.6295L479.416 69.519L479.527 68.5195L479.749 67.52L479.971 66.6316L480.193 65.7432L480.416 64.8548L466.867 61.4121L454.207 65.41V123.38H479.305Z" fill="white"/>
<path d="M480.416 64.855L480.749 64.0777L481.082 63.1892L481.526 62.4119L481.859 61.7456L482.304 61.0792L482.859 60.4129L483.303 59.8577L483.858 59.3024L484.303 58.7471L484.858 58.3029L485.413 57.8587L485.968 57.5255L486.524 57.1924L487.079 56.8592L487.634 56.5261L488.189 56.304L488.745 56.0818L489.3 55.8597L489.855 55.7487L490.299 55.6376L491.41 55.4155L492.298 55.1934L493.187 55.0823H493.853H494.519H494.964L495.63 54.9713L496.963 55.0823H497.407L497.851 55.1934H498.295L498.851 55.3044L499.295 55.4155L499.85 55.6376L500.405 55.8597L500.85 56.0818L501.405 56.3039L501.96 56.6371L502.515 57.0813L503.071 57.4145L503.515 57.8587L504.07 58.4139L504.514 59.0803L504.959 59.6355L505.403 60.4129L505.847 61.1903L506.18 61.9676L506.513 62.9671L506.846 63.9666L507.069 64.9661L507.402 66.1877L507.513 67.4092L509.179 67.6313L510.733 67.8534L512.399 68.0756L513.954 68.4087L515.509 68.6308L517.174 68.8529L518.729 69.1861L520.284 69.4082L521.839 69.7413L523.504 70.0745L525.059 70.2966L526.614 70.6298L528.169 70.9629L529.723 71.185L531.278 71.5182L532.833 71.8514V70.4077V68.5198L532.722 66.6319L532.611 64.855L532.389 63.0782L532.166 61.4124L531.944 59.7466L531.722 58.0808L531.389 56.415L530.945 54.8602L530.501 53.4165L530.056 51.9728L529.501 50.5291L528.946 49.1965L528.28 47.8639L527.613 46.6423L526.836 45.4207L526.058 44.3102L525.17 43.1996L524.171 42.2002L523.171 41.3117L522.172 40.4233L521.061 39.5349L519.839 38.8686L518.507 38.0912L517.174 37.5359L515.842 37.0917L514.398 36.5365L512.732 36.2033L511.177 35.8701L509.4 35.7591L507.624 35.537H505.847H504.736L503.515 35.648H502.515L501.405 35.7591L500.405 35.8701L499.295 36.0922L498.295 36.3143L497.296 36.5364L496.407 36.7585L495.408 37.0917L494.519 37.3138L493.52 37.758L492.742 38.0912L491.854 38.4243L490.966 38.8686L490.188 39.4238L489.3 39.868L488.522 40.4233L487.745 40.9786L486.968 41.5338L486.19 42.2002L485.524 42.8665L484.858 43.5328L484.08 44.3102L483.414 44.9765L482.748 45.7539L482.192 46.6423L481.526 47.4197L480.971 48.3081L480.305 49.1965L479.749 50.0849L479.305 51.0844V0H454.207V65.4103L456.317 65.1882L458.538 65.0772L460.648 64.9661L462.758 64.8551L464.868 64.744H466.978H469.088H471.198H472.309H473.419H474.641H475.751H476.973L478.083 64.8551H479.305L480.416 64.855Z" fill="white"/>
</svg>
