<svg width="788" height="788" viewBox="0 0 788 788" fill="none" xmlns="http://www.w3.org/2000/svg">
<path d="M75.8031 786.446L75.7959 786.446L75.7887 786.445C57.0668 784.599 42.3861 777.922 30.7905 767.601C19.1821 757.268 10.6162 743.238 4.21372 726.621L4.21354 726.62C1.62634 719.915 1.63772 712.412 1.64908 704.917C1.64984 704.421 1.65059 703.925 1.65059 703.43C1.62819 637.508 1.63855 571.585 1.64892 505.662C1.67095 365.576 1.69299 225.489 1.40058 85.408C1.31172 43.9267 31.8252 14.0551 61.7094 3.98792C66.7381 2.29638 72.0579 2.06418 77.5241 1.82559C79.0103 1.76072 80.5073 1.69538 82.0123 1.6001H82.0198H82.0329H82.0459H82.059H82.0721H82.0851H82.0982H82.1112H82.1243H82.1374H82.1504H82.1635H82.1766H82.1896H82.2027H82.2158H82.2288H82.2419H82.2549H82.268H82.2811H82.2941H82.3072H82.3202H82.3333H82.3464H82.3594H82.3725H82.3855H82.3986H82.4117H82.4247H82.4378H82.4508H82.4639H82.477H82.49H82.5031H82.5161H82.5292H82.5422H82.5553H82.5684H82.5814H82.5945H82.6075H82.6206H82.6336H82.6467H82.6598H82.6728H82.6859H82.6989H82.712H82.725H82.7381H82.7511H82.7642H82.7773H82.7903H82.8034H82.8164H82.8295H82.8425H82.8556H82.8686H82.8817H82.8947H82.9078H82.9208H82.9339H82.9469H82.96H82.973H82.9861H82.9991H83.0122H83.0252H83.0383H83.0513H83.0644H83.0774H83.0905H83.1036H83.1166H83.1296H83.1427H83.1557H83.1688H83.1818H83.1949H83.2079H83.221H83.234H83.2471H83.2601H83.2732H83.2862H83.2993H83.3123H83.3254H83.3384H83.3515H83.3645H83.3776H83.3906H83.4037H83.4167H83.4298H83.4428H83.4558H83.4689H83.4819H83.495H83.508H83.5211H83.5341H83.5472H83.5602H83.5733H83.5863H83.5993H83.6124H83.6254H83.6385H83.6515H83.6646H83.6776H83.6907H83.7037H83.7168H83.7298H83.7428H83.7559H83.7689H83.782H83.795H83.8081H83.8211H83.8341H83.8472H83.8602H83.8733H83.8863H83.8994H83.9124H83.9254H83.9385H83.9515H83.9646H83.9776H83.9906H84.0037H84.0167H84.0298H84.0428H84.0559H84.0689H84.0819H84.095H84.108H84.1211H84.1341H84.1471H84.1602H84.1732H84.1863H84.1993H84.2123H84.2254H84.2384H84.2515H84.2645H84.2775H84.2906H84.3036H84.3167H84.3297H84.3427H84.3558H84.3688H84.3819H84.3949H84.4079H84.421H84.434H84.4471H84.4601H84.4731H84.4862H84.4992H84.5123H84.5253H84.5383H84.5514H84.5644H84.5774H84.5905H84.6035H84.6166H84.6296H84.6426H84.6557H84.6687H84.6818H84.6948H84.7078H84.7209H84.7339H84.7469H84.76H84.773H84.7861H84.7991H84.8121H84.8252H84.8382H84.8512H84.8643H84.8773H84.8904H84.9034H84.9164H84.9295H84.9425H84.9556H84.9686H84.9816H84.9947H85.0077H85.0207H85.0338H85.0468H85.0598H85.0729H85.0859H85.099H85.112H85.125H85.1381H85.1511H85.1641H85.1772H85.1902H85.2033H85.2163H85.2293H85.2424H85.2554H85.2684H85.2815H85.2945H85.3076H85.3206H85.3336H85.3467H85.3597H85.3727H85.3858H85.3988H85.4118H85.4249H85.4379H85.451H85.464H85.477H85.4901H85.5031H85.5162H85.5292H85.5422H85.5553H85.5683H85.5813H85.5944H85.6074H85.6204H85.6335H85.6465H85.6596H85.6726H85.6856H85.6987H85.7117H85.7247H85.7378H85.7508H85.7639H85.7769H85.7899H85.803H85.816H85.829H85.8421H85.8551H85.8682H85.8812H85.8942H85.9073H85.9203H85.9333H85.9464H85.9594H85.9725H85.9855H85.9985H86.0116H86.0246H86.0377H86.0507H86.0637H86.0768H86.0898H86.1029H86.1159H86.1289H86.142H86.155H86.168H86.1811H86.1941H86.2072H86.2202H86.2332H86.2463H86.2593H86.2724H86.2854H86.2984H86.3115H86.3245H86.3376H86.3506H86.3636H86.3767H86.3897H86.4028H86.4158H86.4288H86.4419H86.4549H86.468H86.481H86.494H86.5071H86.5201H86.5332H86.5462H86.5592H86.5723H86.5853H86.5984H86.6114H86.6245H86.6375H86.6505H86.6636H86.6766H86.6897H86.7027H86.7157H86.7288H86.7418H86.7549H86.7679H86.781H86.794H86.807H86.8201H86.8331H86.8462H86.8592H86.8723H86.8853H86.8983H86.9114H86.9244H86.9375H86.9505H86.9636H86.9766H86.9897H87.0027H87.0157H87.0288H87.0418H87.0549H87.0679H87.081H87.094H87.1071H87.1201H87.1331H87.1462H87.1592H87.1723H87.1853H87.1984H87.2114H87.2245H87.2375H87.2506H87.2636H87.2767H87.2897H87.3028H87.3158H87.3288H87.3419H87.3549H87.368H87.381H87.3941H87.4071H87.4202H87.4332H87.4463H87.4593H87.4724H87.4854H87.4985H87.5115H87.5246H87.5376H87.5507H87.5637H87.5768H87.5898H87.6029H87.6159H87.629H87.642H87.6551H87.6681H87.6812H87.6942H87.7073H87.7203H87.7334H87.7465H87.7595H87.7726H87.7856H87.7987H87.8117H87.8248H87.8378H87.8509H87.8639H87.877H87.89H87.9031H87.9162H87.9292H87.9423H87.9553H87.9684H87.9814H87.9945H88.0075H88.0206H88.0337H88.0467H88.0598H88.0728H88.0859H88.0989H88.112H88.1251H88.1381H88.1512H88.1642H88.1773H88.1903H88.2034H88.2165H88.2295H88.2426H88.2556H88.2687H88.2818H88.2948H88.3079H88.3209H88.334H88.3471H88.3601H88.3732H88.3862H88.3993H88.4124H88.4254H88.4385H88.4516H88.4646H88.4777H88.4907H88.5038H88.5169H88.5299H88.543H88.5561H88.5691H88.5822H88.5953H88.6083H88.6214H88.6345H88.6475H88.6606H89.8563H91.0519H92.2476H93.4433H94.6389H95.8346H97.0302H98.2259H99.4216H100.617H101.813H103.009H104.204H105.4H106.596H107.791H108.987H110.183H111.378H112.574H113.77H114.965H116.161H117.357H118.552H119.748H120.944H122.139H123.335H124.531H125.726H126.922H128.118H129.313H130.509H131.705H132.9H134.096H135.292H136.487H137.683H138.879H140.074H141.27H142.466H143.661H144.857H146.053H147.248H148.444H149.64H150.835H152.031H153.227H154.422H155.618H156.814H158.009H159.205H160.401H161.596H162.792H163.988H165.184H166.379H167.575H168.771H169.966H171.162H172.358H173.553H174.749H175.945H177.14H178.336H179.532H180.727H181.923H183.119H184.314H185.51H186.706H187.901H189.097H190.293H191.488H192.684H193.88H195.075H196.271H197.467H198.662H199.858H201.054H202.25H203.445H204.641H205.837H207.032H208.228H209.424H210.619H211.815H213.011H214.206H215.402H216.598H217.793H218.989H220.185H221.38H222.576H223.772H224.967H226.163H227.359H228.555H229.75H230.946H232.142H233.337H234.533H235.729H236.924H238.12H239.316H240.511H241.707H242.903H244.098H245.294H246.49H247.685H248.881H250.077H251.272H252.468H253.664H254.86H256.055H257.251H258.447H259.642H260.838H262.034H263.229H264.425H265.621H266.816H268.012H269.208H270.403H271.599H272.795H273.99H275.186H276.382H277.577H278.773H279.969H281.165H282.36H283.556H284.752H285.947H287.143H288.339H289.534H290.73H291.926H293.121H294.317H295.513H296.708H297.904H299.1H300.296H301.491H302.687H303.883H305.078H306.274H307.47H308.665H309.861H311.057H312.252H313.448H314.644H315.839H317.035H318.231H319.426H320.622H321.818H323.013H324.209H325.405H326.601H327.796H328.992H330.188H331.383H332.579H333.775H334.97H336.166H337.362H338.557H339.753H340.949H342.144H343.34H344.536H345.731H346.927H348.123H349.318H350.514H351.71H352.906H354.101H355.297H356.493H357.688H358.884H360.08H361.275H362.471H363.667H364.862H366.058H367.254H368.449H369.645H370.841H372.036H373.232H374.428H375.623H376.819H378.015H379.211H380.406H381.602H382.798H383.993H385.189H386.385H387.58H388.776H389.972H391.167H392.363H393.559H394.754H395.95H397.146H398.341H399.537H400.733H401.928H403.124H404.32H405.515H406.711H407.907H409.103H410.298H411.494H412.69H413.885H415.081H416.277H417.472H418.668H419.864H421.059H422.255H423.451H424.646H425.842H427.038H428.233H429.429H430.625H431.82H433.016H434.212H435.407H436.603H437.799H438.994H440.19H441.386H442.581H443.777H444.973H446.168H447.364H448.56H449.755H450.951H452.147H453.342H454.538H455.734H456.929H458.125H459.321H460.516H461.712H462.908H464.103H465.299H466.495H467.691H468.886H470.082H471.278H472.473H473.669H474.865H476.06H477.256H478.452H479.647H480.843H482.039H483.234H484.43H485.626H486.821H488.017H489.213H490.408H491.604H492.8H493.995H495.191H496.387H497.582H498.778H499.974H501.169H502.365H503.56H504.756H505.952H507.147H508.343H509.539H510.734H511.93H513.126H514.321H515.517H516.713H517.908H519.104H520.3H521.495H522.691H523.887H525.082H526.278H527.474H528.669H529.865H531.061H532.256H533.452H534.648H535.843H537.039H538.235H539.43H540.626H541.822H543.017H544.213H545.409H546.604H547.8H548.995H550.191H551.387H552.582H553.778H554.974H556.169H557.365H558.561H559.756H560.952H562.148H563.343H564.539H565.735H566.93H568.126H569.322H570.517H571.713H572.909H574.104H575.3H576.495H577.691H578.887H580.082H581.278H582.474H583.669H584.865H586.061H587.256H588.452H589.648H590.843H592.039H593.234H594.43H595.626H596.821H598.017H599.213H600.408H601.604H602.8H603.995H605.191H606.386H607.582H608.778H609.973H611.169H612.365H613.56H614.756H615.952H617.147H618.343H619.538H620.734H621.93H623.125H624.321H625.517H626.712H627.908H629.104H630.299H631.495H632.69H633.886H635.082H636.277H637.473H638.669H639.864H641.06H642.255H643.451H644.647H645.842H647.038H648.234H649.429H650.625H651.82H653.016H654.212H655.407H656.603H657.799H658.994H660.19H661.385H662.581H663.777H664.972H666.168H667.364H668.559H669.755H670.95H672.146H673.342H674.537H675.733H676.928H678.124H679.32H680.515H681.711H682.906H684.102H685.298H686.493H687.689H688.885H690.08H691.276H692.471H693.667H694.863H696.058H697.254H698.449H699.645H700.841H700.853H700.865H700.877H700.889H700.901H700.913H700.926H700.938H700.95H700.962H700.974H700.986H700.998H701.01H701.023H701.035H701.047H701.059H701.071H701.083H701.095H701.107H701.12H701.132H701.144H701.156H701.168H701.18H701.192H701.205H701.217H701.229H701.241H701.253H701.265H701.277H701.289H701.302H701.314H701.326H701.338H701.35H701.362H701.374H701.386H701.399H701.411H701.423H701.435H701.447H701.459H701.471H701.483H701.496H701.508H701.52H701.532H701.544H701.556H701.568H701.581H701.593H701.605H701.617H701.629H701.641H701.653H701.665H701.677H701.69H701.702H701.714H701.726H701.738H701.75H701.762H701.775H701.787H701.799H701.811H701.823H701.835H701.847H701.859H701.872H701.884H701.896H701.908H701.92H701.932H701.944H701.956H701.969H701.981H701.993H702.005H702.017H702.029H702.041H702.053H702.066H702.078H702.09H702.102H702.114H702.126H702.138H702.15H702.163H702.175H702.187H702.199H702.211H702.223H702.235H702.247H702.26H702.272H702.284H702.296H702.308H702.32H702.332H702.344H702.357H702.369H702.381H702.393H702.405H702.417H702.429H702.441H702.454H702.466H702.478H702.49H702.502H702.514H702.526H702.538H702.551H702.563H702.575H702.587H702.599H702.611H702.623H702.635H702.648H702.66H702.672H702.684H702.696H702.708H702.72H702.732H702.745H702.757H702.769H702.781H702.793H702.805H702.817H702.829H702.842H702.854H702.866H702.878H702.89H702.902H702.914H702.926H702.939H702.951H702.963H702.975H702.987H702.999H703.011H703.023H703.036H703.048H703.06H703.072H703.084H703.096H703.108H703.12H703.133H703.145H703.157H703.169H703.181H703.193H703.205H703.217H703.229H703.242H703.254H703.266H703.278H703.29H703.302H703.314H703.326H703.339H703.351H703.363H703.375H703.387H703.399H703.411H703.423H703.435H703.448H703.46H703.472H703.484H703.496H703.508H703.52H703.532H703.545H703.557H703.569H703.581H703.593H703.605H703.617H703.629H703.641H703.654H703.666H703.678H703.69H703.702H703.714H703.726H703.738H703.751H703.763H703.775H703.787H703.799H703.811H703.823H703.835H703.847H703.86H703.872H703.884H703.896H703.908H703.92H703.932H703.944H703.956H703.969H703.981H703.993H704.005H704.017H704.029H704.041H704.053H704.065H704.078H704.09H704.102H704.114H704.126H704.138H704.15H704.162H704.174H704.187H704.199H704.211H704.223H704.235H704.247H704.259H704.271H704.284H704.296H704.308H704.32H704.332H704.344H704.356H704.368H704.38H704.393H704.405H704.417H704.429H704.441H704.453H704.465H704.477H704.489H704.501H704.514H704.526H704.538H704.55H704.562H704.574H704.586H704.598H704.61H704.623H704.635H704.647H704.659H704.671H704.683H704.695H704.707H704.719H704.732H704.744H704.756H704.768H704.78H704.792H704.804H704.816H704.828H704.84H704.853H704.865H704.877H704.889H704.901H704.913H704.925H704.937H704.949H704.961H704.974H704.986H704.998H705.01H705.022H705.034H705.046H705.058H705.07H705.083H705.095H705.107H705.119H705.131H705.143H705.155H705.167H705.179H705.191H705.204H705.216H705.228H705.24H705.252H705.264H705.276H705.288H705.3H705.312H705.325H705.337H705.349H705.361H705.373H705.385H705.397H705.409H705.421H705.433H705.445H705.458H705.47H705.482H705.494H705.506H705.518H705.53H705.542H705.554H705.566H705.579H705.591H705.603H705.615H705.627H705.639H705.651H705.663H705.675H705.687H705.699H705.712H705.724H705.736H705.748H705.76H705.772H705.784H705.796H705.808H705.82H705.833H705.845H705.857H705.869H705.881H705.893H705.905H705.917H705.929H705.941H705.953H705.965H705.978H705.99H706.002H706.014H706.026H706.038H706.05H706.062H706.074H706.086H706.098H706.111H706.123H706.135H706.147H706.159H706.171H706.183H706.195H706.207H706.219H706.231H706.243H706.256H706.268H706.28H706.292H706.304H706.316H706.328H706.34H706.352H706.364H706.376H706.388H706.401H706.413H706.425H706.437H706.449H706.461H706.473H706.485H706.497H706.509H706.521H706.533H706.546H706.558H706.57H706.582H706.594H706.606H706.618H706.63H706.642H706.654H706.666H706.678H706.69H706.703H706.715H706.727H706.739H706.751H706.763H706.775H706.787H706.799H706.811H706.823H706.835H706.847H706.859H706.872H706.884H706.896H706.908H706.92H706.932H706.944H706.956H706.968H706.98H706.992H707.004H707.016H707.029H707.041H707.053L707.065 1.59979C728.447 1.06772 746.082 9.55698 761.404 24.0467L762.091 23.3201L761.404 24.0467C770.484 32.6322 777.411 42.5943 782.611 53.9757C784.061 57.1498 784.73 60.4697 785.239 63.8993C785.37 64.7805 785.49 65.6741 785.612 66.5748C785.952 69.0994 786.301 71.6799 786.901 74.1983V715.9C785.741 727.416 782.104 737.985 775.715 747.701C764.588 764.629 749.674 776.762 730.786 783.935L731.141 784.87L730.785 783.935C727.854 785.05 724.752 785.471 721.523 785.776C720.882 785.836 720.234 785.892 719.582 785.949C717.019 786.17 714.385 786.398 711.817 786.93H77.3156C76.9191 786.736 76.4181 786.516 75.8031 786.446Z" fill="#011F26" stroke="white" stroke-width="2"/>
<path d="M701.981 0.939844C700.651 0.989844 699.321 1.08984 697.991 1.08984C496.001 1.08984 294.011 1.08984 92.0206 1.08984C90.6906 1.08984 89.3606 0.989844 88.0306 0.929844C87.3406 0.619844 87.3606 0.339844 88.0706 0.0898438H701.941C702.651 0.339844 702.671 0.619844 701.981 0.929844V0.939844Z" fill="#011F26"/>
<path d="M88.0713 0.0996094C88.0613 0.379609 88.0512 0.659609 88.0312 0.939609H82.0312C82.0512 0.659609 82.0613 0.379609 82.0713 0.0996094H88.0713V0.0996094Z" fill="#011F26"/>
<path d="M254.56 272.68C245.06 279.41 236.48 285.66 227.71 291.63C219.3 297.36 208.8 292.96 207.52 283.23C206.77 277.5 209.59 273.47 214.18 270.23C240.97 251.29 267.7 232.25 294.45 213.26C327.58 189.73 360.75 166.24 393.82 142.61C396.52 140.68 398.21 140.46 401.05 142.54C459.07 185.1 517.18 227.54 575.29 269.98C578.31 272.19 581.03 274.56 581.95 278.38C583.24 283.72 581.26 289.09 576.93 292.03C572.59 294.98 566.99 295.05 562.4 291.82C554.91 286.55 547.57 281.06 540.14 275.7C538.83 274.75 537.7 273.44 535.92 273.2C534.59 274.23 535.18 275.67 535.18 276.9C535.1 298.39 535.16 319.89 534.95 341.38C534.92 344.94 536.25 345.71 539.44 346.21C564.95 350.21 590.23 355.22 614.62 363.98C616.65 364.71 618.76 365.33 620.66 366.32C624.25 368.18 625.55 371.21 624.25 375.1C622.97 378.93 620.29 379.84 616.37 379.17C541.83 366.35 466.69 360.34 391.1 360.24C319.67 360.15 248.68 365.76 178.28 378.13C176.8 378.39 175.32 378.63 173.88 379.04C169.91 380.17 166.94 379.15 165.46 375.11C164.06 371.29 165.8 367.62 170.02 365.93C180.23 361.85 190.82 358.91 201.44 356.12C217.55 351.89 233.85 348.58 250.29 345.92C252.38 345.58 254.6 345.64 254.59 342.37C254.51 319.56 254.55 296.76 254.55 272.68H254.56Z" fill="white"/>
<path d="M232.371 607.78C228.211 607.78 224.031 607.92 219.881 607.73C216.971 607.59 215.721 608.34 215.821 611.56C216.041 618.88 215.961 626.22 215.861 633.55C215.821 636.28 216.421 638.41 219.081 639.7C220.811 640.54 222.141 641.85 221.481 644.07C220.921 645.94 219.311 646.73 217.641 646.75C209.651 646.86 201.651 646.86 193.661 646.75C191.991 646.73 190.361 645.95 189.821 644.08C189.191 641.88 190.451 640.6 192.261 639.77C194.761 638.61 195.341 636.55 195.331 634.03C195.301 616.04 195.301 598.05 195.331 580.05C195.331 577.52 194.721 575.49 192.231 574.34C190.421 573.5 189.261 572.15 189.791 569.98C190.261 568.05 191.901 567.25 193.551 567.23C201.711 567.13 209.871 567.14 218.021 567.29C219.701 567.32 221.251 568.3 221.591 570.25C221.921 572.16 221.031 573.54 219.291 574.19C216.431 575.26 215.851 577.42 215.891 580.15C215.971 585.48 215.991 590.81 215.871 596.14C215.821 598.49 216.641 599.37 219.021 599.34C227.851 599.25 236.681 599.25 245.511 599.34C247.991 599.37 249.131 598.68 249.041 595.96C248.871 590.63 248.951 585.3 249.001 579.97C249.021 577.4 248.141 575.46 245.721 574.32C243.911 573.47 242.681 572.16 243.231 569.99C243.711 568.11 245.331 567.25 247.001 567.23C255.161 567.13 263.311 567.13 271.471 567.28C273.121 567.31 274.711 568.23 275.051 570.21C275.371 572.12 274.521 573.47 272.791 574.19C269.841 575.42 269.221 577.82 269.221 580.69C269.241 598.18 269.251 615.67 269.211 633.17C269.211 636.05 269.931 638.4 272.721 639.76C274.331 640.55 275.421 641.77 275.041 643.73C274.611 645.93 272.811 646.72 270.961 646.75C263.131 646.88 255.301 646.87 247.481 646.78C245.611 646.76 243.791 646.01 243.231 643.93C242.631 641.71 243.991 640.59 245.821 639.74C248.251 638.6 248.951 636.41 248.961 633.95C248.991 626.29 248.921 618.62 249.031 610.96C249.061 608.6 248.261 607.69 245.871 607.76C241.381 607.88 236.881 607.8 232.381 607.79L232.371 607.78Z" fill="white"/>
<path d="M367.081 606.97C367.001 630.49 347.111 648.78 321.901 648.5C296.901 648.23 278.231 630.16 278.501 606.5C278.771 582.88 297.911 565.12 322.811 565.39C348.601 565.67 367.151 583.09 367.081 606.97Z" fill="white"/>
<path d="M489.701 648.49C482.151 648.3 474.731 647.43 467.881 643.95C463.021 641.48 458.901 638.17 456.671 633.01C455.231 629.67 455.091 626.29 458.511 624.12C462.101 621.83 465.021 623.68 466.941 626.79C471.291 633.85 477.081 638.6 485.551 639.59C491.191 640.24 496.571 639.51 501.311 636.25C508.681 631.18 507.941 622.12 499.881 618.34C495.011 616.06 489.671 615.39 484.521 614.06C481.141 613.19 477.731 612.39 474.431 611.26C466.151 608.44 460.061 603.46 458.991 594.17C457.851 584.26 461.791 576.41 469.991 571.14C481.461 563.76 494.041 564.52 506.681 567.4C508.301 567.77 509.871 568.35 511.431 568.92C519.611 571.9 522.101 576.59 520.101 585.19C519.271 588.77 515.931 589.81 513.351 587.07C511.661 585.27 510.521 582.97 509.041 580.96C503.681 573.64 493.551 570.99 485.391 574.76C481.681 576.48 479.081 579.05 478.921 583.44C478.761 587.85 481.171 590.62 484.801 592.51C489.281 594.84 494.261 595.61 499.081 596.87C502.941 597.88 506.881 598.69 510.611 600.05C526.851 605.98 531.281 622.95 520.181 636.34C513.521 644.38 502.741 648.68 489.681 648.47L489.701 648.49Z" fill="white"/>
<path d="M563.66 646.859C554.5 646.859 545.34 646.869 536.18 646.849C533.98 646.849 531.67 646.689 530.74 644.229C529.69 641.449 531.82 640.389 533.77 639.349C535.85 638.239 536.17 636.309 536.17 634.239C536.17 615.919 536.17 597.599 536.2 579.269C536.2 576.869 535.6 575.029 533.05 574.289C531.21 573.749 530.26 572.399 530.46 570.529C530.69 568.359 532.36 567.509 534.27 567.179C535.41 566.989 536.59 567.009 537.76 567.009C554.25 567.009 570.74 566.979 587.23 567.009C594.24 567.029 598.97 575.289 595.37 581.339C593.57 584.359 590.43 584.229 588.64 581.939C581.51 572.819 571.72 574.979 562.38 575.229C558.54 575.329 556.33 577.189 556.64 581.589C556.96 586.229 556.8 590.919 556.68 595.579C556.61 598.009 557.19 599.259 559.97 599.149C564.79 598.959 569.63 599.049 574.46 599.079C577.12 599.089 579.18 597.919 581.23 596.339C584.38 593.899 586.64 595.189 587.5 598.669C588.04 600.889 587.95 603.299 587.88 605.619C587.67 611.899 585.21 613.199 579.83 609.849C575.03 606.859 569.76 608.279 564.7 608.139C556.73 607.919 556.71 608.079 556.74 615.919C556.75 620.919 556.85 625.909 556.87 630.909C556.89 635.209 558.8 637.949 563.23 638.369C573.57 639.349 584.02 640.839 591.52 630.829C593.01 628.849 595.32 627.399 598.11 628.839C601.11 630.379 600.17 633.089 599.79 635.469C599.5 637.259 598.6 638.939 598.24 640.719C597.28 645.489 594.48 647.129 589.66 646.959C581.01 646.649 572.34 646.869 563.68 646.869L563.66 646.859Z" fill="white"/>
<path d="M524.12 509.37C524.14 530.58 506.68 546.939 483.98 546.979C461.34 547.029 444.54 531.04 444.57 509.48C444.6 488.1 461.7 472.04 484.29 472.19C507.24 472.34 524.1 488.07 524.13 509.37H524.12Z" fill="white"/>
<path d="M377.482 599.08C377.482 592.92 377.472 586.77 377.482 580.61C377.482 577.86 377.432 575.24 374.042 574.28C372.152 573.74 371.561 572.2 371.831 570.33C372.121 568.33 373.682 567.32 375.322 567.3C383.972 567.15 392.632 567.15 401.282 567.28C402.942 567.3 404.542 568.25 404.842 570.23C405.142 572.19 404.022 573.46 402.322 574.04C398.712 575.27 397.872 577.93 397.682 581.42C396.962 594.72 395.802 608.03 396.932 621.34C398.232 636.56 410.522 644.13 424.852 638.72C432.562 635.81 435.172 629.25 436.012 621.77C437.082 612.29 436.012 602.81 435.632 593.33C435.472 589.5 434.942 585.68 435.042 581.86C435.132 578.15 434.312 575.37 430.512 573.97C428.872 573.36 427.732 572.03 428.152 570.06C428.562 568.11 430.172 567.32 431.852 567.27C436.842 567.11 441.841 567.09 446.831 567.22C448.701 567.27 450.501 568.03 450.861 570.26C451.181 572.25 449.952 573.5 448.322 574.09C444.322 575.55 444.031 578.59 444.301 582.18C445.141 593.47 446.181 604.75 446.051 616.1C445.801 636.95 436.392 646.88 415.521 648.34C410.671 648.68 405.831 648.53 401.081 647.73C385.531 645.12 377.092 635.09 376.202 618.07C375.872 611.76 376.152 605.43 376.152 599.1H377.502L377.482 599.08Z" fill="white"/>
<path d="M543.071 492.76C543.071 507.23 543.071 520.37 543.071 533.5C543.071 536.41 544.701 538.05 547.261 539.06C548.901 539.71 550.221 540.75 549.891 542.79C549.551 544.91 547.801 545.29 546.121 545.33C541.301 545.43 536.471 545.45 531.651 545.34C530.011 545.3 528.201 545.05 527.801 542.9C527.431 540.9 528.501 539.68 530.261 539.12C533.771 538.01 534.551 535.4 534.541 532.12C534.491 517.79 534.521 503.47 534.501 489.14C534.501 484.96 534.071 481.05 528.821 480.03C527.131 479.7 526.431 478.27 526.671 476.58C526.921 474.81 528.181 474 529.831 473.98C536.161 473.93 542.491 473.89 548.811 474C551.211 474.04 552.541 476.05 553.991 477.61C564.091 488.54 572.041 501.09 580.741 513.08C581.751 514.48 582.281 516.38 584.691 517.26C584.691 506.25 584.741 495.51 584.651 484.78C584.631 482.29 582.671 481.07 580.571 480.22C578.881 479.53 577.671 478.51 577.951 476.5C578.241 474.36 579.891 473.95 581.641 473.94C586.641 473.9 591.631 473.91 596.631 473.97C598.201 473.99 599.661 474.48 600.021 476.3C600.401 478.24 599.501 479.57 597.651 480.11C593.541 481.3 593.201 484.45 593.211 488C593.261 504.99 593.271 521.98 593.191 538.98C593.181 541.46 594.291 544.97 590.711 545.74C586.901 546.55 583.101 546.95 580.181 542.61C569.411 526.57 557.891 511.06 545.921 495.89C545.321 495.14 544.621 494.46 543.071 492.77V492.76Z" fill="white"/>
<path d="M222.75 522.24C220.75 522.24 218.75 522.24 216.75 522.24C208.6 522.24 204.57 526.66 204.91 534.95C205.01 537.38 206.44 538.45 208.17 539.54C209.35 540.29 210.22 541.3 209.93 542.84C209.59 544.67 208.14 545.22 206.6 545.27C202.11 545.39 197.62 545.44 193.14 545.37C191.64 545.35 190.13 544.93 189.74 543.05C189.43 541.56 189.91 540.25 191.16 539.6C194.39 537.93 195.01 534.79 195.92 531.78C201.64 512.92 209.81 495.11 219 477.72C221.03 473.87 223.91 472.96 227.94 472.88C231.88 472.8 233.95 474.43 235.69 477.75C244.84 495.17 252.14 513.37 258.74 531.87C259.8 534.84 260.71 537.67 263.6 539.71C266.22 541.55 265.47 544.69 262.31 545.09C254.87 546.02 247.35 546 239.91 545.11C236.57 544.71 235.81 541.88 238.53 539.98C241.15 538.15 241.23 536.32 240.5 533.62C237.44 522.26 237.5 522.24 225.75 522.24C224.75 522.24 223.75 522.24 222.75 522.24V522.24Z" fill="white"/>
<path d="M299.451 546.98C283.511 546.96 268.101 536.09 263.941 520.04C258.401 498.62 273.611 476.71 296.551 472.98C307.671 471.17 318.071 472.95 327.681 478.87C331.061 480.95 333.361 491.54 331.111 494.72C329.331 497.23 326.901 497.43 324.741 495.31C323.611 494.2 322.971 492.54 322.281 491.04C316.471 478.62 301.621 475.67 291.511 484.96C279.981 495.55 279.261 520.89 290.171 532.12C297.661 539.83 310.661 540.38 319.801 533.3C322.161 531.47 324.321 529.37 326.701 527.57C328.281 526.38 330.191 526.2 331.771 527.57C333.391 528.98 333.201 530.8 332.291 532.59C329.561 537.95 324.811 540.93 319.601 543.32C314.081 545.86 308.251 547.04 299.451 546.97V546.98Z" fill="white"/>
<path d="M379.921 509.819C379.921 517.479 379.981 525.139 379.891 532.799C379.861 535.639 380.171 538.079 383.191 539.379C384.481 539.939 385.251 541.069 385.021 542.609C384.751 544.419 383.421 545.149 381.851 545.259C374.381 545.789 366.891 545.789 359.421 545.259C357.801 545.139 356.551 544.219 356.261 542.539C355.991 541.009 356.971 539.899 358.221 539.379C361.071 538.199 361.491 535.859 361.491 533.259C361.501 517.609 361.431 501.959 361.541 486.309C361.571 482.089 359.741 480.639 355.741 481.119C351.381 481.639 347.881 483.619 344.971 486.809C343.451 488.479 341.621 489.929 339.301 488.789C336.841 487.579 337.501 485.229 337.811 483.059C339.141 473.869 339.161 473.819 348.281 473.819C364.101 473.819 379.911 473.799 395.731 473.839C401.291 473.849 406.461 482.919 403.371 487.519C401.281 490.629 398.701 489.219 396.701 487.099C393.491 483.709 389.831 481.409 385.041 481.089C381.511 480.859 379.811 482.039 379.891 485.859C380.061 493.849 379.941 501.839 379.941 509.839L379.921 509.819Z" fill="white"/>
<path d="M424.72 473.88C428.21 473.88 431.7 473.84 435.19 473.9C436.92 473.93 438.57 474.37 439.08 476.34C439.52 478.03 438.74 479.26 437.23 479.99C434.36 481.38 434 483.87 434.01 486.69C434.06 502.15 434.06 517.61 434.01 533.07C434.01 535.76 434.46 537.98 437.18 539.24C438.65 539.92 439.5 541.11 439.11 542.87C438.71 544.66 437.26 545.3 435.76 545.32C428.46 545.4 421.15 545.38 413.85 545.29C412.26 545.27 410.94 544.43 410.57 542.72C410.19 540.95 411.24 539.85 412.69 539.2C415.49 537.96 415.8 535.55 415.8 532.97C415.8 517.18 415.79 501.39 415.8 485.59C415.8 483.09 415.38 480.98 412.57 480.13C410.87 479.62 410.22 478.24 410.54 476.61C410.86 474.98 412.08 474.01 413.75 473.98C417.4 473.91 421.06 473.96 424.71 473.96V473.87L424.72 473.88Z" fill="white"/>
<path d="M352.041 447.02C347.281 447.92 345.271 446.55 345.641 441.15C346.181 433.2 345.681 425.19 345.861 417.21C345.901 415.43 344.351 412.09 347.851 412.2C351.291 412.31 355.931 409.65 357.781 415.61C359.981 422.72 362.691 429.68 365.501 437.62C368.411 429.64 370.991 422.51 373.611 415.41C374.661 412.57 383.001 410.37 384.921 412.53C385.571 413.26 385.561 414.71 385.561 415.83C385.611 424.98 385.531 434.13 385.621 443.27C385.641 445.81 385.251 447.23 382.131 447.22C379.091 447.2 378.081 446.3 378.171 443.23C378.361 436.13 378.231 429.03 377.261 421.7C374.831 428.64 372.381 435.57 369.961 442.51C369.091 445 368.641 447.35 364.821 447.27C361.121 447.2 361.011 444.74 360.251 442.51C358.051 436.07 355.931 429.59 353.781 423.13C351.411 423.86 352.651 425.8 352.571 427.15C352.181 433.76 353.081 440.41 352.041 447.01V447.02Z" fill="white"/>
<path d="M296.02 447C291.674 447.133 289.497 445.083 289.49 440.85C289.49 432.69 289.431 424.53 289.541 416.37C289.561 414.81 288.55 411.91 291.43 412.2C294.67 412.52 299.081 409.56 301.031 414.54C303.271 420.27 305.121 426.15 307.261 431.91C307.821 433.42 307.821 435.23 309.631 436.73C312.151 429.8 314.6 423.06 317.05 416.32C318.36 412.71 325.27 410.2 328.36 412.21C329.56 412.99 329.251 414.27 329.261 415.39C329.291 424.72 329.201 434.04 329.321 443.37C329.361 446.05 328.731 447.24 325.751 447.19C322.991 447.14 321.961 446.42 322.031 443.53C322.211 436.12 322.091 428.71 321.251 421.15C318.621 428.59 315.871 436 313.421 443.5C312.571 446.11 311.431 447.18 308.541 447.22C305.531 447.26 305.011 445.5 304.311 443.4C302.251 437.26 300.12 431.14 298.02 425.02C295.36 425.41 296.691 427.49 296.601 428.77C296.181 434.84 297.151 440.95 296.031 447.01L296.02 447Z" fill="white"/>
<path d="M456.811 420.62C456.811 429.12 456.741 436.19 456.851 443.25C456.891 445.81 456.461 447.19 453.381 447.2C450.371 447.21 449.821 446.02 449.861 443.37C449.991 434.72 449.811 426.06 449.991 417.41C450.031 415.61 448.371 412.46 451.741 412.17C454.761 411.91 458.131 410.79 460.561 414.67C465.121 421.96 470.241 428.88 475.971 437.17C475.971 429.1 476.071 422.39 475.921 415.69C475.861 412.98 476.541 411.91 479.491 411.9C482.611 411.88 482.961 413.3 482.931 415.84C482.831 424.33 482.991 432.81 482.821 441.3C482.781 443.2 484.341 446.29 481.411 446.84C478.231 447.44 474.731 448.13 472.331 444.01C468.391 437.27 463.801 430.92 459.471 424.41C458.871 423.5 458.231 422.62 456.821 420.6L456.811 420.62Z" fill="white"/>
<path d="M237.92 429.58C237.92 418.97 245.83 411.24 256.71 411.21C267.62 411.19 275.4 418.88 275.33 429.65C275.26 440.46 267.64 447.87 256.54 447.92C245.51 447.97 237.92 440.5 237.92 429.58V429.58Z" fill="white"/>
<path d="M401.691 424.53C401.691 421.7 401.821 418.86 401.651 416.04C401.481 413.2 402.151 411.91 405.431 411.89C408.901 411.87 409.121 413.5 409.061 416.16C408.941 421.65 408.911 427.15 409.071 432.64C409.261 438.73 412.361 441.88 417.851 441.94C423.261 442 425.951 439.35 426.231 433.07C426.491 427.25 426.491 421.42 426.361 415.6C426.291 412.72 427.341 411.89 430.131 411.93C432.751 411.97 434.091 412.42 433.971 415.48C433.751 421.47 434.101 427.47 433.821 433.45C433.371 443.14 427.511 448.11 417.241 447.92C407.191 447.73 401.981 442.76 401.701 433.02C401.621 430.19 401.691 427.36 401.681 424.53H401.691Z" fill="white"/>
<path d="M225.971 436.14C222.921 445.4 214.841 449.53 204.931 447.5C195.421 445.56 190.211 438.4 190.831 428.15C191.421 418.51 198.391 411.83 208.491 411.23C217.551 410.69 224.381 415.2 225.781 422.76C222.291 423.22 219.291 423.56 216.611 419.98C214.141 416.68 209.981 416.51 206.041 417.74C201.341 419.2 198.761 423.14 198.591 428.95C198.421 434.92 200.841 439.54 205.391 441.18C210.181 442.9 214.661 442.46 217.831 437.91C220.001 434.79 222.941 436.67 225.961 436.14H225.971Z" fill="white"/>
<path d="M562.151 412.6C568.421 410.75 572.031 412.7 574.481 417.84C576.031 421.1 578.371 423.99 580.521 427.3C583.641 424.23 585.671 420.58 587.581 417.02C590.031 412.47 593.321 411.04 598.781 412.53C595.831 416.85 593.211 421.23 590.061 425.19C585.761 430.59 582.911 436.27 584.101 443.4C584.541 446.06 583.581 447.18 580.611 447.22C577.491 447.26 576.281 446.25 576.771 443.24C577.911 436.31 575.181 430.75 571.001 425.47C567.841 421.48 565.201 417.09 562.141 412.61L562.151 412.6Z" fill="white"/>
<path d="M535.642 412.02C539.972 412.02 544.301 412.1 548.621 411.99C550.881 411.93 551.892 412.57 551.902 415.06C551.922 417.61 550.801 417.99 548.601 418.1C539.051 418.56 539.061 418.62 539.061 428.25C539.061 433.41 538.941 438.58 539.111 443.73C539.191 446.33 538.361 447.29 535.721 447.17C533.381 447.06 531.552 447.2 531.642 443.88C531.842 436.56 531.562 429.23 531.762 421.91C531.842 418.8 530.761 417.71 527.751 418.02C525.941 418.21 524.092 417.96 522.262 418.08C520.062 418.22 518.932 417.69 518.962 415.11C518.992 412.68 519.831 411.93 522.171 412C526.661 412.13 531.162 412.04 535.652 412.04L535.642 412.02Z" fill="white"/>
<path d="M499.09 429.51C499.09 424.68 499.23 419.84 499.04 415.02C498.92 411.97 500.67 411.93 502.84 411.98C504.87 412.03 506.85 411.7 506.81 414.86C506.7 424.69 506.71 434.51 506.81 444.34C506.84 447.58 504.7 447.01 502.75 447.13C500.47 447.27 498.92 446.95 499.04 444C499.23 439.18 499.09 434.34 499.09 429.51V429.51Z" fill="white"/>
<path d="M352.041 447.019V419.979C353.481 421.019 353.711 422.029 353.781 423.139C352.301 429.009 353.611 434.979 353.171 440.889C353.021 442.969 353.771 445.229 352.041 447.029V447.019Z" fill="#011F26"/>
<path d="M296.021 447V420.6C297.671 422.21 298.012 423.54 298.012 425.01C296.072 429.83 297.531 434.85 297.111 439.76C296.901 442.2 297.641 444.77 296.021 446.99V447Z" fill="#011F26"/>
<path d="M511.73 298.17C511.73 311.49 511.66 324.82 511.78 338.14C511.81 341.21 511.08 342.2 507.8 341.75C482.38 338.28 456.8 336.48 431.18 335.33C427.74 335.18 426.7 334.27 426.73 330.77C426.91 313.78 426.71 296.79 426.89 279.8C426.93 276.21 426.16 274.91 422.26 274.96C403.94 275.17 385.62 275.16 367.3 274.97C363.65 274.93 362.93 276.18 362.96 279.53C363.11 296.35 362.93 313.18 363.11 330C363.15 333.67 362.47 335.09 358.32 335.21C332.84 335.93 307.45 338.02 282.17 341.21C278.9 341.62 277.9 341.06 277.92 337.59C278.09 311.61 278.1 285.62 278.04 259.64C278.04 257.02 278.84 255.42 281 253.9C318.69 227.32 356.34 200.69 393.91 173.95C396.57 172.06 398.24 172.24 400.8 174.11C436.67 200.37 472.61 226.53 508.6 252.63C511.02 254.38 512 256.2 511.96 259.2C511.8 272.19 511.89 285.18 511.89 298.17H511.73V298.17Z" fill="#011F26"/>
<path d="M345.21 606.52C345.32 614.38 344.29 621.59 340.92 628.26C337.09 635.85 331.1 640.22 322.28 640.06C313.8 639.91 308.18 635.38 304.9 628.03C298.94 614.66 298.47 600.95 304.15 587.39C307.6 579.16 313.58 573.75 323.19 573.9C332.8 574.05 338.37 579.729 341.83 587.969C344.37 594.019 345.32 600.42 345.2 606.52H345.21Z" fill="#011F26"/>
<path d="M504.641 510.049C504.311 516.209 503.681 522.299 501.021 527.989C497.711 535.069 492.431 539.319 484.401 539.409C476.491 539.499 471.161 535.319 468.121 528.389C462.961 516.619 462.461 504.509 467.331 492.549C470.411 484.989 475.711 479.819 484.641 479.919C492.421 480.009 498.311 484.499 501.651 492.959C503.821 498.449 504.401 504.219 504.651 510.039L504.641 510.049Z" fill="#011F26"/>
<path d="M222.671 488.79C227.341 496.23 230.021 504.07 232.961 511.79C233.651 513.6 232.791 514.14 231.061 514.12C225.561 514.07 220.061 514.05 214.571 514.12C212.091 514.16 211.821 513.25 212.651 511.11C215.541 503.66 218.661 496.33 222.671 488.78V488.79Z" fill="#011F26"/>
<path d="M245.801 429.24C245.871 421.9 250.331 417.02 256.801 417.2C263.261 417.38 267.581 422.38 267.551 429.65C267.521 437 263.141 441.97 256.721 441.94C250.051 441.92 245.741 436.9 245.811 429.23L245.801 429.24Z" fill="#011F26"/>
</svg>
