<svg width="788" height="788" viewBox="0 0 788 788" fill="none" xmlns="http://www.w3.org/2000/svg">
<rect x="2" y="2" width="784" height="784" rx="87" fill="#011F26" stroke="white" stroke-width="4"/>
<path d="M253.576 271.611C244.076 278.341 235.496 284.591 226.726 290.561C218.316 296.291 207.816 291.891 206.536 282.161C205.786 276.431 208.606 272.401 213.196 269.161C239.986 250.221 266.716 231.181 293.466 212.191C326.596 188.661 359.766 165.171 392.836 141.541C395.536 139.611 397.226 139.391 400.066 141.471C458.086 184.031 516.196 226.471 574.306 268.911C577.326 271.121 580.046 273.491 580.966 277.311C582.256 282.651 580.276 288.021 575.946 290.961C571.606 293.911 566.006 293.981 561.416 290.751C553.926 285.481 546.586 279.991 539.156 274.631C537.846 273.681 536.716 272.371 534.936 272.131C533.606 273.161 534.196 274.601 534.196 275.831C534.116 297.321 534.176 318.821 533.966 340.311C533.936 343.871 535.266 344.641 538.456 345.141C563.966 349.141 589.246 354.151 613.636 362.911C615.666 363.641 617.776 364.261 619.676 365.251C623.266 367.111 624.566 370.141 623.266 374.031C621.986 377.861 619.306 378.771 615.386 378.101C540.846 365.281 465.706 359.271 390.116 359.171C318.686 359.081 247.696 364.691 177.296 377.061C175.816 377.321 174.336 377.561 172.896 377.971C168.926 379.101 165.956 378.081 164.476 374.041C163.076 370.221 164.816 366.551 169.036 364.861C179.246 360.781 189.836 357.841 200.456 355.051C216.566 350.821 232.866 347.511 249.306 344.851C251.396 344.511 253.616 344.571 253.606 341.301C253.526 318.491 253.566 295.691 253.566 271.611H253.576Z" fill="white"/>
<path d="M231.386 606.711C227.226 606.711 223.046 606.85 218.896 606.66C215.986 606.52 214.736 607.271 214.836 610.491C215.056 617.811 214.976 625.15 214.876 632.48C214.836 635.21 215.436 637.341 218.096 638.631C219.826 639.471 221.156 640.781 220.496 643.001C219.936 644.871 218.326 645.661 216.656 645.681C208.666 645.791 200.666 645.791 192.676 645.681C191.006 645.661 189.376 644.881 188.836 643.011C188.206 640.811 189.466 639.531 191.276 638.701C193.776 637.541 194.356 635.481 194.346 632.961C194.316 614.971 194.316 596.981 194.346 578.981C194.346 576.451 193.736 574.421 191.246 573.271C189.436 572.431 188.276 571.08 188.806 568.91C189.276 566.98 190.916 566.18 192.566 566.16C200.726 566.06 208.886 566.07 217.036 566.22C218.716 566.25 220.266 567.231 220.606 569.181C220.936 571.091 220.046 572.471 218.306 573.121C215.446 574.191 214.866 576.351 214.906 579.081C214.986 584.411 215.006 589.741 214.886 595.071C214.836 597.421 215.656 598.301 218.036 598.271C226.866 598.181 235.696 598.181 244.526 598.271C247.006 598.301 248.146 597.611 248.056 594.891C247.886 589.561 247.966 584.23 248.016 578.9C248.036 576.33 247.156 574.391 244.736 573.251C242.926 572.401 241.696 571.091 242.246 568.921C242.726 567.041 244.346 566.18 246.016 566.16C254.176 566.06 262.326 566.061 270.486 566.211C272.136 566.241 273.726 567.161 274.066 569.141C274.386 571.051 273.536 572.401 271.806 573.121C268.856 574.351 268.236 576.751 268.236 579.621C268.256 597.111 268.266 614.6 268.226 632.1C268.226 634.98 268.946 637.331 271.736 638.691C273.346 639.481 274.436 640.7 274.056 642.66C273.626 644.86 271.826 645.651 269.976 645.681C262.146 645.811 254.316 645.801 246.496 645.711C244.626 645.691 242.806 644.941 242.246 642.861C241.646 640.641 243.006 639.521 244.836 638.671C247.266 637.531 247.966 635.341 247.976 632.881C248.006 625.221 247.936 617.551 248.046 609.891C248.076 607.531 247.276 606.621 244.886 606.691C240.396 606.811 235.896 606.73 231.396 606.72L231.386 606.711Z" fill="white"/>
<path d="M366.097 605.9C366.017 629.42 346.127 647.71 320.917 647.43C295.917 647.16 277.247 629.09 277.517 605.43C277.787 581.81 296.927 564.05 321.827 564.32C347.617 564.6 366.167 582.02 366.097 605.9Z" fill="white"/>
<path d="M488.716 647.421C481.166 647.231 473.746 646.361 466.896 642.881C462.036 640.411 457.916 637.101 455.686 631.941C454.246 628.601 454.106 625.221 457.526 623.051C461.116 620.761 464.036 622.611 465.956 625.721C470.306 632.781 476.096 637.531 484.566 638.521C490.206 639.171 495.586 638.441 500.326 635.181C507.696 630.111 506.956 621.051 498.896 617.271C494.026 614.991 488.686 614.321 483.536 612.991C480.156 612.121 476.746 611.321 473.446 610.191C465.166 607.371 459.076 602.391 458.006 593.101C456.866 583.191 460.806 575.341 469.006 570.071C480.476 562.691 493.056 563.451 505.696 566.331C507.316 566.701 508.886 567.281 510.446 567.851C518.626 570.831 521.116 575.521 519.116 584.121C518.286 587.701 514.946 588.741 512.366 586.001C510.676 584.201 509.536 581.901 508.056 579.891C502.696 572.571 492.566 569.921 484.406 573.691C480.696 575.411 478.096 577.981 477.936 582.371C477.776 586.781 480.186 589.551 483.816 591.441C488.296 593.771 493.276 594.541 498.096 595.801C501.956 596.811 505.896 597.621 509.626 598.981C525.866 604.911 530.296 621.881 519.196 635.271C512.536 643.311 501.756 647.611 488.696 647.401L488.716 647.421Z" fill="white"/>
<path d="M562.675 645.791C553.515 645.791 544.355 645.801 535.195 645.781C532.995 645.781 530.685 645.621 529.755 643.161C528.705 640.381 530.835 639.321 532.785 638.281C534.865 637.171 535.185 635.241 535.185 633.171C535.185 614.851 535.185 596.531 535.215 578.201C535.215 575.801 534.615 573.961 532.065 573.221C530.225 572.681 529.275 571.331 529.475 569.461C529.705 567.291 531.375 566.441 533.285 566.111C534.425 565.921 535.605 565.941 536.775 565.941C553.265 565.941 569.755 565.911 586.245 565.941C593.255 565.961 597.985 574.221 594.385 580.271C592.585 583.291 589.445 583.161 587.655 580.871C580.525 571.751 570.735 573.911 561.395 574.161C557.555 574.261 555.345 576.121 555.655 580.521C555.975 585.161 555.815 589.851 555.695 594.511C555.625 596.941 556.205 598.191 558.985 598.081C563.805 597.891 568.645 597.981 573.475 598.011C576.135 598.021 578.195 596.851 580.245 595.271C583.395 592.831 585.655 594.121 586.515 597.601C587.055 599.821 586.965 602.231 586.895 604.551C586.685 610.831 584.225 612.131 578.845 608.781C574.045 605.791 568.775 607.211 563.715 607.071C555.745 606.851 555.725 607.011 555.755 614.851C555.765 619.851 555.865 624.841 555.885 629.841C555.905 634.141 557.815 636.881 562.245 637.301C572.585 638.281 583.035 639.771 590.535 629.761C592.025 627.781 594.335 626.331 597.125 627.771C600.125 629.311 599.185 632.021 598.805 634.401C598.515 636.191 597.615 637.871 597.255 639.651C596.295 644.421 593.495 646.061 588.675 645.891C580.025 645.581 571.355 645.801 562.695 645.801L562.675 645.791Z" fill="white"/>
<path d="M523.136 508.301C523.156 529.511 505.696 545.871 482.996 545.911C460.356 545.961 443.556 529.971 443.586 508.411C443.616 487.031 460.716 470.971 483.306 471.121C506.256 471.271 523.116 487.001 523.146 508.301H523.136Z" fill="white"/>
<path d="M376.495 598.011C376.495 591.851 376.485 585.701 376.495 579.541C376.495 576.791 376.445 574.171 373.055 573.211C371.165 572.671 370.575 571.131 370.845 569.261C371.135 567.261 372.695 566.251 374.335 566.231C382.985 566.081 391.645 566.081 400.295 566.211C401.955 566.231 403.555 567.181 403.855 569.161C404.155 571.121 403.035 572.391 401.335 572.971C397.725 574.201 396.885 576.861 396.695 580.351C395.975 593.651 394.815 606.961 395.945 620.271C397.245 635.491 409.535 643.061 423.865 637.651C431.575 634.741 434.185 628.181 435.025 620.701C436.095 611.221 435.025 601.741 434.645 592.261C434.485 588.431 433.955 584.611 434.055 580.791C434.145 577.081 433.325 574.301 429.525 572.901C427.885 572.291 426.745 570.961 427.165 568.991C427.575 567.041 429.185 566.251 430.865 566.201C435.855 566.041 440.855 566.021 445.845 566.151C447.715 566.201 449.515 566.961 449.875 569.191C450.195 571.181 448.965 572.431 447.335 573.021C443.335 574.481 443.045 577.521 443.315 581.111C444.155 592.401 445.195 603.681 445.065 615.031C444.815 635.881 435.405 645.811 414.535 647.271C409.685 647.611 404.845 647.461 400.095 646.661C384.545 644.051 376.105 634.021 375.215 617.001C374.885 610.691 375.165 604.361 375.165 598.031H376.515L376.495 598.011Z" fill="white"/>
<path d="M542.087 491.691C542.087 506.161 542.087 519.301 542.087 532.431C542.087 535.341 543.717 536.981 546.277 537.991C547.917 538.641 549.237 539.681 548.907 541.721C548.567 543.841 546.816 544.221 545.136 544.261C540.316 544.361 535.487 544.381 530.667 544.271C529.027 544.231 527.216 543.981 526.816 541.831C526.446 539.831 527.517 538.611 529.277 538.051C532.787 536.941 533.566 534.331 533.556 531.051C533.506 516.721 533.536 502.401 533.516 488.071C533.516 483.891 533.087 479.981 527.837 478.961C526.147 478.631 525.446 477.201 525.686 475.511C525.936 473.741 527.197 472.931 528.847 472.911C535.177 472.861 541.506 472.821 547.826 472.931C550.226 472.971 551.556 474.981 553.006 476.541C563.106 487.471 571.056 500.021 579.756 512.011C580.766 513.411 581.296 515.311 583.706 516.191C583.706 505.181 583.757 494.441 583.667 483.711C583.647 481.221 581.687 480.001 579.587 479.151C577.897 478.461 576.687 477.441 576.967 475.431C577.257 473.291 578.907 472.881 580.657 472.871C585.657 472.831 590.646 472.841 595.646 472.901C597.216 472.921 598.677 473.411 599.037 475.231C599.417 477.171 598.517 478.501 596.667 479.041C592.557 480.231 592.217 483.381 592.227 486.931C592.277 503.921 592.286 520.911 592.206 537.911C592.196 540.391 593.307 543.901 589.727 544.671C585.917 545.481 582.116 545.881 579.196 541.541C568.426 525.501 556.906 509.991 544.936 494.821C544.336 494.071 543.637 493.391 542.087 491.701V491.691Z" fill="white"/>
<path d="M221.765 521.17C219.765 521.17 217.765 521.17 215.765 521.17C207.615 521.17 203.585 525.59 203.925 533.88C204.025 536.31 205.455 537.38 207.185 538.47C208.365 539.22 209.235 540.23 208.945 541.77C208.605 543.6 207.155 544.15 205.615 544.2C201.125 544.32 196.635 544.37 192.155 544.3C190.655 544.28 189.145 543.86 188.755 541.98C188.445 540.49 188.925 539.18 190.175 538.53C193.405 536.86 194.025 533.72 194.935 530.71C200.655 511.85 208.825 494.04 218.015 476.65C220.045 472.8 222.925 471.89 226.955 471.81C230.895 471.73 232.965 473.36 234.705 476.68C243.855 494.1 251.155 512.3 257.755 530.8C258.815 533.77 259.725 536.6 262.615 538.64C265.235 540.48 264.485 543.62 261.325 544.02C253.885 544.95 246.365 544.93 238.925 544.04C235.585 543.64 234.825 540.81 237.545 538.91C240.165 537.08 240.245 535.25 239.515 532.55C236.455 521.19 236.515 521.17 224.765 521.17C223.765 521.17 222.765 521.17 221.765 521.17V521.17Z" fill="white"/>
<path d="M298.465 545.91C282.525 545.89 267.115 535.02 262.955 518.97C257.415 497.55 272.625 475.64 295.565 471.91C306.685 470.1 317.085 471.88 326.695 477.8C330.075 479.88 332.375 490.47 330.125 493.65C328.345 496.16 325.915 496.36 323.755 494.24C322.625 493.13 321.985 491.47 321.295 489.97C315.485 477.55 300.635 474.6 290.525 483.89C278.995 494.48 278.275 519.82 289.185 531.05C296.675 538.76 309.675 539.31 318.815 532.23C321.175 530.4 323.335 528.3 325.715 526.5C327.295 525.31 329.205 525.13 330.785 526.5C332.405 527.91 332.215 529.73 331.305 531.52C328.575 536.88 323.825 539.86 318.615 542.25C313.095 544.79 307.265 545.97 298.465 545.9V545.91Z" fill="white"/>
<path d="M378.937 508.751C378.937 516.411 378.997 524.071 378.907 531.731C378.877 534.571 379.187 537.011 382.207 538.311C383.497 538.871 384.267 540.001 384.037 541.541C383.767 543.351 382.437 544.081 380.867 544.191C373.397 544.721 365.907 544.721 358.437 544.191C356.817 544.071 355.567 543.151 355.277 541.471C355.007 539.941 355.987 538.831 357.237 538.311C360.087 537.131 360.507 534.791 360.507 532.191C360.517 516.541 360.447 500.891 360.557 485.241C360.587 481.021 358.757 479.571 354.757 480.051C350.397 480.571 346.897 482.551 343.987 485.741C342.467 487.411 340.637 488.861 338.317 487.721C335.857 486.511 336.517 484.161 336.827 481.991C338.157 472.801 338.177 472.751 347.297 472.751C363.117 472.751 378.927 472.731 394.747 472.771C400.307 472.781 405.477 481.851 402.387 486.451C400.297 489.561 397.717 488.151 395.717 486.031C392.507 482.641 388.847 480.341 384.057 480.021C380.527 479.791 378.827 480.971 378.907 484.791C379.077 492.781 378.957 500.771 378.957 508.771L378.937 508.751Z" fill="white"/>
<path d="M423.735 472.811C427.225 472.811 430.715 472.771 434.205 472.831C435.935 472.861 437.585 473.301 438.095 475.271C438.535 476.961 437.755 478.191 436.245 478.921C433.375 480.311 433.015 482.801 433.025 485.621C433.075 501.081 433.075 516.541 433.025 532.001C433.025 534.691 433.475 536.911 436.195 538.171C437.665 538.851 438.515 540.041 438.125 541.801C437.725 543.591 436.275 544.231 434.775 544.251C427.475 544.331 420.165 544.311 412.865 544.221C411.275 544.201 409.955 543.361 409.585 541.651C409.205 539.881 410.255 538.781 411.705 538.131C414.505 536.891 414.815 534.481 414.815 531.901C414.815 516.111 414.805 500.321 414.815 484.521C414.815 482.021 414.395 479.911 411.585 479.061C409.885 478.551 409.235 477.171 409.555 475.541C409.875 473.911 411.095 472.941 412.765 472.911C416.415 472.841 420.075 472.891 423.725 472.891V472.801L423.735 472.811Z" fill="white"/>
<path d="M351.056 445.95C346.296 446.85 344.286 445.48 344.656 440.08C345.196 432.13 344.696 424.12 344.876 416.14C344.916 414.36 343.366 411.02 346.866 411.13C350.306 411.24 354.946 408.58 356.796 414.54C358.996 421.65 361.706 428.61 364.516 436.55C367.426 428.57 370.006 421.44 372.626 414.34C373.676 411.5 382.016 409.3 383.936 411.46C384.586 412.19 384.576 413.64 384.576 414.76C384.626 423.91 384.546 433.06 384.636 442.2C384.656 444.74 384.266 446.16 381.146 446.15C378.106 446.13 377.096 445.23 377.186 442.16C377.376 435.06 377.246 427.96 376.276 420.63C373.846 427.57 371.396 434.5 368.976 441.44C368.106 443.93 367.656 446.28 363.836 446.2C360.136 446.13 360.026 443.67 359.266 441.44C357.066 435 354.946 428.52 352.796 422.06C350.426 422.79 351.666 424.73 351.586 426.08C351.196 432.69 352.096 439.34 351.056 445.94V445.95Z" fill="white"/>
<path d="M295.036 445.93C290.689 446.064 288.513 444.014 288.506 439.78C288.506 431.62 288.446 423.46 288.556 415.3C288.576 413.74 287.566 410.84 290.446 411.13C293.686 411.45 298.096 408.49 300.046 413.47C302.286 419.2 304.136 425.08 306.276 430.84C306.836 432.35 306.836 434.16 308.646 435.66C311.166 428.73 313.616 421.99 316.066 415.25C317.376 411.64 324.286 409.13 327.376 411.14C328.576 411.92 328.266 413.2 328.276 414.32C328.306 423.65 328.216 432.97 328.336 442.3C328.376 444.98 327.746 446.17 324.766 446.12C322.006 446.07 320.976 445.35 321.046 442.46C321.226 435.05 321.106 427.64 320.266 420.08C317.636 427.52 314.886 434.93 312.436 442.43C311.586 445.04 310.446 446.11 307.556 446.15C304.546 446.19 304.026 444.43 303.326 442.33C301.266 436.19 299.136 430.07 297.036 423.95C294.376 424.34 295.706 426.42 295.616 427.7C295.196 433.77 296.166 439.88 295.046 445.94L295.036 445.93Z" fill="white"/>
<path d="M455.825 419.551C455.825 428.051 455.755 435.121 455.865 442.181C455.905 444.741 455.475 446.121 452.395 446.131C449.385 446.141 448.835 444.951 448.875 442.301C449.005 433.651 448.825 424.991 449.005 416.341C449.045 414.541 447.385 411.391 450.755 411.101C453.775 410.841 457.145 409.721 459.575 413.601C464.135 420.891 469.255 427.811 474.985 436.101C474.985 428.031 475.085 421.321 474.935 414.621C474.875 411.911 475.555 410.841 478.505 410.831C481.625 410.811 481.975 412.231 481.945 414.771C481.845 423.261 482.005 431.741 481.835 440.231C481.795 442.131 483.355 445.221 480.425 445.771C477.245 446.371 473.745 447.061 471.345 442.941C467.405 436.201 462.815 429.851 458.485 423.341C457.885 422.431 457.245 421.551 455.835 419.531L455.825 419.551Z" fill="white"/>
<path d="M236.936 428.511C236.936 417.901 244.846 410.171 255.726 410.141C266.636 410.121 274.416 417.811 274.346 428.581C274.276 439.391 266.656 446.801 255.556 446.851C244.526 446.901 236.936 439.431 236.936 428.511V428.511Z" fill="white"/>
<path d="M400.705 423.46C400.705 420.63 400.835 417.79 400.665 414.97C400.495 412.13 401.165 410.84 404.445 410.82C407.915 410.8 408.135 412.43 408.075 415.09C407.955 420.58 407.925 426.08 408.085 431.57C408.275 437.66 411.375 440.81 416.865 440.87C422.275 440.93 424.965 438.28 425.245 432C425.505 426.18 425.505 420.35 425.375 414.53C425.305 411.65 426.355 410.82 429.145 410.86C431.765 410.9 433.105 411.35 432.985 414.41C432.765 420.4 433.115 426.4 432.835 432.38C432.385 442.07 426.525 447.04 416.255 446.85C406.205 446.66 400.995 441.69 400.715 431.95C400.635 429.12 400.705 426.29 400.695 423.46H400.705Z" fill="white"/>
<path d="M224.987 435.071C221.937 444.331 213.857 448.461 203.947 446.431C194.437 444.491 189.227 437.331 189.847 427.081C190.437 417.441 197.407 410.761 207.507 410.161C216.567 409.621 223.397 414.131 224.797 421.691C221.307 422.151 218.307 422.491 215.627 418.911C213.157 415.611 208.997 415.441 205.057 416.671C200.357 418.131 197.777 422.071 197.607 427.881C197.437 433.851 199.857 438.471 204.407 440.111C209.197 441.831 213.677 441.391 216.847 436.841C219.017 433.721 221.957 435.601 224.977 435.071H224.987Z" fill="white"/>
<path d="M561.166 411.53C567.436 409.68 571.046 411.63 573.496 416.77C575.046 420.03 577.386 422.92 579.536 426.23C582.656 423.16 584.686 419.51 586.596 415.95C589.046 411.4 592.336 409.97 597.796 411.46C594.846 415.78 592.226 420.16 589.076 424.12C584.776 429.52 581.926 435.2 583.116 442.33C583.556 444.99 582.596 446.11 579.626 446.15C576.506 446.19 575.296 445.18 575.786 442.17C576.926 435.24 574.196 429.68 570.016 424.4C566.856 420.41 564.216 416.02 561.156 411.54L561.166 411.53Z" fill="white"/>
<path d="M534.655 410.951C538.985 410.951 543.315 411.031 547.635 410.921C549.895 410.861 550.905 411.501 550.915 413.991C550.935 416.541 549.815 416.921 547.615 417.031C538.065 417.491 538.075 417.551 538.075 427.181C538.075 432.341 537.955 437.511 538.125 442.661C538.205 445.261 537.375 446.221 534.735 446.101C532.395 445.991 530.565 446.131 530.655 442.811C530.855 435.491 530.575 428.161 530.775 420.841C530.855 417.731 529.775 416.641 526.765 416.951C524.955 417.141 523.105 416.891 521.275 417.011C519.075 417.151 517.945 416.621 517.975 414.041C518.005 411.611 518.845 410.861 521.185 410.931C525.675 411.061 530.175 410.971 534.665 410.971L534.655 410.951Z" fill="white"/>
<path d="M498.105 428.441C498.105 423.611 498.245 418.771 498.055 413.951C497.935 410.901 499.685 410.861 501.855 410.911C503.885 410.961 505.865 410.631 505.825 413.791C505.715 423.621 505.725 433.441 505.825 443.271C505.855 446.511 503.715 445.941 501.765 446.061C499.485 446.201 497.935 445.881 498.055 442.931C498.245 438.111 498.105 433.271 498.105 428.441V428.441Z" fill="white"/>
<path d="M351.055 445.951V418.911C352.495 419.951 352.725 420.961 352.795 422.071C351.315 427.941 352.625 433.911 352.185 439.821C352.035 441.901 352.785 444.161 351.055 445.961V445.951Z" fill="#011F26"/>
<path d="M295.035 445.93V419.53C296.685 421.14 297.025 422.47 297.025 423.94C295.085 428.76 296.545 433.78 296.125 438.69C295.915 441.13 296.655 443.7 295.035 445.92V445.93Z" fill="#011F26"/>
<path d="M510.746 297.101C510.746 310.421 510.676 323.751 510.796 337.071C510.826 340.141 510.096 341.131 506.816 340.681C481.396 337.211 455.816 335.411 430.196 334.261C426.756 334.111 425.716 333.201 425.746 329.701C425.926 312.711 425.726 295.721 425.906 278.731C425.946 275.141 425.176 273.841 421.276 273.891C402.956 274.101 384.636 274.091 366.316 273.901C362.666 273.861 361.946 275.111 361.976 278.461C362.126 295.281 361.946 312.111 362.126 328.931C362.166 332.601 361.486 334.021 357.336 334.141C331.856 334.861 306.466 336.951 281.186 340.141C277.916 340.551 276.916 339.991 276.936 336.521C277.106 310.541 277.116 284.551 277.056 258.571C277.056 255.951 277.856 254.351 280.016 252.831C317.706 226.251 355.356 199.621 392.926 172.881C395.586 170.991 397.256 171.171 399.816 173.041C435.686 199.301 471.626 225.461 507.616 251.561C510.036 253.311 511.016 255.131 510.976 258.131C510.816 271.121 510.906 284.111 510.906 297.101H510.746V297.101Z" fill="#011F26"/>
<path d="M344.226 605.451C344.336 613.311 343.306 620.521 339.936 627.191C336.106 634.781 330.116 639.151 321.296 638.991C312.816 638.841 307.196 634.311 303.916 626.961C297.956 613.591 297.486 599.881 303.166 586.321C306.616 578.091 312.596 572.681 322.206 572.831C331.816 572.981 337.386 578.661 340.846 586.901C343.386 592.951 344.336 599.351 344.216 605.451H344.226Z" fill="#011F26"/>
<path d="M503.655 508.981C503.325 515.141 502.695 521.231 500.035 526.921C496.725 534.001 491.445 538.251 483.415 538.341C475.505 538.431 470.175 534.251 467.135 527.321C461.975 515.551 461.475 503.441 466.345 491.481C469.425 483.921 474.725 478.751 483.655 478.851C491.435 478.941 497.325 483.431 500.665 491.891C502.835 497.381 503.415 503.151 503.665 508.971L503.655 508.981Z" fill="#011F26"/>
<path d="M221.685 487.721C226.355 495.161 229.035 503.001 231.975 510.721C232.665 512.531 231.805 513.071 230.075 513.051C224.575 513.001 219.075 512.981 213.585 513.051C211.105 513.091 210.835 512.181 211.665 510.041C214.555 502.591 217.675 495.261 221.685 487.711V487.721Z" fill="#011F26"/>
<path d="M244.816 428.171C244.886 420.831 249.346 415.951 255.816 416.131C262.276 416.311 266.596 421.311 266.566 428.581C266.536 435.931 262.156 440.901 255.736 440.871C249.066 440.851 244.756 435.831 244.826 428.161L244.816 428.171Z" fill="#011F26"/>
</svg>
