<svg width="201" height="103" viewBox="0 0 201 103" fill="none" xmlns="http://www.w3.org/2000/svg">
<path d="M184.527 52.4365C183.154 52.0018 182.953 53.8745 182.351 54.6771C181.413 55.9479 178.735 57.5865 176.324 56.4495C174.951 55.8141 175.051 53.9414 175.051 51.868C175.051 50.43 174.884 48.9251 175.286 47.9219C177.797 47.4203 179.17 47.7547 179.873 49.5271C180.174 50.2962 180.308 51.1992 181.313 50.9651C182.317 50.731 181.748 48.3566 181.782 46.9521C181.815 45.7147 182.317 43.0729 181.212 42.9391C180.476 42.8388 180.308 43.4407 180.007 44.2099C179.203 46.2498 177.831 46.1829 175.185 45.8151C174.75 43.9423 174.583 40.5648 175.353 38.9261C177.094 38.7923 178.333 38.2907 179.84 38.9261C180.543 39.2271 181.112 39.9294 181.514 40.5313C181.982 41.2001 182.418 42.2703 183.288 42.0696C184.427 41.7686 183.724 38.0901 183.69 36.9196C182.619 36.4514 181.346 36.6855 180.074 36.7524C176.056 36.9196 172.038 36.7859 168.355 36.6855C166.178 36.6186 164.203 36.8862 161.759 36.7524C160.453 36.6855 158.812 36.6186 159.281 37.8894C159.515 38.5248 161.323 38.3242 161.859 38.8592C162.495 39.4946 162.495 41.1667 162.596 42.3037C162.763 44.6781 162.462 47.2196 162.596 49.6943C160.252 46.7849 157.674 43.1063 155.196 39.8959C154.694 39.2271 153.254 37.0199 152.551 36.7524C151.546 36.3846 150.006 36.6855 148.7 36.6855C147.361 36.6855 146.021 36.5852 144.916 36.8527C142.941 36.4849 141.032 36.9865 138.32 36.8527C136.981 36.7859 133.733 36.1505 133.834 37.5885C133.901 38.6251 135.943 38.4245 136.412 39.0264C136.947 39.7287 136.747 41.7686 136.747 43.0394C136.747 46.5173 136.747 48.2897 136.747 51.8011C136.747 53.0384 136.947 55.279 136.512 55.9813C136.144 56.5498 134.369 56.9511 133.532 56.5498C132.394 56.0147 131.691 52.9047 131.188 51.6673C130.351 49.6274 129.715 48.0891 129.112 46.5173C127.639 42.7385 126.467 39.6618 124.86 36.3177C122.583 35.6823 122.449 37.2206 122.047 38.5583C121.679 39.829 120.976 41.3005 120.373 42.8053C119.134 45.9154 117.728 49.0255 116.69 51.868C116.087 53.5401 115.786 55.4462 114.547 56.3826C114.547 56.416 114.38 56.4829 114.413 56.5164C114.547 57.0849 114.681 57.7871 114.982 58.456C114.982 58.4894 115.284 58.3891 115.351 58.4225C117.058 58.0547 121.21 59.3255 121.143 57.5531C121.11 56.182 118.9 56.9846 118.163 55.9479C117.192 54.5433 118.766 52.2359 119.034 51.1992C121.009 51.1992 122.985 51.1992 124.994 51.1992C125.563 52.9381 126.467 54.3427 126.668 56.416C126.099 56.9511 124.559 56.5164 124.425 57.4527C124.257 58.7904 126.199 58.456 127.237 58.4225C131.222 58.2888 135.106 58.456 138.655 58.3557C141.401 58.2888 143.644 58.4894 146.122 58.4225C147.227 58.3891 148.466 58.3222 149.906 58.4225C151.077 58.4894 152.852 58.6901 152.718 57.4527C152.584 56.4495 150.609 56.9177 149.906 56.3157C149.336 55.8475 149.269 54.4096 149.269 53.1722C149.202 49.1592 149.303 45.4472 149.269 41.6014C153.321 46.9186 157.573 52.4365 161.558 57.8206C162.16 58.6232 162.83 59.6933 164.136 59.1917C164.839 57.854 164.538 55.9813 164.538 54.2089C164.538 50.43 164.538 47.1862 164.538 43.3738C164.538 41.7686 164.203 39.0933 165.174 38.5583C165.81 38.2238 166.948 38.2573 167.417 38.3242C169.895 38.5583 169.493 40.4979 169.493 43.1397C169.493 46.3836 169.493 48.691 169.493 51.8011C169.493 53.1388 169.728 55.3125 169.259 55.9813C168.757 56.6836 166.145 56.3826 166.513 57.9209C166.748 58.8238 169.292 58.4225 170.531 58.3891C175.353 58.3222 179.94 58.3891 184.259 58.3222C184.561 57.5196 184.661 56.5164 184.829 55.3459C184.862 54.6771 185.364 52.6706 184.527 52.4365ZM119.67 49.1258C120.239 46.9521 121.177 45.1128 121.847 43.0394C122.818 44.8453 123.32 47.1193 124.19 49.0589C123.018 49.3599 120.976 49.2261 119.67 49.1258ZM147.327 43.1063C147.327 46.4505 147.327 49.2261 147.327 52.5703C147.327 53.8745 147.327 56.0482 146.524 56.5164C145.553 57.0849 143.041 56.6501 142.573 55.9479C142.372 55.6469 142.238 53.9079 142.171 53.2057C142.037 51.6005 142.171 49.5271 142.171 47.5875C142.171 45.5141 142.037 43.5745 142.171 41.9693C142.238 41.3005 142.271 39.3609 142.64 38.9261C142.974 38.5248 144.28 38.3242 144.716 38.2907C145.184 38.2573 146.49 38.3576 146.892 38.7589C147.495 39.4277 147.327 41.869 147.327 43.1063Z" fill="white"/>
<path fill-rule="evenodd" clip-rule="evenodd" d="M98.8763 4.18066C98.9433 4.18066 98.9768 4.18066 99.0437 4.18066C101.32 5.28423 103.497 6.72221 103.229 9.96605C103.028 12.4742 101.019 14.1128 100.416 16.4537C100.048 17.8583 100.517 19.2963 100.885 20.1323C101.153 20.7342 101.488 21.2024 101.454 21.5703C100.918 21.7375 100.316 21.169 99.8473 20.8346C98.441 19.8313 96.8338 18.1258 97.0347 15.8518C97.2691 13.1765 100.148 11.3037 100.249 8.29397C100.316 6.72221 99.546 5.45144 98.8094 4.34786C98.7759 4.31442 98.8093 4.24754 98.8763 4.18066Z" fill="white"/>
<path fill-rule="evenodd" clip-rule="evenodd" d="M112.538 5.15039C114.112 6.45462 115.518 8.16013 115.284 10.5345C114.748 15.3501 108.52 15.5173 108.453 20.9014C108.453 21.5702 108.587 22.005 108.52 22.5735C107.884 22.54 107.415 21.7374 107.08 21.2024C106.645 20.5001 106.21 19.5637 106.109 18.7277C105.406 13.0092 112.94 13.143 113.007 7.72539C113.007 6.78903 112.773 6.08676 112.538 5.15039Z" fill="white"/>
<path fill-rule="evenodd" clip-rule="evenodd" d="M94.523 21.7703C94.1547 22.205 93.485 21.8372 93.0832 21.7703C90.505 21.3355 87.9268 20.1316 87.6254 17.4229C87.3576 15.1489 88.0607 13.1424 87.6254 11.2362C87.1567 9.22968 85.7504 8.25987 84.0762 7.29007C84.0762 7.18974 84.1097 7.1563 84.1432 7.12286C84.1432 7.02253 84.1767 6.98909 84.2101 6.95565C88.429 6.88877 90.8398 8.99558 91.1077 12.4066C91.2416 13.945 90.8733 15.2826 91.0407 16.8209C91.2081 18.5599 92.3466 19.9644 93.5185 20.9008C93.8868 21.2018 94.3891 21.3021 94.523 21.7703Z" fill="white"/>
<path fill-rule="evenodd" clip-rule="evenodd" d="M125.528 11.3369C126.9 13.1427 126.331 16.6541 125.059 17.9917C124.021 19.0953 122.481 19.6973 120.874 20.0651C119.3 20.4664 117.659 20.7674 116.387 21.7372C115.047 22.7739 114.813 23.8775 113.909 25.4158C113.474 25.2151 113.407 24.3122 113.34 23.7437C113.172 21.57 113.909 19.7307 114.947 18.7609C117.09 16.7878 120.94 17.4567 123.385 15.5505C124.59 14.6476 125.26 13.3768 125.528 11.3369Z" fill="white"/>
<path fill-rule="evenodd" clip-rule="evenodd" d="M87.7599 23.677C87.693 24.1452 87.0568 24.0783 86.722 24.1452C83.8759 24.7137 80.9628 24.0783 79.724 22.2056C78.6525 20.5669 78.4851 18.2595 77.3801 16.5205C76.2417 14.6812 74.7015 14.2465 72.3242 13.6445C73.9648 12.24 77.648 12.6747 79.1547 13.8786C80.0253 14.5475 80.695 15.5507 81.1637 16.5205C81.666 17.5572 81.8334 18.7611 82.3691 19.8981C83.4741 22.2056 85.2822 22.7741 87.7599 23.677Z" fill="white"/>
<path fill-rule="evenodd" clip-rule="evenodd" d="M81.9003 26.3516C81.7664 27.0539 80.8958 27.3214 80.2931 27.6224C79.6234 27.9568 78.9203 28.3247 78.1167 28.425C72.8263 29.0269 72.5585 22.4724 67.1007 22.8737C66.5985 22.9071 66.1632 23.1747 65.5605 23.0409C65.6944 22.3721 66.498 22.0042 67.1007 21.6698C67.9043 21.235 68.7749 20.7669 70.0807 20.8672C74.4335 21.1682 75.2371 26.385 80.1257 26.4185C80.7954 26.4185 81.2976 26.2178 81.9003 26.3516Z" fill="white"/>
<path fill-rule="evenodd" clip-rule="evenodd" d="M133.666 21.0352C133.733 21.0352 133.733 21.0686 133.733 21.1021C133.532 24.2121 131.992 26.2521 129.146 26.6533C127.137 26.9209 125.195 25.9511 122.951 26.0848C121.846 26.1517 120.976 26.553 120.306 26.9543C119.637 27.3891 119.168 28.0913 118.297 28.2251C118.933 25.5498 120.239 23.1754 123.286 23.0751C125.295 23.0082 127.572 24.0115 129.648 23.8108C131.59 23.6436 132.628 22.4732 133.666 21.0352Z" fill="white"/>
<path fill-rule="evenodd" clip-rule="evenodd" d="M121.847 34.1105C121.009 33.9768 120.44 33.2076 119.771 32.7394C114.982 29.4287 107.951 27.4557 99.8476 27.4557C91.8116 27.4557 84.8136 29.4287 79.925 32.7394C79.2888 33.1742 78.7531 33.9433 77.916 34.1105C79.6572 30.8667 82.8715 28.693 86.5212 27.0544C89.3338 25.7836 92.2803 24.981 95.8296 24.5797C107.214 23.2755 117.561 27.2885 121.847 34.1105Z" fill="white"/>
<path fill-rule="evenodd" clip-rule="evenodd" d="M101.421 32.7726C101.488 31.8696 101.354 31.2008 101.019 30.6992C99.9477 31.7359 101.32 33.2407 101.488 33.9765C99.0436 33.9096 98.5079 30.0304 100.852 28.9268C102.124 29.395 102.994 31.97 101.421 32.7726Z" fill="white"/>
<path fill-rule="evenodd" clip-rule="evenodd" d="M94.9256 32.3709C94.122 32.4044 92.6488 32.2372 92.3474 33.0063C92.247 33.8089 92.6153 34.4109 92.9836 34.8456C93.5193 35.4476 94.3899 35.5813 94.6578 36.1164C93.0506 36.3505 91.1085 35.2135 90.8742 33.7086C90.8072 33.1401 90.9411 32.5047 91.276 32.1703C92.0796 31.4346 94.1555 31.3343 94.9256 32.3709Z" fill="white"/>
<path fill-rule="evenodd" clip-rule="evenodd" d="M15.3691 33.3082C15.3691 33.141 15.3691 32.9738 15.3691 32.84C16.1057 31.9371 17.4785 32.2715 18.5835 32.2715C37.602 32.2715 56.9888 32.2715 75.8063 32.2715C75.8063 32.7063 75.3041 33.3082 75.0697 33.8098C57.1897 33.8098 37.3676 33.8098 19.0522 33.8098C17.579 33.8098 15.4695 34.0105 15.3691 33.3082Z" fill="white"/>
<path fill-rule="evenodd" clip-rule="evenodd" d="M123.854 32.2707C142.906 32.2707 162.226 32.2707 181.546 32.2707C182.182 32.2707 184.627 31.9697 184.694 32.906C184.761 34.0096 182.45 33.7086 181.647 33.7086C163.9 33.7086 146.556 33.7086 128.676 33.7086C127.437 33.7086 125.629 33.9427 124.892 33.7086C124.357 33.5414 124.022 32.5716 123.854 32.2707Z" fill="white"/>
<path fill-rule="evenodd" clip-rule="evenodd" d="M111.802 34.2773C111.601 34.6451 111.433 35.013 111.232 35.4143C106.612 34.1435 105.138 38.0228 101.522 38.0562C99.4123 38.0896 97.7047 36.9526 96.3653 35.9828C95.4613 35.314 94.6242 34.7789 93.084 34.6117C93.084 34.5448 93.084 34.5114 93.084 34.4445C93.084 34.3442 93.1175 34.3107 93.1509 34.2773C99.3788 34.2773 105.574 34.2773 111.802 34.2773Z" fill="white"/>
<path fill-rule="evenodd" clip-rule="evenodd" d="M29.3651 36.2837C31.0058 36.1499 36.5975 36.2168 37.5685 37.3204C38.0038 37.822 38.6735 41.4337 37.9703 41.8015C36.564 42.5372 35.4256 39.795 34.5885 39.0593C31.5415 36.384 26.586 38.4574 24.8784 40.8317C20.9943 46.1489 23.2712 56.3486 29.8674 57.0509C33.3496 57.4187 35.0573 55.6798 36.2962 53.6064C36.631 53.0713 37.1667 51.834 38.0708 52.0012C39.3431 52.2353 38.573 53.3389 38.5395 54.2418C38.506 54.944 38.7739 55.5794 38.5395 56.1814C38.0708 57.3853 35.8274 58.0207 34.3541 58.3551C28.4611 59.6593 22.4006 58.0207 19.4206 55.1447C17.4451 53.272 15.8714 50.5298 16.1392 46.7843C16.541 40.4304 22.8024 36.7853 29.3651 36.2837Z" fill="white"/>
<path fill-rule="evenodd" clip-rule="evenodd" d="M71.4533 36.2836C77.8151 35.7151 82.5027 38.357 84.7796 41.5005C87.09 44.7109 86.956 48.5901 85.8176 51.4661C84.6122 54.5093 82.1679 56.4822 79.4558 57.6528C72.96 60.4285 64.3883 57.8869 61.5422 52.7703C60.8056 51.4327 60.069 49.2254 60.2699 46.6839C60.5043 43.7076 62.1784 41.233 63.8861 39.6278C65.6272 37.9557 68.038 36.6181 71.4533 36.2836ZM66.9665 45.4465C66.6317 50.4962 68.8081 55.4791 72.1229 56.8502C74.065 57.6528 76.3083 57.0509 77.4133 56.0476C81.5652 52.3022 80.2929 42.2027 76.6097 39.1261C75.6052 38.29 73.931 37.5879 72.1229 37.8554C68.8081 38.2567 67.2009 41.8348 66.9665 45.4465Z" fill="white"/>
<path d="M20.0235 61.9671C18.9521 61.9671 15.6372 61.5992 15.6037 62.7028C15.5703 63.9736 19.1195 63.5054 20.0235 63.5054C21.999 63.5054 24.1755 63.5054 25.3139 63.5054C48.3169 63.5054 98.9436 63.5054 98.9436 63.5054L97.5708 61.9671C97.5708 61.9671 45.5378 61.9671 20.0235 61.9671Z" fill="white"/>
<path d="M184.46 62.6022C184.393 61.9668 183.422 61.9668 182.619 61.9668C156.502 61.9668 103.263 61.9668 103.263 61.9668L101.924 63.5051C101.924 63.5051 155.732 63.5051 180.107 63.5051C181.011 63.5051 184.594 63.9733 184.46 62.6022Z" fill="white"/>
<path fill-rule="evenodd" clip-rule="evenodd" d="M54.5785 47.1189C55.5829 47.6206 56.6209 48.3897 57.1567 49.5267C57.2571 49.7608 57.2236 50.0618 57.3241 50.3293C57.525 50.831 57.9937 51.5332 58.3621 52.2689C58.9313 53.3391 59.534 54.1082 60.1367 55.078C60.4715 55.6465 60.6054 56.0144 61.0072 56.2819C61.8443 56.817 63.0832 56.516 63.0162 57.5527C62.9493 58.9238 58.5964 58.2215 57.1567 58.2884C56.5205 58.3219 55.6834 58.5225 55.1477 58.2884C54.478 57.9875 53.9423 56.3154 53.5405 55.5462C52.469 53.5063 51.5984 51.9011 50.4935 49.9949C49.9912 49.1589 49.556 47.9884 48.0827 48.1556C47.7814 49.3261 47.9153 50.6303 47.9153 51.9345C47.9153 53.0715 47.6809 54.6767 48.0827 55.6131C48.3506 56.2485 48.9867 56.4157 49.7569 56.5829C50.46 56.7501 51.3975 56.7501 51.1966 57.7868C50.9623 58.9238 46.2746 58.255 44.7009 58.255C43.3616 58.255 42.5914 58.2884 41.1517 58.3219C39.9798 58.3553 38.4395 58.6228 38.3391 57.6865C38.1717 56.2819 41.0177 56.7167 41.4865 55.68C41.8883 54.7102 41.6539 53.0381 41.6539 51.6001C41.6539 48.8579 41.6539 46.0823 41.6539 43.106C41.6539 41.9689 41.8883 39.9959 41.4195 39.1599C40.8168 38.1232 38.9083 38.8254 38.54 37.7888C38.3726 37.3206 38.6739 36.8189 39.3436 36.6517C40.482 36.4176 42.3571 36.7855 43.8303 36.8189C45.3036 36.8524 46.8773 36.7855 48.3171 36.7521C51.2636 36.6517 54.8128 36.3842 56.8218 37.3206C59.9693 38.7586 60.8063 43.5407 58.0272 45.7478C57.1232 46.4836 56.2191 46.7176 54.5785 47.1189ZM51.0627 38.6917C50.1587 38.2569 48.585 38.2569 47.9153 38.8589C47.9823 41.3336 47.8148 44.0089 47.9823 46.3163C53.2726 47.6875 54.8463 40.4641 51.0627 38.6917Z" fill="white"/>
<path fill-rule="evenodd" clip-rule="evenodd" d="M72.4919 71.5314C73.8312 71.8658 75.1371 72.936 74.5679 74.5077C73.7977 76.7149 68.7752 76.1129 65.5609 76.1129C64.9247 76.1129 64.188 76.3136 63.8867 75.7785C63.9202 75.1431 64.7238 75.2769 65.2595 75.1431C65.7617 73.6717 65.6948 70.7288 65.3265 69.1236C65.0921 68.923 64.0206 69.224 63.9537 68.6555C63.8867 67.9866 65.6948 67.9866 66.5319 67.9197C69.0096 67.7191 74.233 67.3847 74.233 69.9262C74.2665 70.896 73.5634 71.2973 72.4919 71.5314ZM68.6413 68.7223C68.5074 69.3912 68.5074 70.5616 68.6413 71.197C71.7887 71.8324 71.7218 67.9197 68.6413 68.7223ZM68.7418 72.0999C68.6413 72.1334 68.5743 72.2003 68.5743 72.334C68.6078 73.3707 68.3734 74.7084 68.9761 75.21C72.4584 76.2467 72.0566 71.2973 68.7418 72.0999Z" fill="white"/>
<path fill-rule="evenodd" clip-rule="evenodd" d="M128.274 75.1427C128.743 75.4102 129.714 75.0758 129.547 75.7781C129.446 76.3132 127.638 76.1125 126.5 76.1125C125.16 76.1125 123.687 76.3466 123.52 75.7112C123.587 75.2096 124.256 75.3433 124.725 75.243C124.524 74.5742 124.122 74.0726 123.855 73.4706C122.85 73.4706 121.812 73.4706 120.808 73.4706C120.473 73.805 120.272 74.2732 120.238 74.9086C120.54 75.4437 121.846 74.9755 121.913 75.7112C121.678 76.3466 120.506 76.1125 119.669 76.1125C118.765 76.1125 117.694 76.2797 117.258 75.8784C117.158 75.1427 118.028 75.3768 118.464 75.1427C119.904 72.6346 121.544 70.4943 122.716 67.9193C123.017 67.8859 123.587 67.7187 123.855 67.9193C125.562 70.093 126.734 72.8018 128.274 75.1427ZM121.276 72.5677C121.946 72.5008 122.817 72.668 123.352 72.5008C122.917 71.9658 122.75 71.1297 122.214 70.6615C121.98 71.3304 121.544 71.8654 121.276 72.5677Z" fill="white"/>
<path fill-rule="evenodd" clip-rule="evenodd" d="M23.1703 68.3213C23.1703 69.0571 22.1324 68.7561 21.7306 69.0571C21.5966 70.8295 21.5966 73.1369 21.7306 74.9093C22.4672 75.5113 23.8065 75.2772 24.4762 74.9093C25.1793 74.5415 25.4137 73.672 26.3178 73.7723C26.7196 74.4412 26.2508 75.4778 26.0834 76.1132C24.0744 76.1132 21.3957 76.1132 19.0184 76.1132C18.2818 76.1132 17.4447 76.3139 16.9425 75.8791C16.8755 75.0765 17.947 75.3775 18.3822 75.0765C18.7506 73.4714 18.7506 70.7291 18.3822 69.1239C18.1144 68.7226 17.1434 69.0236 16.9425 68.5554C17.1434 67.5187 19.4537 68.1541 21.1279 68.0873C21.9984 68.0204 22.802 67.7863 23.1703 68.3213Z" fill="white"/>
<path fill-rule="evenodd" clip-rule="evenodd" d="M48.2499 68.3879C48.2164 69.0568 47.2119 68.7223 46.8101 69.0233C46.4418 70.662 46.4418 73.4042 46.8101 75.0428C47.1785 75.3772 48.183 75.0762 48.2499 75.6782C47.8481 76.3805 46.2074 76.0795 45.1025 76.0795C44.5333 76.0795 43.8971 76.0795 43.3279 76.0795C42.8256 76.0795 42.089 76.2467 41.9551 75.7451C41.9551 75.0428 42.993 75.3103 43.3948 75.0094C43.5288 73.2035 43.5288 70.8626 43.3948 69.0568C43.0935 68.6555 42.1225 68.9564 41.9551 68.4214C42.2564 67.5185 44.4663 68.087 46.1405 68.0201C47.0445 68.0201 47.9821 67.7191 48.2499 68.3879Z" fill="white"/>
<path fill-rule="evenodd" clip-rule="evenodd" d="M98.9432 71.9324C98.9432 72.0996 99.4455 72.434 99.6799 72.6681C99.8473 73.7717 100.785 74.4071 101.354 75.1428C101.823 75.2431 102.459 75.2097 102.492 75.7782C101.756 76.447 99.8808 75.9454 98.6419 76.1126C98.0392 75.5775 97.6709 74.8084 97.2021 74.1061C96.7668 73.4707 96.3315 72.5344 95.4275 72.434C95.2936 73.1029 95.2936 74.3068 95.4275 75.009C95.7623 75.4772 97.0012 75.0425 96.9677 75.8785C96.2646 76.3133 94.9922 76.1126 93.8203 76.1126C92.6819 76.1126 91.4095 76.3133 90.6729 75.8785C90.6059 75.0759 91.6774 75.3769 92.1127 75.0759C92.2466 73.2701 92.2466 70.9292 92.1127 69.1233C91.8448 68.7555 91.0412 68.9561 90.7398 68.6551C90.7064 67.6519 91.6439 68.0532 92.6819 68.0866C95.394 68.2204 100.952 67.1168 100.952 70.0931C100.952 71.2301 100.048 71.5645 98.9432 71.9324ZM95.3271 69.023C95.3271 69.859 95.3271 70.6951 95.3271 71.4977C98.4745 72.2668 98.0392 67.886 95.3271 69.023Z" fill="white"/>
<path fill-rule="evenodd" clip-rule="evenodd" d="M153.118 71.9324C153.955 72.7685 154.558 74.3402 155.596 75.1428C156.064 75.31 156.667 75.1763 156.634 75.7113C156.6 76.5474 153.788 75.912 152.85 76.1126C151.544 75.1094 151.276 73.0694 149.636 72.4341C149.502 73.1029 149.502 74.3402 149.636 75.0091C149.937 75.4772 151.209 75.0759 151.075 75.8116C150.975 76.3802 149.033 76.1461 147.928 76.1461C146.522 76.1461 145.115 76.3467 144.781 75.8116C144.814 75.1428 145.785 75.3769 146.22 75.0759C146.421 73.2701 146.254 71.0964 146.287 69.1233C146.019 68.722 145.082 68.9896 144.848 68.5548C144.948 67.6854 145.819 68.0198 146.857 68.0867C149.569 68.2204 154.558 67.2841 155.06 69.625C155.395 70.9961 154.29 71.7318 153.118 71.9324ZM149.636 68.8892C149.468 69.625 149.602 70.6616 149.569 71.5311C152.381 72.2 152.482 68.2539 149.636 68.8892Z" fill="white"/>
<path fill-rule="evenodd" clip-rule="evenodd" d="M177.629 68.5555C177.528 68.9234 176.992 68.8565 176.49 68.8899C176.557 69.3581 177.059 69.8598 177.461 70.2611C177.863 70.6958 178.365 71.0971 178.734 71.4649C179.437 70.7627 180.24 70.0604 180.508 69.124C180.274 68.6559 179.236 69.0237 178.968 68.5555C179.269 67.5857 180.776 68.1208 182.015 68.0874C182.685 68.0539 184.024 67.8198 183.857 68.5555C183.79 68.8899 182.551 69.0572 182.417 69.124C181.245 69.726 180.24 71.4984 179.202 72.3344C179.437 73.3711 178.901 74.3075 179.202 74.9094C179.537 75.5114 180.441 74.9763 180.743 75.712C180.274 76.4143 178.801 76.1133 177.595 76.1133C177.026 76.1133 176.39 76.1133 175.821 76.1133C175.318 76.1133 174.615 76.314 174.448 75.7789C174.481 75.0098 175.62 75.4111 175.988 74.9763C175.854 74.1403 176.189 73.4714 175.988 72.8026C175.787 72.1003 174.615 71.2977 174.146 70.7961C173.443 70.0604 172.841 69.3916 172.204 68.8565C171.702 68.8899 171.267 68.8231 171.066 68.5221C171.099 67.686 172.137 67.987 173.075 68.0539C174.716 68.1542 177.495 67.5523 177.629 68.5555Z" fill="white"/>
<path d="M114.981 58.3894C114.981 58.3559 114.412 56.6838 114.379 56.4163C113.14 50.6644 112.236 42.5715 113.81 36.5186C106.711 36.6858 102.727 39.9296 100.55 45.0127C98.4407 39.8627 94.3557 36.6858 87.2908 36.5186C89.0654 43.3741 87.8265 52.5037 86.1523 58.59C90.9739 58.5231 94.5232 60.1283 97.1683 61.9676C97.8715 62.603 100.115 64.6429 100.617 65.1111C101.052 64.5761 103.162 62.302 103.832 61.9676C106.745 60.0949 109.992 58.59 114.747 58.59C115.048 58.6569 114.981 58.4897 114.981 58.3894Z" fill="white"/>
<path d="M4.28518 94.439C4.28518 94.3721 4.31866 94.3052 4.45259 94.3052H4.85439C5.65799 94.3052 5.92586 93.9039 6.29417 92.8003L8.57103 85.3429C6.96384 85.3429 6.36114 85.3763 5.95934 85.7107C5.55754 86.0451 4.65349 86.9146 4.21821 87.3828C4.18473 87.4162 4.11776 87.4162 4.08428 87.4162L3.78293 87.249C3.74944 87.249 3.74944 87.1821 3.78293 87.1153C3.95034 86.7808 4.88787 84.6406 4.92136 84.5403C4.95484 84.4399 4.98832 84.373 5.05529 84.373C5.15574 84.373 5.22271 84.4399 5.39012 84.5403C5.69147 84.674 6.59552 84.7409 8.20272 84.7409H11.3837C12.8904 84.7409 13.5266 84.674 13.8614 84.4734C13.9619 84.4065 13.9954 84.373 14.0623 84.373C14.1628 84.373 14.2297 84.4065 14.1963 84.4734C14.1628 84.7409 14.0288 86.9815 14.0623 87.5834C14.0623 87.6838 14.0288 87.6838 13.9284 87.7172L13.6605 87.7506C13.5601 87.7506 13.5266 87.7172 13.4596 87.5166C13.2922 87.0149 12.9909 86.1789 12.79 85.8445C12.4886 85.4097 11.4841 85.3094 10.5801 85.3094L8.26968 92.9675C7.96833 93.9373 8.16923 94.2717 8.90587 94.2717H9.50856C9.60901 94.2717 9.6425 94.3386 9.60901 94.439L9.54205 94.7399C9.54205 94.8068 9.50856 94.8737 9.34115 94.8737C9.14025 94.8737 8.53755 94.8403 6.39462 94.8403C5.32316 94.8403 4.51956 94.8737 4.35214 94.8737C4.21821 94.8737 4.21821 94.8403 4.21821 94.7065L4.28518 94.439Z" fill="white"/>
<path d="M15.8375 90.5929L15.9714 90.6933C16.6411 89.6231 17.6456 88.4527 18.7171 88.4527C19.822 88.4527 20.0564 89.3221 20.0564 90.0579C20.0564 91.128 19.6211 92.3988 19.0854 93.3686C18.3487 94.6059 17.4782 95.3751 16.4067 95.3751C15.9045 95.3751 15.4357 95.0741 15.4692 94.4053C15.4692 94.0374 15.7036 93.6361 16.1389 93.6361C16.5407 93.6361 16.7081 93.9371 16.7416 94.2046C16.7416 94.5056 16.8085 94.7397 17.0429 94.7397C17.3777 94.7397 17.6121 93.8368 17.8465 92.9673C18.0809 92.1312 18.3487 91.0277 18.3487 90.2251C18.3487 89.7903 18.2148 89.5897 17.88 89.5897C17.3443 89.5897 16.3732 90.7601 15.9714 91.3286C15.6031 91.8303 15.3353 92.3319 15.2013 92.6998L14.3308 94.8066C14.2973 94.8734 14.1968 94.9069 14.0629 94.9069H12.8575C12.7236 94.9069 12.6566 94.84 12.7236 94.7397L15.871 86.3124C15.9714 86.0783 16.0719 85.7105 16.0719 85.5433C16.0719 85.376 15.9045 85.2423 15.6031 85.2423H15.1678C15.1009 85.2423 15.0674 85.2088 15.0674 85.1085L15.1344 84.8075C15.1678 84.7407 15.1678 84.6738 15.3018 84.6738H18.0139C18.1478 84.6738 18.1813 84.7407 18.1813 84.841C18.1813 84.9413 18.1478 85.1085 18.0139 85.376L15.8375 90.5929Z" fill="white"/>
<path d="M25.2809 93.3688C25.3478 93.4022 25.3478 93.4691 25.3144 93.536C25.0465 94.0711 23.9081 95.0409 22.4348 95.0409C21.3968 95.0409 20.6602 94.4389 20.6602 93.3688C20.6602 92.2652 21.1289 90.66 22.4683 89.523C23.2049 88.8876 24.109 88.4863 24.9795 88.4863C25.8166 88.4863 26.1514 88.9545 26.1514 89.523C26.1514 90.3591 25.6492 90.9944 24.7786 91.4626C23.9415 91.9308 23.1379 92.0646 22.5687 92.1315C22.5018 92.2652 22.4348 92.6665 22.4348 93.0678C22.4348 93.6029 22.7361 94.0376 23.2384 94.0376C23.975 94.0376 24.5108 93.6363 24.8791 93.2685C24.9126 93.235 24.946 93.2016 25.013 93.235L25.2809 93.3688ZM24.109 90.9276C24.3433 90.6935 24.5777 90.1918 24.5777 89.6902C24.5777 89.4561 24.5108 89.1886 24.1759 89.1886C23.6067 89.1886 22.9705 90.5597 22.7361 91.5295C22.9705 91.563 23.6737 91.3623 24.109 90.9276Z" fill="white"/>
<path d="M37.7689 95.1075C37.7354 95.1744 37.7019 95.2078 37.6015 95.1744L37.3001 95.1075C37.2666 95.1075 37.2332 95.074 37.2666 94.9737C37.2666 94.9068 37.3001 94.8065 37.3001 94.7062C37.3001 94.6059 37.2332 94.5055 37.0657 94.5055C36.9318 94.5055 36.7309 94.539 36.463 94.6727C36.1952 94.8065 35.1907 95.074 34.3536 95.074C31.9093 95.074 30.3691 93.7029 30.3691 91.5961C30.3691 89.1549 31.1057 87.7838 32.4785 86.2789C33.4495 85.2088 34.8224 84.54 36.53 84.54C37.2666 84.54 37.9698 84.6737 38.5055 85.0416C38.7064 85.1754 39.0078 85.376 39.1752 85.376C39.3761 85.376 39.51 85.2423 39.577 85.075C39.6105 84.9747 39.644 84.9413 39.7109 84.9747L40.0123 85.0416C40.0458 85.0416 40.0792 85.1085 40.0458 85.2088L39.2422 88.3857C39.2087 88.4861 39.1752 88.5195 39.0747 88.4861L38.7399 88.4526C38.6729 88.4526 38.6395 88.3858 38.6395 88.2854C38.7734 86.814 38.2377 85.2088 36.597 85.2088C35.626 85.2088 34.8558 85.677 34.0188 86.9143C32.8803 88.553 32.579 90.4257 32.579 91.6296C32.579 93.6695 33.8513 94.3383 34.5545 94.3383C35.5925 94.3383 37.0657 94.0374 38.1707 91.7299C38.2042 91.663 38.2711 91.663 38.3381 91.663L38.6729 91.7633C38.7734 91.7968 38.7734 91.8302 38.7399 91.8971L37.7689 95.1075Z" fill="white"/>
<path d="M46.9107 88.5863C47.0446 88.5863 47.1116 88.6532 47.0781 88.787L46.0401 91.9974C45.6383 93.2013 45.5044 93.7363 45.5044 93.8367C45.5044 93.9704 45.6048 94.0039 45.7053 94.0039C45.9062 94.0039 46.241 93.5357 46.5089 93.2013C46.5424 93.1344 46.6093 93.1344 46.6428 93.2013L46.8102 93.335C46.8437 93.3685 46.8437 93.4354 46.8102 93.5022C46.6093 93.9035 45.7722 95.0071 44.3659 95.0071C43.9641 95.0071 43.7298 94.8065 43.7298 94.5055C43.7298 94.238 44.299 92.6662 44.4664 92.2315L44.299 92.1311C43.7632 92.9672 42.4574 95.0071 40.9506 95.0071C40.5488 95.0071 40.147 94.5389 40.1805 94.2714C40.1805 93.636 40.4819 92.9672 41.0846 91.4623C41.4864 90.4591 41.6873 89.8237 41.6873 89.623C41.6873 89.4558 41.5868 89.3555 41.4194 89.3555C41.2185 89.3555 40.7497 89.7234 40.3814 90.1247C40.3479 90.1915 40.2475 90.1915 40.214 90.1247L40.0466 89.9574C40.0131 89.924 40.0131 89.8906 40.0466 89.8237C40.3479 89.4224 41.1515 88.3857 42.6248 88.3857C43.1271 88.3857 43.3949 88.7201 43.3949 89.088C43.3949 89.4224 43.194 90.1915 42.5913 91.663C42.223 92.5659 41.9551 93.2682 41.9551 93.5357C41.9551 93.7029 42.0891 93.8032 42.223 93.8032C42.4909 93.8032 43.8637 92.1646 44.232 91.5292C44.4999 91.0945 44.6673 90.6932 44.8682 90.0578L45.337 88.6198C45.3704 88.5195 45.4374 88.5195 45.5713 88.5195H46.9107V88.5863Z" fill="white"/>
<path d="M52.3335 84.6741C52.4675 84.6741 52.501 84.7744 52.434 84.9416L49.4205 93.3689C49.2531 93.8036 49.2866 94.0043 49.5544 94.0043C49.9227 94.0043 50.4585 93.4692 50.6259 93.2685C50.6594 93.2351 50.7263 93.2351 50.7598 93.2685L50.9272 93.4357C50.9607 93.4692 50.9607 93.5361 50.9272 93.603C50.8603 93.7033 49.7218 94.9741 48.1146 94.9741C47.8133 94.9741 47.4785 94.6062 47.4785 94.3387C47.4785 94.0711 47.7463 93.3689 47.9138 92.9341L50.2911 86.1121C50.492 85.5435 50.425 85.1757 49.9897 85.1757H49.5544C49.454 85.1757 49.4205 85.1088 49.4205 85.0419L49.5209 84.7409C49.5544 84.6406 49.5879 84.6406 49.6884 84.6406H52.3335V84.6741Z" fill="white"/>
<path d="M55.2131 88.8872H56.7198C56.7868 88.8872 56.8203 88.9207 56.7868 89.021L56.6863 89.4223C56.6529 89.5226 56.5859 89.5561 56.4854 89.5561H54.9787L53.7398 92.8668C53.6729 93.1009 53.5389 93.4687 53.5389 93.6694C53.5389 93.8366 53.6729 93.9704 53.8738 93.9704C54.1751 93.9704 55.0791 93.335 55.1461 93.2346C55.1796 93.1678 55.2466 93.2012 55.2801 93.2346L55.4475 93.4018C55.481 93.4353 55.5144 93.4687 55.4809 93.5356C55.28 93.8032 54.0077 95.0405 52.4675 95.0405C51.9317 95.0405 51.6973 94.7395 51.6973 94.5054C51.6973 94.2045 51.7308 93.87 51.8648 93.5691L53.2376 89.5895H52.0657C51.9652 89.5895 51.9317 89.5226 51.9652 89.4223L52.0657 89.021C52.0991 88.9541 52.1326 88.9207 52.2331 88.9207H53.472L53.9742 87.2821C54.0412 87.1148 54.1081 87.0814 54.4765 87.0814C54.8782 87.048 55.6818 86.6801 55.8158 86.5798C55.8827 86.5463 55.9832 86.4795 56.0502 86.4795C56.1506 86.4795 56.2176 86.6467 56.1841 86.747L55.2131 88.8872Z" fill="white"/>
<path d="M63.7522 88.5863C63.8861 88.5863 63.9531 88.6532 63.9196 88.787L62.8816 91.9974C62.4798 93.2013 62.3459 93.7363 62.3459 93.8367C62.3459 93.9704 62.4463 94.0039 62.5468 94.0039C62.7477 94.0039 63.0825 93.5357 63.3504 93.2013C63.3839 93.1344 63.4508 93.1344 63.4843 93.2013L63.6517 93.335C63.6852 93.3685 63.6852 93.4354 63.6517 93.5022C63.4508 93.9035 62.6138 95.0071 61.2075 95.0071C60.8057 95.0071 60.5713 94.8065 60.5713 94.5055C60.5713 94.238 61.1405 92.6662 61.3079 92.2315L61.1405 92.1311C60.6048 92.9672 59.2989 95.0071 57.7922 95.0071C57.3904 95.0071 56.9886 94.5389 57.022 94.2714C57.022 93.636 57.3234 92.9672 57.9261 91.4623C58.3279 90.4591 58.5288 89.8237 58.5288 89.623C58.5288 89.4558 58.4283 89.3555 58.2609 89.3555C58.06 89.3555 57.5913 89.7234 57.2229 90.1247C57.1895 90.1915 57.089 90.1915 57.0555 90.1247L56.9216 89.9574C56.8881 89.924 56.8881 89.8906 56.9216 89.8237C57.2229 89.4224 58.0265 88.3857 59.4998 88.3857C60.0021 88.3857 60.2699 88.7201 60.2699 89.088C60.2699 89.4224 60.069 90.1915 59.4663 91.663C59.098 92.5659 58.8301 93.2682 58.8301 93.5357C58.8301 93.7029 58.9641 93.8032 59.098 93.8032C59.3659 93.8032 60.7387 92.1646 61.107 91.5292C61.3749 91.0945 61.5423 90.6932 61.7432 90.0578L62.212 88.6198C62.2454 88.5195 62.3124 88.5195 62.4463 88.5195H63.7522V88.5863Z" fill="white"/>
<path d="M64.9239 94.8737C64.8234 94.8737 64.7565 94.8068 64.7899 94.7399L65.5266 92.2987C65.7944 91.4626 66.2632 89.9578 66.2632 89.6902C66.2632 89.523 66.1628 89.3892 65.9953 89.3892C65.761 89.3892 65.2252 89.8909 64.9908 90.2253C64.9239 90.3256 64.8569 90.3256 64.8234 90.2922L64.656 90.1919C64.6225 90.1584 64.6225 90.125 64.656 90.0246C64.8904 89.5899 65.761 88.4863 67.0668 88.4863C67.6695 88.4863 67.8369 88.7873 67.8369 89.0883C67.8369 89.3558 67.5356 90.0915 67.2007 91.0613L67.3682 91.1617C67.7365 90.3256 68.6405 88.4863 69.7455 88.4863C70.1808 88.4863 70.616 88.8207 70.616 89.2889C70.616 89.824 70.2142 90.2587 69.9464 90.2587C69.7455 90.2587 69.5781 90.2253 69.4441 90.125C69.3102 90.0581 69.2097 89.9578 69.0088 89.9578C68.5401 89.9578 67.7365 91.1617 67.4016 91.9308C67.2342 92.2987 67.1003 92.7334 66.8994 93.2685L66.4306 94.7733C66.3971 94.8402 66.3302 94.8737 66.2297 94.8737H64.9239Z" fill="white"/>
<path d="M76.7441 88.3525C76.8446 88.3525 76.8781 88.4194 76.8781 88.5197C76.6437 89.1551 75.9405 91.1616 75.8066 91.6632C75.7396 91.9308 75.2039 93.6029 75.2039 93.837C75.2039 93.9707 75.2709 94.0042 75.3713 94.0042C75.6057 94.0042 76.1079 93.3019 76.2084 93.1681C76.2754 93.0678 76.3088 93.0678 76.3758 93.1012L76.5432 93.235C76.5767 93.2684 76.5767 93.3353 76.5432 93.4356C76.3758 93.7366 75.5722 95.0074 74.1659 95.0074C73.6971 95.0074 73.5632 94.7733 73.5632 94.5392C73.5632 94.3386 73.6302 94.071 74.1659 92.5996L74.032 92.5327C73.4293 93.4357 72.4583 95.0408 71.0185 95.0408C70.6167 95.0408 69.9805 94.4723 69.9805 93.8704C69.9805 91.9642 71.8556 88.4529 73.9985 88.4529C74.6682 88.4529 74.9695 88.7538 75.1704 88.9879L75.4048 88.5532C75.4718 88.4194 75.5722 88.386 75.6727 88.386H76.7441V88.3525ZM72.0899 93.8035C72.4917 93.8035 73.898 91.8305 74.1994 91.2285C74.3668 90.8272 74.5342 90.3256 74.5342 89.7905C74.5342 89.4561 74.1659 89.1217 73.8646 89.1217C73.4962 89.1217 73.1279 89.4227 72.7261 90.1584C71.9895 91.496 71.7216 92.6665 71.7216 93.4022C71.7551 93.6697 71.8556 93.8035 72.0899 93.8035Z" fill="white"/>
<path d="M81.9 84.6741C82.0339 84.6741 82.0674 84.7744 82.0005 84.9416L78.987 93.3689C78.8195 93.8036 78.853 94.0043 79.1209 94.0043C79.4892 94.0043 80.0249 93.4692 80.1924 93.2685C80.2258 93.2351 80.2928 93.2351 80.3263 93.2685L80.4937 93.4357C80.5272 93.4692 80.5272 93.5361 80.4937 93.603C80.4267 93.7033 79.2883 94.9741 77.6811 94.9741C77.3798 94.9741 77.0449 94.6062 77.0449 94.3387C77.0449 94.0711 77.3128 93.3689 77.4802 92.9341L79.8575 86.1121C80.0584 85.5435 79.9915 85.1757 79.5562 85.1757H79.1209C79.0205 85.1757 78.987 85.1088 78.987 85.0419L79.0874 84.7409C79.1209 84.6406 79.1544 84.6406 79.2548 84.6406H81.9V84.6741Z" fill="white"/>
<path d="M92.4136 95.1075C92.3801 95.1744 92.3466 95.2078 92.2461 95.1744L91.9448 95.1075C91.9113 95.1075 91.8778 95.074 91.9113 94.9737C91.9113 94.9068 91.9448 94.8065 91.9448 94.7062C91.9448 94.6059 91.8778 94.5055 91.7104 94.5055C91.5765 94.5055 91.3756 94.539 91.1077 94.6727C90.8398 94.8065 89.8353 95.074 88.9982 95.074C86.554 95.074 85.0137 93.7029 85.0137 91.5961C85.0137 89.1549 85.7504 87.7838 87.1232 86.2789C88.0942 85.2088 89.467 84.54 91.1747 84.54C91.9113 84.54 92.6145 84.6737 93.1502 85.0416C93.3511 85.1754 93.6524 85.376 93.8199 85.376C94.0208 85.376 94.1547 85.2423 94.2216 85.075C94.2551 84.9747 94.2886 84.9413 94.3556 84.9747L94.6569 85.0416C94.6904 85.0416 94.7239 85.1085 94.6904 85.2088L93.8868 88.3857C93.8533 88.4861 93.8198 88.5195 93.7194 88.4861L93.3846 88.4526C93.3176 88.4526 93.2841 88.3858 93.2841 88.2854C93.4181 86.814 92.8823 85.2088 91.2416 85.2088C90.2706 85.2088 89.5005 85.677 88.6634 86.9143C87.525 88.553 87.2236 90.4257 87.2236 91.6296C87.2236 93.6695 88.496 94.3383 89.1992 94.3383C90.2371 94.3383 91.7104 94.0374 92.8154 91.7299C92.8488 91.663 92.9158 91.663 92.9828 91.663L93.3176 91.7633C93.4181 91.7968 93.418 91.8302 93.3846 91.8971L92.4136 95.1075Z" fill="white"/>
<path d="M99.0777 93.3688C99.1446 93.4022 99.1447 93.4691 99.1112 93.536C98.8433 94.0711 97.7049 95.0409 96.2316 95.0409C95.1936 95.0409 94.457 94.4389 94.457 93.3688C94.457 92.2652 94.9258 90.66 96.2651 89.523C97.0017 88.8876 97.9058 88.4863 98.7763 88.4863C99.6134 88.4863 99.9482 88.9545 99.9482 89.523C99.9482 90.3591 99.446 90.9944 98.5754 91.4626C97.7384 91.9308 96.9348 92.0646 96.3655 92.1315C96.2986 92.2652 96.2316 92.6665 96.2316 93.0678C96.2316 93.6029 96.533 94.0376 97.0352 94.0376C97.7718 94.0376 98.3076 93.6363 98.6759 93.2685C98.7094 93.235 98.7429 93.2016 98.8098 93.235L99.0777 93.3688ZM97.9058 90.9276C98.1402 90.6935 98.3745 90.1918 98.3745 89.6902C98.3745 89.4561 98.3076 89.1886 97.9727 89.1886C97.4035 89.1886 96.7673 90.5597 96.533 91.5295C96.8008 91.563 97.4705 91.3623 97.9058 90.9276Z" fill="white"/>
<path d="M100.482 94.8737C100.382 94.8737 100.315 94.8068 100.348 94.7065L101.386 91.8305C101.721 90.8941 102.056 89.8909 102.056 89.7237C102.056 89.5565 101.989 89.4896 101.855 89.4896C101.621 89.4896 101.052 90.0915 100.851 90.2922C100.817 90.3256 100.75 90.3591 100.683 90.2922L100.549 90.125C100.482 90.0915 100.482 90.0246 100.549 89.9912C100.784 89.6902 101.721 88.4863 103.295 88.4863C103.73 88.4863 103.898 88.8207 103.898 89.0883C103.898 89.2889 103.596 90.125 103.161 91.0279L103.295 91.1282C103.73 90.4594 105.003 88.4863 106.476 88.4863C107.112 88.4863 107.447 89.0883 107.447 89.4896C107.447 89.824 107.246 90.4594 106.576 92.2987C106.208 93.3354 106.108 93.6698 106.108 93.837C106.108 94.0042 106.174 94.1045 106.308 94.1045C106.476 94.1045 106.978 93.6363 107.146 93.4691C107.179 93.4022 107.246 93.4357 107.279 93.4691L107.413 93.6029C107.48 93.6363 107.48 93.7366 107.413 93.7701C107.246 94.0042 106.308 95.0743 104.869 95.0743C104.433 95.0743 104.266 94.8068 104.266 94.5058C104.266 94.2383 104.567 93.3354 105.036 91.9977C105.27 91.2954 105.639 90.2922 105.639 90.0246C105.639 89.7906 105.505 89.6902 105.337 89.6902C105.003 89.6902 103.864 90.8941 103.261 91.8639C102.927 92.399 102.625 92.8672 102.525 93.1347L101.922 94.8068C101.889 94.8737 101.855 94.9071 101.688 94.9071H100.482V94.8737Z" fill="white"/>
<path d="M111.967 88.8872H113.474C113.541 88.8872 113.574 88.9207 113.541 89.021L113.44 89.4223C113.407 89.5226 113.34 89.5561 113.239 89.5561H111.733L110.494 92.8668C110.427 93.1009 110.293 93.4687 110.293 93.6694C110.293 93.8366 110.427 93.9704 110.628 93.9704C110.929 93.9704 111.833 93.335 111.9 93.2346C111.934 93.1678 112.001 93.2012 112.034 93.2346L112.201 93.4018C112.235 93.4353 112.268 93.4687 112.235 93.5356C112.034 93.8032 110.762 95.0405 109.221 95.0405C108.686 95.0405 108.451 94.7395 108.451 94.5054C108.451 94.2045 108.485 93.87 108.619 93.5691L109.992 89.5895H108.82C108.719 89.5895 108.686 89.5226 108.719 89.4223L108.82 89.021C108.853 88.9541 108.887 88.9207 108.987 88.9207H110.226L110.728 87.2821C110.795 87.1148 110.862 87.0814 111.23 87.0814C111.632 87.048 112.436 86.6801 112.57 86.5798C112.637 86.5463 112.737 86.4795 112.804 86.4795C112.905 86.4795 112.972 86.6467 112.938 86.747L111.967 88.8872Z" fill="white"/>
<path d="M117.593 93.3688C117.66 93.4022 117.66 93.4691 117.627 93.536C117.359 94.0711 116.22 95.0409 114.747 95.0409C113.709 95.0409 112.973 94.4389 112.973 93.3688C112.973 92.2652 113.441 90.66 114.781 89.523C115.517 88.8876 116.421 88.4863 117.292 88.4863C118.129 88.4863 118.464 88.9545 118.464 89.523C118.464 90.3591 117.962 90.9944 117.091 91.4626C116.254 91.9308 115.45 92.0646 114.881 92.1315C114.814 92.2652 114.747 92.6665 114.747 93.0678C114.747 93.6029 115.049 94.0376 115.551 94.0376C116.287 94.0376 116.823 93.6363 117.191 93.2685C117.225 93.235 117.258 93.2016 117.325 93.235L117.593 93.3688ZM116.388 90.9276C116.622 90.6935 116.857 90.1918 116.857 89.6902C116.857 89.4561 116.79 89.1886 116.455 89.1886C115.886 89.1886 115.249 90.5597 115.015 91.5295C115.283 91.563 115.953 91.3623 116.388 90.9276Z" fill="white"/>
<path d="M119.301 94.8737C119.2 94.8737 119.133 94.8068 119.167 94.7399L119.904 92.2987C120.171 91.4626 120.64 89.9578 120.64 89.6902C120.64 89.523 120.54 89.3892 120.372 89.3892C120.138 89.3892 119.602 89.8909 119.368 90.2253C119.301 90.3256 119.234 90.3256 119.2 90.2922L119.066 90.1919C119.033 90.1584 119.033 90.125 119.066 90.0246C119.301 89.5899 120.171 88.4863 121.477 88.4863C122.08 88.4863 122.247 88.7873 122.247 89.0883C122.247 89.3558 121.946 90.0915 121.611 91.0613L121.779 91.1617C122.147 90.3256 123.051 88.4863 124.156 88.4863C124.591 88.4863 125.026 88.8207 125.026 89.2889C125.026 89.824 124.625 90.2587 124.357 90.2587C124.156 90.2587 123.989 90.2253 123.855 90.125C123.721 90.0581 123.62 89.9578 123.419 89.9578C122.951 89.9578 122.147 91.1617 121.812 91.9308C121.678 92.2987 121.511 92.7334 121.31 93.2685L120.841 94.7733C120.808 94.8402 120.741 94.8737 120.64 94.8737H119.301Z" fill="white"/>
<path d="M127.906 92.6995C127.906 91.4956 128.241 90.2248 129.112 89.2884C129.714 88.653 130.451 88.4189 131.254 88.4189C132.058 88.4189 133.364 88.7868 133.364 90.6261C133.364 91.529 133.063 93.1008 132.092 94.104C131.489 94.7394 130.853 94.9735 129.882 94.9735C129.011 95.0069 127.906 94.405 127.906 92.6995ZM131.221 92.6326C131.69 91.7631 132.125 90.4923 132.125 89.9238C132.125 89.5559 131.991 89.2884 131.556 89.2884C130.987 89.2884 130.551 89.8235 129.882 91.0274C129.379 91.9303 129.145 92.8332 129.145 93.4686C129.145 93.7696 129.312 94.1375 129.681 94.1375C130.116 94.1375 130.618 93.8365 131.221 92.6326Z" fill="white"/>
<path d="M135.708 88.8877C136.143 87.7507 136.143 86.9481 137.348 85.577C137.717 85.1757 138.788 84.5068 139.726 84.5068C141.032 84.5068 141.5 85.0753 141.5 85.6104C141.5 85.9783 141.166 86.3461 140.73 86.3461C140.094 86.3461 139.86 86.0451 139.793 85.5435C139.759 85.3763 139.659 85.1088 139.324 85.1088C138.319 85.1088 137.918 87.249 137.516 88.8542H139.09C139.19 88.8542 139.223 88.8877 139.19 88.988L139.123 89.3559C139.123 89.4562 139.09 89.4896 138.956 89.4896H137.382C137.047 90.727 136.478 93.302 135.909 94.8737C135.172 97.014 133.799 99.2546 131.924 99.2546C131.02 99.2546 130.518 98.8533 130.518 98.2848C130.518 97.85 130.786 97.4822 131.254 97.4822C131.723 97.4822 131.991 97.85 132.025 98.3182C132.025 98.4854 132.159 98.5857 132.359 98.5857C133.096 98.5857 133.699 97.3149 134.335 94.6062L135.54 89.4896H134.268C134.201 89.4896 134.134 89.4227 134.168 89.3559L134.268 88.9546C134.268 88.8877 134.301 88.8208 134.435 88.8208H135.708V88.8877Z" fill="white"/>
<path d="M151.612 93.302C151.445 93.8705 151.545 94.3387 151.88 94.3387H152.416C152.55 94.3387 152.583 94.3721 152.55 94.5059L152.483 94.8403C152.483 94.9072 152.449 94.9406 152.315 94.9406C152.181 94.9406 151.679 94.9072 150.273 94.9072C148.867 94.9072 148.297 94.9406 148.097 94.9406C147.996 94.9406 147.963 94.9072 147.963 94.8069L148.03 94.4724C148.03 94.4056 148.063 94.3721 148.164 94.3721H148.532C149.001 94.3721 149.268 94.1046 149.603 93.1013L150.541 90.2588C150.574 90.0916 150.541 90.0582 150.407 90.0582H146.255C146.121 90.0582 146.021 90.0916 145.987 90.1919L144.949 93.4023C144.681 94.2049 144.949 94.3721 145.418 94.3721H145.786C145.887 94.3721 145.92 94.439 145.887 94.5059L145.853 94.8403C145.853 94.9406 145.786 94.9741 145.686 94.9741C145.518 94.9741 144.949 94.9406 143.442 94.9406C142.07 94.9406 141.534 94.9741 141.4 94.9741C141.299 94.9741 141.266 94.9406 141.266 94.8737L141.333 94.5059C141.333 94.4056 141.366 94.3721 141.467 94.3721H141.835C142.304 94.3721 142.605 94.0377 142.873 93.2685L145.25 86.0786C145.384 85.6104 145.117 85.3763 144.849 85.3763H144.346C144.246 85.3763 144.213 85.3429 144.213 85.276L144.279 84.9082C144.279 84.8078 144.346 84.7744 144.447 84.7744C144.581 84.7744 145.384 84.8078 146.69 84.8078C147.728 84.8078 148.498 84.7744 148.632 84.7744C148.733 84.7744 148.766 84.8078 148.766 84.9082L148.666 85.276C148.666 85.3429 148.599 85.3763 148.532 85.3763H148.197C147.728 85.3763 147.46 85.577 147.293 86.1455L146.288 89.2556C146.255 89.3893 146.288 89.4228 146.422 89.4228H150.608C150.742 89.4228 150.775 89.3893 150.842 89.2556L151.88 85.9783C152.014 85.5435 151.713 85.3763 151.445 85.3763H151.21C151.144 85.3763 151.11 85.3763 151.11 85.276L151.21 84.8747C151.21 84.8078 151.277 84.7744 151.378 84.7744C151.512 84.7744 152.282 84.8078 153.42 84.8078C154.391 84.8078 155.028 84.7744 155.195 84.7744C155.329 84.7744 155.362 84.8078 155.329 84.8747L155.262 85.2426C155.262 85.3095 155.195 85.3763 155.128 85.3763H154.827C154.425 85.3763 154.157 85.5435 153.956 86.1455L151.612 93.302Z" fill="white"/>
<path d="M160.787 88.3525C160.887 88.3525 160.954 88.4194 160.921 88.5197C160.686 89.1551 159.983 91.1616 159.849 91.6632C159.782 91.9308 159.246 93.6029 159.246 93.837C159.246 93.9707 159.313 94.0042 159.414 94.0042C159.648 94.0042 160.151 93.3019 160.251 93.1681C160.318 93.0678 160.351 93.0678 160.385 93.1012L160.552 93.235C160.586 93.2684 160.586 93.3353 160.552 93.4356C160.418 93.7366 159.581 95.0074 158.175 95.0074C157.74 95.0074 157.572 94.7733 157.572 94.5392C157.572 94.3386 157.639 94.071 158.175 92.5996L158.041 92.5327C157.438 93.4357 156.467 95.0408 155.028 95.0408C154.626 95.0408 153.99 94.4723 153.99 93.8704C153.99 91.9642 155.865 88.4529 158.008 88.4529C158.677 88.4529 158.979 88.7538 159.18 88.9879L159.414 88.5532C159.481 88.4194 159.581 88.386 159.682 88.386H160.787V88.3525ZM156.133 93.8035C156.534 93.8035 157.941 91.8305 158.242 91.2285C158.409 90.8272 158.577 90.3256 158.577 89.7905C158.577 89.4561 158.209 89.1217 157.907 89.1217C157.539 89.1217 157.171 89.4227 156.769 90.1584C156.032 91.496 155.764 92.6665 155.764 93.4022C155.798 93.6697 155.898 93.8035 156.133 93.8035Z" fill="white"/>
<path d="M161.724 94.8737C161.624 94.8737 161.557 94.8068 161.59 94.7399L162.327 92.2987C162.595 91.4626 163.064 89.9578 163.064 89.6902C163.064 89.523 162.963 89.3892 162.796 89.3892C162.561 89.3892 162.026 89.8909 161.791 90.2253C161.724 90.3256 161.657 90.3256 161.624 90.2922L161.49 90.1919C161.456 90.1584 161.456 90.125 161.49 90.0246C161.724 89.5899 162.595 88.4863 163.901 88.4863C164.503 88.4863 164.671 88.7873 164.671 89.0883C164.671 89.3558 164.369 90.0915 164.035 91.0613L164.202 91.1617C164.57 90.3256 165.474 88.4863 166.579 88.4863C167.015 88.4863 167.45 88.8207 167.45 89.2889C167.45 89.824 167.048 90.2587 166.78 90.2587C166.579 90.2587 166.412 90.2253 166.278 90.125C166.144 90.0581 166.044 89.9578 165.843 89.9578C165.374 89.9578 164.57 91.1617 164.235 91.9308C164.068 92.2987 163.934 92.7334 163.733 93.2685L163.264 94.7733C163.231 94.8402 163.164 94.8737 163.064 94.8737H161.724Z" fill="white"/>
<path d="M171.067 88.8872H172.574C172.641 88.8872 172.674 88.9207 172.641 89.021L172.54 89.4223C172.507 89.5226 172.44 89.5561 172.339 89.5561H170.833L169.594 92.8668C169.527 93.1009 169.393 93.4687 169.393 93.6694C169.393 93.8366 169.527 93.9704 169.728 93.9704C170.029 93.9704 170.933 93.335 171 93.2346C171.034 93.1678 171.1 93.2012 171.134 93.2346L171.301 93.4018C171.335 93.4353 171.368 93.4687 171.335 93.5356C171.134 93.8032 169.862 95.0405 168.321 95.0405C167.786 95.0405 167.551 94.7395 167.551 94.5054C167.551 94.2045 167.585 93.87 167.719 93.5691L169.092 89.5895H167.92C167.819 89.5895 167.786 89.5226 167.819 89.4223L167.92 89.021C167.953 88.9541 167.987 88.9207 168.087 88.9207H169.326L169.828 87.2821C169.895 87.1148 169.962 87.0814 170.33 87.0814C170.732 87.048 171.536 86.6801 171.67 86.5798C171.737 86.5463 171.837 86.4795 171.904 86.4795C172.005 86.4795 172.072 86.6467 172.038 86.747L171.067 88.8872Z" fill="white"/>
<path d="M176.925 84.6741C177.059 84.6741 177.092 84.7744 177.025 84.9416L174.012 93.3689C173.844 93.8036 173.878 94.0043 174.146 94.0043C174.514 94.0043 175.05 93.4692 175.217 93.2685C175.25 93.2351 175.317 93.2351 175.351 93.2685L175.518 93.4357C175.552 93.4692 175.552 93.5361 175.518 93.603C175.451 93.7033 174.313 94.9741 172.706 94.9741C172.404 94.9741 172.07 94.6062 172.07 94.3387C172.07 94.0711 172.337 93.3689 172.505 92.9341L174.882 86.1121C175.083 85.5435 175.016 85.1757 174.581 85.1757H174.146C174.045 85.1757 174.012 85.1088 174.012 85.0419L174.112 84.7409C174.146 84.6406 174.179 84.6406 174.246 84.6406H176.925V84.6741Z" fill="white"/>
<path d="M182.852 88.3525C182.952 88.3525 182.986 88.4194 182.986 88.5197C182.752 89.1551 182.048 91.1616 181.915 91.6632C181.848 91.9308 181.312 93.6029 181.312 93.837C181.312 93.9707 181.379 94.0042 181.479 94.0042C181.714 94.0042 182.216 93.3019 182.316 93.1681C182.383 93.0678 182.417 93.0678 182.45 93.1012L182.618 93.235C182.651 93.2684 182.651 93.3353 182.618 93.4356C182.484 93.7366 181.647 95.0074 180.24 95.0074C179.805 95.0074 179.638 94.7733 179.638 94.5392C179.638 94.3386 179.705 94.071 180.24 92.5996L180.106 92.5327C179.504 93.4357 178.533 95.0408 177.093 95.0408C176.691 95.0408 176.055 94.4723 176.055 93.8704C176.055 91.9642 177.93 88.4529 180.073 88.4529C180.743 88.4529 181.044 88.7538 181.245 88.9879L181.479 88.5532C181.546 88.4194 181.647 88.386 181.747 88.386H182.852V88.3525ZM178.231 93.8035C178.633 93.8035 180.039 91.8305 180.341 91.2285C180.508 90.8272 180.676 90.3256 180.676 89.7905C180.676 89.4561 180.307 89.1217 180.006 89.1217C179.638 89.1217 179.269 89.4227 178.868 90.1584C178.131 91.496 177.863 92.6665 177.863 93.4022C177.863 93.6697 177.997 93.8035 178.231 93.8035Z" fill="white"/>
<path d="M183.522 94.8737C183.421 94.8737 183.354 94.8068 183.388 94.7065L184.426 91.8305C184.761 90.8941 185.095 89.8909 185.095 89.7237C185.095 89.5565 185.029 89.4896 184.895 89.4896C184.66 89.4896 184.091 90.0915 183.89 90.2922C183.857 90.3256 183.79 90.3591 183.756 90.2922L183.589 90.125C183.522 90.0915 183.522 90.0246 183.589 89.9912C183.823 89.6902 184.761 88.4863 186.334 88.4863C186.803 88.4863 186.937 88.8207 186.937 89.0883C186.937 89.2889 186.636 90.125 186.2 91.0279L186.334 91.1282C186.803 90.4594 188.042 88.4863 189.515 88.4863C190.151 88.4863 190.486 89.0883 190.486 89.4896C190.486 89.824 190.285 90.4594 189.616 92.2987C189.247 93.3354 189.147 93.6698 189.147 93.837C189.147 94.0042 189.214 94.1045 189.348 94.1045C189.515 94.1045 190.018 93.6363 190.185 93.4691C190.218 93.4022 190.285 93.4357 190.352 93.4691L190.486 93.6029C190.553 93.6363 190.553 93.7366 190.486 93.7701C190.319 94.0042 189.381 95.0743 187.942 95.0743C187.473 95.0743 187.339 94.8068 187.339 94.5058C187.339 94.2383 187.64 93.3354 188.109 91.9977C188.343 91.2954 188.712 90.2922 188.712 90.0246C188.712 89.7906 188.578 89.6902 188.41 89.6902C188.076 89.6902 186.937 90.8941 186.334 91.8639C186 92.399 185.698 92.8672 185.598 93.1347L184.995 94.8068C184.962 94.8737 184.928 94.9071 184.761 94.9071H183.522V94.8737Z" fill="white"/>
<path d="M199.125 84.6738C199.326 84.6738 199.393 84.841 199.326 84.9747C199.125 85.5098 196.915 92.4991 196.714 93.4355C196.614 93.8702 196.614 94.0708 196.815 94.0708C197.016 94.0708 197.585 93.4355 197.685 93.3351C197.752 93.2683 197.786 93.2683 197.819 93.3351L197.987 93.5023C198.02 93.5358 198.02 93.6027 197.987 93.6696C197.886 93.8033 196.949 95.0072 195.442 95.0072C195.074 95.0072 194.873 94.84 194.873 94.539C194.873 94.1377 195.14 93.3351 195.408 92.5325L195.241 92.4322C194.504 93.6027 193.567 95.0072 192.395 95.0072C191.658 95.0072 191.189 94.2046 191.189 93.6027C191.189 92.6663 191.725 91.0277 192.931 89.6566C193.366 89.1884 194.169 88.4527 195.207 88.4527C195.643 88.4527 196.078 88.6199 196.346 88.9208L197.183 85.8108C197.283 85.5098 197.149 85.2088 196.748 85.2088H196.312C196.178 85.2088 196.178 85.142 196.178 85.1085L196.245 84.7741C196.245 84.7072 196.279 84.6738 196.513 84.6738H199.125ZM195.174 88.9877C194.37 88.9877 193.098 92.2984 193.098 93.4355C193.098 93.8033 193.265 93.9705 193.466 93.9705C193.768 93.9705 194.404 93.0342 194.973 92.2316C195.408 91.6296 195.911 90.5929 195.911 89.991C195.911 89.4225 195.676 88.9877 195.174 88.9877Z" fill="white"/>
</svg>
