<svg width="201" height="103" viewBox="0 0 201 103" fill="none" xmlns="http://www.w3.org/2000/svg">
<path d="M184.526 52.4364C183.153 52.0017 182.952 53.8744 182.35 54.677C181.412 55.9478 178.734 57.5864 176.323 56.4494C174.95 55.814 175.05 53.9413 175.05 51.8679C175.05 50.4299 174.883 48.925 175.285 47.9218C177.796 47.4202 179.169 47.7546 179.872 49.527C180.173 50.2961 180.307 51.1991 181.312 50.965C182.316 50.7309 181.747 48.3565 181.781 46.952C181.814 45.7146 182.316 43.0728 181.211 42.939C180.475 42.8387 180.307 43.4406 180.006 44.2098C179.202 46.2497 177.83 46.1828 175.184 45.815C174.749 43.9422 174.582 40.5647 175.352 38.926C177.093 38.7922 178.332 38.2906 179.839 38.926C180.542 39.227 181.111 39.9293 181.513 40.5312C181.981 41.2 182.417 42.2702 183.287 42.0695C184.426 41.7685 183.723 38.09 183.689 36.9195C182.618 36.4513 181.345 36.6854 180.073 36.7523C176.055 36.9195 172.037 36.7858 168.354 36.6854C166.177 36.6185 164.202 36.8861 161.758 36.7523C160.452 36.6854 158.811 36.6185 159.28 37.8893C159.514 38.5247 161.322 38.3241 161.858 38.8591C162.494 39.4945 162.494 41.1666 162.595 42.3036C162.762 44.678 162.461 47.2195 162.595 49.6942C160.251 46.7848 157.673 43.1062 155.195 39.8958C154.693 39.227 153.253 37.0198 152.55 36.7523C151.545 36.3845 150.005 36.6854 148.699 36.6854C147.36 36.6854 146.02 36.5851 144.915 36.8526C142.94 36.4848 141.031 36.9864 138.319 36.8526C136.98 36.7858 133.732 36.1504 133.833 37.5884C133.9 38.625 135.942 38.4244 136.411 39.0263C136.946 39.7286 136.746 41.7685 136.746 43.0393C136.746 46.5172 136.746 48.2896 136.746 51.801C136.746 53.0383 136.946 55.2789 136.511 55.9812C136.143 56.5497 134.368 56.951 133.531 56.5497C132.393 56.0146 131.69 52.9046 131.187 51.6672C130.35 49.6273 129.714 48.089 129.111 46.5172C127.638 42.7384 126.466 39.6617 124.859 36.3176C122.582 35.6822 122.448 37.2205 122.046 38.5582C121.678 39.8289 120.975 41.3004 120.372 42.8052C119.133 45.9153 117.727 49.0254 116.689 51.8679C116.086 53.54 115.785 55.4461 114.546 56.3825C114.546 56.4159 114.379 56.4828 114.412 56.5163C114.546 57.0848 114.68 57.787 114.981 58.4559C114.981 58.4893 115.283 58.389 115.35 58.4224C117.057 58.0546 121.209 59.3254 121.142 57.553C121.109 56.1819 118.899 56.9845 118.162 55.9478C117.191 54.5432 118.765 52.2358 119.033 51.1991C121.008 51.1991 122.984 51.1991 124.993 51.1991C125.562 52.938 126.466 54.3426 126.667 56.4159C126.098 56.951 124.558 56.5163 124.424 57.4526C124.256 58.7903 126.198 58.4559 127.236 58.4224C131.221 58.2887 135.105 58.4559 138.654 58.3556C141.4 58.2887 143.643 58.4893 146.121 58.4224C147.226 58.389 148.465 58.3221 149.905 58.4224C151.076 58.4893 152.851 58.69 152.717 57.4526C152.583 56.4494 150.608 56.9176 149.905 56.3156C149.335 55.8474 149.268 54.4095 149.268 53.1721C149.201 49.1591 149.302 45.4471 149.268 41.6013C153.32 46.9185 157.572 52.4364 161.557 57.8205C162.159 58.6231 162.829 59.6932 164.135 59.1916C164.838 57.8539 164.537 55.9812 164.537 54.2088C164.537 50.4299 164.537 47.1861 164.537 43.3737C164.537 41.7685 164.202 39.0932 165.173 38.5582C165.809 38.2237 166.947 38.2572 167.416 38.3241C169.894 38.5582 169.492 40.4978 169.492 43.1396C169.492 46.3835 169.492 48.6909 169.492 51.801C169.492 53.1387 169.727 55.3124 169.258 55.9812C168.756 56.6835 166.144 56.3825 166.512 57.9208C166.747 58.8237 169.291 58.4224 170.53 58.389C175.352 58.3221 179.939 58.389 184.258 58.3221C184.56 57.5195 184.66 56.5163 184.828 55.3458C184.861 54.677 185.363 52.6705 184.526 52.4364ZM119.669 49.1257C120.238 46.952 121.176 45.1127 121.846 43.0393C122.817 44.8452 123.319 47.1192 124.189 49.0588C123.017 49.3598 120.975 49.226 119.669 49.1257ZM147.326 43.1062C147.326 46.4504 147.326 49.226 147.326 52.5702C147.326 53.8744 147.326 56.0481 146.523 56.5163C145.552 57.0848 143.04 56.65 142.572 55.9478C142.371 55.6468 142.237 53.9078 142.17 53.2056C142.036 51.6004 142.17 49.527 142.17 47.5874C142.17 45.514 142.036 43.5744 142.17 41.9692C142.237 41.3004 142.27 39.3608 142.639 38.926C142.973 38.5247 144.279 38.3241 144.715 38.2906C145.183 38.2572 146.489 38.3575 146.891 38.7588C147.494 39.4276 147.326 41.8689 147.326 43.1062Z" fill="#00447C"/>
<path fill-rule="evenodd" clip-rule="evenodd" d="M98.876 4.18018C98.943 4.18018 98.9765 4.18018 99.0434 4.18018C101.32 5.28375 103.497 6.72173 103.229 9.96557C103.028 12.4737 101.019 14.1123 100.416 16.4532C100.048 17.8578 100.517 19.2958 100.885 20.1318C101.153 20.7337 101.488 21.2019 101.454 21.5698C100.918 21.737 100.316 21.1685 99.847 20.8341C98.4407 19.8308 96.8335 18.1253 97.0344 15.8513C97.2688 13.176 100.148 11.3032 100.249 8.29349C100.316 6.72173 99.5457 5.45096 98.8091 4.34738C98.7756 4.31394 98.809 4.24706 98.876 4.18018Z" fill="#FDB924"/>
<path fill-rule="evenodd" clip-rule="evenodd" d="M112.537 5.15002C114.111 6.45425 115.517 8.15976 115.283 10.5341C114.747 15.3497 108.519 15.5169 108.452 20.901C108.452 21.5698 108.586 22.0046 108.519 22.5731C107.883 22.5396 107.414 21.737 107.079 21.202C106.644 20.4997 106.209 19.5633 106.108 18.7273C105.405 13.0088 112.939 13.1426 113.006 7.72502C113.006 6.78866 112.772 6.08639 112.537 5.15002Z" fill="#FDB924"/>
<path fill-rule="evenodd" clip-rule="evenodd" d="M94.5232 21.7704C94.1549 22.2051 93.4852 21.8373 93.0834 21.7704C90.5052 21.3356 87.927 20.1317 87.6256 17.423C87.3578 15.149 88.0609 13.1425 87.6256 11.2363C87.1569 9.2298 85.7506 8.25999 84.0764 7.29019C84.0764 7.18986 84.1099 7.15642 84.1434 7.12298C84.1434 7.02265 84.1769 6.98921 84.2103 6.95577C88.4292 6.88889 90.84 8.9957 91.1079 12.4067C91.2418 13.9451 90.8735 15.2827 91.0409 16.821C91.2083 18.56 92.3468 19.9645 93.5187 20.9009C93.887 21.2019 94.3893 21.3022 94.5232 21.7704Z" fill="#FDB924"/>
<path fill-rule="evenodd" clip-rule="evenodd" d="M125.529 11.3367C126.901 13.1425 126.332 16.6539 125.06 17.9915C124.022 19.0951 122.482 19.6971 120.875 20.0649C119.301 20.4662 117.66 20.7672 116.388 21.737C115.048 22.7737 114.814 23.8773 113.91 25.4156C113.475 25.2149 113.408 24.312 113.341 23.7435C113.173 21.5698 113.91 19.7305 114.948 18.7607C117.091 16.7876 120.941 17.4565 123.386 15.5503C124.591 14.6474 125.261 13.3766 125.529 11.3367Z" fill="#FDB924"/>
<path fill-rule="evenodd" clip-rule="evenodd" d="M87.7596 23.6766C87.6927 24.1448 87.0565 24.0779 86.7217 24.1448C83.8756 24.7133 80.9625 24.0779 79.7237 22.2052C78.6522 20.5665 78.4848 18.2591 77.3798 16.5201C76.2414 14.6808 74.7012 14.2461 72.3239 13.6441C73.9645 12.2396 77.6477 12.6743 79.1544 13.8782C80.025 14.5471 80.6947 15.5503 81.1634 16.5201C81.6657 17.5568 81.8331 18.7607 82.3688 19.8977C83.4738 22.2052 85.2819 22.7737 87.7596 23.6766Z" fill="#FDB924"/>
<path fill-rule="evenodd" clip-rule="evenodd" d="M81.9 26.3519C81.7661 27.0542 80.8955 27.3217 80.2928 27.6227C79.6231 27.9571 78.92 28.325 78.1164 28.4253C72.826 29.0272 72.5582 22.4727 67.1004 22.874C66.5982 22.9074 66.1629 23.175 65.5602 23.0412C65.6941 22.3724 66.4977 22.0045 67.1004 21.6701C67.904 21.2353 68.7746 20.7672 70.0804 20.8675C74.4332 21.1685 75.2368 26.3853 80.1254 26.4188C80.7951 26.4188 81.2973 26.2181 81.9 26.3519Z" fill="#FDB924"/>
<path fill-rule="evenodd" clip-rule="evenodd" d="M133.665 21.0347C133.732 21.0347 133.732 21.0681 133.732 21.1016C133.531 24.2116 131.991 26.2516 129.145 26.6528C127.136 26.9204 125.194 25.9506 122.95 26.0843C121.845 26.1512 120.975 26.5525 120.305 26.9538C119.636 27.3886 119.167 28.0908 118.296 28.2246C118.932 25.5493 120.238 23.1749 123.285 23.0746C125.294 23.0077 127.571 24.011 129.647 23.8103C131.589 23.6431 132.627 22.4727 133.665 21.0347Z" fill="#FDB924"/>
<path fill-rule="evenodd" clip-rule="evenodd" d="M121.846 34.1103C121.008 33.9766 120.439 33.2074 119.77 32.7392C114.981 29.4285 107.95 27.4555 99.8471 27.4555C91.8111 27.4555 84.8131 29.4285 79.9245 32.7392C79.2883 33.174 78.7526 33.9431 77.9155 34.1103C79.6567 30.8665 82.871 28.6928 86.5207 27.0542C89.3333 25.7834 92.2798 24.9808 95.8291 24.5795C107.213 23.2753 117.56 27.2883 121.846 34.1103Z" fill="#FDB924"/>
<path fill-rule="evenodd" clip-rule="evenodd" d="M101.421 32.7727C101.488 31.8697 101.354 31.2009 101.019 30.6993C99.9475 31.736 101.32 33.2408 101.488 33.9766C99.0434 33.9097 98.5077 30.0305 100.852 28.9269C102.124 29.3951 102.994 31.9701 101.421 32.7727Z" fill="#FDB924"/>
<path fill-rule="evenodd" clip-rule="evenodd" d="M94.925 32.3713C94.1214 32.4048 92.6482 32.2376 92.3468 33.0067C92.2464 33.8093 92.6147 34.4113 92.983 34.846C93.5187 35.448 94.3893 35.5817 94.6572 36.1168C93.05 36.3509 91.1079 35.2139 90.8736 33.709C90.8066 33.1405 90.9405 32.5051 91.2754 32.1707C92.079 31.435 94.1549 31.3347 94.925 32.3713Z" fill="#FDB924"/>
<path fill-rule="evenodd" clip-rule="evenodd" d="M15.3688 33.3078C15.3688 33.1406 15.3688 32.9734 15.3688 32.8396C16.1054 31.9367 17.4782 32.2711 18.5832 32.2711C37.6017 32.2711 56.9885 32.2711 75.806 32.2711C75.806 32.7059 75.3038 33.3078 75.0694 33.8094C57.1894 33.8094 37.3673 33.8094 19.0519 33.8094C17.5787 33.8094 15.4692 34.0101 15.3688 33.3078Z" fill="#00447C"/>
<path fill-rule="evenodd" clip-rule="evenodd" d="M123.854 32.2711C142.906 32.2711 162.226 32.2711 181.546 32.2711C182.182 32.2711 184.627 31.9701 184.694 32.9064C184.761 34.01 182.45 33.709 181.647 33.709C163.9 33.709 146.556 33.709 128.676 33.709C127.437 33.709 125.629 33.9431 124.892 33.709C124.357 33.5418 124.022 32.572 123.854 32.2711Z" fill="#00447C"/>
<path fill-rule="evenodd" clip-rule="evenodd" d="M111.801 34.2776C111.6 34.6454 111.432 35.0133 111.231 35.4146C106.611 34.1438 105.137 38.0231 101.521 38.0565C99.4117 38.0899 97.7041 36.9529 96.3647 35.9831C95.4607 35.3143 94.6236 34.7792 93.0834 34.612C93.0834 34.5451 93.0834 34.5117 93.0834 34.4448C93.0834 34.3445 93.1169 34.311 93.1503 34.2776C99.3782 34.2776 105.573 34.2776 111.801 34.2776Z" fill="#FDB924"/>
<path fill-rule="evenodd" clip-rule="evenodd" d="M29.3648 36.2841C31.0055 36.1503 36.5972 36.2172 37.5682 37.3208C38.0035 37.8224 38.6732 41.4341 37.97 41.8019C36.5637 42.5376 35.4253 39.7954 34.5882 39.0597C31.5412 36.3844 26.5857 38.4578 24.8781 40.8321C20.994 46.1493 23.2709 56.349 29.8671 57.0513C33.3493 57.4191 35.057 55.6802 36.2959 53.6068C36.6307 53.0717 37.1664 51.8344 38.0705 52.0016C39.3428 52.2357 38.5727 53.3393 38.5392 54.2422C38.5057 54.9444 38.7736 55.5798 38.5392 56.1818C38.0705 57.3857 35.8271 58.0211 34.3538 58.3555C28.4608 59.6597 22.4003 58.0211 19.4203 55.1451C17.4448 53.2724 15.8711 50.5302 16.1389 46.7847C16.5407 40.4308 22.8021 36.7857 29.3648 36.2841Z" fill="#00447C"/>
<path fill-rule="evenodd" clip-rule="evenodd" d="M71.4533 36.284C77.8151 35.7155 82.5027 38.3574 84.7796 41.5009C87.09 44.7113 86.956 48.5905 85.8176 51.4665C84.6122 54.5097 82.1679 56.4827 79.4558 57.6532C72.96 60.4289 64.3883 57.8873 61.5422 52.7707C60.8056 51.4331 60.069 49.2259 60.2699 46.6844C60.5043 43.7081 62.1784 41.2334 63.8861 39.6282C65.6272 37.9561 68.038 36.6185 71.4533 36.284ZM66.9665 45.447C66.6317 50.4967 68.8081 55.4795 72.1229 56.8506C74.065 57.6532 76.3083 57.0513 77.4133 56.048C81.5652 52.3026 80.2929 42.2032 76.6097 39.1266C75.6052 38.2905 73.931 37.5883 72.1229 37.8558C68.8081 38.2571 67.2009 41.8353 66.9665 45.447Z" fill="#00447C"/>
<path d="M20.0229 61.9672C18.9515 61.9672 15.6366 61.5993 15.6031 62.7029C15.5697 63.9737 19.1189 63.5055 20.0229 63.5055C21.9984 63.5055 24.1749 63.5055 25.3133 63.5055C48.3163 63.5055 98.943 63.5055 98.943 63.5055L97.5702 61.9672C97.5702 61.9672 45.5372 61.9672 20.0229 61.9672Z" fill="#00447C"/>
<path d="M184.459 62.6026C184.392 61.9672 183.421 61.9672 182.618 61.9672C156.501 61.9672 103.262 61.9672 103.262 61.9672L101.923 63.5055C101.923 63.5055 155.731 63.5055 180.106 63.5055C181.01 63.5055 184.593 63.9737 184.459 62.6026Z" fill="#00447C"/>
<path fill-rule="evenodd" clip-rule="evenodd" d="M54.5777 47.1191C55.5821 47.6208 56.6201 48.3899 57.1559 49.5269C57.2563 49.761 57.2228 50.062 57.3233 50.3295C57.5242 50.8312 57.9929 51.5334 58.3613 52.2691C58.9305 53.3393 59.5332 54.1084 60.1359 55.0782C60.4707 55.6467 60.6046 56.0146 61.0064 56.2821C61.8435 56.8172 63.0824 56.5162 63.0154 57.5529C62.9485 58.924 58.5956 58.2217 57.1559 58.2886C56.5197 58.3221 55.6826 58.5227 55.1469 58.2886C54.4772 57.9877 53.9415 56.3156 53.5397 55.5464C52.4682 53.5065 51.5976 51.9013 50.4927 49.9951C49.9904 49.1591 49.5552 47.9886 48.0819 48.1558C47.7806 49.3263 47.9145 50.6305 47.9145 51.9347C47.9145 53.0717 47.6801 54.6769 48.0819 55.6133C48.3498 56.2487 48.9859 56.4159 49.7561 56.5831C50.4592 56.7503 51.3967 56.7503 51.1958 57.787C50.9615 58.924 46.2738 58.2552 44.7001 58.2552C43.3608 58.2552 42.5906 58.2886 41.1509 58.3221C39.979 58.3555 38.4387 58.623 38.3383 57.6867C38.1709 56.2821 41.0169 56.7169 41.4857 55.6802C41.8875 54.7104 41.6531 53.0383 41.6531 51.6003C41.6531 48.8581 41.6531 46.0825 41.6531 43.1062C41.6531 41.9691 41.8875 39.9961 41.4187 39.1601C40.816 38.1234 38.9075 38.8256 38.5392 37.789C38.3718 37.3208 38.6731 36.8191 39.3428 36.6519C40.4812 36.4178 42.3563 36.7857 43.8295 36.8191C45.3028 36.8526 46.8765 36.7857 48.3163 36.7523C51.2628 36.6519 54.812 36.3844 56.821 37.3208C59.9685 38.7588 60.8055 43.5409 58.0264 45.748C57.1224 46.4838 56.2183 46.7178 54.5777 47.1191ZM51.0619 38.6919C50.1579 38.2571 48.5842 38.2571 47.9145 38.8591C47.9815 41.3338 47.814 44.0091 47.9815 46.3165C53.2718 47.6877 54.8455 40.4643 51.0619 38.6919Z" fill="#00447C"/>
<path fill-rule="evenodd" clip-rule="evenodd" d="M72.4912 71.5315C73.8305 71.8659 75.1364 72.9361 74.5672 74.5078C73.797 76.715 68.7745 76.113 65.5602 76.113C64.924 76.113 64.1873 76.3137 63.886 75.7786C63.9195 75.1432 64.7231 75.277 65.2588 75.1432C65.761 73.6718 65.6941 70.7289 65.3258 69.1237C65.0914 68.9231 64.0199 69.2241 63.953 68.6556C63.886 67.9867 65.6941 67.9867 66.5312 67.9198C69.0089 67.7192 74.2323 67.3848 74.2323 69.9263C74.2658 70.8961 73.5627 71.2974 72.4912 71.5315ZM68.6406 68.7224C68.5067 69.3913 68.5067 70.5617 68.6406 71.1971C71.788 71.8325 71.7211 67.9198 68.6406 68.7224ZM68.7411 72.1C68.6406 72.1335 68.5736 72.2004 68.5736 72.3341C68.6071 73.3708 68.3727 74.7085 68.9754 75.2101C72.4577 76.2468 72.0559 71.2974 68.7411 72.1Z" fill="#FDB924"/>
<path fill-rule="evenodd" clip-rule="evenodd" d="M128.274 75.1432C128.743 75.4107 129.714 75.0763 129.547 75.7786C129.446 76.3137 127.638 76.113 126.5 76.113C125.16 76.113 123.687 76.3471 123.52 75.7117C123.587 75.2101 124.256 75.3438 124.725 75.2435C124.524 74.5747 124.122 74.0731 123.855 73.4711C122.85 73.4711 121.812 73.4711 120.808 73.4711C120.473 73.8055 120.272 74.2737 120.238 74.9091C120.54 75.4442 121.846 74.976 121.913 75.7117C121.678 76.3471 120.506 76.113 119.669 76.113C118.765 76.113 117.694 76.2802 117.258 75.8789C117.158 75.1432 118.028 75.3773 118.464 75.1432C119.904 72.6351 121.544 70.4948 122.716 67.9198C123.017 67.8864 123.587 67.7192 123.855 67.9198C125.562 70.0935 126.734 72.8023 128.274 75.1432ZM121.276 72.5682C121.946 72.5013 122.817 72.6685 123.352 72.5013C122.917 71.9663 122.75 71.1302 122.214 70.662C121.98 71.3309 121.544 71.8659 121.276 72.5682Z" fill="#FDB924"/>
<path fill-rule="evenodd" clip-rule="evenodd" d="M23.1703 68.321C23.1703 69.0568 22.1324 68.7558 21.7306 69.0568C21.5966 70.8292 21.5966 73.1366 21.7306 74.909C22.4672 75.511 23.8065 75.2769 24.4762 74.909C25.1793 74.5412 25.4137 73.6717 26.3178 73.772C26.7196 74.4409 26.2508 75.4775 26.0834 76.1129C24.0744 76.1129 21.3957 76.1129 19.0184 76.1129C18.2818 76.1129 17.4447 76.3136 16.9425 75.8788C16.8755 75.0762 17.947 75.3772 18.3822 75.0762C18.7506 73.4711 18.7506 70.7288 18.3822 69.1236C18.1144 68.7223 17.1434 69.0233 16.9425 68.5551C17.1434 67.5184 19.4537 68.1538 21.1279 68.087C21.9984 68.0201 22.802 67.786 23.1703 68.321Z" fill="#FDB924"/>
<path fill-rule="evenodd" clip-rule="evenodd" d="M48.2493 68.3879C48.2158 69.0568 47.2113 68.7223 46.8095 69.0233C46.4412 70.662 46.4412 73.4042 46.8095 75.0428C47.1779 75.3772 48.1824 75.0762 48.2493 75.6782C47.8475 76.3805 46.2068 76.0795 45.1019 76.0795C44.5327 76.0795 43.8965 76.0795 43.3273 76.0795C42.825 76.0795 42.0884 76.2467 41.9545 75.7451C41.9545 75.0428 42.9924 75.3103 43.3942 75.0094C43.5282 73.2035 43.5282 70.8626 43.3942 69.0568C43.0929 68.6555 42.1219 68.9564 41.9545 68.4214C42.2558 67.5185 44.4657 68.087 46.1399 68.0201C47.0439 68.0201 47.9815 67.7191 48.2493 68.3879Z" fill="#FDB924"/>
<path fill-rule="evenodd" clip-rule="evenodd" d="M98.943 71.9328C98.943 72.1 99.4453 72.4344 99.6797 72.6685C99.8471 73.7721 100.785 74.4075 101.354 75.1432C101.823 75.2435 102.459 75.2101 102.492 75.7786C101.756 76.4474 99.8806 75.9458 98.6417 76.113C98.039 75.5779 97.6707 74.8088 97.2019 74.1065C96.7666 73.4711 96.3313 72.5348 95.4273 72.4344C95.2934 73.1033 95.2934 74.3072 95.4273 75.0094C95.7621 75.4776 97.001 75.0429 96.9675 75.8789C96.2644 76.3137 94.992 76.113 93.8201 76.113C92.6817 76.113 91.4093 76.3137 90.6727 75.8789C90.6057 75.0763 91.6772 75.3773 92.1125 75.0763C92.2464 73.2705 92.2464 70.9296 92.1125 69.1237C91.8446 68.7559 91.041 68.9565 90.7396 68.6555C90.7062 67.6523 91.6437 68.0536 92.6817 68.087C95.3938 68.2208 100.952 67.1172 100.952 70.0935C100.952 71.2305 100.048 71.5649 98.943 71.9328ZM95.3269 69.0234C95.3269 69.8594 95.3269 70.6955 95.3269 71.4981C98.4743 72.2672 98.039 67.8864 95.3269 69.0234Z" fill="#FDB924"/>
<path fill-rule="evenodd" clip-rule="evenodd" d="M153.119 71.9328C153.956 72.7689 154.559 74.3406 155.597 75.1432C156.065 75.3104 156.668 75.1767 156.635 75.7117C156.601 76.5478 153.789 75.9124 152.851 76.113C151.545 75.1098 151.277 73.0698 149.637 72.4345C149.503 73.1033 149.503 74.3406 149.637 75.0095C149.938 75.4776 151.21 75.0763 151.076 75.812C150.976 76.3806 149.034 76.1465 147.929 76.1465C146.523 76.1465 145.116 76.3471 144.782 75.812C144.815 75.1432 145.786 75.3773 146.221 75.0763C146.422 73.2705 146.255 71.0968 146.288 69.1237C146.02 68.7224 145.083 68.99 144.849 68.5552C144.949 67.6858 145.82 68.0202 146.858 68.0871C149.57 68.2208 154.559 67.2845 155.061 69.6254C155.396 70.9965 154.291 71.7322 153.119 71.9328ZM149.637 68.8896C149.469 69.6254 149.603 70.662 149.57 71.5315C152.382 72.2004 152.483 68.2543 149.637 68.8896Z" fill="#FDB924"/>
<path fill-rule="evenodd" clip-rule="evenodd" d="M177.629 68.5552C177.528 68.9231 176.992 68.8562 176.49 68.8896C176.557 69.3578 177.059 69.8595 177.461 70.2608C177.863 70.6955 178.365 71.0968 178.734 71.4646C179.437 70.7624 180.24 70.0601 180.508 69.1237C180.274 68.6556 179.236 69.0234 178.968 68.5552C179.269 67.5854 180.776 68.1205 182.015 68.0871C182.685 68.0536 184.024 67.8195 183.857 68.5552C183.79 68.8896 182.551 69.0569 182.417 69.1237C181.245 69.7257 180.24 71.4981 179.202 72.3341C179.437 73.3708 178.901 74.3072 179.202 74.9091C179.537 75.5111 180.441 74.976 180.743 75.7117C180.274 76.414 178.801 76.113 177.595 76.113C177.026 76.113 176.39 76.113 175.821 76.113C175.318 76.113 174.615 76.3137 174.448 75.7786C174.481 75.0095 175.62 75.4108 175.988 74.976C175.854 74.14 176.189 73.4711 175.988 72.8023C175.787 72.1 174.615 71.2974 174.146 70.7958C173.443 70.0601 172.841 69.3913 172.204 68.8562C171.702 68.8896 171.267 68.8228 171.066 68.5218C171.099 67.6857 172.137 67.9867 173.075 68.0536C174.716 68.1539 177.495 67.552 177.629 68.5552Z" fill="#FDB924"/>
<path d="M114.981 58.389C114.981 58.3555 114.412 56.6834 114.379 56.4159C113.14 50.664 112.236 42.5711 113.81 36.5182C106.711 36.6854 102.727 39.9292 100.55 45.0123C98.4407 39.8623 94.3557 36.6854 87.2908 36.5182C89.0654 43.3737 87.8265 52.5033 86.1523 58.5896C90.9739 58.5227 94.5232 60.1279 97.1683 61.9672C97.8715 62.6026 100.115 64.6425 100.617 65.1107C101.052 64.5757 103.162 62.3016 103.832 61.9672C106.745 60.0945 109.992 58.5896 114.747 58.5896C115.048 58.6565 114.981 58.4893 114.981 58.389Z" fill="#FDB924"/>
<path d="M4.28591 94.439C4.28591 94.3721 4.31939 94.3052 4.45332 94.3052H4.85512C5.65872 94.3052 5.92659 93.9039 6.2949 92.8003L8.57176 85.3429C6.96457 85.3429 6.36187 85.3763 5.96007 85.7107C5.55827 86.0451 4.65422 86.9146 4.21894 87.3828C4.18546 87.4162 4.11849 87.4162 4.08501 87.4162L3.78366 87.249C3.75017 87.249 3.75017 87.1821 3.78366 87.1153C3.95107 86.7808 4.8886 84.6406 4.92209 84.5403C4.95557 84.4399 4.98905 84.373 5.05602 84.373C5.15647 84.373 5.22344 84.4399 5.39085 84.5403C5.6922 84.674 6.59625 84.7409 8.20345 84.7409H11.3844C12.8911 84.7409 13.5273 84.674 13.8621 84.4734C13.9626 84.4065 13.9961 84.373 14.063 84.373C14.1635 84.373 14.2304 84.4065 14.197 84.4734C14.1635 84.7409 14.0295 86.9815 14.063 87.5834C14.063 87.6838 14.0295 87.6838 13.9291 87.7172L13.6612 87.7506C13.5608 87.7506 13.5273 87.7172 13.4603 87.5166C13.2929 87.0149 12.9916 86.1789 12.7907 85.8445C12.4893 85.4097 11.4848 85.3094 10.5808 85.3094L8.27041 92.9675C7.96906 93.9373 8.16996 94.2717 8.9066 94.2717H9.50929C9.60974 94.2717 9.64323 94.3386 9.60974 94.439L9.54278 94.7399C9.54278 94.8068 9.50929 94.8737 9.34188 94.8737C9.14098 94.8737 8.53828 94.8403 6.39535 94.8403C5.32389 94.8403 4.52029 94.8737 4.35287 94.8737C4.21894 94.8737 4.21894 94.8403 4.21894 94.7065L4.28591 94.439Z" fill="#00447C"/>
<path d="M15.8376 90.5932L15.9715 90.6936C16.6412 89.6234 17.6457 88.453 18.7172 88.453C19.8221 88.453 20.0565 89.3224 20.0565 90.0582C20.0565 91.1283 19.6212 92.3991 19.0855 93.3689C18.3488 94.6062 17.4783 95.3754 16.4068 95.3754C15.9046 95.3754 15.4358 95.0744 15.4693 94.4056C15.4693 94.0377 15.7037 93.6364 16.139 93.6364C16.5408 93.6364 16.7082 93.9374 16.7417 94.2049C16.7417 94.5059 16.8086 94.74 17.043 94.74C17.3778 94.74 17.6122 93.8371 17.8466 92.9676C18.081 92.1315 18.3488 91.028 18.3488 90.2254C18.3488 89.7906 18.2149 89.59 17.8801 89.59C17.3444 89.59 16.3733 90.7604 15.9715 91.3289C15.6032 91.8306 15.3354 92.3322 15.2014 92.7001L14.3309 94.8069C14.2974 94.8737 14.1969 94.9072 14.063 94.9072H12.8576C12.7237 94.9072 12.6567 94.8403 12.7237 94.74L15.8711 86.3127C15.9715 86.0786 16.072 85.7108 16.072 85.5436C16.072 85.3763 15.9046 85.2426 15.6032 85.2426H15.1679C15.101 85.2426 15.0675 85.2091 15.0675 85.1088L15.1345 84.8078C15.1679 84.741 15.1679 84.6741 15.3019 84.6741H18.014C18.1479 84.6741 18.1814 84.741 18.1814 84.8413C18.1814 84.9416 18.1479 85.1088 18.014 85.3763L15.8376 90.5932Z" fill="#00447C"/>
<path d="M25.2799 93.3688C25.3468 93.4022 25.3468 93.4691 25.3134 93.536C25.0455 94.0711 23.9071 95.0409 22.4338 95.0409C21.3958 95.0409 20.6592 94.4389 20.6592 93.3688C20.6592 92.2652 21.1279 90.66 22.4673 89.523C23.2039 88.8876 24.108 88.4863 24.9785 88.4863C25.8156 88.4863 26.1504 88.9545 26.1504 89.523C26.1504 90.3591 25.6482 90.9944 24.7776 91.4626C23.9405 91.9308 23.1369 92.0646 22.5677 92.1315C22.5008 92.2652 22.4338 92.6665 22.4338 93.0678C22.4338 93.6029 22.7351 94.0376 23.2374 94.0376C23.974 94.0376 24.5098 93.6363 24.8781 93.2685C24.9116 93.235 24.945 93.2016 25.012 93.235L25.2799 93.3688ZM24.108 90.9276C24.3423 90.6935 24.5767 90.1918 24.5767 89.6902C24.5767 89.4561 24.5098 89.1886 24.1749 89.1886C23.6057 89.1886 22.9695 90.5597 22.7351 91.5295C22.9695 91.563 23.6727 91.3623 24.108 90.9276Z" fill="#00447C"/>
<path d="M37.7692 95.1078C37.7357 95.1747 37.7022 95.2081 37.6018 95.1747L37.3004 95.1078C37.2669 95.1078 37.2335 95.0743 37.2669 94.974C37.2669 94.9071 37.3004 94.8068 37.3004 94.7065C37.3004 94.6062 37.2335 94.5058 37.066 94.5058C36.9321 94.5058 36.7312 94.5393 36.4633 94.673C36.1955 94.8068 35.191 95.0743 34.3539 95.0743C31.9096 95.0743 30.3694 93.7032 30.3694 91.5964C30.3694 89.1552 31.106 87.7841 32.4788 86.2792C33.4498 85.2091 34.8227 84.5403 36.5303 84.5403C37.2669 84.5403 37.9701 84.674 38.5058 85.0419C38.7067 85.1757 39.0081 85.3763 39.1755 85.3763C39.3764 85.3763 39.5103 85.2426 39.5773 85.0753C39.6108 84.975 39.6443 84.9416 39.7112 84.975L40.0126 85.0419C40.0461 85.0419 40.0795 85.1088 40.0461 85.2091L39.2425 88.386C39.209 88.4864 39.1755 88.5198 39.075 88.4864L38.7402 88.4529C38.6732 88.4529 38.6398 88.3861 38.6398 88.2857C38.7737 86.8143 38.238 85.2091 36.5973 85.2091C35.6263 85.2091 34.8561 85.6773 34.0191 86.9146C32.8806 88.5533 32.5793 90.426 32.5793 91.6299C32.5793 93.6698 33.8516 94.3386 34.5548 94.3386C35.5928 94.3386 37.066 94.0377 38.171 91.7302C38.2045 91.6633 38.2714 91.6633 38.3384 91.6633L38.6732 91.7636C38.7737 91.7971 38.7737 91.8305 38.7402 91.8974L37.7692 95.1078Z" fill="#00447C"/>
<path d="M46.9101 88.5866C47.044 88.5866 47.111 88.6535 47.0775 88.7873L46.0395 91.9977C45.6377 93.2016 45.5038 93.7366 45.5038 93.837C45.5038 93.9707 45.6042 94.0042 45.7047 94.0042C45.9056 94.0042 46.2404 93.536 46.5083 93.2016C46.5418 93.1347 46.6087 93.1347 46.6422 93.2016L46.8096 93.3353C46.8431 93.3688 46.8431 93.4357 46.8096 93.5025C46.6087 93.9038 45.7716 95.0074 44.3653 95.0074C43.9635 95.0074 43.7292 94.8068 43.7292 94.5058C43.7292 94.2383 44.2984 92.6665 44.4658 92.2318L44.2984 92.1314C43.7626 92.9675 42.4568 95.0074 40.95 95.0074C40.5482 95.0074 40.1464 94.5392 40.1799 94.2717C40.1799 93.6363 40.4813 92.9675 41.084 91.4626C41.4858 90.4594 41.6867 89.824 41.6867 89.6233C41.6867 89.4561 41.5862 89.3558 41.4188 89.3558C41.2179 89.3558 40.7491 89.7237 40.3808 90.125C40.3473 90.1918 40.2469 90.1918 40.2134 90.125L40.046 89.9577C40.0125 89.9243 40.0125 89.8909 40.046 89.824C40.3473 89.4227 41.1509 88.386 42.6242 88.386C43.1265 88.386 43.3943 88.7204 43.3943 89.0883C43.3943 89.4227 43.1934 90.1918 42.5907 91.6633C42.2224 92.5662 41.9545 93.2685 41.9545 93.536C41.9545 93.7032 42.0885 93.8035 42.2224 93.8035C42.4903 93.8035 43.8631 92.1649 44.2314 91.5295C44.4993 91.0948 44.6667 90.6935 44.8676 90.0581L45.3364 88.6201C45.3698 88.5198 45.4368 88.5198 45.5707 88.5198H46.9101V88.5866Z" fill="#00447C"/>
<path d="M52.3344 84.6741C52.4684 84.6741 52.5019 84.7744 52.4349 84.9416L49.4214 93.3689C49.254 93.8036 49.2875 94.0043 49.5553 94.0043C49.9236 94.0043 50.4594 93.4692 50.6268 93.2685C50.6603 93.2351 50.7272 93.2351 50.7607 93.2685L50.9281 93.4357C50.9616 93.4692 50.9616 93.5361 50.9281 93.603C50.8612 93.7033 49.7227 94.9741 48.1155 94.9741C47.8142 94.9741 47.4794 94.6062 47.4794 94.3387C47.4794 94.0711 47.7472 93.3689 47.9147 92.9341L50.292 86.1121C50.4929 85.5435 50.4259 85.1757 49.9906 85.1757H49.5553C49.4549 85.1757 49.4214 85.1088 49.4214 85.0419L49.5218 84.7409C49.5553 84.6406 49.5888 84.6406 49.6893 84.6406H52.3344V84.6741Z" fill="#00447C"/>
<path d="M55.214 88.8876H56.7207C56.7877 88.8876 56.8212 88.9211 56.7877 89.0214L56.6872 89.4227C56.6538 89.523 56.5868 89.5565 56.4863 89.5565H54.9796L53.7407 92.8672C53.6738 93.1013 53.5398 93.4691 53.5398 93.6698C53.5398 93.837 53.6738 93.9708 53.8747 93.9708C54.176 93.9708 55.08 93.3354 55.147 93.235C55.1805 93.1682 55.2475 93.2016 55.281 93.235L55.4484 93.4022C55.4819 93.4357 55.5153 93.4691 55.4818 93.536C55.2809 93.8036 54.0086 95.0409 52.4684 95.0409C51.9326 95.0409 51.6982 94.7399 51.6982 94.5058C51.6982 94.2049 51.7317 93.8704 51.8657 93.5695L53.2385 89.5899H52.0666C51.9661 89.5899 51.9326 89.523 51.9661 89.4227L52.0666 89.0214C52.1 88.9545 52.1335 88.9211 52.234 88.9211H53.4729L53.9751 87.2825C54.0421 87.1152 54.109 87.0818 54.4774 87.0818C54.8791 87.0484 55.6827 86.6805 55.8167 86.5802C55.8836 86.5467 55.9841 86.4799 56.0511 86.4799C56.1515 86.4799 56.2185 86.6471 56.185 86.7474L55.214 88.8876Z" fill="#00447C"/>
<path d="M63.7522 88.5866C63.8861 88.5866 63.9531 88.6535 63.9196 88.7873L62.8816 91.9977C62.4798 93.2016 62.3459 93.7366 62.3459 93.837C62.3459 93.9707 62.4463 94.0042 62.5468 94.0042C62.7477 94.0042 63.0825 93.536 63.3504 93.2016C63.3839 93.1347 63.4508 93.1347 63.4843 93.2016L63.6517 93.3353C63.6852 93.3688 63.6852 93.4357 63.6517 93.5025C63.4508 93.9038 62.6138 95.0074 61.2075 95.0074C60.8057 95.0074 60.5713 94.8068 60.5713 94.5058C60.5713 94.2383 61.1405 92.6665 61.3079 92.2318L61.1405 92.1314C60.6048 92.9675 59.2989 95.0074 57.7922 95.0074C57.3904 95.0074 56.9886 94.5392 57.022 94.2717C57.022 93.6363 57.3234 92.9675 57.9261 91.4626C58.3279 90.4594 58.5288 89.824 58.5288 89.6233C58.5288 89.4561 58.4283 89.3558 58.2609 89.3558C58.06 89.3558 57.5913 89.7237 57.2229 90.125C57.1895 90.1918 57.089 90.1918 57.0555 90.125L56.9216 89.9577C56.8881 89.9243 56.8881 89.8909 56.9216 89.824C57.2229 89.4227 58.0265 88.386 59.4998 88.386C60.0021 88.386 60.2699 88.7204 60.2699 89.0883C60.2699 89.4227 60.069 90.1918 59.4663 91.6633C59.098 92.5662 58.8301 93.2685 58.8301 93.536C58.8301 93.7032 58.9641 93.8035 59.098 93.8035C59.3659 93.8035 60.7387 92.1649 61.107 91.5295C61.3749 91.0948 61.5423 90.6935 61.7432 90.0581L62.212 88.6201C62.2454 88.5198 62.3124 88.5198 62.4463 88.5198H63.7522V88.5866Z" fill="#00447C"/>
<path d="M64.9241 94.8737C64.8236 94.8737 64.7567 94.8068 64.7901 94.7399L65.5268 92.2987C65.7946 91.4626 66.2634 89.9578 66.2634 89.6902C66.2634 89.523 66.163 89.3892 65.9955 89.3892C65.7612 89.3892 65.2254 89.8909 64.991 90.2253C64.9241 90.3256 64.8571 90.3256 64.8236 90.2922L64.6562 90.1919C64.6227 90.1584 64.6227 90.125 64.6562 90.0246C64.8906 89.5899 65.7612 88.4863 67.067 88.4863C67.6697 88.4863 67.8371 88.7873 67.8371 89.0883C67.8371 89.3558 67.5358 90.0915 67.2009 91.0613L67.3684 91.1617C67.7367 90.3256 68.6407 88.4863 69.7457 88.4863C70.181 88.4863 70.6162 88.8207 70.6162 89.2889C70.6162 89.824 70.2144 90.2587 69.9466 90.2587C69.7457 90.2587 69.5783 90.2253 69.4443 90.125C69.3104 90.0581 69.2099 89.9578 69.009 89.9578C68.5403 89.9578 67.7367 91.1617 67.4018 91.9308C67.2344 92.2987 67.1005 92.7334 66.8996 93.2685L66.4308 94.7733C66.3973 94.8402 66.3304 94.8737 66.2299 94.8737H64.9241Z" fill="#00447C"/>
<path d="M76.7437 88.3525C76.8442 88.3525 76.8777 88.4194 76.8777 88.5197C76.6433 89.1551 75.9401 91.1616 75.8062 91.6632C75.7392 91.9308 75.2035 93.6029 75.2035 93.837C75.2035 93.9707 75.2705 94.0042 75.3709 94.0042C75.6053 94.0042 76.1075 93.3019 76.208 93.1681C76.275 93.0678 76.3084 93.0678 76.3754 93.1012L76.5428 93.235C76.5763 93.2684 76.5763 93.3353 76.5428 93.4356C76.3754 93.7366 75.5718 95.0074 74.1655 95.0074C73.6967 95.0074 73.5628 94.7733 73.5628 94.5392C73.5628 94.3386 73.6298 94.071 74.1655 92.5996L74.0316 92.5327C73.4289 93.4357 72.4579 95.0408 71.0181 95.0408C70.6163 95.0408 69.9801 94.4723 69.9801 93.8704C69.9801 91.9642 71.8552 88.4529 73.9981 88.4529C74.6678 88.4529 74.9691 88.7538 75.17 88.9879L75.4044 88.5532C75.4714 88.4194 75.5718 88.386 75.6723 88.386H76.7437V88.3525ZM72.0895 93.8035C72.4913 93.8035 73.8976 91.8305 74.199 91.2285C74.3664 90.8272 74.5338 90.3256 74.5338 89.7905C74.5338 89.4561 74.1655 89.1217 73.8642 89.1217C73.4958 89.1217 73.1275 89.4227 72.7257 90.1584C71.9891 91.496 71.7212 92.6665 71.7212 93.4022C71.7547 93.6697 71.8552 93.8035 72.0895 93.8035Z" fill="#00447C"/>
<path d="M81.9001 84.6741C82.034 84.6741 82.0675 84.7744 82.0006 84.9416L78.9871 93.3689C78.8196 93.8036 78.8531 94.0043 79.121 94.0043C79.4893 94.0043 80.025 93.4692 80.1925 93.2685C80.2259 93.2351 80.2929 93.2351 80.3264 93.2685L80.4938 93.4357C80.5273 93.4692 80.5273 93.5361 80.4938 93.603C80.4268 93.7033 79.2884 94.9741 77.6812 94.9741C77.3799 94.9741 77.045 94.6062 77.045 94.3387C77.045 94.0711 77.3129 93.3689 77.4803 92.9341L79.8576 86.1121C80.0585 85.5435 79.9916 85.1757 79.5563 85.1757H79.121C79.0206 85.1757 78.9871 85.1088 78.9871 85.0419L79.0875 84.7409C79.121 84.6406 79.1545 84.6406 79.2549 84.6406H81.9001V84.6741Z" fill="#00447C"/>
<path d="M92.4139 95.1078C92.3804 95.1747 92.3469 95.2081 92.2464 95.1747L91.9451 95.1078C91.9116 95.1078 91.8781 95.0743 91.9116 94.974C91.9116 94.9071 91.9451 94.8068 91.9451 94.7065C91.9451 94.6062 91.8781 94.5058 91.7107 94.5058C91.5768 94.5058 91.3759 94.5393 91.108 94.673C90.8401 94.8068 89.8356 95.0743 88.9985 95.0743C86.5543 95.0743 85.014 93.7032 85.014 91.5964C85.014 89.1552 85.7507 87.7841 87.1235 86.2792C88.0945 85.2091 89.4673 84.5403 91.175 84.5403C91.9116 84.5403 92.6148 84.674 93.1505 85.0419C93.3514 85.1757 93.6527 85.3763 93.8202 85.3763C94.0211 85.3763 94.155 85.2426 94.2219 85.0753C94.2554 84.975 94.2889 84.9416 94.3559 84.975L94.6572 85.0419C94.6907 85.0419 94.7242 85.1088 94.6907 85.2091L93.8871 88.386C93.8536 88.4864 93.8201 88.5198 93.7197 88.4864L93.3849 88.4529C93.3179 88.4529 93.2844 88.3861 93.2844 88.2857C93.4184 86.8143 92.8826 85.2091 91.2419 85.2091C90.2709 85.2091 89.5008 85.6773 88.6637 86.9146C87.5253 88.5533 87.2239 90.426 87.2239 91.6299C87.2239 93.6698 88.4963 94.3386 89.1995 94.3386C90.2374 94.3386 91.7107 94.0377 92.8157 91.7302C92.8491 91.6633 92.9161 91.6633 92.9831 91.6633L93.3179 91.7636C93.4184 91.7971 93.4183 91.8305 93.3849 91.8974L92.4139 95.1078Z" fill="#00447C"/>
<path d="M99.077 93.3688C99.1439 93.4022 99.144 93.4691 99.1105 93.536C98.8426 94.0711 97.7042 95.0409 96.2309 95.0409C95.1929 95.0409 94.4563 94.4389 94.4563 93.3688C94.4563 92.2652 94.9251 90.66 96.2644 89.523C97.001 88.8876 97.9051 88.4863 98.7756 88.4863C99.6127 88.4863 99.9475 88.9545 99.9475 89.523C99.9475 90.3591 99.4453 90.9944 98.5747 91.4626C97.7377 91.9308 96.9341 92.0646 96.3648 92.1315C96.2979 92.2652 96.2309 92.6665 96.2309 93.0678C96.2309 93.6029 96.5323 94.0376 97.0345 94.0376C97.7711 94.0376 98.3069 93.6363 98.6752 93.2685C98.7087 93.235 98.7422 93.2016 98.8091 93.235L99.077 93.3688ZM97.9051 90.9276C98.1395 90.6935 98.3738 90.1918 98.3738 89.6902C98.3738 89.4561 98.3069 89.1886 97.972 89.1886C97.4028 89.1886 96.7666 90.5597 96.5323 91.5295C96.8001 91.563 97.4698 91.3623 97.9051 90.9276Z" fill="#00447C"/>
<path d="M100.483 94.8737C100.383 94.8737 100.316 94.8068 100.349 94.7065L101.387 91.8305C101.722 90.8941 102.057 89.8909 102.057 89.7237C102.057 89.5565 101.99 89.4896 101.856 89.4896C101.622 89.4896 101.053 90.0915 100.852 90.2922C100.818 90.3256 100.751 90.3591 100.684 90.2922L100.55 90.125C100.483 90.0915 100.483 90.0246 100.55 89.9912C100.785 89.6902 101.722 88.4863 103.296 88.4863C103.731 88.4863 103.899 88.8207 103.899 89.0883C103.899 89.2889 103.597 90.125 103.162 91.0279L103.296 91.1282C103.731 90.4594 105.004 88.4863 106.477 88.4863C107.113 88.4863 107.448 89.0883 107.448 89.4896C107.448 89.824 107.247 90.4594 106.577 92.2987C106.209 93.3354 106.109 93.6698 106.109 93.837C106.109 94.0042 106.175 94.1045 106.309 94.1045C106.477 94.1045 106.979 93.6363 107.147 93.4691C107.18 93.4022 107.247 93.4357 107.28 93.4691L107.414 93.6029C107.481 93.6363 107.481 93.7366 107.414 93.7701C107.247 94.0042 106.309 95.0743 104.87 95.0743C104.434 95.0743 104.267 94.8068 104.267 94.5058C104.267 94.2383 104.568 93.3354 105.037 91.9977C105.271 91.2954 105.64 90.2922 105.64 90.0246C105.64 89.7906 105.506 89.6902 105.338 89.6902C105.004 89.6902 103.865 90.8941 103.262 91.8639C102.928 92.399 102.626 92.8672 102.526 93.1347L101.923 94.8068C101.89 94.8737 101.856 94.9071 101.689 94.9071H100.483V94.8737Z" fill="#00447C"/>
<path d="M111.968 88.8876H113.475C113.542 88.8876 113.575 88.9211 113.542 89.0214L113.441 89.4227C113.408 89.523 113.341 89.5565 113.24 89.5565H111.734L110.495 92.8672C110.428 93.1013 110.294 93.4691 110.294 93.6698C110.294 93.837 110.428 93.9708 110.629 93.9708C110.93 93.9708 111.834 93.3354 111.901 93.235C111.935 93.1682 112.002 93.2016 112.035 93.235L112.202 93.4022C112.236 93.4357 112.269 93.4691 112.236 93.536C112.035 93.8036 110.763 95.0409 109.222 95.0409C108.687 95.0409 108.452 94.7399 108.452 94.5058C108.452 94.2049 108.486 93.8704 108.62 93.5695L109.993 89.5899H108.821C108.72 89.5899 108.687 89.523 108.72 89.4227L108.821 89.0214C108.854 88.9545 108.888 88.9211 108.988 88.9211H110.227L110.729 87.2825C110.796 87.1152 110.863 87.0818 111.231 87.0818C111.633 87.0484 112.437 86.6805 112.571 86.5802C112.638 86.5467 112.738 86.4799 112.805 86.4799C112.906 86.4799 112.973 86.6471 112.939 86.7474L111.968 88.8876Z" fill="#00447C"/>
<path d="M117.593 93.3688C117.66 93.4022 117.66 93.4691 117.627 93.536C117.359 94.0711 116.22 95.0409 114.747 95.0409C113.709 95.0409 112.973 94.4389 112.973 93.3688C112.973 92.2652 113.441 90.66 114.781 89.523C115.517 88.8876 116.421 88.4863 117.292 88.4863C118.129 88.4863 118.464 88.9545 118.464 89.523C118.464 90.3591 117.962 90.9944 117.091 91.4626C116.254 91.9308 115.45 92.0646 114.881 92.1315C114.814 92.2652 114.747 92.6665 114.747 93.0678C114.747 93.6029 115.049 94.0376 115.551 94.0376C116.287 94.0376 116.823 93.6363 117.191 93.2685C117.225 93.235 117.258 93.2016 117.325 93.235L117.593 93.3688ZM116.388 90.9276C116.622 90.6935 116.857 90.1918 116.857 89.6902C116.857 89.4561 116.79 89.1886 116.455 89.1886C115.886 89.1886 115.249 90.5597 115.015 91.5295C115.283 91.563 115.953 91.3623 116.388 90.9276Z" fill="#00447C"/>
<path d="M119.301 94.8737C119.2 94.8737 119.133 94.8068 119.167 94.7399L119.904 92.2987C120.171 91.4626 120.64 89.9578 120.64 89.6902C120.64 89.523 120.54 89.3892 120.372 89.3892C120.138 89.3892 119.602 89.8909 119.368 90.2253C119.301 90.3256 119.234 90.3256 119.2 90.2922L119.066 90.1919C119.033 90.1584 119.033 90.125 119.066 90.0246C119.301 89.5899 120.171 88.4863 121.477 88.4863C122.08 88.4863 122.247 88.7873 122.247 89.0883C122.247 89.3558 121.946 90.0915 121.611 91.0613L121.779 91.1617C122.147 90.3256 123.051 88.4863 124.156 88.4863C124.591 88.4863 125.026 88.8207 125.026 89.2889C125.026 89.824 124.625 90.2587 124.357 90.2587C124.156 90.2587 123.989 90.2253 123.855 90.125C123.721 90.0581 123.62 89.9578 123.419 89.9578C122.951 89.9578 122.147 91.1617 121.812 91.9308C121.678 92.2987 121.511 92.7334 121.31 93.2685L120.841 94.7733C120.808 94.8402 120.741 94.8737 120.64 94.8737H119.301Z" fill="#00447C"/>
<path d="M127.906 92.7C127.906 91.4961 128.241 90.2253 129.112 89.2889C129.714 88.6535 130.451 88.4194 131.254 88.4194C132.058 88.4194 133.364 88.7873 133.364 90.6266C133.364 91.5295 133.063 93.1013 132.092 94.1045C131.489 94.7399 130.853 94.974 129.882 94.974C129.011 95.0074 127.906 94.4055 127.906 92.7ZM131.221 92.6331C131.69 91.7636 132.125 90.4928 132.125 89.9243C132.125 89.5564 131.991 89.2889 131.556 89.2889C130.987 89.2889 130.551 89.824 129.882 91.0279C129.379 91.9308 129.145 92.8337 129.145 93.4691C129.145 93.7701 129.312 94.138 129.681 94.138C130.116 94.138 130.618 93.837 131.221 92.6331Z" fill="#00447C"/>
<path d="M135.708 88.8877C136.143 87.7507 136.143 86.9481 137.348 85.577C137.717 85.1757 138.788 84.5068 139.726 84.5068C141.032 84.5068 141.5 85.0753 141.5 85.6104C141.5 85.9783 141.166 86.3461 140.73 86.3461C140.094 86.3461 139.86 86.0451 139.793 85.5435C139.759 85.3763 139.659 85.1088 139.324 85.1088C138.319 85.1088 137.918 87.249 137.516 88.8542H139.09C139.19 88.8542 139.223 88.8877 139.19 88.988L139.123 89.3559C139.123 89.4562 139.09 89.4896 138.956 89.4896H137.382C137.047 90.727 136.478 93.302 135.909 94.8737C135.172 97.014 133.799 99.2546 131.924 99.2546C131.02 99.2546 130.518 98.8533 130.518 98.2848C130.518 97.85 130.786 97.4822 131.254 97.4822C131.723 97.4822 131.991 97.85 132.025 98.3182C132.025 98.4854 132.159 98.5857 132.359 98.5857C133.096 98.5857 133.699 97.3149 134.335 94.6062L135.54 89.4896H134.268C134.201 89.4896 134.134 89.4227 134.168 89.3559L134.268 88.9546C134.268 88.8877 134.301 88.8208 134.435 88.8208H135.708V88.8877Z" fill="#00447C"/>
<path d="M151.612 93.3019C151.445 93.8704 151.545 94.3386 151.88 94.3386H152.416C152.55 94.3386 152.583 94.372 152.55 94.5058L152.483 94.8402C152.483 94.9071 152.449 94.9405 152.315 94.9405C152.181 94.9405 151.679 94.9071 150.273 94.9071C148.867 94.9071 148.297 94.9405 148.097 94.9405C147.996 94.9405 147.963 94.9071 147.963 94.8068L148.03 94.4723C148.03 94.4055 148.063 94.372 148.164 94.372H148.532C149.001 94.372 149.268 94.1045 149.603 93.1012L150.541 90.2587C150.574 90.0915 150.541 90.0581 150.407 90.0581H146.255C146.121 90.0581 146.021 90.0915 145.987 90.1918L144.949 93.4022C144.681 94.2048 144.949 94.372 145.418 94.372H145.786C145.887 94.372 145.92 94.4389 145.887 94.5058L145.853 94.8402C145.853 94.9405 145.786 94.974 145.686 94.974C145.518 94.974 144.949 94.9405 143.442 94.9405C142.07 94.9405 141.534 94.974 141.4 94.974C141.299 94.974 141.266 94.9405 141.266 94.8736L141.333 94.5058C141.333 94.4055 141.366 94.372 141.467 94.372H141.835C142.304 94.372 142.605 94.0376 142.873 93.2684L145.25 86.0785C145.384 85.6103 145.117 85.3762 144.849 85.3762H144.346C144.246 85.3762 144.213 85.3428 144.213 85.2759L144.279 84.9081C144.279 84.8077 144.346 84.7743 144.447 84.7743C144.581 84.7743 145.384 84.8077 146.69 84.8077C147.728 84.8077 148.498 84.7743 148.632 84.7743C148.733 84.7743 148.766 84.8077 148.766 84.9081L148.666 85.2759C148.666 85.3428 148.599 85.3762 148.532 85.3762H148.197C147.728 85.3762 147.46 85.5769 147.293 86.1454L146.288 89.2555C146.255 89.3892 146.288 89.4227 146.422 89.4227H150.608C150.742 89.4227 150.775 89.3892 150.842 89.2555L151.88 85.9782C152.014 85.5434 151.713 85.3762 151.445 85.3762H151.21C151.144 85.3762 151.11 85.3762 151.11 85.2759L151.21 84.8746C151.21 84.8077 151.277 84.7743 151.378 84.7743C151.512 84.7743 152.282 84.8077 153.42 84.8077C154.391 84.8077 155.028 84.7743 155.195 84.7743C155.329 84.7743 155.362 84.8077 155.329 84.8746L155.262 85.2425C155.262 85.3094 155.195 85.3762 155.128 85.3762H154.827C154.425 85.3762 154.157 85.5434 153.956 86.1454L151.612 93.3019Z" fill="#00447C"/>
<path d="M160.787 88.3525C160.887 88.3525 160.954 88.4194 160.921 88.5197C160.686 89.1551 159.983 91.1616 159.849 91.6632C159.782 91.9308 159.246 93.6029 159.246 93.837C159.246 93.9707 159.313 94.0042 159.414 94.0042C159.648 94.0042 160.151 93.3019 160.251 93.1681C160.318 93.0678 160.351 93.0678 160.385 93.1012L160.552 93.235C160.586 93.2684 160.586 93.3353 160.552 93.4356C160.418 93.7366 159.581 95.0074 158.175 95.0074C157.74 95.0074 157.572 94.7733 157.572 94.5392C157.572 94.3386 157.639 94.071 158.175 92.5996L158.041 92.5327C157.438 93.4357 156.467 95.0408 155.028 95.0408C154.626 95.0408 153.99 94.4723 153.99 93.8704C153.99 91.9642 155.865 88.4529 158.008 88.4529C158.677 88.4529 158.979 88.7538 159.18 88.9879L159.414 88.5532C159.481 88.4194 159.581 88.386 159.682 88.386H160.787V88.3525ZM156.133 93.8035C156.534 93.8035 157.941 91.8305 158.242 91.2285C158.409 90.8272 158.577 90.3256 158.577 89.7905C158.577 89.4561 158.209 89.1217 157.907 89.1217C157.539 89.1217 157.171 89.4227 156.769 90.1584C156.032 91.496 155.764 92.6665 155.764 93.4022C155.798 93.6697 155.898 93.8035 156.133 93.8035Z" fill="#00447C"/>
<path d="M161.724 94.8737C161.624 94.8737 161.557 94.8068 161.59 94.7399L162.327 92.2987C162.595 91.4626 163.064 89.9578 163.064 89.6902C163.064 89.523 162.963 89.3892 162.796 89.3892C162.561 89.3892 162.026 89.8909 161.791 90.2253C161.724 90.3256 161.657 90.3256 161.624 90.2922L161.49 90.1919C161.456 90.1584 161.456 90.125 161.49 90.0246C161.724 89.5899 162.595 88.4863 163.901 88.4863C164.503 88.4863 164.671 88.7873 164.671 89.0883C164.671 89.3558 164.369 90.0915 164.035 91.0613L164.202 91.1617C164.57 90.3256 165.474 88.4863 166.579 88.4863C167.015 88.4863 167.45 88.8207 167.45 89.2889C167.45 89.824 167.048 90.2587 166.78 90.2587C166.579 90.2587 166.412 90.2253 166.278 90.125C166.144 90.0581 166.044 89.9578 165.843 89.9578C165.374 89.9578 164.57 91.1617 164.235 91.9308C164.068 92.2987 163.934 92.7334 163.733 93.2685L163.264 94.7733C163.231 94.8402 163.164 94.8737 163.064 94.8737H161.724Z" fill="#00447C"/>
<path d="M171.066 88.8876H172.573C172.64 88.8876 172.673 88.9211 172.64 89.0214L172.539 89.4227C172.506 89.523 172.439 89.5565 172.338 89.5565H170.832L169.593 92.8672C169.526 93.1013 169.392 93.4691 169.392 93.6698C169.392 93.837 169.526 93.9708 169.727 93.9708C170.028 93.9708 170.932 93.3354 170.999 93.235C171.033 93.1682 171.099 93.2016 171.133 93.235L171.3 93.4022C171.334 93.4357 171.367 93.4691 171.334 93.536C171.133 93.8036 169.861 95.0409 168.32 95.0409C167.785 95.0409 167.55 94.7399 167.55 94.5058C167.55 94.2049 167.584 93.8704 167.718 93.5695L169.091 89.5899H167.919C167.818 89.5899 167.785 89.523 167.818 89.4227L167.919 89.0214C167.952 88.9545 167.986 88.9211 168.086 88.9211H169.325L169.827 87.2825C169.894 87.1152 169.961 87.0818 170.329 87.0818C170.731 87.0484 171.535 86.6805 171.669 86.5802C171.736 86.5467 171.836 86.4799 171.903 86.4799C172.004 86.4799 172.071 86.6471 172.037 86.7474L171.066 88.8876Z" fill="#00447C"/>
<path d="M176.926 84.6741C177.06 84.6741 177.093 84.7744 177.026 84.9416L174.013 93.3689C173.845 93.8036 173.879 94.0043 174.147 94.0043C174.515 94.0043 175.051 93.4692 175.218 93.2685C175.251 93.2351 175.318 93.2351 175.352 93.2685L175.519 93.4357C175.553 93.4692 175.553 93.5361 175.519 93.603C175.452 93.7033 174.314 94.9741 172.707 94.9741C172.405 94.9741 172.071 94.6062 172.071 94.3387C172.071 94.0711 172.338 93.3689 172.506 92.9341L174.883 86.1121C175.084 85.5435 175.017 85.1757 174.582 85.1757H174.147C174.046 85.1757 174.013 85.1088 174.013 85.0419L174.113 84.7409C174.147 84.6406 174.18 84.6406 174.247 84.6406H176.926V84.6741Z" fill="#00447C"/>
<path d="M182.852 88.3525C182.952 88.3525 182.986 88.4194 182.986 88.5197C182.752 89.1551 182.048 91.1616 181.915 91.6632C181.848 91.9308 181.312 93.6029 181.312 93.837C181.312 93.9707 181.379 94.0042 181.479 94.0042C181.714 94.0042 182.216 93.3019 182.316 93.1681C182.383 93.0678 182.417 93.0678 182.45 93.1012L182.618 93.235C182.651 93.2684 182.651 93.3353 182.618 93.4356C182.484 93.7366 181.647 95.0074 180.24 95.0074C179.805 95.0074 179.638 94.7733 179.638 94.5392C179.638 94.3386 179.705 94.071 180.24 92.5996L180.106 92.5327C179.504 93.4357 178.533 95.0408 177.093 95.0408C176.691 95.0408 176.055 94.4723 176.055 93.8704C176.055 91.9642 177.93 88.4529 180.073 88.4529C180.743 88.4529 181.044 88.7538 181.245 88.9879L181.479 88.5532C181.546 88.4194 181.647 88.386 181.747 88.386H182.852V88.3525ZM178.231 93.8035C178.633 93.8035 180.039 91.8305 180.341 91.2285C180.508 90.8272 180.676 90.3256 180.676 89.7905C180.676 89.4561 180.307 89.1217 180.006 89.1217C179.638 89.1217 179.269 89.4227 178.868 90.1584C178.131 91.496 177.863 92.6665 177.863 93.4022C177.863 93.6697 177.997 93.8035 178.231 93.8035Z" fill="#00447C"/>
<path d="M183.522 94.8737C183.421 94.8737 183.354 94.8068 183.388 94.7065L184.426 91.8305C184.761 90.8941 185.095 89.8909 185.095 89.7237C185.095 89.5565 185.029 89.4896 184.895 89.4896C184.66 89.4896 184.091 90.0915 183.89 90.2922C183.857 90.3256 183.79 90.3591 183.756 90.2922L183.589 90.125C183.522 90.0915 183.522 90.0246 183.589 89.9912C183.823 89.6902 184.761 88.4863 186.334 88.4863C186.803 88.4863 186.937 88.8207 186.937 89.0883C186.937 89.2889 186.636 90.125 186.2 91.0279L186.334 91.1282C186.803 90.4594 188.042 88.4863 189.515 88.4863C190.151 88.4863 190.486 89.0883 190.486 89.4896C190.486 89.824 190.285 90.4594 189.616 92.2987C189.247 93.3354 189.147 93.6698 189.147 93.837C189.147 94.0042 189.214 94.1045 189.348 94.1045C189.515 94.1045 190.018 93.6363 190.185 93.4691C190.218 93.4022 190.285 93.4357 190.352 93.4691L190.486 93.6029C190.553 93.6363 190.553 93.7366 190.486 93.7701C190.319 94.0042 189.381 95.0743 187.942 95.0743C187.473 95.0743 187.339 94.8068 187.339 94.5058C187.339 94.2383 187.64 93.3354 188.109 91.9977C188.343 91.2954 188.712 90.2922 188.712 90.0246C188.712 89.7906 188.578 89.6902 188.41 89.6902C188.076 89.6902 186.937 90.8941 186.334 91.8639C186 92.399 185.698 92.8672 185.598 93.1347L184.995 94.8068C184.962 94.8737 184.928 94.9071 184.761 94.9071H183.522V94.8737Z" fill="#00447C"/>
<path d="M199.125 84.6741C199.326 84.6741 199.393 84.8413 199.326 84.975C199.125 85.5101 196.915 92.4994 196.714 93.4358C196.614 93.8705 196.614 94.0711 196.815 94.0711C197.016 94.0711 197.585 93.4358 197.685 93.3354C197.752 93.2686 197.786 93.2686 197.819 93.3354L197.987 93.5026C198.02 93.5361 198.02 93.603 197.987 93.6699C197.886 93.8036 196.949 95.0075 195.442 95.0075C195.074 95.0075 194.873 94.8403 194.873 94.5393C194.873 94.138 195.14 93.3354 195.408 92.5328L195.241 92.4325C194.504 93.603 193.567 95.0075 192.395 95.0075C191.658 95.0075 191.189 94.2049 191.189 93.603C191.189 92.6666 191.725 91.028 192.931 89.6569C193.366 89.1887 194.169 88.453 195.207 88.453C195.643 88.453 196.078 88.6202 196.346 88.9211L197.183 85.8111C197.283 85.5101 197.149 85.2091 196.748 85.2091H196.312C196.178 85.2091 196.178 85.1423 196.178 85.1088L196.245 84.7744C196.245 84.7075 196.279 84.6741 196.513 84.6741H199.125ZM195.174 88.988C194.37 88.988 193.098 92.2987 193.098 93.4358C193.098 93.8036 193.265 93.9708 193.466 93.9708C193.768 93.9708 194.404 93.0345 194.973 92.2319C195.408 91.6299 195.911 90.5932 195.911 89.9913C195.911 89.4228 195.676 88.988 195.174 88.988Z" fill="#00447C"/>
</svg>
