<?xml version="1.0" encoding="UTF-8"?><svg id="Layer_1" xmlns="http://www.w3.org/2000/svg" viewBox="0 0 375 543"><defs><style>.cls-1{fill:#011f26;}</style></defs><g id="b"><g id="c"><g><path class="cls-1" d="M283.4,114.6h87.4L261.3,5.1V92.5c0,11.9,10.2,22,22.1,22.1h0Z"/><path class="cls-1" d="M283.4,131.5c-22.1,0-39.9-17.8-39.9-39.9V0H39.9C17.8,0,0,17.8,0,39V503.1c0,22.1,17.8,39.9,39.9,39.9H336c22.1,0,39-17.8,39-39.9V131.5h-91.6ZM72.1,291H213.8c5.1,0,8.5,3.4,8.5,8.5s-3.4,8.5-8.5,8.5H72.1c-5.1,0-8.5-3.4-8.5-8.5s4.3-8.5,8.5-8.5Zm-8.5-50c0-5.1,3.4-8.5,8.5-8.5H213.8c5.1,0,8.5,3.4,8.5,8.5s-3.4,8.5-8.5,8.5H72.1c-4.2,0-8.5-4.3-8.5-8.5h0Zm241,243.5H72.1c-5.1,0-8.5-3.4-8.5-8.5s3.4-8.5,8.5-8.5h232.5c5.1,0,8.5,3.4,8.5,8.5s-3.4,8.5-8.5,8.5h0Zm0-59.4H72.1c-5.1,0-8.5-3.4-8.5-8.5s3.4-8.5,8.5-8.5h232.5c5.1,0,8.5,3.4,8.5,8.5s-3.4,8.5-8.5,8.5h0Zm0-58.5H72.1c-5.1,0-8.5-3.4-8.5-8.5s3.4-8.5,8.5-8.5h232.5c5.1,0,8.5,3.4,8.5,8.5s-3.4,8.5-8.5,8.5h0Zm0-176.5H72.1c-5.1,0-8.5-3.4-8.5-8.5s3.4-8.5,8.5-8.5h232.5c5.1,0,8.5,3.4,8.5,8.5s-3.4,8.5-8.5,8.5h0Z"/></g></g></g></svg>