<svg width="153" height="162" viewBox="0 0 153 162" fill="none" xmlns="http://www.w3.org/2000/svg">
<g clip-path="url(#clip0_415_689)">
<path d="M151.94 0.5V161.38H0.5V0.5H151.94ZM152.44 0H0V161.88H152.44V0Z" fill="white"/>
<path d="M76.0895 85.9797L54.0895 55.7497V77.7497H62.8895V99.4597H22.2695V77.7397H30.5095V43.9297H22.2695V22.2197H54.1695L76.1695 52.7197L98.2695 22.2197H130.27V43.9297H122.03V77.7397H130.27V99.4497H89.5495V77.7397H98.3395V55.7397L76.0895 85.9797Z" fill="white"/>
<path d="M108.521 139.27V138.49C109.521 138.43 110.271 138.35 110.271 137.55C110.255 137.253 110.198 136.961 110.101 136.68L109.671 135.22H104.551L104.101 136.48C103.992 136.768 103.932 137.072 103.921 137.38C103.921 138.38 105.011 138.47 105.921 138.51V139.29H99.9209V138.51C101.441 138.45 101.921 138.14 102.491 136.62L106.411 125.85L106.191 125.5C107.224 125.243 108.198 124.792 109.061 124.17C109.351 125.17 109.391 125.28 109.721 126.31L112.931 136.17C113.501 137.91 113.771 138.34 115.311 138.51V139.29L108.521 139.27ZM107.271 127.63L105.141 133.63H109.271L107.271 127.63ZM62.2709 136.05C61.6839 137.174 60.7915 138.109 59.6964 138.747C58.6012 139.386 57.348 139.702 56.0809 139.66C51.7109 139.66 48.8809 136.44 48.8809 132.2C48.8809 128.28 51.2809 124.42 56.1809 124.42C57.935 124.387 59.6387 125.007 60.9609 126.16L61.9609 125.26L62.0409 129.65L61.3909 129.78C61.0912 128.813 60.555 127.937 59.8309 127.23C59.4492 126.807 58.9876 126.464 58.4727 126.22C57.9579 125.977 57.3999 125.837 56.8309 125.81C54.2109 125.81 52.1409 127.95 52.1409 131.71C52.1409 134.89 53.8409 137.89 57.2009 137.89C58.0722 137.912 58.9324 137.69 59.6837 137.248C60.435 136.806 61.0472 136.162 61.4509 135.39L62.2709 136.05ZM63.3409 139.27V138.49C64.9909 138.35 65.0109 138 65.0109 136.6C65.0109 136.09 65.0109 135.6 65.0109 135.06V128.98C65.0109 128.03 65.0109 127.09 64.9509 126.64C64.8709 125.77 64.4509 125.64 63.3209 125.55V124.77H69.5309V125.55C68.3209 125.67 67.8709 125.71 67.7309 126.55C67.6211 127.348 67.5776 128.154 67.6009 128.96V130.96C68.8609 131.02 69.7309 131.06 70.9409 131.06C72.1509 131.06 73.1509 131.06 74.3809 130.96V128.52C74.3809 125.87 74.3809 125.77 72.3809 125.59V124.81H78.6709V125.59C76.9809 125.79 76.9809 125.81 76.9809 128.59V134.71C76.9809 135.28 76.9809 137.11 77.0709 137.54C77.1709 138.3 77.6009 138.45 78.6709 138.54V139.32H72.2709V138.54C73.7309 138.37 74.1209 138.34 74.2709 137.33C74.2709 136.92 74.2709 136.33 74.2709 135.33V132.67C73.1209 132.67 72.1709 132.57 70.9709 132.57C69.7709 132.57 68.7509 132.57 67.4909 132.67V135.22C67.4909 138.22 67.5509 138.22 69.4209 138.45V139.23L63.3409 139.27ZM79.8809 139.27V138.49C81.3009 138.3 81.5909 138.14 81.6109 136.62V128.89C81.6109 125.89 81.6109 125.79 79.8809 125.55V124.77H85.8809V125.55C84.1709 125.71 84.1709 125.79 84.1709 128.89V134.75C84.1709 135.26 84.1709 136.89 84.2409 137.32C84.3409 138.2 84.7509 138.41 85.8809 138.49V139.27H79.8809ZM42.6609 139.27V138.49C44.0809 138.3 44.3709 138.14 44.3909 136.62V128.89C44.3909 125.89 44.3909 125.79 42.6609 125.55V124.77H48.6609V125.55C46.9609 125.71 46.9609 125.79 46.9609 128.89V134.75C46.9609 135.26 46.9609 136.89 47.0209 137.32C47.1209 138.2 47.5309 138.41 48.6609 138.49V139.27H42.6609ZM34.8909 139.27V138.49C36.7209 138.37 36.7209 138.29 36.7409 135.59V128.3L31.6709 139.46H30.2709L25.6109 128.15L25.5009 136.68C25.5009 138.1 25.6709 138.37 27.2109 138.49V139.27H22.2109V138.49C23.3809 138.43 23.8309 138.26 23.9109 137.28C23.9109 136.89 24.0109 135.67 24.0409 134.87L24.2409 128.79C24.2409 128.32 24.2409 127.62 24.2409 127.11C24.2409 125.67 23.9509 125.57 22.6609 125.55V124.77H27.2709L31.7909 135.77L36.7909 124.77H41.2109V125.63C39.4809 125.73 39.4609 125.92 39.4809 128.18V134.18C39.4809 135.18 39.4809 136.4 39.5709 137.18C39.6509 138.25 40.0609 138.46 41.2109 138.56V139.34L34.8909 139.27ZM114.951 139.27V138.49C116.151 138.43 116.601 138.41 116.761 137.59C116.971 136.59 117.031 128.01 117.051 126.51C116.794 126.201 116.474 125.951 116.111 125.779C115.748 125.606 115.353 125.514 114.951 125.51V124.73H119.271C120.481 126.45 120.751 126.84 122.891 129.49L126.891 134.49V127.99C126.891 125.69 126.811 125.57 124.511 125.49V124.71H130.271V125.49C128.691 125.49 128.551 125.84 128.531 128.2L128.321 139.4H127.461L126.161 137.77C125.511 136.95 124.851 136.13 124.161 135.33L118.431 128.26V135.78C118.431 138.12 118.591 138.2 120.811 138.43V139.21L114.951 139.27ZM100.641 132.86V133.64C99.3209 133.72 99.3209 134.09 99.2909 136.84V137.93C97.6501 139.066 95.6965 139.664 93.7009 139.64C88.7009 139.64 86.3209 135.86 86.3209 132.06C86.3209 127.41 89.4709 124.39 93.4109 124.39C95.2341 124.402 97.0088 124.978 98.4909 126.04L99.2509 125.17L99.3609 129.72L98.7709 129.82C98.4151 128.685 97.7868 127.655 96.9409 126.82C96.5571 126.46 96.106 126.179 95.6135 125.994C95.121 125.809 94.5968 125.722 94.0709 125.74C91.5409 125.74 89.4309 127.88 89.4309 132.05C89.4309 135.38 91.0809 138.23 93.9009 138.23C94.3847 138.229 94.8621 138.12 95.2982 137.911C95.7342 137.701 96.1179 137.397 96.4209 137.02C96.6788 136.609 96.7849 136.121 96.7209 135.64C96.6509 133.8 96.4009 133.75 94.7909 133.59V132.81L100.641 132.86Z" fill="white"/>
<path d="M122.48 115.4C122.532 116.055 122.446 116.714 122.226 117.334C122.007 117.954 121.66 118.52 121.207 118.996C120.754 119.473 120.206 119.849 119.598 120.099C118.991 120.349 118.337 120.469 117.68 120.45C117.012 120.475 116.346 120.36 115.724 120.113C115.102 119.867 114.539 119.494 114.069 119.018C113.599 118.543 113.233 117.975 112.993 117.35C112.754 116.726 112.648 116.058 112.68 115.39C112.68 114.096 113.194 112.855 114.109 111.94C115.024 111.024 116.266 110.51 117.56 110.51C118.854 110.51 120.095 111.024 121.011 111.94C121.926 112.855 122.44 114.096 122.44 115.39L122.48 115.4ZM117.69 119.57C118.079 119.545 118.456 119.424 118.788 119.218C119.119 119.013 119.395 118.728 119.59 118.39C120.205 117.424 120.48 116.28 120.37 115.14C120.395 114.024 120.007 112.938 119.28 112.09C119.072 111.839 118.81 111.637 118.514 111.5C118.218 111.364 117.894 111.295 117.568 111.3C117.242 111.305 116.921 111.383 116.628 111.528C116.336 111.674 116.08 111.883 115.88 112.14C115.178 113.008 114.821 114.105 114.88 115.22C114.805 116.362 115.115 117.495 115.76 118.44C115.964 118.773 116.247 119.05 116.583 119.247C116.92 119.444 117.3 119.555 117.69 119.57ZM122.95 119.68V120.22H126.95V119.69C125.95 119.59 125.84 119.5 125.81 118.45V115.72H126.87C127.94 115.72 128.51 115.82 128.58 116.89H129.04V113.72H128.58C128.52 114.72 128.24 114.85 127.07 114.85H125.81V111.53C126.188 111.487 126.569 111.47 126.95 111.48C128.82 111.48 129.43 111.48 129.68 112.97H130.15L130 110.62H123V111.14C123.69 111.21 124 111.25 124.09 111.69C124.148 112.268 124.175 112.849 124.17 113.43V116.8C124.17 117.06 124.17 118.21 124.17 118.44C124.06 119.49 123.94 119.58 122.95 119.68V119.68ZM44.4599 120.14V119.63C45.3899 119.5 45.5799 119.39 45.5999 118.39V113.28C45.5999 111.28 45.5999 111.23 44.4599 111.07V110.55H48.4599V111.07C47.2699 111.22 47.2699 111.22 47.2699 113.28V117.15C47.2699 117.49 47.2699 118.57 47.2699 118.85C47.3399 119.44 47.6099 119.57 48.3599 119.63V120.14H44.4599ZM84.2299 120.14V119.63C85.1599 119.5 85.3499 119.39 85.3699 118.39V113.28C85.3699 111.28 85.3699 111.23 84.2299 111.07V110.55H88.2299V111.07C87.0999 111.18 87.0999 111.23 87.0999 113.28V117.15C87.0999 117.49 87.0999 118.57 87.0999 118.85C87.1699 119.44 87.4399 119.57 88.1899 119.63V120.14H84.2299ZM33.2799 120.14V119.63C34.0699 119.58 34.3699 119.57 34.4699 119.03C34.5699 118.49 34.6499 112.7 34.6599 111.71C34.4901 111.51 34.2787 111.349 34.0404 111.238C33.8021 111.128 33.5426 111.07 33.2799 111.07V110.55H36.1599C36.9599 111.69 37.1599 111.95 38.5499 113.7L41.2699 117.02V112.73C41.2699 111.21 41.2199 111.12 39.6999 111.07V110.55H43.4699V111.07C42.4699 111.07 42.3299 111.3 42.3199 112.86L42.1799 120.26H41.6099L40.7599 119.19C40.3199 118.65 39.8899 118.1 39.4499 117.57L35.6599 112.9V117.9C35.6599 119.45 35.7699 119.51 37.2399 119.66V120.17L33.2799 120.14ZM76.7899 117.14L77.2799 117.09C77.8099 118.65 78.6899 119.49 80.1299 119.49C81.1299 119.49 82.0499 119.06 82.0499 118.03C82.0499 117 81.0499 116.51 80.5399 116.31C80.0299 116.11 79.7499 116.04 79.3699 115.89C78.7377 115.753 78.1699 115.408 77.7581 114.909C77.3464 114.41 77.1145 113.787 77.0999 113.14C77.0998 112.75 77.1809 112.364 77.3381 112.007C77.4953 111.65 77.7251 111.329 78.013 111.066C78.3008 110.803 78.6404 110.602 79.01 110.477C79.3797 110.352 79.7713 110.306 80.1599 110.34C80.9415 110.334 81.7073 110.56 82.3599 110.99L82.9499 110.57L83.2599 113.42L82.7799 113.52C82.6786 113 82.452 112.513 82.1199 112.1C81.9021 111.819 81.6212 111.593 81.2998 111.44C80.9785 111.287 80.6257 111.212 80.2699 111.22C79.2699 111.22 78.6499 111.71 78.6499 112.47C78.6499 113.61 79.7799 113.99 80.8599 114.35C81.3391 114.481 81.8021 114.666 82.2399 114.9C82.6674 115.149 83.0213 115.507 83.2654 115.938C83.5096 116.368 83.6354 116.855 83.6299 117.35C83.6124 117.773 83.5099 118.187 83.3284 118.569C83.1468 118.951 82.8901 119.292 82.5735 119.572C82.257 119.852 81.8871 120.065 81.4861 120.199C81.0852 120.333 80.6613 120.384 80.2399 120.35C79.3552 120.355 78.4901 120.09 77.7599 119.59L76.9599 119L76.7899 117.14ZM91.5799 120.14V119.73C92.4599 119.73 92.7099 119.39 92.7099 118.63V111.57H91.5099C90.4299 111.57 89.7099 111.57 89.6199 113.24H89.1199L89.1999 110.55H97.9199L97.9999 113.24H97.4999C97.4199 111.53 96.6999 111.57 95.6099 111.57H94.4199V118.63C94.4199 119.39 94.6599 119.72 95.5499 119.73V120.14H91.5799ZM26.4399 110.55V111.07C25.1699 111.16 25.1699 111.21 25.1499 113.24V115.5C25.0349 116.565 25.2588 117.64 25.7899 118.57C25.9951 118.835 26.2615 119.047 26.5663 119.186C26.8711 119.325 27.2052 119.389 27.5399 119.37C28.1017 119.412 28.6595 119.248 29.1099 118.91C29.5604 118.571 29.873 118.081 29.9899 117.53C30.2257 116.315 30.3196 115.077 30.2699 113.84C30.2699 113.49 30.2699 112.35 30.2699 112.03C30.2099 111.16 29.7699 111.14 28.9099 111.03V110.51H32.5599V111.03C31.6699 111.03 31.4799 111.22 31.4199 112.17C31.4199 112.4 31.2999 115.06 31.2899 115.47C31.2793 116.192 31.2023 116.912 31.0599 117.62C30.8298 118.443 30.3235 119.162 29.626 119.655C28.9286 120.149 28.0824 120.387 27.2299 120.33C26.3425 120.347 25.4687 120.111 24.7099 119.65C23.2899 118.65 23.2699 117.25 23.2699 115.65V113.48C23.2699 112.48 23.2699 111.98 23.2699 111.74C23.1899 111.14 22.8899 111.02 22.1699 110.98V110.46L26.4399 110.55ZM58.9399 110.55V111.07C58.0199 111.21 57.8899 111.46 57.1099 113.36L54.1899 120.36H53.6699L51.0499 113.22C50.3999 111.4 50.3099 111.22 49.3499 111.03V110.51H53.8999V111.03C53.1299 111.03 52.6199 111.03 52.6199 111.64C52.6635 112.088 52.7747 112.526 52.9499 112.94L54.6199 117.82L56.6199 112.82C56.7563 112.501 56.8504 112.164 56.8999 111.82C56.8999 111.13 56.2199 111.1 55.6199 111.09V110.57L58.9399 110.55ZM101.46 120.14V119.63C102.2 119.54 102.46 119.52 102.68 119.33C102.9 119.14 102.9 118.87 102.91 117.82V116.14L100.36 112.14C99.6599 111.14 99.6499 111.08 98.7299 111.03V110.5H103.73V111.03C102.73 111.03 102.27 111.03 102.27 111.54C102.328 111.902 102.472 112.245 102.69 112.54L104.16 114.94L105.52 112.55C105.714 112.246 105.843 111.906 105.9 111.55C105.9 111.09 105.5 111.08 104.84 111.04V110.51H108.59V111.04C107.59 111.04 107.34 111.35 106.24 113.14L104.74 115.64V117.64C104.74 119.38 104.74 119.51 106.18 119.64V120.15L101.46 120.14ZM66.6599 120.14C66.6599 119.45 66.7799 118.31 66.8599 117.66H66.3999C66.0699 119.37 65.1099 119.29 63.7199 119.29C62.3299 119.29 62.1899 118.95 62.1899 118.29V115.61H63.1899C64.3699 115.61 64.7099 115.71 64.7099 116.78H65.1699V113.62H64.7099C64.6199 114.47 64.4399 114.75 63.1999 114.75H62.1999V111.38H63.3799C65.0099 111.38 65.5899 111.5 65.8099 112.8H66.2699V110.52H59.4399V111.04C60.1299 111.11 60.4399 111.15 60.5299 111.59C60.5884 112.168 60.6151 112.749 60.6099 113.33V116.7C60.6099 116.96 60.6099 118.11 60.6099 118.35C60.6099 119.35 60.4599 119.49 59.4699 119.58V120.11L66.6599 120.14ZM70.6599 115C70.9534 115.056 71.2512 115.086 71.5499 115.09C72.0247 115.116 72.4921 114.964 72.8616 114.665C73.231 114.366 73.4763 113.94 73.5499 113.47C73.6099 112.36 73.0499 111.4 71.2799 111.4C71.0853 111.395 70.8907 111.412 70.6999 111.45L70.6599 115ZM70.6599 117.09C70.6599 119.29 70.6599 119.58 71.8299 119.61V120.14H67.8299V119.61C68.8299 119.53 68.9699 119.37 68.9799 118.33C68.9799 117.94 68.9799 117.49 68.9799 117.1V113.63C68.9976 113.006 68.9776 112.382 68.9199 111.76C68.8499 111.23 68.5999 111.13 67.8099 111.07V110.55H72.1499C74.5199 110.55 75.2599 111.67 75.2599 113C75.2561 113.568 75.072 114.12 74.7341 114.577C74.3962 115.033 73.922 115.371 73.3799 115.54L75.0699 118.54C75.6799 119.67 76.0099 119.93 76.7799 120.03V120.36C76.5799 120.36 76.3799 120.36 76.1599 120.36C74.3499 120.36 73.6099 119.73 72.8499 118.12L72.3199 116.99C71.7499 115.78 71.5599 115.86 70.6499 115.84L70.6599 117.09Z" fill="white"/>
</g>
<defs>
<clipPath id="clip0_415_689">
<rect width="152.44" height="161.87" fill="white"/>
</clipPath>
</defs>
</svg>
