<?xml version="1.0" encoding="UTF-8"?><svg xmlns="http://www.w3.org/2000/svg" viewBox="0 0 90 89.76"><defs><style>.d{fill:#2f5b47;}.e{fill:#fbfbfb;}.f{fill:#292526;}</style></defs><g id="a"/><g id="b"><g id="c"><g><path class="e" d="M45,89.74c-14.67,0-29.35,0-44.02,.02-.82,0-.98-.16-.98-.98C.03,59.51,.03,30.25,0,.98,0,.16,.16,0,.98,0,30.33,.03,59.67,.03,89.02,0c.82,0,.98,.16,.98,.98-.03,29.26-.03,58.53,0,87.79,0,.82-.16,.98-.98,.98-14.67-.03-29.35-.02-44.02-.02Zm.47-1.19c13.02,.21,25.28-6.2,32.66-15.04,8.41-10.06,11.47-21.67,9.78-34.55C85.36,19.59,67.82,.92,42.99,1.91,20.19,2.83,1.34,22,1.83,45.89c.5,24.69,20.93,42.93,43.64,42.66Z"/><path class="f" d="M45.47,88.55c-22.7,.27-43.13-17.97-43.64-42.66C1.34,22,20.19,2.83,42.99,1.91c24.83-1,42.38,17.68,44.92,37.04,1.69,12.89-1.37,24.49-9.78,34.55-7.38,8.84-19.64,15.25-32.66,15.04ZM2.81,45.14c-.13,23.04,18.99,42.36,42.08,42.51,23.3,.15,42.37-18.48,42.55-41.57,.19-24.35-19.24-43.05-42.1-43.21C22.26,2.71,2.73,21.47,2.81,45.14Z"/><path class="e" d="M2.81,45.14C2.73,21.47,22.26,2.71,45.33,2.87c22.86,.16,42.29,18.86,42.1,43.21-.18,23.09-19.24,41.73-42.55,41.57-23.09-.15-42.21-19.47-42.08-42.51Zm63.92,25.05c.51-.37,.98-.77,1.34-1.3,1.68-1.44,3.15-3.05,4.21-5.01,4.01-5.7,5.31-12.23,5.5-18.99,.14-4.97-1.11-9.73-3.32-14.21-1.38-2.81-3.11-5.39-5.19-7.73-.19-.22-.77-.58-.25-.82,.62-.28,1.35-.93,2.09,.08,.57,.77,1.17,1.28,.42,2.34-.46,.64,.4,1.18,.86,1.48,.5,.33,.54-.38,.7-.67,1.03-1.8,2-3.64,3.07-5.42,.42-.7,.08-1.07-.31-1.56-.38-.48-.7-.64-1.31-.39-1.98,.82-3.96,1.63-5.98,2.34-.66,.23-.56,.64-.5,1.36-2.83-2.82-5.93-4.81-9.23-6.52,.42-.19,1.03,.51,1.34-.43,.65-1.97,1.43-3.89,2.19-5.82,.24-.61,0-.84-.55-1.06-.58-.23-.87-.12-1.08,.47-.4,1.15-.86,2.27-1.32,3.47-.32-.35-.3-.68-.35-.99-.17-1.19-.39-2.37-.5-3.56-.09-.96-.87-.98-1.47-1.14-.64-.17-.57,.54-.71,.89-.7,1.74-1.33,3.5-2.01,5.25-.2,.53-.37,1.05,.34,1.25,.56,.15,1.06,.1,1.28-.67,.34-1.15,.71-2.31,1.44-3.63,.26,1.68,.52,3.07,.68,4.48,.07,.63,.28,1.12,.74,1.52-2.16-.62-4.23-1.53-6.51-2.03,.4-.51,1.06-.31,1.15-1.06,.24-1.98,.64-3.94,1-5.9,.11-.58,0-.86-.66-.96-.65-.1-.92,0-1.04,.7-.19,1.11-.2,2.28-.73,3.48-.74-1.39-1.14-2.77-1.56-4.11-.29-.93-1.02-.83-1.62-.9-.73-.08-.55,.65-.63,1.06-.35,1.79-.5,3.63-1.06,5.37-.11,.35-.34,.69,0,.97,.35,.3,.83,.24,1.27,.22,.54-.02,.43-.48,.49-.8,.21-1.15,.4-2.31,.6-3.46l.27-.03,1.93,5.34c-2.1-.45-3.99-.77-5.92-.74-.8-.07-1.6-.17-2.36,.22-.54-.24-1.1,.02-1.64-.06-.3-.04-.65-.16-.4-.48,.35-.47,.05-1.48,.98-1.41,.85,.06,2.06-.69,2.41,.9,.21,.97,1.07,.57,1.6,.48,.78-.13,.19-.71,.09-1.01-.65-1.82-1.37-3.61-2.03-5.43-.22-.61-.3-1.16-1.2-1.18-.87-.01-1.29,.22-1.53,1.07-.49,1.7-1.08,3.38-1.67,5.06-.32,.89-.87,1.81,.79,1.8-.11,.4-.38,.38-.61,.41-4.99,.65-9.52,2.56-13.59,5.42-4.43,3.12-7.84,7.2-10.27,12.05-3.26,6.52-4.22,13.41-3,20.59,1.31,7.74,4.96,14.2,10.83,19.4,.18,.28,.4,.51,.73,.61,3.27,2.86,7.07,4.77,11.18,6.03,5.09,1.56,10.29,1.84,15.52,.82,5.58-1.09,10.61-3.4,14.87-7.25l.2-.19Zm-42.71,6.39l.26,.21c-.59,.82-1.17,1.66-1.78,2.47-.45,.6,.01,.84,.39,1.14,.36,.29,.62,.37,.96-.11,1.21-1.74,2.47-3.44,3.73-5.14,.26-.36,.27-.56-.08-.88-1.31-1.21-1.44-1.22-2.78,.01-.59,.54-1.18,1.07-1.79,1.6-.29,.25-.56,.62-.96,.38,.58-1.33,1.21-2.62,1.73-3.96,.44-1.15-.8-1.18-1.29-1.68-.48-.49-.76,.05-1.01,.39-1.16,1.57-2.3,3.17-3.47,4.73-.4,.54-.31,.88,.21,1.28,.57,.43,.9,.27,1.25-.27,.49-.75,.92-1.55,1.8-2.26-.21,1.14-.64,1.98-1.05,2.82-.34,.68-.02,1.02,.44,1.41,.5,.42,.85,.19,1.24-.16,.73-.67,1.48-1.32,2.22-1.97Zm60.42-42.09c-.16-1.12-.81-2.47-1.21-3.88-.1-.35-.39-.29-.69-.19-1.96,.67-3.92,1.33-5.9,1.96-.47,.15-.72,.33-.54,.84,.42,1.2,.75,2.45,1.29,3.6,.76,1.59,2.83,1.73,3.79,.27,.29-.44,.49-.4,.92-.33,1.35,.22,2.3-.6,2.32-2.26Zm-14.55,40.24l-.18,.22c-1.34-.59-2.7-1.12-4.01-1.78-.86-.43-1.28,.19-1.76,.59-.52,.44,.08,.78,.31,1.09,1.13,1.55,2.3,3.06,3.44,4.6,.31,.42,.55,.75,1.13,.28,.53-.44,.7-.75,.2-1.35-.72-.86-1.36-1.79-2.16-2.85,.45,.08,.69,.07,.9,.16,1.1,.47,2.2,.94,3.28,1.46,.77,.37,1.28,.04,1.77-.5,.51-.56-.07-.87-.32-1.21-1.13-1.55-2.3-3.06-3.43-4.61-.39-.54-.7-.48-1.15-.1-.42,.35-.68,.61-.22,1.16,.77,.91,1.46,1.89,2.19,2.83Zm-19.79,7.29s.03,.35,.09,.66c.62,3.35,3.23,4.38,5.93,2.35,.16-.12,.31-.35,.46-.09,.29,.5,.68,.37,1.03,.18,.49-.28,.16-.71,.1-1.08-.05-.32-.14-.62-.22-.93-.58-2.32-.58-2.31-2.95-1.61-.47,.14-.78,.21-.62,.86,.16,.64,.43,.79,1.01,.6,.24-.08,.56-.32,.74,0,.14,.24,0,.54-.18,.78-.29,.4-.65,.69-1.16,.76-.94,.14-1.65-.18-2.09-1.03-.6-1.17-.59-2.69,.1-3.27,.83-.71,1.68-.78,2.57,0,.52,.46,1.27,.22,1.63-.18,.39-.44-.2-.86-.53-1.15-1.16-1.02-2.5-.95-3.83-.44-1.49,.57-2.1,1.75-2.09,3.58Zm29.32-29.19c.7,.52,1.65-.61,2.64,.19,1.36,1.1,3.12,.33,3.43-1.41,.2-1.13,.28-2.29,.45-3.43,.07-.48-.02-.74-.57-.8-2.06-.24-4.11-.51-6.16-.79-.48-.06-.69,.06-.81,.58-.2,.89,.06,1.24,.97,1.27,.57,.02,1.34-.16,1.65,.39,.31,.55-.01,1.25-.22,1.84-.19,.53-.71,.4-1.14,.36-.28-.03-.56-.05-.83-.08-1.17-.13-1,.76-1.05,1.43-.08,1.02,.64,.28,.98,.4,.14,.05,.32,.03,.68,.05ZM20.29,13.48c-1.86,0-3.73,1.85-3.7,3.66,.03,2.03,2.29,4.35,4.22,4.35,1.91,0,3.65-1.75,3.67-3.69,.01-2.06-2.18-4.33-4.19-4.33Zm58.79,16.08c1.74,.06,2.83-1.4,2.2-3-.44-1.11-1.11-2.12-1.64-3.19-.28-.57-.57-.63-1.11-.32-1.76,1.02-3.54,2.01-5.32,3-.28,.16-.68,.3-.42,.68,.23,.34,.21,.95,.89,.91,.44-.02,.78-.19,1.08-.44,.93-.79,1.42-.47,1.91,.54,.49,1.01-.07,1.34-.78,1.75-1.17,.67-1.28,1.29-.45,2.24,.14,.16,.38,.29,.51,.11,.55-.77,1.59-.96,2.07-1.77,.28-.47,.54-.77,1.05-.52Zm3.12,8.84c-2.64-.03-4.2,1.34-4.22,3.67-.01,2.15,1.6,3.73,3.82,3.73,2.49,0,4.1-1.45,4.11-3.69,.01-2.35-1.33-3.69-3.72-3.72Zm-43.89,44.31h-.02c-.06,.88-.04,1.77-.2,2.62-.15,.8,.07,1.05,.86,1.13,.88,.08,.88-.42,.89-1.02,0-.4,.08-.8,.06-1.2-.04-.82,.26-1.09,1.12-1.01,1.72,.16,1.73,.11,1.55,1.88-.03,.28-.03,.56-.08,.84-.12,.72,.39,.76,.87,.82,.51,.07,.83-.05,.87-.67,.11-2.07,.25-4.15,.42-6.22,.06-.75-.39-.72-.9-.75-.5-.03-.87-.02-.85,.65,.02,.48-.06,.96-.11,1.43-.03,.26,0,.53-.39,.63-1.58,.4-2.34-.22-2.18-1.84,.01-.12,0-.24,.03-.36,.15-.68-.25-.82-.81-.83-.49-.01-.96-.09-.97,.66-.01,1.08-.11,2.15-.16,3.23ZM4.31,49.65c0,1.43,.54,2.6,1.86,3.19,1.68,.74,3.38,.56,4.89-.47,1.07-.73,1.44-1.87,1.27-3.16-.17-1.28-.81-2.23-2.05-2.7-.36-.13-.82-.39-1.1-.05-.28,.34-.07,.85,0,1.27,.07,.38,.49,.36,.75,.51,1.09,.64,1.16,1.9,.11,2.61-.8,.55-1.71,.62-2.64,.5-1.14-.15-1.71-.9-1.58-2.01,.06-.49,.49-.59,.77-.82,.65-.55,.46-1.25,.13-1.72-.36-.51-.87,.03-1.2,.29-.81,.64-1.2,1.52-1.22,2.56Zm55.01,27.53c.15,2.07,.31,4.18,.46,6.29,0,.04,0,.08,0,.12,.04,.25,.06,.77,.35,.57,.49-.33,1.44-.4,1.3-1.23-.22-1.35,.9-1.24,1.55-1.67,.72-.48,1.06-.02,1.46,.46,.63,.78,1.19,.08,1.64-.22,.56-.38-.05-.66-.28-.91-1.38-1.49-2.8-2.94-4.16-4.46-.48-.54-.88-.62-1.53-.31-.62,.29-1.04,.58-.8,1.36Zm-25.59,8.07c.94,0,1.66-.3,2.24-.93,.78-.85,.69-1.06-.41-1.39-.51-.15-.7,.12-1.02,.36-1.04,.79-2.27,.26-2.48-1.03-.11-.66,.1-1.26,.32-1.86,.3-.79,.83-1.42,1.72-1.44,.88-.02,1.45,.43,1.65,1.39,.14,.7,.89,.86,1.44,.75,.56-.11,.29-.76,.23-1.13-.24-1.43-1.24-2.15-2.55-2.54-1.39-.41-2.54,.03-3.42,1.08-.79,.94-1.19,2.07-1.18,3.31,.01,2.01,1.47,3.43,3.48,3.43ZM29.11,12.14c0-.7-.77-1.13-1.39-.77-.48,.29-.96,.57-1.42,.89-.41,.29-.7,.43-1.04-.15-.32-.55-.24-.82,.31-1.09,.64-.32,1.22-.76,1.86-1.08,.49-.24,.67-.47,.34-.99-.31-.5-.56-.82-1.2-.39-1.1,.73-2.24,1.38-3.38,2.04-.57,.33-.51,.67-.2,1.17,.98,1.6,1.94,3.21,2.89,4.83,.32,.54,.52,.96,1.35,.55,.93-.46,.59-.84,.24-1.44-1.14-1.98-1.44-1.42,.71-2.72,.2-.12,.42-.23,.62-.35,.18-.11,.3-.26,.3-.48ZM9.83,31.76c-1.22,.4-2.06,.32-2.88,.41-.5,.06-1.37,1.26-1.17,1.69,.29,.62,.83,.19,1.24,.14,1.96-.22,3.91-.94,5.83,.19,.51,.3,.92,.35,1.17-.41,.22-.68,.3-1.17-.54-1.35-1.51-.31-2.49-1.31-3.37-2.48-.33-.45-.71-.86-1.1-1.26-.29-.3-.5-.97-.93-.76-.33,.16-.44,.8-.6,1.25-.15,.41,.15,.68,.41,.92,.56,.5,1.14,.98,1.94,1.67Zm1.77,8.66c.67,.17,.77-.32,.84-.81,.07-.49,.14-.93-.59-1.02-1.26-.17-2.51-.45-3.77-.64-1.02-.15-1.62-.57-1.31-1.71,.16-.59-.06-.87-.68-.96-.7-.11-.78,.29-.86,.81-.21,1.38-.46,2.75-.7,4.12-.1,.56-.46,1.17,.55,1.34,1,.16,.91-.51,.94-1.09,.04-.84,.36-1.07,1.21-.87,1.43,.34,2.89,.56,4.37,.83Zm15.32,42.12c.36,.02,.45-.28,.57-.52,.93-1.81,1.81-3.64,2.79-5.43,.44-.8-.12-.92-.59-1.22-.61-.4-.82-.06-1.06,.43-.88,1.75-1.78,3.48-2.67,5.22-.36,.7,.17,1.55,.96,1.53ZM8.16,43.15v-.1c-1,0-2,.02-2.99,0-.57-.02-.9,.1-.88,.78,.02,.61,.02,1.08,.84,1.09,2,.02,3.99,.09,5.98,.16,.7,.02,.88-.33,.88-.97,0-.62-.12-.99-.85-.96-1,.04-2,0-2.99,0Zm38.26,36.95c.13,1.94,.29,3.89,.39,5.85,.03,.67,.22,.93,.92,.85,.6-.08,.95-.2,.88-.94-.19-1.95-.32-3.9-.44-5.85-.04-.64-.26-.92-.95-.86-.66,.05-.99,.26-.79,.97Z"/><path class="f" d="M24.23,70.18c-5.87-5.2-9.52-11.65-10.83-19.4-1.21-7.18-.26-14.07,3-20.59,2.43-4.85,5.84-8.93,10.27-12.05,4.07-2.86,8.59-4.78,13.59-5.42,.22-.03,.49,0,.61-.41-1.66,0-1.1-.91-.79-1.8,.59-1.67,1.18-3.35,1.67-5.06,.25-.85,.67-1.09,1.53-1.07,.9,.01,.98,.57,1.2,1.18,.66,1.82,1.38,3.61,2.03,5.43,.11,.3,.69,.87-.09,1.01-.52,.09-1.38,.49-1.6-.48-.35-1.59-1.56-.83-2.41-.9-.93-.07-.62,.95-.98,1.41-.25,.33,.11,.44,.4,.48,.55,.08,1.1-.18,1.64,.05,.82,.22,1.65,.62,2.36-.22,1.92-.03,3.82,.29,5.92,.74l-1.93-5.34-.27,.03c-.2,1.15-.4,2.31-.6,3.46-.06,.32,.05,.79-.49,.8-.43,.01-.91,.07-1.27-.22-.34-.28-.11-.63,0-.97,.56-1.75,.7-3.58,1.06-5.37,.08-.4-.11-1.14,.63-1.06,.6,.07,1.33-.03,1.62,.9,.42,1.35,.82,2.72,1.56,4.11,.53-1.2,.54-2.36,.73-3.48,.12-.71,.4-.8,1.04-.7,.65,.1,.77,.38,.66,.96-.36,1.96-.75,3.92-1,5.9-.09,.76-.75,.56-1.15,1.06,2.28,.5,4.35,1.41,6.51,2.03l-.03-.03c3.3,1.71,6.4,3.7,9.23,6.52-.06-.71-.16-1.13,.5-1.36,2.02-.71,4-1.52,5.98-2.34,.61-.25,.93-.09,1.31,.39,.39,.49,.73,.86,.31,1.56-1.06,1.78-2.04,3.61-3.07,5.42-.17,.29-.2,1.01-.7,.67-.46-.3-1.31-.84-.86-1.48,.75-1.06,.15-1.57-.42-2.34-.74-1-1.47-.36-2.09-.08-.52,.23,.06,.6,.25,.82,2.08,2.34,3.81,4.92,5.19,7.73,2.21,4.48,3.45,9.24,3.32,14.21-.19,6.77-1.49,13.3-5.5,18.99-.28-.12-.31-.4-.38-.64,.09-.18,.17-.36,.28-.53,4.17-6.84,5.75-14.25,4.58-22.15-1.33-9.02-5.82-16.16-13.12-21.65-4.6-3.46-9.9-4.97-15.39-5.73-7.29-1.02-14,1.18-20.19,4.88-2.2,1.31-4.26,2.94-5.89,5.05-1.07,1.38-2.26,2.7-3.2,4.17-4.48,6.95-6.12,14.55-4.98,22.75,.38,2.76,.94,5.48,2.15,7.98,2.14,4.44,4.89,8.47,8.63,11.76l-.52,.42ZM43.1,6.65c-.21,.69-.35,1.1-.46,1.52-.07,.28-.38,.64,.04,.82,.26,.12,.65,.12,.92,0,.43-.17,.15-.55,.07-.82-.13-.44-.32-.87-.58-1.53Zm28.87,14.22c.35,.42,.58,1.08,.93,.94,.67-.26,.78-1.06,1.23-1.84l-2.15,.9Zm-3.78,.94c.08-.05,.19-.1,.18-.12-.02-.1-.07-.19-.11-.29-.07,.04-.21,.1-.21,.12,.02,.1,.09,.19,.14,.29Z"/><path class="f" d="M24.01,76.57c-.74,.66-1.49,1.31-2.22,1.97-.39,.35-.74,.58-1.24,.16-.46-.39-.77-.73-.44-1.41,.41-.83,.84-1.68,1.05-2.82-.88,.7-1.31,1.51-1.8,2.26-.35,.53-.69,.7-1.25,.27-.52-.39-.61-.74-.21-1.28,1.17-1.57,2.31-3.16,3.47-4.73,.25-.34,.53-.88,1.01-.39,.49,.5,1.73,.53,1.29,1.68-.52,1.34-1.14,2.63-1.73,3.96,.41,.24,.67-.13,.96-.38,.6-.52,1.2-1.06,1.79-1.6,1.34-1.24,1.47-1.22,2.78-.01,.35,.33,.35,.53,.08,.88-1.26,1.7-2.52,3.41-3.73,5.14-.34,.48-.6,.4-.96,.11-.38-.3-.83-.54-.39-1.14,.61-.81,1.19-1.65,1.78-2.47l-.26-.21Z"/><path class="f" d="M84.43,34.48c-.02,1.66-.97,2.48-2.32,2.26-.43-.07-.64-.1-.92,.33-.96,1.46-3.04,1.32-3.79-.27-.54-1.15-.87-2.39-1.29-3.6-.18-.51,.07-.69,.54-.84,1.97-.63,3.94-1.3,5.9-1.96,.3-.1,.59-.16,.69,.19,.4,1.42,1.05,2.76,1.21,3.88Zm-4.28,.7c-.41-.47,.07-1.62-1.01-1.72-.32-.03-1.12-.1-1.16,.67-.04,.87,.8,2.14,1.38,2.11,.59-.03,.83-.38,.79-1.06Zm2.72-.82c-.35-.59-.04-1.61-1.02-1.85-.23-.06-.82,0-.82,.61,0,.79,.69,2,1.18,1.99,.44,0,.62-.28,.65-.75Z"/><path class="f" d="M69.88,74.72c-.72-.95-1.42-1.92-2.19-2.83-.46-.55-.2-.8,.22-1.16,.45-.38,.77-.44,1.15,.1,1.12,1.55,2.3,3.06,3.43,4.61,.25,.34,.82,.65,.32,1.21-.49,.54-1,.87-1.77,.5-1.08-.52-2.18-.99-3.28-1.46-.21-.09-.46-.09-.9-.16,.79,1.06,1.43,1.99,2.16,2.85,.5,.59,.33,.91-.2,1.35-.58,.48-.81,.15-1.13-.28-1.14-1.54-2.31-3.06-3.44-4.6-.22-.31-.83-.65-.31-1.09,.47-.4,.9-1.02,1.76-.59,1.3,.66,2.67,1.19,4.01,1.78l.18-.22Z"/><path class="f" d="M66.53,70.38c-4.26,3.85-9.28,6.16-14.87,7.25-5.23,1.02-10.43,.74-15.52-.82-4.12-1.26-7.91-3.17-11.18-6.03,.02-.24,.09-.45,.34-.55,.29,.21,.58,.41,.87,.63,3.23,2.48,6.81,4.29,10.72,5.42,7.26,2.09,14.35,1.51,21.29-1.39h.02c2.87-1.41,5.58-3.07,8.04-5.11l.29,.58Z"/><path class="f" d="M58.85,15.18c-.46-.4-.67-.89-.74-1.52-.15-1.41-.42-2.81-.68-4.48-.74,1.31-1.1,2.48-1.44,3.63-.23,.76-.73,.82-1.28,.67-.7-.2-.54-.72-.34-1.25,.68-1.75,1.31-3.51,2.01-5.25,.14-.34,.07-1.06,.71-.89,.59,.16,1.38,.18,1.47,1.14,.11,1.19,.33,2.37,.5,3.56,.05,.31,.03,.64,.35,.99,.46-1.19,.92-2.32,1.32-3.47,.21-.59,.5-.7,1.08-.47,.54,.22,.79,.44,.55,1.06-.76,1.93-1.54,3.85-2.19,5.82-.31,.94-.92,.24-1.34,.43l.03,.03Z"/><path class="f" d="M50.08,82.01c0-1.83,.61-3.02,2.09-3.58,1.33-.51,2.67-.58,3.83,.44,.33,.29,.93,.72,.53,1.15-.36,.4-1.11,.64-1.63,.18-.9-.79-1.74-.72-2.57,0-.69,.58-.7,2.1-.1,3.27,.44,.85,1.15,1.17,2.09,1.03,.51-.07,.87-.36,1.16-.76,.17-.24,.31-.54,.18-.78-.18-.33-.5-.09-.74,0-.58,.19-.85,.04-1.01-.6-.16-.65,.14-.72,.62-.86,2.37-.7,2.36-.71,2.95,1.61,.08,.31,.17,.62,.22,.93,.05,.37,.39,.8-.1,1.08-.34,.19-.74,.32-1.03-.18-.15-.26-.3-.02-.46,.09-2.7,2.03-5.32,1-5.93-2.35-.06-.31-.08-.63-.09-.66Z"/><path class="f" d="M79.4,52.82c-.36-.02-.53,0-.68-.05-.33-.12-1.06,.63-.98-.4,.05-.67-.12-1.56,1.05-1.43,.28,.03,.55,.05,.83,.08,.43,.04,.95,.17,1.14-.36,.21-.59,.53-1.29,.22-1.84-.31-.55-1.09-.37-1.65-.39-.92-.03-1.18-.38-.97-1.27,.12-.52,.33-.64,.81-.58,2.05,.28,4.1,.55,6.16,.79,.55,.06,.64,.32,.57,.8-.16,1.14-.24,2.3-.45,3.43-.31,1.73-2.07,2.51-3.43,1.41-.99-.8-1.94,.32-2.64-.19Zm2.96-2.51c-.02,.66-.04,1.29,.76,1.29,1.23,0,.93-1.02,1.1-1.73,.26-1.07-.56-.98-1.12-.97-1.12,.01-.38,1.04-.74,1.41Z"/><path class="f" d="M20.29,13.48c2.01,0,4.21,2.27,4.19,4.33-.01,1.93-1.76,3.68-3.67,3.69-1.93,0-4.19-2.32-4.22-4.35-.03-1.81,1.84-3.66,3.7-3.66Zm-.23,1.73c-1.04,.03-1.76,.74-1.75,1.71,.01,1.17,1.6,2.86,2.68,2.85,1.01-.01,1.84-.85,1.81-1.83-.04-1.24-1.57-2.76-2.74-2.72Z"/><path class="f" d="M79.08,29.57c-.5-.25-.77,.05-1.05,.52-.48,.81-1.52,1-2.07,1.77-.13,.18-.37,.05-.51-.11-.83-.95-.72-1.56,.45-2.24,.71-.41,1.27-.74,.78-1.75-.49-1.02-.98-1.33-1.91-.54-.3,.25-.65,.42-1.08,.44-.68,.03-.66-.57-.89-.91-.26-.38,.13-.53,.42-.68,1.78-.99,3.56-1.98,5.32-3,.54-.31,.83-.25,1.11,.32,.52,1.08,1.2,2.08,1.64,3.19,.63,1.6-.46,3.06-2.2,3Zm.72-2.12c.04-.86-1.07-2.53-1.37-2.38-.42,.2-.97,.38-1.06,.94-.07,.42,1.1,1.96,1.44,1.91,.45-.07,.98-.15,.99-.47Z"/><path class="f" d="M82.2,38.41c2.39,.02,3.73,1.37,3.72,3.72-.01,2.24-1.63,3.69-4.11,3.69-2.22,0-3.83-1.58-3.82-3.73,.01-2.34,1.58-3.7,4.22-3.67Zm-.1,5.52c.17-.04,.61-.1,1.02-.25,.88-.32,1.4-.96,1.29-1.91-.1-.89-.68-1.38-1.57-1.56-.45-.09-.87-.07-1.3,0-1.37,.24-2.05,.9-1.99,1.95,.07,1.11,.92,1.76,2.55,1.76Z"/><path class="f" d="M38.31,82.72c.06-1.08,.15-2.15,.16-3.23,.01-.76,.49-.67,.97-.66,.55,.01,.95,.15,.81,.83-.02,.12-.02,.24-.03,.36-.16,1.62,.6,2.24,2.18,1.84,.4-.1,.36-.37,.39-.63,.05-.48,.13-.96,.11-1.43-.02-.67,.35-.68,.85-.65,.51,.03,.96,0,.9,.75-.17,2.07-.3,4.14-.42,6.22-.03,.62-.36,.73-.87,.67-.48-.07-1-.1-.87-.82,.05-.27,.05-.56,.08-.84,.17-1.77,.17-1.72-1.55-1.88-.85-.08-1.16,.19-1.12,1.01,.02,.4-.06,.8-.06,1.2,0,.6,0,1.1-.89,1.02-.79-.07-1.01-.33-.86-1.13,.16-.86,.14-1.75,.2-2.63h.02Z"/><path class="f" d="M4.31,49.65c.01-1.04,.41-1.92,1.22-2.56,.33-.26,.84-.8,1.2-.29,.32,.47,.52,1.17-.13,1.72-.28,.23-.71,.33-.77,.82-.13,1.11,.44,1.86,1.58,2.01,.93,.12,1.84,.06,2.64-.5,1.04-.72,.98-1.97-.11-2.61-.26-.15-.68-.13-.75-.51-.07-.42-.28-.93,0-1.27,.28-.34,.74-.08,1.1,.05,1.25,.46,1.88,1.41,2.05,2.7,.17,1.28-.19,2.43-1.27,3.16-1.51,1.02-3.22,1.21-4.89,.47-1.32-.59-1.86-1.76-1.86-3.19Z"/><path class="f" d="M59.33,77.18c-.25-.78,.18-1.07,.8-1.36,.65-.31,1.05-.23,1.53,.31,1.35,1.51,2.78,2.97,4.16,4.46,.23,.25,.85,.53,.28,.91-.45,.31-1.01,1-1.64,.22-.4-.49-.73-.94-1.46-.46-.66,.43-1.78,.32-1.55,1.67,.14,.83-.81,.9-1.3,1.23-.29,.19-.31-.32-.35-.57,0-.04,0-.08,0-.12-.15-2.11-.31-4.21-.46-6.29Zm1.9,3.15c.5-.23,1.31-.23,1.21-.65-.15-.66-.75-1.19-1.47-1.62l.26,2.28Z"/><path class="f" d="M33.74,85.25c-2.01,0-3.47-1.42-3.48-3.43,0-1.24,.39-2.37,1.18-3.31,.89-1.06,2.03-1.49,3.42-1.08,1.31,.39,2.31,1.11,2.55,2.54,.06,.37,.33,1.02-.23,1.13-.54,.11-1.3-.05-1.44-.75-.19-.97-.77-1.41-1.65-1.39-.89,.02-1.42,.65-1.72,1.44-.22,.59-.43,1.2-.32,1.86,.21,1.29,1.44,1.82,2.48,1.03,.32-.24,.52-.51,1.02-.36,1.1,.33,1.2,.54,.41,1.39-.58,.63-1.31,.93-2.24,.93Z"/><path class="f" d="M29.1,12.14c0,.23-.12,.37-.3,.48-.21,.12-.42,.23-.62,.35-2.15,1.31-1.85,.74-.71,2.72,.35,.61,.69,.98-.24,1.44-.82,.41-1.03,0-1.35-.55-.95-1.62-1.9-3.23-2.89-4.83-.3-.49-.37-.84,.2-1.17,1.14-.66,2.28-1.31,3.38-2.04,.65-.43,.89-.11,1.2,.39,.33,.52,.15,.75-.34,.99-.64,.32-1.22,.76-1.86,1.08-.56,.28-.63,.54-.31,1.09,.33,.57,.62,.44,1.04,.15,.46-.32,.94-.6,1.42-.89,.62-.37,1.38,.06,1.39,.77Z"/><path class="f" d="M9.83,31.76c-.8-.68-1.38-1.16-1.94-1.67-.26-.24-.57-.5-.41-.92,.16-.44,.27-1.09,.6-1.25,.43-.2,.63,.47,.93,.76,.39,.4,.77,.81,1.1,1.26,.88,1.17,1.86,2.17,3.37,2.48,.84,.17,.76,.67,.54,1.35-.24,.76-.66,.71-1.17,.41-1.92-1.12-3.88-.4-5.83-.19-.41,.05-.95,.48-1.24-.14-.2-.42,.67-1.63,1.17-1.69,.82-.09,1.67-.01,2.88-.41Z"/><path class="f" d="M11.6,40.42c-1.48-.28-2.94-.49-4.37-.83-.85-.2-1.17,.03-1.21,.87-.03,.58,.06,1.25-.94,1.09-1.01-.16-.65-.77-.55-1.34,.24-1.37,.49-2.75,.7-4.12,.08-.53,.16-.92,.86-.81,.62,.09,.84,.37,.68,.96-.32,1.15,.28,1.56,1.31,1.71,1.26,.19,2.51,.48,3.77,.64,.74,.1,.67,.53,.59,1.02-.07,.49-.17,.99-.84,.81Z"/><path class="f" d="M26.92,82.54c-.79,.02-1.33-.82-.96-1.53,.89-1.74,1.79-3.47,2.67-5.22,.24-.49,.45-.83,1.06-.43,.47,.31,1.03,.42,.59,1.22-.97,1.79-1.86,3.62-2.79,5.43-.12,.24-.21,.54-.57,.52Z"/><path class="f" d="M8.16,43.15c1,0,2,.03,2.99,0,.73-.03,.85,.34,.85,.96,0,.63-.19,.99-.88,.97-1.99-.07-3.99-.14-5.98-.16-.82,0-.83-.47-.84-1.09-.02-.68,.31-.8,.88-.78,1,.03,1.99,0,2.99,0v.1Z"/><path class="f" d="M46.42,80.1c-.19-.71,.13-.91,.79-.97,.69-.05,.91,.22,.95,.86,.12,1.95,.25,3.91,.44,5.85,.07,.74-.28,.87-.88,.94-.7,.09-.89-.18-.92-.85-.09-1.95-.25-3.91-.39-5.85Z"/><path class="d" d="M71.89,63.24c.08,.24,.11,.51,.39,.64-1.06,1.96-2.53,3.58-4.21,5.01-.28,0-.55-.02-.83-.02,1.65-1.8,3.19-3.68,4.65-5.63Z"/><path class="d" d="M45.84,12.33c-.72,.84-1.55,.45-2.36,.22,.76-.39,1.56-.29,2.36-.22Z"/><path class="f" d="M67.24,68.86c.28,0,.55,.02,.83,.02-.35,.53-.83,.93-1.34,1.3-.01-.28-.02-.56-.03-.83l.54-.49Z"/><path class="d" d="M25.29,70.23c-.25,.1-.32,.31-.34,.55-.33-.1-.55-.33-.73-.61,.17-.14,.35-.28,.52-.42l.54,.48Z"/><path class="d" d="M66.69,69.35c.01,.28,.02,.56,.03,.83l-.2,.19c-.1-.2-.2-.39-.29-.58,.07-.23,.21-.39,.46-.44Z"/><path class="e" d="M66.69,69.35c-.25,.05-.39,.2-.46,.44-2.47,2.04-5.18,3.69-8.04,5.1-.21-.74,.83-1.44-.11-2.19,.7-.12,.93,.19,1.12,.62,.08,.18,.27,.34,.48,.23,.2-.11,.19-.33,.09-.52-.17-.35-.34-.71-.54-1.05-.19-.31-.54-.34-.65-.02-.43,1.31-1.08,.24-1.63,.19-.12-.1-.23-.28-.35-.28-1.95-.02-3.64-1.1-5.55-1.32-.8-.09-1.9-.05-2.2-1.07-.27-.89-.43-1.89-.31-2.8,.13-1,.13-1.83-.39-2.73-.47-.81-.05-1.75,.35-2.45,.28-.5,.92,.14,1.41,.19,.83,.07,1.46,.6,2.16,.98,1.41,.78,1.99,.72,3.07-.4,.88-.92,1.92-1.38,3.19-1.34,.43,.5,.93,.57,1.49,.23,.67-.41,1.82,.11,2.1-1.09,0-.03,.25-.05,.33,0,1.36,.81,1.81-.15,2.3-1.13,.22-.45,.65-1.07,1.15-.68,.83,.64,1.51,.96,2.33,.08,.07-.08,.31-.03,.46,0,.54,.1,.81-.25,1.2-.53,.87-.63,.84-1.81,1.7-2.38,.99-.65,1.14-1.65,.3-2.46-.34-.33-.53-.65-.66-1.09-.14-.5-.34-1.13-.93-1.1-.61,.04-1,.59-1.21,1.17-.09,.25-.08,.55-.1,.76-.47,.25-.83-.85-1.31-.01-.12,.22-.07,.9-.47,.45-.41-.46-1.28-.75-1.15-1.48,.16-.93,1.4-1.61,2.35-1.34,.85,.24,1.26-.02,1.26-.86,0-.89,.59-1.41,1.19-1.83,1.15-.81,1.5-1.54,1.05-2.83-.24-.69-.84-1.43-.72-2.04,.2-1.03-.53-1.81-.4-2.78,.06-.41-.34-.69-.74-.85-1.32-.54-1.39-.74-.62-2.02,.48-.8,.25-1.52-.39-2-.71-.53-.99-1.26-1.28-2.01-.16-.42-.22-.96-.77-.89-.61,.07-1.28,.13-1.68,.74-.18,.27-.13,.52,.11,.74,.33,.3,.38-.09,.52-.21,.56-.48,.91-.77,1.16,.33,.16,.7,.39,1.57,1.27,1.94,.66,.28,.58,.76,.1,1.21-.58,.54-.52,2.6,.14,2.64,1.34,.09,1.32,.87,1.56,1.81,.14,.53,.34,.89-.04,1.38-.2,.26-.21,.65,.16,.82,.89,.42,.63,1.37,.95,2.05,.12,.25,.22,1.23-.76,.62-.39-.24-.57,.13-.53,.5,.13,1.06-1.22,1.49-1.09,2.55,0,.02-.28,.14-.41,.1-1.1-.31-2.18,0-3.21,.26-.89,.23-1.02-.09-1.07-.83-.06-.84,0-1.72-.43-2.53-.49,.26-.04,.84-.48,1.05-.4-.25-.77-.54-1.18-.74-.31-.15-.77-.56-.97-.3-1.09,1.48-1.92,.02-2.14-.45-.62-1.37-1-.63-1.54,0-.14-.29,.02-.69-.48-.84-.15-.05-1.01-.42-.57-1.1,0-.04,0-.07,0-.1,0-.01-.01-.03-.02-.04l.04,.17c-1.29,0-.88-1.53-1.79-2.02-.29,.63,.05,1.15,.06,1.68,0,.27,.12,.57-.21,.73-.34,.17-.46-.23-.72-.3-.47-.12-.42-.67-.7-1-.6-.69-1.79-1.19-1.34-2.55-.68,1.27-1.53,.63-2.39,.36-.41-.13-.48-.33-.46-.68,.03-.49,.34-.45,.68-.36,.28,.07,.61,.1,.77-.16,.32-.53,.51-.33,1.03-.19,.67,.18,1.46-.14,1.95,.66,.04,.06,.3,0,.46-.02,.73-.05,1.57,.41,2.13-.52,.13-.22,.57-.01,.6,.15,.14,.79,1.68,.83,1.05,2.01-.03,.06,.14,.27,.25,.37,1.41,1.23,2.39-.41,3.6-.55,.17-.02,.32-.19,.47-.3,.02-.01,.02-.08,0-.11-.17-.95,.56-.83,1.11-.98,.86-.23,1.59,.21,2.36,.38,.83,.18,1.58-.1,2.09-.6,.47-.45-.11-.99-.45-1.41-.38-.46-.39-.91-.03-1.38,.72-.94,.72-1.7-.46-2.3-.29-.14-.46-.65-.81-.2-.38,.49,.24,.6,.44,.74,.63,.43,.82,.7,.17,1.36-.38,.38-.79,1.11-.07,1.75,.2,.18,.59,.5,.29,.8-.26,.26-.69,.43-1.06,.46-.49,.04-.31-.46-.4-.72-.15-.46-.45-.73-.91-.87-.37-.11-.67,.02-.79,.35-.49,1.28-1.83,1.33-2.8,1.85-.48,.26-.94,.27-.9,.94,.02,.26-.15,.47-.39,.52-.11,.02-.29-.12-.38-.23-.39-.51-.09-1.65,.48-1.96,.9-.5,1.82-1,2.31-1.97,.13-.25,.28-.42,.55-.32,.9,.33,1.42,0,2.01-.74,.58-.73,.89-1.24,.21-2.03-.19-.22-.02-.54,.13-.78,.22-.36,.15-.64-.1-.98-.55-.75-.24-1.59,.32-2,.73-.53,.8-1.04,.67-1.81-.07-.39,.07-.88-.41-1-.5-.13-1.05-.08-1.41,.39-.26,.34-.48,.71-.67,1.09-.11,.22,.07,.6-.38,.6-.08,0-.2-.02-.22-.07-.13-.29,.02-.52,.24-.7,.38-.32,.32-.6,.09-1.03-.25-.48-.54-.53-1.02-.58-.55-.05-.91,.38-1.49,.47,.05-.26,.04-.45,.12-.54,.4-.42,.87-.87,.29-1.41-.44-.4-.6-1.28-1.42-1.1-.73,.16-.67,.88-.8,1.46-.15,.69-.17,1.57-.61,2.02-1.02,1.06-2.41,1.57-4.03,1.93,.46-.88,.94-1.69,1.66-1.83,1.09-.22,1.73-.58,1.78-1.75,.01-.29,.69-.55,.17-.87-.56-.34-.58,.33-.8,.59-.12,.14-.21,.34-.24,.52-.13,.8-.45,.7-.95,.27-.55-.47-1.28-.63-1.84-1.16-.51-.49-1.18-.28-1.39,.46-.22,.8-.72,1.61-1.25,1.93-1.31,.8-2.83,1.37-4.44,.94-.48-.13-.97-.06-1.53-.42-.75-.48-1.53-1.04-2.34-1.61-.17,.52,.28,.9-.01,1.22-1.07-.34-2.24-.44-2.71-1.78-.21-.6-.46-.26-.58,.23-.19,.75-.63,.81-1.19,.27-.21-.21-.27-.58-.68-.64,.03,.61-.07,1.14-.83,.73-.81-.44-1.66-.08-2.19,.25-.76,.46-1.2,.42-1.86-.04-.28-.2-.8-.64-1.09,.14-.12,.32-.45,.16-.6,.01-.36-.36-.69-.8-.68-1.33,0-.45,.39-.2,.63-.24,.89-.17,1.65,.03,2.42,.54,.69,.46,1.58,.71,2.12-.17,.5-.83-.12-1.4-.8-1.83-.06-.04-.09-.13-.16-.23,.3-.1,.58-.28,.86-.29,1.71-.04,1.9-.19,2.26-1.88,.09-.41-.27-1.09,.55-1.05,.51,.02,1.35,.08,1.45,.35,.5,1.35,1.38,.87,2.24,.62,.34-.1,.63-.09,.9,.13,.64,.51,1.25,.43,1.84-.1,.19,.45,.06,1.09,.66,1.18,.5,.07,.74-.4,1.07-.73,1.36-1.35,3.01-1.75,4.91-1.43,.72,.12,.94,.36,.92,1.06-.02,.49,.44,.99,.83,.7,.88-.63,2.2-.14,2.81-1.32,.8,1.01,.88,2.48,2.38,2.83,0-1.07-.9-1.64-1.28-2.47-.46-1.01-1.09-1.11-2.06-.5-.59,.37-1.59,.63-2.05-.16-.56-.96-1.77-.54-2.32-1.38-.08-.12-.38-.01-.53,.15-.21,.24-.43,.35-.69,.06-.41-.45-.8-.14-1,.16-.47,.71-1.37,.78-1.9,1.4-.18,.21-.61,.46-.88-.05-.11-.21-.29-.44-.56-.3-.91,.47-1.77,.28-2.66-.08-.46-.19-1.11,.49-1.35,.12-.63-.98-1.63-.68-2.45-.91-.91-.26-1.52,.1-1.63,1.17-.18,1.84-.86,2.2-2.6,1.41-.66-.3-1.21,0-1.63,.36-.43,.39,.14,.75,.27,1.13,.26,.77,.76,.94,1.47,.85,.21-.03,.54-.02,.53,.32,0,.35-.29,.47-.59,.43-.23-.03-.52-.1-.66-.26-.84-.96-2.03-.98-2.97-.64-1.14,.4-2.11,1.29-3.15,1.98-.05,.03-.04,.15-.07,.23-.54,1.65-.44,3.05,1.84,3.66-.52,.15-.7,.22-.89,.26-.19,.04-.4,.04-.59,.09-1.06,.26-1.44,.01-1.44-1.09,0-.49-.18-.87-.45-1.2-.5-.59-1.56-.53-1.65-.15-.19,.79-.69,1.53-.62,2.35,.12,1.45,.96,2.78,.67,4.3-.05,.25,.59,.52,.05,.75-.46,.2-.78-.16-.87-.55-.14-.59-.38-.92-1.04-.88-.5,.03-.81,.29-1.01,.71-.27,.57-.04,1,.42,1.35,.45,.34,.68,.9,.15,1.14-.7,.32-.63,.7-.45,1.22,.12,.33-.04,.55-.31,.68-.6,.28-.66,.81-.55,1.32,.23,1.09-.74,2.17-.02,3.26,.03,.04-.08,.25-.13,.25-1.24,.02-.91,1.15-1.19,1.79-.32,.71,.15,1.48,.34,2.19,.15,.57,.83,.5,1.35,.5,.15,0,.43,.02,.34,.19-.32,.64,.36,1.13,.14,1.83-.4,1.29,.29,2.27,1.59,2.62,.5,.13,.38,.53,.48,.85,.2,.65,.5,1.22,1.31,1.11,1.17-.15,1.86,.3,2.14,1.46,.17,.7,.64,1.35,1.36,1.34,.99-.02,2.06-.13,2.94-.54,1.11-.51,2.5-.67,3.19-1.95,.08-.14,.42-.5,.8-.35,.13,.08,.31,.13,.37,.25,.92,1.7,2.45,2.08,4.22,2.09,.79,0,1.55,.27,2.27,.64,.83,.43,1.19,1,.87,1.94-.17,.49-.45,1.07-.31,1.5,.56,1.71-.14,3.4,.04,5.09,.06,.56-.06,1.11-.24,1.64-.12,.36-.36,.64-.68,.49-.85-.39-1.34,.13-1.91,.57-.46,.36-.94,.47-1.56,.26-.89-.3-1.71-.12-2.36,.78,.34,.08,.6,.2,.86,.19,5.24-.17,10.45,.69,15.69,.36,.51-.03,1.04,.05,1.54,.15,.95,.19,1.89,.27,2.85,.2-.03,.2-.1,.36-.3,.44-.48-.07-.99,.03-.95,.58,.04,.49-.04,1.18,.64,1.41,.64,.22,.75-.4,1.05-.71,.31,.25,.99-.16,1.05,.57-6.94,2.9-14.03,3.47-21.29,1.39-3.91-1.13-7.49-2.94-10.72-5.42-.28-.22-.58-.42-.87-.63l-.54-.48c-3.74-3.29-6.48-7.31-8.63-11.76-1.21-2.51-1.77-5.23-2.15-7.98-1.13-8.2,.5-15.8,4.98-22.75,.94-1.47,2.13-2.78,3.2-4.17,1.63-2.1,3.69-3.73,5.89-5.05,6.19-3.7,12.9-5.89,20.19-4.88,5.49,.77,10.79,2.27,15.39,5.73,7.3,5.49,11.79,12.63,13.12,21.65,1.17,7.9-.41,15.31-4.58,22.15-.1,.17-.18,.35-.28,.53-1.46,1.95-3.01,3.83-4.65,5.63l-.54,.49ZM47.87,14.25c-.01-.05-.04-.09-.1-.09-1-.71-1.29-.61-1.44,.51-.41,.19-.55-.3-.86-.36,.08-.19,.84-.21,.2-.54-.33-.17-.89-.21-1.13,.33-.12,.27-.32,.45-.51,.22-.59-.71-1.22-.42-1.93-.26-.43,.1-.9,.9-1.39,.08-.3,.36-.57,.82-1.1,.29-.15,.17-.1,.36-.09,.56,0,.29,.21,.64-.21,.83-.4-.18-.34-.59-.44-.91-.06-.2-.15-.41-.38-.3-.2,.1-.11,.35-.09,.54l-.22,.22c-.22-.06-.45-.1-.67-.18-.38-.13-.76-.3-1.04,.13-.3,.47-.16,.93,.19,1.31,.54,.59,1.05,.37,1.52-.13l.72-.09c1.24,.13,2.28-1.02,3.57-.55,.72,.26,1.5-.59,1.79-.4,1.06,.71,2.13,.21,3.17,.32,.4-.03,.58-.25,.55-.64,.02-.23,.04-.47,.06-.71l.09-.17-.15,.04,.1,.15-.14-.16-.06-.04Zm-.83,61.01c.88,.12,.07,1.29,.9,1.48,.22-.58-.23-1.34,.55-1.69,.53,.14,.45,.59,.47,.96,.03,.62,.32,.74,.92,.72,1.04-.04,.4-.62,.42-1.01,.06-1.23-.46-1.44-1.46-.88-.1,.05-.23,.04-.35,.06-.52-.14-1.03-.29-1.45,.22-1.03-.27-1.35,.11-1.41,1.89,.51-.78,1.07-.18,1.58-.17,.18-.61-.58-1.03-.17-1.59Zm-13.44-1.78c-.12-.44,.49-1.38-.73-1.07-.17-.82-.99-.8-1.48-.83-.36-.02-.85,.61-.83,1.22,0,.23,.12,.58,.41,.37,.57-.41,.77,1.04,1.35,.23-.05,1.1,.75,.51,1.21,.61,.07,.82,.59,.95,1.26,.79,.12-.03,.25-.21,.29-.35,.05-.18-.08-.3-.27-.27-.32,.06-.65,.19-.72-.29-.03-.21,.08-.4,.28-.48,.39-.16,.51,.3,.8,.38,.41,.11,.27,.4,.27,.66,0,.95,.5,1.37,1.37,1.03,.54-.2,1.07,.66,1.53-.09,.07,.09,.15,.17,.22,.26q.36,.48,.71-.17c.32,.17,.08,1.12,.5,.74,.41-.38,.98-.26,1.26-.7,.51,.33,.33,1.19,1.16,1.35,.57,.11,1.1-1.18,1.62,0,.06-.05,.15-.09,.17-.15,.15-.42,.31-.69,.67-.14,.18,.28,.42,.03,.44-.08,.05-.42,.12-.88,0-1.28-.11-.39-.6-.45-.92-.35-1.03,.34-2.12-.48-3.11,.21-.53-.94-.91-.94-1.83,.04,.17-1.09-.6-1.25-1.26-1.09-.48,.12-.63-.09-.88-.29-.41-.31-.82-.52-1.24-.01-.22,.06-.31,0-.43-.23-.58-1.06-1.11-1.05-1.83-.02ZM54.06,16.19c.07-.88-.28-1.24-1.06-1.07-.33,.07-.51-.14-.69-.35-.3-.36-.66-.26-.96-.07-.43,.27-.2,.78-.31,1.17-.09,.33,.21,.55,.52,.69,1.07,.49,2.38,.02,3.36,.86,.04,.04,.33-.1,.38-.21,.21-.5,.48-1.12,.18-1.54-.27-.38-.66,.19-1,.34-.07,.03-.14,.06-.43,.18Zm-2.6,58.12c-.31,.11-1.03,0-.84,.55,.18,.53-.16,1.54,.87,1.57,.62,.02,1.06-.35,1.04-1.05-.01-.66-.33-1.04-1.07-1.07ZM35.48,15.33c-.41,.07-1.16,.15-1.06,.55,.13,.58,.33,1.25,.83,1.7,.03,.03,.14-.03,.21-.04-.32-.62,.92-.88,.36-1.52-.2-.23,.47-.78-.34-.7Zm18.97,58.18c-.22,.21-.58,.39-.47,.63,.21,.47,.53,.91,.88,1.28,.15,.15,.36-.13,.3-.33-.18-.52-.14-1.16-.71-1.59Zm-3.78-58.6c-.07-.27,.15-.72-.42-.64-.33,.05-.78,.29-.53,.56,.37,.41-.11,1.26,.49,1.26,.53,0,.37-.75,.46-1.18Z"/><path class="e" d="M43.1,6.65c.25,.66,.44,1.09,.58,1.53,.08,.27,.35,.65-.07,.82-.27,.11-.66,.11-.92,0-.42-.19-.11-.55-.04-.82,.1-.42,.25-.83,.46-1.52Z"/><path class="e" d="M71.96,20.88l2.15-.9c-.45,.78-.55,1.58-1.23,1.84-.35,.13-.57-.53-.93-.94Z"/><path class="e" d="M68.18,21.82c-.05-.1-.12-.19-.14-.29,0-.02,.14-.08,.21-.12,.04,.1,.1,.19,.11,.29,0,.03-.11,.07-.18,.12Z"/><path class="e" d="M80.15,35.18c.04,.68-.19,1.03-.79,1.06-.58,.03-1.42-1.24-1.38-2.11,.04-.78,.84-.7,1.16-.67,1.07,.11,.59,1.25,1.01,1.72Z"/><path class="e" d="M82.88,34.36c-.04,.46-.21,.74-.65,.75-.5,0-1.19-1.2-1.18-1.99,0-.6,.6-.66,.82-.61,.98,.24,.67,1.26,1.02,1.85Z"/><path class="d" d="M56.38,73.04c.19-.08,.27-.25,.3-.44,.09-.15,.18-.3,.27-.46,.55,.06,1.2,1.12,1.63-.19,.1-.32,.46-.3,.65,.02,.2,.34,.37,.69,.54,1.05,.09,.19,.11,.41-.09,.52-.21,.11-.41-.05-.48-.23-.19-.43-.41-.74-1.12-.62,.94,.75-.1,1.45,.11,2.19h-.02c-.06-.72-.74-.31-1.05-.56-.04-.55-.57-.81-.74-1.29Z"/><path class="e" d="M82.36,50.31c.37-.37-.38-1.4,.74-1.41,.56,0,1.38-.1,1.12,.97-.17,.72,.12,1.74-1.1,1.73-.8,0-.78-.63-.76-1.29Z"/><path class="e" d="M20.06,15.21c1.17-.03,2.7,1.48,2.74,2.72,.03,.98-.8,1.82-1.81,1.83-1.08,.01-2.66-1.67-2.68-2.85-.01-.98,.71-1.68,1.75-1.71Z"/><path class="e" d="M79.8,27.45c-.01,.32-.53,.39-.99,.47-.34,.05-1.51-1.48-1.44-1.91,.09-.56,.64-.74,1.06-.94,.3-.15,1.4,1.52,1.37,2.38Z"/><path class="e" d="M82.1,43.93c-1.63,0-2.48-.66-2.55-1.76-.07-1.05,.61-1.71,1.99-1.95,.43-.07,.86-.09,1.3,0,.89,.17,1.47,.67,1.57,1.56,.1,.95-.41,1.59-1.29,1.91-.41,.15-.84,.21-1.02,.25Z"/><path class="e" d="M61.23,80.33l-.26-2.28c.72,.44,1.32,.97,1.47,1.62,.1,.42-.71,.42-1.21,.65Z"/><path class="d" d="M35.02,56.45c-.38-.14-.72,.21-.8,.35-.7,1.27-2.08,1.43-3.19,1.95-.88,.41-1.95,.52-2.94,.54-.72,.01-1.19-.63-1.36-1.34-.28-1.16-.97-1.62-2.14-1.46-.81,.11-1.11-.47-1.31-1.11-.1-.32,.02-.71-.48-.85-1.3-.34-1.98-1.32-1.59-2.62,.22-.7-.46-1.19-.14-1.83,.09-.17-.19-.19-.34-.19-.52,0-1.2,.07-1.35-.5-.18-.71-.65-1.48-.34-2.19,.28-.63-.05-1.77,1.19-1.79,.05,0,.16-.21,.13-.25-.73-1.09,.25-2.17,.02-3.26-.11-.51-.04-1.04,.55-1.32,.28-.13,.43-.35,.31-.68-.18-.52-.25-.9,.45-1.22,.53-.25,.31-.8-.15-1.14-.46-.35-.69-.78-.42-1.35,.2-.42,.51-.68,1.01-.71,.66-.04,.9,.28,1.04,.88,.09,.39,.41,.75,.87,.55,.55-.23-.1-.5-.05-.75,.3-1.52-.54-2.86-.67-4.3-.07-.82,.43-1.56,.62-2.35,.09-.38,1.16-.44,1.65,.15,.27,.32,.45,.7,.45,1.2,0,1.1,.38,1.35,1.44,1.09,.19-.05,.4-.05,.59-.09,.19-.04,.37-.11,.89-.26-2.28-.61-2.37-2.01-1.84-3.66,.02-.08,.02-.19,.07-.23,1.04-.69,2.01-1.58,3.15-1.98,.94-.33,2.13-.32,2.97,.64,.14,.16,.43,.23,.66,.26,.3,.04,.58-.08,.59-.43,0-.34-.32-.34-.53-.32-.72,.09-1.21-.09-1.47-.85-.13-.39-.71-.75-.27-1.13,.41-.37,.96-.66,1.63-.36,1.74,.78,2.42,.42,2.6-1.41,.1-1.08,.72-1.43,1.63-1.17,.82,.23,1.82-.07,2.45,.91,.24,.37,.89-.3,1.35-.12,.89,.36,1.75,.55,2.66,.08,.28-.14,.45,.09,.56,.3,.27,.51,.71,.26,.88,.05,.53-.62,1.43-.69,1.9-1.4,.2-.3,.59-.61,1-.16,.27,.29,.48,.17,.69-.06,.15-.16,.45-.27,.53-.15,.55,.84,1.76,.42,2.32,1.38,.45,.79,1.45,.53,2.05,.16,.97-.61,1.6-.51,2.06,.5,.38,.83,1.28,1.4,1.28,2.47-1.51-.35-1.58-1.82-2.38-2.83-.61,1.18-1.93,.69-2.81,1.32-.39,.28-.85-.21-.83-.7,.02-.7-.2-.93-.92-1.06-1.9-.32-3.55,.07-4.91,1.43-.33,.33-.58,.8-1.07,.73-.6-.08-.47-.72-.66-1.18-.59,.53-1.2,.61-1.84,.1-.27-.22-.57-.23-.9-.13-.85,.25-1.73,.74-2.24-.62-.1-.26-.94-.32-1.45-.35-.82-.04-.47,.64-.55,1.05-.36,1.69-.55,1.84-2.26,1.88-.29,0-.57,.18-.86,.29,.07,.1,.1,.19,.16,.23,.68,.43,1.31,1,.8,1.83-.53,.88-1.43,.63-2.12,.17-.76-.51-1.52-.71-2.42-.54-.24,.05-.63-.21-.63,.24,0,.53,.32,.96,.68,1.33,.15,.15,.48,.3,.6-.01,.29-.78,.81-.34,1.09-.14,.65,.46,1.1,.5,1.86,.04,.53-.32,1.38-.68,2.19-.25,.76,.41,.87-.11,.83-.73,.41,.06,.46,.43,.68,.64,.55,.54,1,.48,1.19-.27,.12-.48,.37-.82,.58-.23,.47,1.34,1.64,1.44,2.71,1.78,.29-.32-.16-.7,.01-1.22,.81,.57,1.59,1.13,2.34,1.61,.56,.36,1.05,.29,1.53,.42,1.6,.44,3.13-.13,4.44-.94,.53-.32,1.03-1.14,1.25-1.93,.21-.75,.88-.95,1.39-.46,.56,.54,1.29,.69,1.84,1.16,.5,.43,.82,.53,.95-.27,.03-.18,.13-.38,.24-.52,.22-.26,.24-.94,.8-.59,.52,.32-.16,.58-.17,.87-.04,1.17-.69,1.54-1.78,1.75-.72,.14-1.2,.94-1.66,1.83,1.62-.36,3.01-.87,4.03-1.93,.44-.45,.46-1.32,.61-2.02,.13-.58,.07-1.3,.8-1.46,.82-.18,.98,.7,1.42,1.1,.58,.54,.11,.99-.29,1.41-.09,.09-.07,.28-.12,.54,.58-.09,.94-.53,1.49-.47,.48,.05,.77,.1,1.02,.58,.22,.43,.28,.71-.09,1.03-.22,.18-.36,.4-.24,.7,.02,.05,.14,.07,.22,.07,.45,0,.27-.38,.38-.6,.19-.38,.42-.75,.67-1.09,.36-.47,.91-.52,1.41-.39,.48,.12,.34,.61,.41,1,.13,.77,.06,1.28-.67,1.81-.57,.41-.87,1.25-.32,2,.25,.34,.32,.62,.1,.98-.15,.24-.32,.56-.13,.78,.68,.78,.37,1.3-.21,2.03-.59,.74-1.12,1.07-2.01,.74-.27-.1-.42,.07-.55,.32-.5,.97-1.41,1.47-2.31,1.97-.56,.31-.86,1.45-.48,1.96,.09,.11,.27,.25,.38,.23,.24-.05,.4-.25,.39-.52-.04-.67,.43-.68,.9-.94,.97-.52,2.31-.57,2.8-1.85,.13-.33,.43-.46,.79-.35,.46,.13,.76,.4,.91,.87,.09,.27-.09,.77,.4,.72,.37-.03,.8-.2,1.06-.46,.3-.3-.09-.62-.29-.8-.72-.63-.31-1.36,.07-1.75,.65-.66,.46-.94-.17-1.36-.2-.14-.82-.25-.44-.74,.35-.45,.53,.06,.81,.2,1.18,.59,1.18,1.35,.46,2.3-.36,.47-.35,.91,.03,1.38,.34,.41,.92,.96,.45,1.41-.51,.49-1.27,.77-2.09,.6-.78-.17-1.51-.61-2.36-.38-.56,.15-1.28,.03-1.11,.98,0,.04,.01,.1,0,.11-.15,.11-.3,.28-.47,.3-1.21,.14-2.19,1.78-3.6,.55-.11-.1-.28-.31-.25-.37,.64-1.18-.91-1.23-1.05-2.01-.03-.16-.47-.37-.6-.15-.55,.93-1.39,.47-2.13,.52-.16,.01-.42,.08-.46,.02-.49-.8-1.29-.48-1.95-.66-.52-.14-.71-.34-1.03,.19-.16,.26-.49,.23-.77,.16-.34-.09-.65-.13-.68,.36-.02,.35,.05,.55,.46,.68,.86,.27,1.7,.91,2.39-.36-.46,1.36,.74,1.85,1.34,2.55,.28,.32,.22,.87,.7,1,.26,.07,.38,.47,.72,.3,.33-.16,.21-.46,.21-.73-.01-.53-.35-1.06-.06-1.68,.91,.48,.5,2.02,1.79,2.02l-.02-.02c-.45,.68,.41,1.05,.56,1.1,.5,.15,.34,.54,.48,.84,.54-.64,.92-1.38,1.54,0,.21,.47,1.05,1.93,2.14,.45,.2-.27,.66,.14,.97,.3,.41,.2,.79,.49,1.18,.74,.44-.21,0-.78,.48-1.05,.43,.81,.37,1.69,.43,2.53,.05,.74,.18,1.06,1.07,.83,1.03-.27,2.1-.57,3.21-.26,.12,.03,.41-.08,.41-.1-.13-1.06,1.21-1.49,1.09-2.55-.04-.37,.14-.74,.53-.5,.99,.61,.88-.37,.76-.62-.32-.68-.06-1.63-.95-2.05-.37-.17-.36-.57-.16-.82,.37-.49,.18-.84,.04-1.38-.24-.94-.23-1.72-1.56-1.81-.66-.04-.72-2.1-.14-2.64,.48-.45,.56-.93-.1-1.21-.88-.38-1.11-1.24-1.27-1.94-.25-1.1-.6-.81-1.16-.33-.14,.12-.2,.51-.52,.21-.24-.22-.29-.47-.11-.74,.39-.61,1.07-.67,1.68-.74,.55-.07,.61,.47,.77,.89,.28,.75,.57,1.48,1.28,2.01,.64,.48,.87,1.2,.39,2-.77,1.27-.71,1.47,.62,2.02,.4,.16,.79,.44,.74,.85-.14,.96,.6,1.75,.4,2.78-.12,.61,.48,1.34,.72,2.04,.44,1.29,.09,2.02-1.05,2.83-.59,.42-1.18,.94-1.19,1.83,0,.84-.41,1.1-1.26,.86-.95-.27-2.19,.41-2.35,1.34-.12,.73,.74,1.02,1.15,1.48,.4,.45,.35-.23,.47-.45,.48-.84,.84,.26,1.31,.01,.03-.21,0-.5,.1-.76,.21-.58,.61-1.13,1.21-1.17,.59-.04,.8,.6,.93,1.1,.12,.44,.32,.76,.66,1.09,.84,.81,.69,1.81-.3,2.46-.87,.57-.84,1.76-1.7,2.38-.4,.29-.66,.63-1.2,.53-.15-.03-.39-.08-.46,0-.82,.89-1.5,.56-2.33-.08-.5-.38-.93,.24-1.15,.68-.49,.98-.95,1.94-2.3,1.13-.09-.05-.33-.03-.33,0-.28,1.19-1.43,.68-2.1,1.09-.56,.34-1.06,.27-1.49-.23-.04-.42-.29-.97-.65-.75-.63,.39-.85-.07-1.19-.31-.3-.21-.57-.43-.96-.34-.51-.33-.51-.96-.82-1.57-.32,.55-.04,1.1-.45,1.46-.42,.37-.85,.92-1.41,.67-.68-.31-1.77-.15-1.83-1.36-.02-.43-.27-1.06-.67-.99-.79,.14-1.25-.42-1.87-.6l-.23-.67c-.07-.58,.24-1.26-.44-1.68-.07-.18-.25-.41-.2-.55,.35-.95-.22-1.23-.9-1.73-.58-.42-1.41,.2-1.71-.59-.23-.61-.79-.91-1.15-1.45-.05,.7-.49,1.09-.98,1.39,.22,.35,.64,.02,.82,.39-1.28,0-1.31,1.08-1.66,1.87-.61,.29-1.01,1.18-1.79,.91-.86-.3-1.58-.03-2.35,.19-.83,.5-1.48-.14-2.21-.33,.17-.41,.48-.6,.91-.66,.31-.05,.92,.3,.83-.45-.06-.47-.13-1-.81-.98-.72,.02-.87-.38-.82-1,.04-.44,.07-.89,0-1.31-.07-.36,.44-1.17-.48-.98-.77,.16-2.05-.23-1.96,1.27,.03,.43,.28,.92-.26,1.15-.44,.19-.69-.26-1-.5-.99-.77-2.43-.12-3.38-1.04-.02-.02-.21,.1-.28,.19-.49,.67-1.07,.56-1.69,.21-.21-.12-.45-.27-.66-.08-1.28,1.11-2.49,1.41-3.6-.21-.06-.08-.28-.07-.43-.05-.04,0-.12,.23-.08,.29,.41,.62-.16,2.16,1.49,1.61,.06-.02,.16,.04,.21,.09,1.42,1.28,3.41,1.92,4.33,3.76,.25,.5,.61,.49,.98,.39,.48-.12,.17-.52,.17-.79,0-.34-.25-.8,.12-.98,.4-.2,.68,.16,.94,.5,.22,.29,.55,.6,1.02,.35,.37-.2,.45-.53,.36-.92-.05-.21-.04-.39,.17-.45,.52,.06,.19,1.04,.65,.78,.81-.46,.41,.86,1.1,.59,.44-.17,.9,.81,1.52,.21l-.02,.57Zm-7.17-15.17l.1,.05-.1-.05-.1-.05,.09,.06Zm1.4,1.21c.08-.24,.48-.47,.02-.74-.19-.11-.36-.41-.57-.26-.25,.17-.04,.5-.09,.75-.52-.09-.78,.68-1.35,.41-.54-.87-1.13-.91-1.57-.09-.22,.41-.32,.94-.83,1.1-.59,.19-.78,.6-.85,1.15-.03,.23-.42,.56,.02,.65,.31,.06,.91,.02,.91-.46,0-1.32,1.07-1.63,1.9-2.18l.29,.52c-1.29,.53-1.47,1.76-1.87,2.95,.79-.08,1.63,.69,2.06,.46,1.29-.67,2.29,.28,3.33,.49,.68,.13,.61,.04,.77-.37,.08-.21,.19-.45,.61-.42,.21,.31-.05,1.3,.88,.9,.68-.3,1.08,.28,1.62,.4,.23,.05,.26-.26,.26-.45,.05-1.01,.57-1.59,1.53-1.89,.67-.21,.86-.94,.82-1.46-.05-.61-.72-.16-1.1-.27-.66-.2-1.24-.02-1.79,.4-.53,.41-1.04,.28-1.47-.21-.9-1.02-2.14-.72-3.27-.85l-.28-.52Zm-.96-4.95c.39,.11,.75,.72,1.2,.09,.13-.19,.16-.08,.31,.03,.76,.6,1.6,.55,2.31-.03,.8-.66,1.24-.54,1.38,.53,.53-.19,.67-1,1.17-.77,.43,.2,.32,.84,.36,1.29,.06,.7,.05,1.41,1.12,1.2,.42-.08,.42,.37,.54,.66,.14,.34-.09,.76,.26,1.12,.18-.87-.2-1.69,.17-2.79,.29,.86,.79,1.36,1.02,1.85,.49,1.08,1.25,1.08,2.11,.93,.49-.09,.89-.11,1.38,.03,.99,.29,2.1,.76,2.6-.78,.07-.2,.42-.34,.67-.44,.39-.16,.61-.46,.53-.83-.18-.83,.23-1.25,.94-1.48-.34-.89-1.4-1.08-1.68-1.82-.31-.8-1.4-.59-1.53-1.45-.72,.37-1.53-.17-2.11,.02-.73,.24-1.16,.34-1.63-.29-.11-.15-.28-.3-.51-.15-1.51,.99-2.13-.29-2.64-1.22-.61-1.12-1.82-1.01-2.66-1.62-.4-.29-.67,.38-1,.61-.39,.27-.71,.05-.99-.13-.91-.57-1.63-.66-2.53,.2-1.27,1.2-2.96,.83-3.74-.55-.11-.2,.12-.84-.48-.59-.37,.16-.72,.31-.66,.95,.08,.9,1.07,1.47,.78,2.46-.02,.06,.19,.34,.34,.15,.65-.82,.56-.05,.54,.27-.05,.97,.36,1.76,.86,2.52,.12,.19,.22,.44,.54,.37,.3-.07,.34-.28,.36-.53,.02-.2-.12-.5,.26-.55,.24,.15,.2,.41,.24,.64-.37,.35-.31,.7-.08,1.14,.42-.35,.21-.72,.25-1.05Zm27.06,17.32l.53,3.75,.33-.04c-.44-1.2-.3-2.4-.21-3.69,.57,.75,.97,1.84,1.65,2.06,1.07,.35,.92,.98,.99,1.7,.05,.53,.16,1.06,.24,1.59,.21-1.49-.38-2.94-.1-4.63,.52,.71,.24,1.44,.59,1.95,.84,1.23,2.37,1.39,3.52,2.15,.17,.11,.4,.07,.45-.2,.22-1.08,1.22-1.58,1.78-2.4,.61-.9,.93-.58,1.16,.2,.21,.7,.47,1.03,1.14,.43,.14-.13,.35-.27,.52-.26,1.46,.1,1.82-1,2.22-2.02,.16-.41,.29-.72,.78-.76,.3-.03,.53-.2,.51-.55-.02-.38-.22-.6-.6-.59-.6,0-.7-.38-.73-.87-.02-.27,.19-.66-.32-.81-.35,.26-.17,.65-.18,.96-.01,.32-.13,.64-.4,.65-.6,.01-1.01,.31-1.47,.63-.36,.24-.95,.24-1.22-.13-.82-1.09-2.33-.73-3.21-1.64-.05-.06-.23-.01-.34,0-1.66,.32-1.84,.22-1.8-1.36,.02-.76-.19-.97-.87-.64-.63,.3-1.06,.23-1.7-.23-.61-.44-1.82-.94-2.34-.28-.4,.5-.95,1.01-1.23,1.66-.48,1.07-1.73,1.19-2.41,.21-.29-.42-.6-.64-1.08-.56-.67,.12-.92-.28-1.14-.8-.54-1.31-1.42-1.75-2.82-1.3-.33,.11-.91-.05-.99,.45-.06,.42,.21,.9,.57,1.09,.77,.42,.98,1.09,1.3,1.84,.25,.59,.8,1.74,1.55,1.34,1.54-.83,1.31,.47,1.45,1.07,.23,1.02,.22,2.09,.33,3.14,.03,.24-.35,.73,.29,.65,.39-.05,.47-.38,.35-.74-.26-.79-.05-1.52,.16-2.26,.9,.23,.6,1.1,.98,1.56,.71-.27,.6-.81,.52-1.41-.05,.23-.07,.62-.17,.54-.57-.43-.43-1.04-.35-1.63,.63,0,.89,1.47,1.77,.19Zm3.72-28.85c-.11,.51-.2,.86-.25,1.21-.21,1.52-.88,3.04-2.28,3.38-1.71,.42-3.34,1.58-5.25,1.03-.09-.03-.25,.03-.32,.1-1.35,1.41-2.74,.9-4.13,.08-.26-.16-.45-.12-.62,.06-.2,.22,.04,.34,.16,.47,.52,.55,.97,1.28,1.81,1.27,.86-.01,1.27,.58,1.75,1.07,.12,.13,.12,.36,.38,.29,.2-.05,.48-.19,.43-.33-.52-1.25,.96-1.16,1.06-2.2,.2,.4,.27,.47,.27,.54,.03,.63,.29,1.05,.96,1.12,.79,.09,.24-.6,.48-.81,.25-.23,.55-.39,.86-.61,.11,.62,.22,1.2,.32,1.78,.06,.36,.23,.59,.62,.57,.46-.01,.29-.38,.34-.62,.06-.3-.16-.66,.16-.93,.31,.28,.07,.69,.27,1,.12-.25,.39-.77,.41-.6,.06,.93,1.04,.61,1.24,1.24,.38-.38,.28-.75,.28-1.1,0-.28-.3-.72,.25-.71,.31,0,.72,.15,.74,.64,.01,.28,.08,.56,.07,.83-.02,.66,.14,1.3,.82,1.4,.84,.12,.4-.85,.73-1.2,.47,.17,.9,.29,.87,.87-.03,.72,.55,.79,1.04,.91,.56,.14,.71-.32,.96-.69,.57-.88,.04-1.85-.15-2.52-.4-1.35,.08-2.23,.74-3.18,.17-.25,.54-.38,.32-.78-.11-.2-.3-.37-.46-.22-.23,.21-.67,.27-.56,.78,.23,1.04-.61,.88-1.13,.84-.87-.08-1.09-.97-.51-1.94,.13-.22,.31-.4,.05-.59-.2-.15-.41-.15-.6,.12-.18,.26-.41,.49-.65,.69-.52,.43-1.03,.18-1.11-.33-.07-.49-.39-1.09,.04-1.56,.51-.56,.19-.88-.42-1.37Zm-19.35,17.87c-.76,.08-1.32,.14-.83,1.07,.2,.39,.3,1.02,.12,1.39-.47,.96,.22,1.83,.56,2.27,.41,.54,.74,.91,.43,1.46-.34,.61-.92,.69-1.66,.53-.58-.13-1.12-.56-1.77-.39,.4,.52,1.07,.55,1.58,.85,.31,.19,.49,.85,.92,.06,.21-.38,.37,0,.55,.23,.35,.41,.52,1.24,1.28,.96,.64-.24,.61-.89,.6-1.53,0-.66,.17-1.44,.7-1.8,.32-.22,1,.09,1.37-.42,.68,.61,1.13,.24,1.64-.3,.36-.37,.82-.3,1.29,.04,.44,.32,2.34-.21,2.46-.67,.28-1.08,.93-2.22-.3-3.18-.34-.27-.47-.57-.68,.12-.14,.46-.75,1.02-1.07,.17-.4-1.07-.9-1.1-1.79-.66-.37,.18-.88,.2-1.29,.11-1.4-.29-2.87,.6-4.11-.31Zm11.91,6.12c.57,.55,1.28,.77,1.74,1.34,.24,.3,.64,.32,.83-.17,.56-1.38,1.49-2.34,3.02-2.72-2.07-.27-3.86,.4-5.59,1.55Zm.79-19.71c-.05-.49-.05-1.05-.48-1.32-.49-.31-.38,.55-.73,.52-1.21-.07-1.87,1.54-3.22,1.03-.19-.07-.42-.05-.47,.21-.03,.19-.05,.43,.04,.57,.27,.42,2.43,.46,2.68,.02,.33-.57,.69-.66,1.28-.4,.58,.25,.9-.02,.89-.64Zm-10.14,4.22c-.15-1.66-1.44-2.11-2.08-3.03-.03-.04-.17-.04-.22,0-.54,.43-1.25,.69-1.51,1.43-.09,.27,0,.61,.18,.6,.75-.05,1.18,1.09,2,.54,.6-.41,1.03-.17,1.64,.47Zm7.66,3.26c-.8-.12-1.12,.21-1.27,.79-.04,.16-.29,.39,.04,.46,.47,.1,.96,.36,1.29-.37,.21-.45,.79-.4,1.16-.11,.55,.44,.98,.03,1.45-.1,.13-.03,.28-.18,.31-.3,.07-.26-.2-.26-.35-.37-.93-.76-1.88,.55-2.64,0Zm10.98,11.73c1.31,.11,1.4,.73,1.04,1.61-.1,.26-.07,.85,.32,.6,.7-.44,1.3,0,1.93-.05,.25-.02,.8,.42,.71-.34-.05-.41-.12-.8-.71-.68-.93,.19-1.51-.2-1.84-1.08-.25-.65-.7-.67-1.44-.05Zm-22.96-15.91c-.29-.89-.67-1.41-1.34-1.96-.75-.61-1.96-.48-2.35-1.56-.1-.28-.28-.03-.33,.03-.09,.11-.4,.16-.15,.43,.36,.37,.63,.82,1.19,.95,.63,.15,1.21,.53,1.49,1.06,.32,.61,.83,.75,1.49,1.05Zm1.21,16.27c-.21-.46-.69-.73-.57-1.27,.16-.73-.44-1.08-.91-1.14-.55-.07-.61,.56-.76,1.02-.23,.72,.24,1.03,.73,1.07,.51,.04,.93,.42,1.52,.32Zm-18.94-3.71c-.02,.65-.22,.98,.73,1.02,.85,.03,1.93,.05,2.67,.95,.12-.55-.04-.97,.11-1.17-1.18-.23-2.4,.15-3.52-.8Zm30.27-.03c-.46,.39-.92,.74-.76,1.46,.08,.38,.05,.94,.55,.86,.79-.13,.93-.88,1.01-1.55,.07-.53-.47-.55-.8-.77Zm-2.27-8.49c-1.28-.14-1.06,1.48-2.19,1.55l1.41,.83,.77-2.38Zm-25.92-.93c.13,.5,.22,.84,.31,1.18,.09,.33-.15,.72,.18,1.05,.37,.02,.53-.54,.99-.4,.18,.05,.54,.41,.62-.14,.06-.38-.1-.64-.5-.64-.68,0-1.04-.48-1.61-1.05Zm7.92,5.23c.51,.46,1,.73,1.65,.57,.6-.15,1.09-.05,1.33,.62,.08,.21,.22,.5,.5,.26,.24-.21,0-.41-.13-.6-.35-.52-2.48-1.26-3.11-1.07-.07,.02-.12,.1-.24,.22Zm8.14,3.81c.05-.35-.25-.58-.46-.86-.12-.16-.22-.05-.27,.02-.37,.55-.73,1.09-1.06,1.66-.08,.13-.12,.39,.14,.5,.41,.16,1.64-.77,1.65-1.32Zm-15.43,3.99c.41,1.05,1.14,1.21,2.04,.98,.21-.05,.34-.21,.31-.43-.02-.16-.14-.35-.31-.27-.7,.31-1.26-.33-2.04-.27Zm11.96-7.02c.94,.38,2.03-.11,2.88,.53,.25,.19,.41,.36,.7,.12,.21-.18,.27-.4,.14-.64-.16-.28-.46-.64-.74-.45-.93,.66-1.92,.59-2.97,.43Zm7.3,.19c-.44,.23-.6-.49-1.05-.63-.62-.19-.91,.37-1.36,.71,.49,.06,.81,.67,1.29,.43,.43-.21,.76-.63,1.11-.51Zm3.78,.16c.51-.96,.81-1.58,.27-2.24-.15-.18-.37-.1-.52,.04-.74,.73,.09,1.24,.25,2.2Zm-1.72-11.7c-2,1.56-2.07,1.8-.8,2.41-.38-.93,.47-1.43,.8-2.41Zm6.78,13.11c-.76,.37-1.17-.82-1.93-.4,1.04,1.59,1.08,1.6,1.93,.4Zm5.22-5.78c.39,.63,1.06,.33,1.42,.77,.23,.28,.4-.06,.53-.23,.2-.27,.33-.56,.05-.85-.17-.18-.38-.14-.51,.04-.39,.51-.93,.28-1.49,.27Zm-27.73-10.45c.26-.01,.68,.41,.76-.09,.09-.6-.5-.29-.78-.38-.32-.1-.74-.07-.69,.35,.07,.59,.48-.04,.71,.11Zm-.86,21.86c-.76-.81-.95-.87-1.77-.56,.55,.37,1.06,.66,1.77,.56Zm3.11,.05c-.6-.07-.99-.71-1.62-.73,.43,.51,.85,1.03,1.62,.73Zm4.34-1.44c.38,0,.86,.23,1.04-.22,.17-.44-.17-.75-.79-1.15,.35,.71-.2,.93-.25,1.37Zm21.12-12.27h.08v-1.13h-.08v1.13Zm-.92,8.74c-.12,.44-.18,.74,0,1.04,.22-.29,.12-.58,0-1.04Z"/><path class="f" d="M55.52,59.53c.39-.09,.67,.13,.96,.34,.34,.24,.56,.7,1.19,.31,.35-.22,.61,.33,.65,.75-1.26-.03-2.31,.42-3.19,1.34-1.07,1.12-1.66,1.17-3.07,.4-.69-.38-1.33-.91-2.16-.98-.49-.04-1.12-.69-1.41-.19-.4,.71-.82,1.64-.35,2.45,.52,.9,.52,1.73,.39,2.73-.12,.91,.05,1.91,.31,2.8,.3,1.02,1.4,.98,2.2,1.07,1.91,.22,3.6,1.3,5.55,1.32,.12,0,.23,.18,.35,.28-.09,.15-.18,.31-.27,.46-.96,.07-1.91-.01-2.85-.2-.51-.1-1.03-.18-1.54-.15-5.24,.34-10.45-.53-15.69-.36-.26,0-.52-.11-.86-.19,.65-.91,1.47-1.08,2.36-.78,.62,.21,1.09,.1,1.56-.26,.57-.44,1.07-.96,1.91-.57,.32,.15,.56-.13,.68-.49,.18-.54,.3-1.08,.24-1.64-.18-1.69,.52-3.38-.04-5.09-.14-.42,.15-1.01,.31-1.5,.32-.94-.04-1.51-.87-1.94-.72-.37-1.48-.64-2.27-.64-1.77,0-3.3-.39-4.22-2.09-.06-.12-.25-.17-.37-.25,0-.19,.01-.38,.02-.57,.16-.36,.16-.82,.64-.98,.72,.18,1.38,.83,2.21,.33-.02,.19-.05,.39-.07,.58-.05,.43-.18,.94,.27,1.19,.5,.28,.9-.03,1.2-.45,.36-.51,.81-.49,1.21-.1,.48,.47,1.14,.53,1.67,.89,.3,.21,.65-.02,.56-.31-.27-.96,.08-2.07-.69-2.89,.35-.79,.38-1.86,1.66-1.87-.18-.37-.6-.04-.82-.39,.49-.3,.93-.69,.98-1.39,.37,.54,.92,.84,1.15,1.45,.3,.78,1.13,.17,1.71,.59,.68,.49,1.24,.78,.9,1.73-.05,.14,.13,.36,.2,.55,.19,.58-.55,.45-.66,.93,.48,.05,.55,.71,1.1,.75,.08,.22,.15,.44,.23,.67-.26,.71-.6,1.42,.44,1.86,1.35,.57,2.75,1.03,3.99,1.84,.38,.25,1.17,.59,1.31-.1,.17-.85,.75-.95,1.31-1.21Zm-8.44,.31l-.65,.02c.03-.69-.5-1.18-.66-1.82-.31-1.28-.35-1.27-1.31-.44-.6-.66-.81,.26-1.23,.34-.16,.03,0,.33,.17,.45,.49,.36,.67-.15,.97-.34,.71,.16,1.36,.35,.39,1.19,.69-.07,1.1,.48,1.68,.6-.03,.46-.06,.92-.08,1.37-.03,.66,.47,.51,.67,.3,.44-.44,.6-1.02,.43-1.66,.5-.31,1.08,.21,1.57-.13-.65,.06-1.38-1.17-1.96,.11Zm-2.67,1.12h0c-.34-.39,.82-.33,.23-.74-.17-.11-.27-.57-.65-.25-.43,.35-.97,2.65-.7,3.39,.29-.87,1.21-1,1.56-1.83,.33-.77-.19-.46-.43-.55Zm-.93,6.24c-.87,1.41,.48,4.41-3.1,3.63,1.18,.62,2.21,.65,2.5-.01,.48-1.1,1.05-2.25,.6-3.62Zm.45,4.24c.93-.64,1.61,.59,2.36-.2-.25-.59-.62-1.02-1.33-.9,.05-.61,.62-1.21-.26-1.75,.15,1.03-.27,1.79-.77,2.86Zm2.52-15.22c.38,.77,.29,1.62,.43,2.42,.93-.55,.78-1.55-.43-2.42Zm.86,9.36l-.4-1.63c-.13,.54-.61,1.15,.4,1.63Z"/><path class="f" d="M47.41,15.78c-1.04-.11-2.11,.39-3.17-.32-.29-.2-1.07,.66-1.79,.4-1.29-.47-2.33,.68-3.57,.55-.27-.38-.12-.92-.49-1.26-.03-.19-.12-.44,.09-.54,.23-.12,.32,.1,.38,.3,.1,.32,.04,.73,.44,.91,.42-.19,.22-.54,.21-.83,0-.2-.06-.39,.09-.56,.53,.53,.8,.08,1.1-.29,.49,.82,.97,.02,1.39-.08,.71-.16,1.34-.45,1.93,.26,.19,.23,.39,.05,.51-.22,.24-.54,.8-.5,1.13-.33,.63,.33-.12,.36-.2,.54,.31,.05,.45,.55,.86,.36,0,.22,.07,.47,.29,.42,.63-.14,.71,.26,.79,.7Z"/><path class="f" d="M37.11,73.73c.26,.2,.4,.41,.88,.29,.66-.16,1.43,0,1.26,1.09,.92-.97,1.29-.97,1.83-.04l-.03,.45c-.28,.44-.85,.32-1.26,.7-.42,.39-.18-.57-.5-.74q-.34,.65-.71,.17c-.07-.09-.15-.17-.22-.26-.45,.74-.99-.12-1.53,.09-.88,.33-1.37-.09-1.37-1.03,0-.26,.14-.56-.27-.66-.29-.07-.41-.54-.8-.38-.2,.08-.31,.27-.28,.48,.07,.49,.4,.36,.72,.29,.18-.04,.32,.09,.27,.27-.04,.14-.17,.32-.29,.35-.67,.16-1.19,.02-1.26-.79,.02-.18,.05-.35,.07-.53,.73-1.04,1.25-1.04,1.83,.02,.12,.22,.21,.29,.43,.23l.29,.33c-.11,.28-.32,.56-.05,.85,.15,.17,.33,.16,.52,.05,.37-.23,.36-.55,.21-.9l.28-.31Z"/><path class="f" d="M54.06,16.19c.28-.12,.36-.15,.43-.18,.34-.15,.72-.72,1-.34,.3,.41,.03,1.04-.18,1.54-.05,.11-.34,.25-.38,.21-.98-.84-2.3-.36-3.36-.86-.32-.15-.62-.36-.52-.69,.11-.39-.12-.9,.31-1.17,.3-.19,.66-.29,.96,.07,.18,.22,.36,.42,.69,.35,.79-.17,1.14,.19,1.06,1.07Z"/><path class="d" d="M41.05,75.53l.03-.45c.99-.69,2.08,.13,3.11-.21,.32-.1,.81-.04,.92,.35,.11,.4,.05,.85,0,1.28-.01,.11-.26,.36-.44,.08-.36-.55-.52-.28-.67,.14-.02,.06-.11,.1-.17,.15-.52-1.17-1.05,.11-1.62,0-.83-.16-.65-1.01-1.16-1.35Z"/><path class="d" d="M33.6,73.48c-.02,.18-.05,.35-.07,.53-.45-.1-1.26,.49-1.21-.61-.58,.81-.78-.63-1.35-.23-.29,.21-.4-.15-.41-.37-.02-.61,.47-1.24,.83-1.22,.49,.03,1.31,.01,1.48,.83,1.22-.31,.61,.63,.73,1.07Z"/><path class="d" d="M51.46,74.31c.74,.03,1.06,.41,1.07,1.07,.01,.7-.42,1.06-1.04,1.05-1.03-.03-.69-1.03-.87-1.57-.19-.56,.53-.44,.84-.55Z"/><path class="d" d="M48.49,74.9c.12-.02,.25,0,.35-.06,1-.56,1.53-.35,1.46,.88-.02,.39,.62,.97-.42,1.01-.61,.02-.89-.1-.92-.72-.02-.38,.06-.82-.47-.96-.02-.05-.02-.1,0-.14Z"/><path class="f" d="M38.17,16.5c-.47,.5-.97,.72-1.52,.13-.35-.37-.49-.83-.19-1.31,.28-.44,.67-.27,1.04-.13,.22,.08,.45,.12,.67,.18,0,.38,0,.75,0,1.13Z"/><path class="f" d="M35.48,15.33c.81-.08,.14,.47,.34,.7,.56,.63-.69,.9-.36,1.52-.07,.02-.18,.07-.21,.04-.5-.45-.7-1.13-.83-1.7-.09-.41,.66-.48,1.06-.55Z"/><path class="f" d="M56.38,73.04c.17,.47,.7,.74,.74,1.29-.3,.31-.41,.93-1.05,.71-.68-.24-.6-.92-.64-1.41-.05-.55,.46-.65,.95-.58Z"/><path class="d" d="M47.04,75.26c-.41,.56,.34,.97,.17,1.59-.51-.01-1.07-.61-1.58,.17,.06-1.78,.37-2.17,1.41-1.89,.03,.04,.04,.09,0,.14Z"/><path class="d" d="M47.41,15.78c-.08-.44-.16-.84-.79-.7-.23,.05-.3-.2-.29-.42,.15-1.12,.44-1.22,1.44-.51-.03,.06-.06,.12-.1,.18l.2-.08,.05,.04c-.17,.29-.27,.58,.05,.85,.03,.4-.15,.62-.55,.64Z"/><path class="d" d="M54.45,73.51c.57,.43,.53,1.06,.71,1.59,.07,.19-.15,.48-.3,.33-.36-.37-.67-.81-.88-1.28-.11-.25,.25-.42,.47-.63Z"/><path class="d" d="M50.66,14.91c-.09,.43,.07,1.18-.46,1.18-.59,0-.12-.84-.49-1.26-.25-.27,.2-.51,.53-.56,.57-.08,.35,.37,.42,.64Z"/><path class="f" d="M47.04,75.26s.03-.09,0-.14c.42-.51,.94-.36,1.45-.22-.02,.05-.02,.1,0,.14-.78,.35-.32,1.11-.55,1.69-.82-.19-.02-1.36-.9-1.48Z"/><path class="d" d="M38.17,16.5c0-.38,0-.75,0-1.13l.22-.22c.37,.34,.22,.88,.49,1.26-.24,.03-.48,.06-.72,.09Z"/><path class="f" d="M35.86,73.72c.42-.51,.83-.3,1.24,.01l-.28,.31h-.68l-.29-.33Z"/><path class="f" d="M47.97,15.14c-.32-.26-.21-.55-.05-.85,.05,.05,.1,.11,.15,.16l-.03-.02-.06,.7Z"/><path class="f" d="M48.06,14.45l-.1-.15,.15-.04c-.03,.06-.06,.12-.09,.17l.04,.02Z"/><path class="f" d="M47.87,14.25l-.2,.08c.03-.06,.07-.12,.1-.18,.05,0,.09,.04,.1,.09Z"/><path class="d" d="M56.24,43.99l-.04-.17s.02,.03,.02,.04c0,.03,0,.07,0,.1l.02,.02Z"/><path class="e" d="M28.13,37.45c-.04-.23,0-.48-.24-.64-.38,.05-.25,.35-.26,.55-.02,.26-.06,.47-.36,.53-.32,.07-.41-.19-.54-.37-.5-.77-.91-1.56-.86-2.52,.02-.33,.11-1.09-.54-.27-.15,.19-.36-.09-.34-.15,.29-.99-.7-1.56-.78-2.46-.06-.64,.29-.79,.66-.95,.61-.26,.37,.39,.48,.59,.78,1.38,2.46,1.74,3.74,.55,.91-.85,1.63-.77,2.53-.2,.29,.18,.6,.39,.99,.13,.33-.23,.6-.9,1-.61,.84,.61,2.05,.5,2.66,1.62,.51,.93,1.12,2.21,2.64,1.22,.22-.15,.4,0,.51,.15,.47,.63,.9,.53,1.63,.29,.57-.19,1.38,.35,2.11-.02,.12,.86,1.22,.65,1.53,1.45,.28,.73,1.34,.93,1.68,1.82-.71,.22-1.12,.65-.94,1.48,.08,.37-.14,.67-.53,.83-.25,.1-.6,.24-.67,.44-.5,1.54-1.61,1.07-2.6,.78-.49-.14-.9-.11-1.38-.03-.86,.15-1.62,.15-2.11-.93-.23-.5-.73-.99-1.02-1.85-.37,1.1,.01,1.92-.17,2.79-.35-.36-.12-.78-.26-1.12-.11-.28-.11-.74-.54-.66-1.08,.21-1.06-.5-1.12-1.2-.04-.46,.07-1.1-.36-1.29-.5-.23-.64,.58-1.17,.77-.15-1.07-.58-1.18-1.38-.53-.71,.58-1.55,.63-2.31,.03-.15-.11-.17-.22-.31-.03-.45,.63-.8,.02-1.19-.09-.03-.07-.09-.1-.16-.09Z"/><path class="e" d="M55.35,54.86c-.87,1.28-1.14-.18-1.77-.19-.07,.59-.22,1.2,.35,1.63,.1,.08,.12-.31,.17-.54,.09,.59,.19,1.14-.52,1.41-.39-.46-.08-1.33-.98-1.56-.21,.75-.43,1.47-.16,2.26,.12,.36,.03,.69-.35,.74-.64,.08-.26-.41-.29-.65-.11-1.05-.1-2.12-.33-3.14-.13-.6,.1-1.89-1.45-1.07-.75,.4-1.3-.75-1.55-1.34-.32-.75-.53-1.42-1.3-1.84-.36-.2-.63-.67-.57-1.09,.07-.5,.66-.34,.99-.45,1.4-.45,2.28,0,2.82,1.3,.21,.52,.47,.92,1.14,.8,.48-.09,.79,.14,1.08,.56,.68,.98,1.94,.86,2.41-.21,.29-.65,.83-1.16,1.23-1.66,.53-.66,1.73-.16,2.34,.28,.64,.46,1.07,.54,1.7,.23,.68-.33,.88-.13,.87,.64-.04,1.59,.14,1.69,1.8,1.36,.11-.02,.28-.06,.34,0,.88,.91,2.39,.55,3.21,1.64,.28,.37,.86,.37,1.22,.13,.46-.31,.87-.61,1.47-.63,.27,0,.39-.33,.4-.65,.01-.32-.17-.7,.18-.96,.5,.16,.3,.54,.32,.81,.03,.49,.13,.87,.73,.87,.38,0,.58,.22,.6,.59,.02,.35-.2,.52-.51,.55-.49,.04-.62,.35-.78,.76-.39,1.02-.76,2.12-2.22,2.02-.17-.01-.38,.14-.52,.26-.67,.59-.94,.26-1.14-.43-.23-.78-.55-1.1-1.16-.2-.56,.82-1.56,1.32-1.78,2.4-.06,.27-.28,.31-.45,.2-1.15-.76-2.68-.92-3.52-2.15-.35-.5-.07-1.24-.59-1.95-.27,1.69,.31,3.14,.1,4.63-.08-.53-.19-1.06-.24-1.59-.07-.72,.08-1.35-.99-1.7-.68-.22-1.08-1.31-1.65-2.06-.09,1.29-.23,2.5,.21,3.69l-.33,.04-.53-3.75Z"/><path class="e" d="M59.07,26.01c.6,.49,.93,.81,.42,1.37-.43,.48-.12,1.07-.04,1.56,.08,.51,.59,.76,1.11,.33,.24-.2,.47-.43,.65-.69,.18-.27,.4-.26,.6-.12,.26,.19,.08,.37-.05,.59-.59,.97-.36,1.87,.51,1.94,.52,.05,1.35,.2,1.13-.84-.11-.51,.34-.57,.56-.78,.16-.15,.35,.02,.46,.22,.22,.41-.14,.53-.32,.78-.66,.95-1.14,1.83-.74,3.18,.2,.67,.73,1.64,.15,2.52-.24,.37-.39,.83-.96,.69-.49-.12-1.07-.19-1.04-.91,.02-.58-.41-.7-.87-.87-.33,.35,.11,1.33-.73,1.2-.68-.1-.85-.74-.82-1.4,.01-.28-.06-.56-.07-.83-.02-.49-.43-.63-.74-.64-.56-.01-.25,.43-.25,.71,0,.35,.1,.72-.28,1.1-.19-.63-1.18-.31-1.24-1.24-.01-.17-.28,.35-.41,.6-.2-.31,.04-.72-.27-1-.32,.27-.09,.62-.16,.93-.05,.24,.12,.6-.34,.62-.39,.01-.56-.21-.62-.57-.1-.58-.21-1.16-.32-1.78-.31,.22-.61,.38-.86,.61-.23,.21,.31,.91-.48,.81-.67-.08-.93-.5-.96-1.12,0-.07-.07-.14-.27-.54-.1,1.04-1.58,.95-1.06,2.2,.06,.14-.23,.28-.43,.33-.27,.07-.26-.17-.38-.29-.48-.5-.89-1.09-1.75-1.07-.84,.01-1.29-.72-1.81-1.27-.12-.13-.36-.25-.16-.47,.17-.19,.36-.22,.62-.06,1.38,.81,2.78,1.33,4.13-.08,.07-.07,.23-.13,.32-.1,1.91,.55,3.54-.61,5.25-1.03,1.4-.34,2.07-1.87,2.28-3.38,.05-.35,.14-.69,.25-1.21Z"/><path class="e" d="M35.67,54.91c-.48,.15-.47,.62-.64,.98-.62,.6-1.08-.38-1.52-.21-.69,.27-.29-1.05-1.1-.59-.46,.26-.13-.72-.65-.78-.22,.06-.22,.25-.17,.45,.09,.39,.02,.71-.36,.92-.46,.25-.79-.06-1.02-.35-.26-.34-.53-.7-.94-.5-.37,.18-.12,.64-.12,.98,0,.28,.31,.67-.17,.79-.37,.09-.73,.1-.98-.39-.91-1.84-2.91-2.47-4.33-3.76-.06-.05-.16-.11-.21-.09-1.66,.55-1.09-.99-1.49-1.61-.04-.06,.04-.28,.08-.29,.14-.02,.37-.03,.43,.05,1.12,1.62,2.33,1.32,3.6,.21,.22-.19,.45-.03,.66,.08,.62,.35,1.2,.46,1.69-.21,.07-.09,.26-.21,.28-.19,.95,.92,2.39,.27,3.38,1.04,.3,.24,.55,.69,1,.5,.53-.23,.28-.72,.26-1.15-.09-1.51,1.19-1.11,1.96-1.27,.92-.19,.41,.62,.48,.98,.08,.42,.04,.88,0,1.31-.05,.62,.1,1.02,.82,1,.68-.02,.75,.51,.81,.98,.09,.75-.51,.4-.83,.45-.44,.07-.75,.25-.91,.66Z"/><path class="e" d="M39.72,43.87c1.24,.9,2.71,.02,4.11,.31,.41,.09,.93,.07,1.29-.11,.89-.44,1.39-.4,1.79,.66,.32,.85,.92,.29,1.07-.17,.22-.69,.34-.39,.68-.12,1.23,.97,.58,2.11,.3,3.18-.12,.46-2.01,.98-2.46,.67-.47-.34-.94-.41-1.29-.04-.51,.54-.96,.91-1.64,.3-.37,.51-1.05,.2-1.37,.42-.53,.36-.7,1.14-.7,1.8,0,.63,.04,1.29-.6,1.53-.76,.28-.93-.55-1.28-.96-.19-.22-.35-.61-.55-.23-.43,.79-.61,.13-.92-.06-.51-.31-1.18-.33-1.58-.85,.65-.17,1.18,.26,1.77,.39,.74,.17,1.31,.08,1.66-.53,.31-.56-.02-.92-.43-1.46-.34-.45-1.04-1.31-.56-2.27,.18-.36,.09-1-.12-1.39-.49-.93,.07-.99,.83-1.07Z"/><path class="e" d="M29.53,43.01c1.13,.13,2.37-.16,3.27,.85,.44,.49,.94,.62,1.47,.21,.55-.42,1.13-.61,1.79-.4,.38,.12,1.06-.33,1.1,.27,.04,.53-.16,1.25-.82,1.46-.95,.3-1.48,.88-1.53,1.89,0,.19-.03,.5-.26,.45-.54-.11-.94-.7-1.62-.4-.93,.4-.67-.59-.88-.9-.43-.03-.53,.21-.61,.42-.16,.42-.09,.51-.77,.37-1.04-.2-2.03-1.16-3.33-.49-.43,.22-1.27-.54-2.06-.46,.4-1.19,.58-2.42,1.87-2.95,.31,.02,.62,.04,.93,.06,.39,.16,.76,.16,1.08-.16l.38-.24Z"/><path class="e" d="M42.02,54.14c.78,.83,.43,1.94,.69,2.89,.08,.29-.26,.52-.56,.31-.52-.36-1.19-.42-1.67-.89-.4-.39-.85-.41-1.21,.1-.3,.43-.7,.73-1.2,.45-.45-.25-.32-.76-.27-1.19,.02-.19,.05-.39,.07-.58,.77-.22,1.49-.49,2.35-.19,.79,.28,1.18-.62,1.79-.91Z"/><path class="e" d="M55.52,59.53c-.56,.27-1.14,.36-1.31,1.21-.14,.69-.92,.35-1.31,.1-1.24-.82-2.64-1.27-3.99-1.84-1.03-.44-.7-1.14-.44-1.86,.62,.18,1.07,.74,1.87,.6,.4-.07,.65,.56,.67,.99,.06,1.21,1.16,1.05,1.83,1.36,.56,.25,.99-.3,1.41-.67,.41-.36,.13-.91,.45-1.46,.31,.6,.32,1.24,.82,1.57Z"/><path class="e" d="M51.63,49.99c1.73-1.14,3.52-1.81,5.59-1.55-1.52,.37-2.46,1.33-3.02,2.72-.2,.49-.59,.47-.83,.17-.46-.57-1.17-.79-1.74-1.34Z"/><path class="e" d="M52.42,30.28c.02,.62-.3,.89-.89,.64-.59-.25-.94-.17-1.28,.4-.26,.44-2.41,.4-2.68-.02-.09-.14-.07-.39-.04-.57,.05-.26,.28-.28,.47-.21,1.35,.51,2-1.11,3.22-1.03,.34,.02,.23-.83,.73-.52,.43,.27,.43,.82,.48,1.32Z"/><path class="e" d="M42.28,34.5c-.61-.65-1.03-.88-1.64-.47-.82,.56-1.25-.59-2-.54-.18,.01-.27-.33-.18-.6,.26-.74,.96-1,1.51-1.43,.05-.04,.19-.03,.22,0,.65,.92,1.93,1.37,2.08,3.03Z"/><path class="e" d="M49.94,37.76c.76,.56,1.71-.75,2.64,0,.14,.12,.41,.11,.35,.37-.03,.12-.19,.27-.31,.3-.47,.12-.9,.53-1.45,.1-.37-.3-.95-.34-1.16,.11-.33,.72-.82,.47-1.29,.37-.33-.07-.08-.3-.04-.46,.15-.57,.47-.91,1.27-.79Z"/><path class="e" d="M60.92,49.49c.74-.62,1.2-.6,1.44,.05,.33,.89,.91,1.27,1.84,1.08,.59-.12,.66,.27,.71,.68,.09,.76-.46,.32-.71,.34-.63,.05-1.23-.38-1.93,.05-.39,.24-.42-.35-.32-.6,.36-.88,.27-1.5-1.04-1.61Z"/><path class="e" d="M37.96,33.57c-.67-.3-1.17-.44-1.49-1.05-.28-.54-.86-.92-1.49-1.06-.56-.13-.83-.58-1.19-.95-.25-.26,.05-.32,.15-.43,.05-.06,.23-.31,.33-.03,.4,1.07,1.61,.94,2.35,1.56,.67,.55,1.05,1.08,1.34,1.96Z"/><path class="e" d="M39.17,49.84c-.59,.1-1.01-.28-1.52-.32-.49-.04-.96-.35-.73-1.07,.15-.46,.21-1.09,.76-1.02,.48,.06,1.07,.41,.91,1.14-.12,.54,.36,.82,.57,1.27Z"/><path class="e" d="M26.84,42.83c-.83,.55-1.89,.87-1.9,2.18,0,.47-.6,.52-.91,.46-.44-.09-.05-.42-.02-.65,.06-.55,.26-.96,.85-1.15,.5-.16,.6-.69,.83-1.1,.45-.82,1.03-.78,1.57,.09-.18-.04-.32,0-.41,.17Z"/><path class="e" d="M20.23,46.13c1.12,.94,2.34,.57,3.52,.8-.15,.2,0,.62-.11,1.17-.75-.9-1.83-.92-2.67-.95-.95-.04-.75-.37-.73-1.02Z"/><path class="e" d="M50.5,46.1c.33,.23,.87,.24,.8,.77-.08,.67-.23,1.42-1.01,1.55-.5,.08-.46-.48-.55-.86-.16-.72,.31-1.07,.76-1.46Z"/><path class="e" d="M48.23,37.61l-.77,2.38-1.41-.83c1.12-.07,.9-1.69,2.19-1.55Z"/><path class="e" d="M22.31,36.67c.56,.57,.93,1.05,1.61,1.05,.4,0,.56,.25,.5,.64-.08,.55-.44,.2-.62,.14-.46-.14-.62,.43-.99,.4-.33-.33-.09-.71-.18-1.05-.09-.34-.18-.68-.31-1.18Z"/><path class="e" d="M30.22,41.9c.13-.12,.18-.2,.24-.22,.63-.19,2.76,.55,3.11,1.07,.13,.19,.37,.4,.13,.6-.28,.24-.42-.05-.5-.26-.24-.67-.73-.77-1.33-.62-.65,.16-1.14-.11-1.65-.57Z"/><path class="e" d="M38.37,45.71c-.01,.55-1.24,1.48-1.65,1.32-.26-.1-.22-.36-.14-.5,.33-.57,.69-1.12,1.06-1.66,.05-.07,.15-.18,.27-.02,.21,.28,.51,.51,.46,.86Z"/><path class="e" d="M22.94,49.7c.78-.05,1.34,.59,2.04,.27,.16-.07,.29,.12,.31,.27,.03,.22-.1,.38-.31,.43-.9,.23-1.63,.07-2.04-.98Z"/><path class="e" d="M34.9,42.68c1.04,.16,2.04,.22,2.97-.43,.28-.2,.58,.17,.74,.45,.14,.23,.07,.46-.14,.64-.28,.24-.44,.07-.7-.12-.85-.64-1.94-.15-2.88-.53Z"/><path class="e" d="M42.2,42.88c-.36-.12-.68,.3-1.11,.51-.47,.23-.79-.38-1.29-.43,.45-.33,.74-.9,1.36-.71,.45,.14,.61,.86,1.05,.63Z"/><path class="e" d="M45.98,43.04c-.16-.95-.98-1.46-.25-2.2,.15-.15,.37-.22,.52-.04,.54,.66,.24,1.28-.27,2.24Z"/><path class="e" d="M44.26,31.34c-.33,.98-1.18,1.48-.8,2.41-1.27-.6-1.2-.84,.8-2.41Z"/><path class="f" d="M26.84,42.83c.09-.17,.24-.21,.41-.17,.57,.26,.83-.5,1.35-.41,.18,.16,.38,.29,.64,.25,.09,.17,.19,.34,.28,.52l-.38,.25c-.38-.1-.83-.68-1.08,.16-.31-.02-.62-.04-.93-.06-.1-.17-.2-.34-.29-.52Z"/><path class="e" d="M51.04,44.45c-.86,1.21-.89,1.2-1.93-.39,.76-.43,1.18,.77,1.93,.39Z"/><path class="e" d="M56.26,38.67c.56,0,1.1,.24,1.49-.27,.13-.17,.34-.21,.51-.04,.28,.29,.14,.58-.05,.85-.13,.18-.3,.51-.53,.23-.36-.44-1.04-.15-1.42-.77Z"/><path class="e" d="M28.53,28.22c-.23-.15-.64,.48-.71-.11-.05-.43,.36-.46,.69-.35,.28,.09,.87-.22,.78,.38-.07,.5-.49,.08-.76,.09Z"/><path class="e" d="M48.24,56.47c-.55-.04-.61-.7-1.1-.75,.1-.48,.84-.35,.66-.93,.69,.42,.37,1.1,.44,1.68Z"/><path class="e" d="M27.67,50.08c-.71,.1-1.22-.2-1.77-.56,.83-.31,1.01-.24,1.77,.56Z"/><path class="e" d="M30.78,50.13c-.77,.3-1.19-.22-1.62-.73,.62,.02,1.01,.66,1.62,.73Z"/><path class="e" d="M35.12,48.7c.05-.44,.6-.66,.25-1.37,.62,.4,.96,.71,.79,1.15-.18,.45-.66,.22-1.04,.22Z"/><path class="e" d="M29.25,42.49c-.26,.04-.46-.09-.64-.25,.05-.26-.16-.59,.09-.75,.21-.14,.38,.15,.57,.26,.46,.27,.06,.49-.02,.74Z"/><path class="f" d="M28.13,37.45c.07,0,.13,.03,.16,.09-.04,.33,.17,.7-.25,1.05-.22-.44-.28-.79,.08-1.14Z"/><path class="e" d="M56.24,36.43v-1.13h.08v1.13h-.08Z"/><path class="e" d="M55.31,45.18c.12,.45,.23,.74,0,1.04-.18-.3-.13-.6,0-1.04Z"/><path class="f" d="M27.85,41.28l-.09-.06,.1,.05h0Z"/><path class="f" d="M27.85,41.28l.1,.05-.1-.05h0Z"/><path class="d" d="M44.4,60.96c.24,.1,.76-.21,.43,.55-.35,.83-1.28,.97-1.56,1.83-.27-.74,.27-3.03,.7-3.39,.39-.32,.48,.14,.65,.25,.6,.41-.57,.35-.23,.74l-.25,.22-.11,.15c.05-.03,.1-.07,.16-.11,.07-.09,.14-.18,.21-.26Zm-.41,.79s-.07-.04-.1-.03c-.11,.03-.11,.09-.01,.14,.02,.01,.07,0,.1-.02,.02-.01,0-.06,0-.08Z"/><path class="e" d="M43.48,67.19c.45,1.37-.12,2.52-.6,3.62-.29,.66-1.32,.63-2.5,.01,3.58,.78,2.24-2.22,3.1-3.63Z"/><path class="e" d="M43.93,71.43c.5-1.06,.92-1.83,.77-2.86,.88,.54,.31,1.15,.26,1.75,.71-.11,1.07,.31,1.33,.9-.75,.79-1.43-.44-2.36,.2Z"/><path class="d" d="M46.44,59.84c-.58-.13-.99-.67-1.68-.6,.97-.84,.32-1.03-.39-1.19l.09-.45c.96-.84,1-.85,1.31,.44,.15,.64,.68,1.13,.66,1.82l-.04-.06,.06,.05Z"/><path class="e" d="M47.46,59.86c.17,.64,0,1.22-.43,1.66-.2,.2-.7,.35-.67-.3,.02-.46,.05-.92,.08-1.37l-.06-.05,.04,.06c.22,0,.43-.02,.65-.02,.12,.11,.25,.12,.39,.03Z"/><path class="e" d="M46.45,56.22c1.22,.87,1.36,1.88,.43,2.42-.14-.8-.05-1.65-.43-2.42Z"/><path class="e" d="M44.46,57.6l-.09,.45c-.3,.19-.48,.7-.97,.34-.17-.12-.33-.42-.17-.45,.42-.08,.63-1,1.23-.34Z"/><path class="d" d="M47.46,59.86c-.14,.09-.27,.09-.39-.03,.58-1.27,1.31-.05,1.96-.11-.5,.35-1.07-.18-1.57,.13Z"/><path class="e" d="M47.31,65.57c-1.01-.47-.53-1.08-.4-1.63l.4,1.63Z"/><path class="e" d="M36.15,74.05h.68c.15,.35,.16,.67-.21,.9-.19,.11-.37,.12-.52-.05-.27-.3-.05-.57,.05-.85Z"/><path class="d" d="M28.07,43.41c.24-.84,.7-.26,1.08-.16-.32,.32-.69,.32-1.08,.16Z"/><path class="f" d="M44,61.75s0,.07,0,.08c-.02,.02-.07,.03-.1,.02-.1-.05-.1-.11,.01-.14,.03,0,.06,.02,.1,.03Z"/><path class="f" d="M44.19,61.22l-.16,.1,.11-.15,.05,.05Z"/><path class="f" d="M44.15,61.17l.25-.22h0c-.07,.09-.14,.18-.21,.27l-.05-.05Z"/></g></g></g></svg>