<?xml version="1.0" encoding="UTF-8"?><svg xmlns="http://www.w3.org/2000/svg" viewBox="0 0 788 788"><defs><style>.d{fill:#7a9d5f;}.e{fill:#fdfefd;}.f{fill:#fbfcfa;}.g{fill:#e0e8d9;}.h{fill:#fdfdfd;}.i{fill:#689049;}.j{fill:#dfe7d8;}.k{fill:#69904a;}.l{fill:#69914a;}.m{fill:#c7d6bb;}.n{fill:#8baa73;}.o{fill:#fefefe;}</style></defs><g id="a"/><g id="b"><g id="c"><g><path class="i" d="M711.94,787.93H77.08c-.44-.22-.86-.43-1.39-.49-37.84-3.73-59.53-27.03-72.41-60.46-2.84-7.36-2.63-15.63-2.63-23.55-.07-206.01,.18-412.02-.25-618.02C.31,43.4,31.2,13.21,61.39,3.04c6.57-2.21,13.67-2,20.59-2.44,2.23,0,4.45,0,6.68,0,204.06,0,408.13,0,612.18,0,2.07,0,4.14,0,6.2,0,21.7-.54,39.58,8.09,55.05,22.72,9.18,8.68,16.18,18.75,21.43,30.24,3.02,6.61,2.74,13.73,4.38,20.52V715.95c-1.17,11.69-4.86,22.43-11.35,32.3-11.24,17.1-26.32,29.37-45.41,36.62-6.13,2.33-12.86,1.72-19.22,3.06Z"/><path class="o" d="M82.03,.94C39.81,5.58,9.39,37.03,2.59,74.11c-1.05,5.74-1.52,11.54-1.52,17.39,.02,201.91,0,403.82,.03,605.73,0,44.35,29.11,79.95,72.94,89.52,1.06,.23,2.43-.22,3.03,1.2H.09C.09,526.82,.1,265.71,0,4.6,0,.85,.84-.03,4.59,0,30.42,.19,56.25,.1,82.08,.1c.7,.32,.69,.6-.04,.84Z"/><path class="o" d="M787.92,74.09c-2.68-6.71-3.84-13.93-7.02-20.48-14.87-30.64-39.17-48.19-72.92-52.66-.73-.25-.74-.53-.04-.85,25.58,0,51.16,.05,76.73-.08,2.74-.01,3.35,.52,3.33,3.31-.14,23.58-.08,47.17-.08,70.75Z"/><path class="o" d="M711.94,787.93c1.97-1.86,4.64-1.28,6.96-1.89,34.85-9.2,57.24-31.04,67.12-65.72,.43-1.51,.25-3.36,1.91-4.37,0,23-.05,45.99,.07,68.99,.01,2.5-.56,3.08-3.07,3.07-24.33-.11-48.66-.07-72.98-.07Z"/><path class="m" d="M701.98,.94c-1.33,.05-2.66,.15-3.99,.15-201.99,0-403.98,0-605.97,0-1.33,0-2.66-.1-3.99-.16-.69-.31-.67-.59,.04-.84H701.94c.71,.25,.73,.53,.04,.84Z"/><path class="g" d="M701.98,.94c-.02-.28-.03-.56-.04-.84h6c0,.28,.02,.57,.04,.85h-6Z"/><path class="j" d="M88.07,.1c-.01,.28-.02,.56-.04,.84h-6c.02-.28,.03-.56,.04-.84h6Z"/><path class="o" d="M254.56,272.68c-9.5,6.73-18.08,12.98-26.85,18.95-8.41,5.73-18.91,1.33-20.19-8.4-.75-5.73,2.07-9.76,6.66-13,26.79-18.94,53.52-37.98,80.27-56.97,33.13-23.53,66.3-47.02,99.37-70.65,2.7-1.93,4.39-2.15,7.23-.07,58.02,42.56,116.13,85,174.24,127.44,3.02,2.21,5.74,4.58,6.66,8.4,1.29,5.34-.69,10.71-5.02,13.65-4.34,2.95-9.94,3.02-14.53-.21-7.49-5.27-14.83-10.76-22.26-16.12-1.31-.95-2.44-2.26-4.22-2.5-1.33,1.03-.74,2.47-.74,3.7-.08,21.49-.02,42.99-.23,64.48-.03,3.56,1.3,4.33,4.49,4.83,25.51,4,50.79,9.01,75.18,17.77,2.03,.73,4.14,1.35,6.04,2.34,3.59,1.86,4.89,4.89,3.59,8.78-1.28,3.83-3.96,4.74-7.88,4.07-74.54-12.82-149.68-18.83-225.27-18.93-71.43-.09-142.42,5.52-212.82,17.89-1.48,.26-2.96,.5-4.4,.91-3.97,1.13-6.94,.11-8.42-3.93-1.4-3.82,.34-7.49,4.56-9.18,10.21-4.08,20.8-7.02,31.42-9.81,16.11-4.23,32.41-7.54,48.85-10.2,2.09-.34,4.31-.28,4.3-3.55-.08-22.81-.04-45.61-.04-69.69Z"/><path class="o" d="M232.37,607.78c-4.16,0-8.34,.14-12.49-.05-2.91-.14-4.16,.61-4.06,3.83,.22,7.32,.14,14.66,.04,21.99-.04,2.73,.56,4.86,3.22,6.15,1.73,.84,3.06,2.15,2.4,4.37-.56,1.87-2.17,2.66-3.84,2.68-7.99,.11-15.99,.11-23.98,0-1.67-.02-3.3-.8-3.84-2.67-.63-2.2,.63-3.48,2.44-4.31,2.5-1.16,3.08-3.22,3.07-5.74-.03-17.99-.03-35.98,0-53.98,0-2.53-.61-4.56-3.1-5.71-1.81-.84-2.97-2.19-2.44-4.36,.47-1.93,2.11-2.73,3.76-2.75,8.16-.1,16.32-.09,24.47,.06,1.68,.03,3.23,1.01,3.57,2.96,.33,1.91-.56,3.29-2.3,3.94-2.86,1.07-3.44,3.23-3.4,5.96,.08,5.33,.1,10.66-.02,15.99-.05,2.35,.77,3.23,3.15,3.2,8.83-.09,17.66-.09,26.49,0,2.48,.03,3.62-.66,3.53-3.38-.17-5.33-.09-10.66-.04-15.99,.02-2.57-.86-4.51-3.28-5.65-1.81-.85-3.04-2.16-2.49-4.33,.48-1.88,2.1-2.74,3.77-2.76,8.16-.1,16.31-.1,24.47,.05,1.65,.03,3.24,.95,3.58,2.93,.32,1.91-.53,3.26-2.26,3.98-2.95,1.23-3.57,3.63-3.57,6.5,.02,17.49,.03,34.98-.01,52.48,0,2.88,.72,5.23,3.51,6.59,1.61,.79,2.7,2.01,2.32,3.97-.43,2.2-2.23,2.99-4.08,3.02-7.83,.13-15.66,.12-23.48,.03-1.87-.02-3.69-.77-4.25-2.85-.6-2.22,.76-3.34,2.59-4.19,2.43-1.14,3.13-3.33,3.14-5.79,.03-7.66-.04-15.33,.07-22.99,.03-2.36-.77-3.27-3.16-3.2-4.49,.12-8.99,.04-13.49,.03Z"/><path class="o" d="M367.08,606.97c-.08,23.52-19.97,41.81-45.18,41.53-25-.27-43.67-18.34-43.4-42,.27-23.62,19.41-41.38,44.31-41.11,25.79,.28,44.34,17.7,44.27,41.58Z"/><path class="o" d="M489.7,648.49c-7.55-.19-14.97-1.06-21.82-4.54-4.86-2.47-8.98-5.78-11.21-10.94-1.44-3.34-1.58-6.72,1.84-8.89,3.59-2.29,6.51-.44,8.43,2.67,4.35,7.06,10.14,11.81,18.61,12.8,5.64,.65,11.02-.08,15.76-3.34,7.37-5.07,6.63-14.13-1.43-17.91-4.87-2.28-10.21-2.95-15.36-4.28-3.38-.87-6.79-1.67-10.09-2.8-8.28-2.82-14.37-7.8-15.44-17.09-1.14-9.91,2.8-17.76,11-23.03,11.47-7.38,24.05-6.62,36.69-3.74,1.62,.37,3.19,.95,4.75,1.52,8.18,2.98,10.67,7.67,8.67,16.27-.83,3.58-4.17,4.62-6.75,1.88-1.69-1.8-2.83-4.1-4.31-6.11-5.36-7.32-15.49-9.97-23.65-6.2-3.71,1.72-6.31,4.29-6.47,8.68-.16,4.41,2.25,7.18,5.88,9.07,4.48,2.33,9.46,3.1,14.28,4.36,3.86,1.01,7.8,1.82,11.53,3.18,16.24,5.93,20.67,22.9,9.57,36.29-6.66,8.04-17.44,12.34-30.5,12.13Z"/><path class="o" d="M563.66,646.86c-9.16,0-18.32,.01-27.48-.01-2.2,0-4.51-.16-5.44-2.62-1.05-2.78,1.08-3.84,3.03-4.88,2.08-1.11,2.4-3.04,2.4-5.11,0-18.32,0-36.64,.03-54.97,0-2.4-.6-4.24-3.15-4.98-1.84-.54-2.79-1.89-2.59-3.76,.23-2.17,1.9-3.02,3.81-3.35,1.14-.19,2.32-.17,3.49-.17,16.49,0,32.98-.03,49.47,0,7.01,.02,11.74,8.28,8.14,14.33-1.8,3.02-4.94,2.89-6.73,.6-7.13-9.12-16.92-6.96-26.26-6.71-3.84,.1-6.05,1.96-5.74,6.36,.32,4.64,.16,9.33,.04,13.99-.07,2.43,.51,3.68,3.29,3.57,4.82-.19,9.66-.1,14.49-.07,2.66,.01,4.72-1.16,6.77-2.74,3.15-2.44,5.41-1.15,6.27,2.33,.54,2.22,.45,4.63,.38,6.95-.21,6.28-2.67,7.58-8.05,4.23-4.8-2.99-10.07-1.57-15.13-1.71-7.97-.22-7.99-.06-7.96,7.78,.01,5,.11,9.99,.13,14.99,.02,4.3,1.93,7.04,6.36,7.46,10.34,.98,20.79,2.47,28.29-7.54,1.49-1.98,3.8-3.43,6.59-1.99,3,1.54,2.06,4.25,1.68,6.63-.29,1.79-1.19,3.47-1.55,5.25-.96,4.77-3.76,6.41-8.58,6.24-8.65-.31-17.32-.09-25.98-.09Z"/><path class="o" d="M524.12,509.37c.02,21.21-17.44,37.57-40.14,37.61-22.64,.05-39.44-15.94-39.41-37.5,.03-21.38,17.13-37.44,39.72-37.29,22.95,.15,39.81,15.88,39.84,37.18Z"/><path class="o" d="M377.48,599.08c0-6.16-.01-12.31,0-18.47,0-2.75-.05-5.37-3.44-6.33-1.89-.54-2.48-2.08-2.21-3.95,.29-2,1.85-3.01,3.49-3.03,8.65-.15,17.31-.15,25.96-.02,1.66,.02,3.26,.97,3.56,2.95,.3,1.96-.82,3.23-2.52,3.81-3.61,1.23-4.45,3.89-4.64,7.38-.72,13.3-1.88,26.61-.75,39.92,1.3,15.22,13.59,22.79,27.92,17.38,7.71-2.91,10.32-9.47,11.16-16.95,1.07-9.48,0-18.96-.38-28.44-.16-3.83-.69-7.65-.59-11.47,.09-3.71-.73-6.49-4.53-7.89-1.64-.61-2.78-1.94-2.36-3.91,.41-1.95,2.02-2.74,3.7-2.79,4.99-.16,9.99-.18,14.98-.05,1.87,.05,3.67,.81,4.03,3.04,.32,1.99-.91,3.24-2.54,3.83-4,1.46-4.29,4.5-4.02,8.09,.84,11.29,1.88,22.57,1.75,33.92-.25,20.85-9.66,30.78-30.53,32.24-4.85,.34-9.69,.19-14.44-.61-15.55-2.61-23.99-12.64-24.88-29.66-.33-6.31-.05-12.64-.05-18.97h1.35Z"/><path class="o" d="M543.07,492.76c0,14.47,0,27.61,0,40.74,0,2.91,1.63,4.55,4.19,5.56,1.64,.65,2.96,1.69,2.63,3.73-.34,2.12-2.09,2.5-3.77,2.54-4.82,.1-9.65,.12-14.47,.01-1.64-.04-3.45-.29-3.85-2.44-.37-2,.7-3.22,2.46-3.78,3.51-1.11,4.29-3.72,4.28-7-.05-14.33-.02-28.65-.04-42.98,0-4.18-.43-8.09-5.68-9.11-1.69-.33-2.39-1.76-2.15-3.45,.25-1.77,1.51-2.58,3.16-2.6,6.33-.05,12.66-.09,18.98,.02,2.4,.04,3.73,2.05,5.18,3.61,10.1,10.93,18.05,23.48,26.75,35.47,1.01,1.4,1.54,3.3,3.95,4.18,0-11.01,.05-21.75-.04-32.48-.02-2.49-1.98-3.71-4.08-4.56-1.69-.69-2.9-1.71-2.62-3.72,.29-2.14,1.94-2.55,3.69-2.56,5-.04,9.99-.03,14.99,.03,1.57,.02,3.03,.51,3.39,2.33,.38,1.94-.52,3.27-2.37,3.81-4.11,1.19-4.45,4.34-4.44,7.89,.05,16.99,.06,33.98-.02,50.98-.01,2.48,1.1,5.99-2.48,6.76-3.81,.81-7.61,1.21-10.53-3.13-10.77-16.04-22.29-31.55-34.26-46.72-.6-.75-1.3-1.43-2.85-3.12Z"/><path class="o" d="M222.75,522.24c-2,0-4,0-6,0-8.15,0-12.18,4.42-11.84,12.71,.1,2.43,1.53,3.5,3.26,4.59,1.18,.75,2.05,1.76,1.76,3.3-.34,1.83-1.79,2.38-3.33,2.43-4.49,.12-8.98,.17-13.46,.1-1.5-.02-3.01-.44-3.4-2.32-.31-1.49,.17-2.8,1.42-3.45,3.23-1.67,3.85-4.81,4.76-7.82,5.72-18.86,13.89-36.67,23.08-54.06,2.03-3.85,4.91-4.76,8.94-4.84,3.94-.08,6.01,1.55,7.75,4.87,9.15,17.42,16.45,35.62,23.05,54.12,1.06,2.97,1.97,5.8,4.86,7.84,2.62,1.84,1.87,4.98-1.29,5.38-7.44,.93-14.96,.91-22.4,.02-3.34-.4-4.1-3.23-1.38-5.13,2.62-1.83,2.7-3.66,1.97-6.36-3.06-11.36-3-11.38-14.75-11.38-1,0-2,0-3,0Z"/><path class="o" d="M299.45,546.98c-15.94-.02-31.35-10.89-35.51-26.94-5.54-21.42,9.67-43.33,32.61-47.06,11.12-1.81,21.52-.03,31.13,5.89,3.38,2.08,5.68,12.67,3.43,15.85-1.78,2.51-4.21,2.71-6.37,.59-1.13-1.11-1.77-2.77-2.46-4.27-5.81-12.42-20.66-15.37-30.77-6.08-11.53,10.59-12.25,35.93-1.34,47.16,7.49,7.71,20.49,8.26,29.63,1.18,2.36-1.83,4.52-3.93,6.9-5.73,1.58-1.19,3.49-1.37,5.07,0,1.62,1.41,1.43,3.23,.52,5.02-2.73,5.36-7.48,8.34-12.69,10.73-5.52,2.54-11.35,3.72-20.15,3.65Z"/><path class="o" d="M379.92,509.82c0,7.66,.06,15.32-.03,22.98-.03,2.84,.28,5.28,3.3,6.58,1.29,.56,2.06,1.69,1.83,3.23-.27,1.81-1.6,2.54-3.17,2.65-7.47,.53-14.96,.53-22.43,0-1.62-.12-2.87-1.04-3.16-2.72-.27-1.53,.71-2.64,1.96-3.16,2.85-1.18,3.27-3.52,3.27-6.12,.01-15.65-.06-31.3,.05-46.95,.03-4.22-1.8-5.67-5.8-5.19-4.36,.52-7.86,2.5-10.77,5.69-1.52,1.67-3.35,3.12-5.67,1.98-2.46-1.21-1.8-3.56-1.49-5.73,1.33-9.19,1.35-9.24,10.47-9.24,15.82,0,31.63-.02,47.45,.02,5.56,.01,10.73,9.08,7.64,13.68-2.09,3.11-4.67,1.7-6.67-.42-3.21-3.39-6.87-5.69-11.66-6.01-3.53-.23-5.23,.95-5.15,4.77,.17,7.99,.05,15.98,.05,23.98Z"/><path class="o" d="M424.72,473.88c3.49,0,6.98-.04,10.47,.02,1.73,.03,3.38,.47,3.89,2.44,.44,1.69-.34,2.92-1.85,3.65-2.87,1.39-3.23,3.88-3.22,6.7,.05,15.46,.05,30.92,0,46.38,0,2.69,.45,4.91,3.17,6.17,1.47,.68,2.32,1.87,1.93,3.63-.4,1.79-1.85,2.43-3.35,2.45-7.3,.08-14.61,.06-21.91-.03-1.59-.02-2.91-.86-3.28-2.57-.38-1.77,.67-2.87,2.12-3.52,2.8-1.24,3.11-3.65,3.11-6.23,0-15.79-.01-31.58,0-47.38,0-2.5-.42-4.61-3.23-5.46-1.7-.51-2.35-1.89-2.03-3.52,.32-1.63,1.54-2.6,3.21-2.63,3.65-.07,7.31-.02,10.96-.02v-.09Z"/><path class="e" d="M352.04,447.02c-4.76,.9-6.77-.47-6.4-5.87,.54-7.95,.04-15.96,.22-23.94,.04-1.78-1.51-5.12,1.99-5.01,3.44,.11,8.08-2.55,9.93,3.41,2.2,7.11,4.91,14.07,7.72,22.01,2.91-7.98,5.49-15.11,8.11-22.21,1.05-2.84,9.39-5.04,11.31-2.88,.65,.73,.64,2.18,.64,3.3,.05,9.15-.03,18.3,.06,27.44,.02,2.54-.37,3.96-3.49,3.95-3.04-.02-4.05-.92-3.96-3.99,.19-7.1,.06-14.2-.91-21.53-2.43,6.94-4.88,13.87-7.3,20.81-.87,2.49-1.32,4.84-5.14,4.76-3.7-.07-3.81-2.53-4.57-4.76-2.2-6.44-4.32-12.92-6.47-19.38-2.37,.73-1.13,2.67-1.21,4.02-.39,6.61,.51,13.26-.53,19.86Z"/><path class="e" d="M296.02,447q-6.52,.2-6.53-6.15c0-8.16-.06-16.32,.05-24.48,.02-1.56-.99-4.46,1.89-4.17,3.24,.32,7.65-2.64,9.6,2.34,2.24,5.73,4.09,11.61,6.23,17.37,.56,1.51,.56,3.32,2.37,4.82,2.52-6.93,4.97-13.67,7.42-20.41,1.31-3.61,8.22-6.12,11.31-4.11,1.2,.78,.89,2.06,.9,3.18,.03,9.33-.06,18.65,.06,27.98,.04,2.68-.59,3.87-3.57,3.82-2.76-.05-3.79-.77-3.72-3.66,.18-7.41,.06-14.82-.78-22.38-2.63,7.44-5.38,14.85-7.83,22.35-.85,2.61-1.99,3.68-4.88,3.72-3.01,.04-3.53-1.72-4.23-3.82-2.06-6.14-4.19-12.26-6.29-18.38-2.66,.39-1.33,2.47-1.42,3.75-.42,6.07,.55,12.18-.57,18.24Z"/><path class="e" d="M456.81,420.62c0,8.5-.07,15.57,.04,22.63,.04,2.56-.39,3.94-3.47,3.95-3.01,.01-3.56-1.18-3.52-3.83,.13-8.65-.05-17.31,.13-25.96,.04-1.8-1.62-4.95,1.75-5.24,3.02-.26,6.39-1.38,8.82,2.5,4.56,7.29,9.68,14.21,15.41,22.5,0-8.07,.1-14.78-.05-21.48-.06-2.71,.62-3.78,3.57-3.79,3.12-.02,3.47,1.4,3.44,3.94-.1,8.49,.06,16.97-.11,25.46-.04,1.9,1.52,4.99-1.41,5.54-3.18,.6-6.68,1.29-9.08-2.83-3.94-6.74-8.53-13.09-12.86-19.6-.6-.91-1.24-1.79-2.65-3.81Z"/><path class="e" d="M237.92,429.58c0-10.61,7.91-18.34,18.79-18.37,10.91-.02,18.69,7.67,18.62,18.44-.07,10.81-7.69,18.22-18.79,18.27-11.03,.05-18.62-7.42-18.62-18.34Z"/><path class="h" d="M401.69,424.53c0-2.83,.13-5.67-.04-8.49-.17-2.84,.5-4.13,3.78-4.15,3.47-.02,3.69,1.61,3.63,4.27-.12,5.49-.15,10.99,.01,16.48,.19,6.09,3.29,9.24,8.78,9.3,5.41,.06,8.1-2.59,8.38-8.87,.26-5.82,.26-11.65,.13-17.47-.07-2.88,.98-3.71,3.77-3.67,2.62,.04,3.96,.49,3.84,3.55-.22,5.99,.13,11.99-.15,17.97-.45,9.69-6.31,14.66-16.58,14.47-10.05-.19-15.26-5.16-15.54-14.9-.08-2.83-.01-5.66-.02-8.49Z"/><path class="h" d="M225.97,436.14c-3.05,9.26-11.13,13.39-21.04,11.36-9.51-1.94-14.72-9.1-14.1-19.35,.59-9.64,7.56-16.32,17.66-16.92,9.06-.54,15.89,3.97,17.29,11.53-3.49,.46-6.49,.8-9.17-2.78-2.47-3.3-6.63-3.47-10.57-2.24-4.7,1.46-7.28,5.4-7.45,11.21-.17,5.97,2.25,10.59,6.8,12.23,4.79,1.72,9.27,1.28,12.44-3.27,2.17-3.12,5.11-1.24,8.13-1.77Z"/><path class="e" d="M562.15,412.6c6.27-1.85,9.88,.1,12.33,5.24,1.55,3.26,3.89,6.15,6.04,9.46,3.12-3.07,5.15-6.72,7.06-10.28,2.45-4.55,5.74-5.98,11.2-4.49-2.95,4.32-5.57,8.7-8.72,12.66-4.3,5.4-7.15,11.08-5.96,18.21,.44,2.66-.52,3.78-3.49,3.82-3.12,.04-4.33-.97-3.84-3.98,1.14-6.93-1.59-12.49-5.77-17.77-3.16-3.99-5.8-8.38-8.86-12.86Z"/><path class="o" d="M535.64,412.02c4.33,0,8.66,.08,12.98-.03,2.26-.06,3.27,.58,3.28,3.07,.02,2.55-1.1,2.93-3.3,3.04-9.55,.46-9.54,.52-9.54,10.15,0,5.16-.12,10.33,.05,15.48,.08,2.6-.75,3.56-3.39,3.44-2.34-.11-4.17,.03-4.08-3.29,.2-7.32-.08-14.65,.12-21.97,.08-3.11-1-4.2-4.01-3.89-1.81,.19-3.66-.06-5.49,.06-2.2,.14-3.33-.39-3.3-2.97,.03-2.43,.87-3.18,3.21-3.11,4.49,.13,8.99,.04,13.48,.04Z"/><path class="f" d="M499.09,429.51c0-4.83,.14-9.67-.05-14.49-.12-3.05,1.63-3.09,3.8-3.04,2.03,.05,4.01-.28,3.97,2.88-.11,9.83-.1,19.65,0,29.48,.03,3.24-2.11,2.67-4.06,2.79-2.28,.14-3.83-.18-3.71-3.13,.19-4.82,.05-9.66,.05-14.49Z"/><path class="n" d="M352.04,447.02v-27.04c1.44,1.04,1.67,2.05,1.74,3.16-1.48,5.87-.17,11.84-.61,17.75-.15,2.08,.6,4.34-1.13,6.14Z"/><path class="d" d="M296.02,447v-26.4c1.65,1.61,1.99,2.94,1.99,4.41-1.94,4.82-.48,9.84-.9,14.75-.21,2.44,.53,5.01-1.09,7.23Z"/><path class="k" d="M511.73,298.17c0,13.32-.07,26.65,.05,39.97,.03,3.07-.7,4.06-3.98,3.61-25.42-3.47-51-5.27-76.62-6.42-3.44-.15-4.48-1.06-4.45-4.56,.18-16.99-.02-33.98,.16-50.97,.04-3.59-.73-4.89-4.63-4.84-18.32,.21-36.64,.2-54.96,.01-3.65-.04-4.37,1.21-4.34,4.56,.15,16.82-.03,33.65,.15,50.47,.04,3.67-.64,5.09-4.79,5.21-25.48,.72-50.87,2.81-76.15,6-3.27,.41-4.27-.15-4.25-3.62,.17-25.98,.18-51.97,.12-77.95,0-2.62,.8-4.22,2.96-5.74,37.69-26.58,75.34-53.21,112.91-79.95,2.66-1.89,4.33-1.71,6.89,.16,35.87,26.26,71.81,52.42,107.8,78.52,2.42,1.75,3.4,3.57,3.36,6.57-.16,12.99-.07,25.98-.07,38.97h-.16Z"/><path class="k" d="M345.21,606.52c.11,7.86-.92,15.07-4.29,21.74-3.83,7.59-9.82,11.96-18.64,11.8-8.48-.15-14.1-4.68-17.38-12.03-5.96-13.37-6.43-27.08-.75-40.64,3.45-8.23,9.43-13.64,19.04-13.49,9.61,.15,15.18,5.83,18.64,14.07,2.54,6.05,3.49,12.45,3.37,18.55Z"/><path class="k" d="M504.64,510.05c-.33,6.16-.96,12.25-3.62,17.94-3.31,7.08-8.59,11.33-16.62,11.42-7.91,.09-13.24-4.09-16.28-11.02-5.16-11.77-5.66-23.88-.79-35.84,3.08-7.56,8.38-12.73,17.31-12.63,7.78,.09,13.67,4.58,17.01,13.04,2.17,5.49,2.75,11.26,3,17.08Z"/><path class="l" d="M222.67,488.79c4.67,7.44,7.35,15.28,10.29,23,.69,1.81-.17,2.35-1.9,2.33-5.5-.05-11-.07-16.49,0-2.48,.04-2.75-.87-1.92-3.01,2.89-7.45,6.01-14.78,10.02-22.33Z"/><path class="l" d="M245.8,429.24c.07-7.34,4.53-12.22,11-12.04,6.46,.18,10.78,5.18,10.75,12.45-.03,7.35-4.41,12.32-10.83,12.29-6.67-.02-10.98-5.04-10.91-12.71Z"/></g></g></g></svg>