<?xml version="1.0" encoding="UTF-8"?><svg xmlns="http://www.w3.org/2000/svg" viewBox="0 0 642 280.43"><g id="a"/><g id="b"><g id="c"><g><path d="M519.2,49.3c-21.25-.89-41.62,6.49-56.97,21.25-15.35,14.76-23.91,34.54-23.91,55.79,0,17.42,5.61,33.95,16.53,47.82,9.45,12.1,15.94,23.62,20.07,35.72l.29,.89v31c0,3.84,2.95,7.38,6.79,7.97,1.48,17.12,15.94,30.7,33.65,30.7s32.17-13.58,33.65-31c3.84-.59,6.79-3.84,6.79-7.97v-30.7l.29-.89c4.13-12.1,10.63-23.62,20.07-35.42,11.51-14.46,17.42-32.77,16.53-51.07-2.06-39.85-34.24-72.32-73.8-74.09h0Zm20.66,164.71v19.48h-48.41v-19.48h48.41Zm-24.21,50.18c-8.86,0-15.94-6.49-17.42-14.76h34.83c-1.48,8.56-8.56,14.76-17.42,14.76Zm47.82-100.07c-8.86,11.22-15.35,22.14-20.07,33.65h-55.5c-4.72-11.22-11.22-22.43-20.07-33.65-8.56-10.92-12.99-23.91-12.99-37.78,0-16.83,6.79-32.47,18.89-44.28,12.1-11.51,28.04-17.71,45.16-16.83,31.29,1.48,56.68,27.16,58.15,58.15,.29,15.06-4.43,29.22-13.58,40.74h0Z"/><path d="M515.66,31c4.43,0,7.97-3.54,7.97-7.97V7.97c0-4.43-3.54-7.97-7.97-7.97s-7.97,3.54-7.97,7.97v15.05c0,4.43,3.54,7.97,7.97,7.97Z"/><path d="M456.92,41.03c1.48,2.66,4.13,4.13,7.09,4.13,1.48,0,2.66-.29,4.13-1.18,3.84-2.36,5.31-7.09,2.95-10.92l-7.38-12.99c-2.36-3.84-7.09-5.31-10.92-2.95-3.84,2.36-5.31,7.09-2.95,10.92l7.08,12.99Z"/><path d="M430.06,67.6l-12.99-7.38c-3.84-2.36-8.86-.89-10.92,2.95-2.36,3.84-.89,8.86,2.95,10.92l12.99,7.38c1.18,.59,2.66,1.18,4.13,1.18,2.66,0,5.61-1.48,7.09-4.13,2.06-3.54,.59-8.56-3.25-10.92h0Z"/><path d="M420.31,126.34c0-4.43-3.54-7.97-7.97-7.97h-15.05c-4.43,0-7.97,3.54-7.97,7.97s3.54,7.97,7.97,7.97h15.05c4.43,.29,7.97-3.54,7.97-7.97Z"/><path d="M422.09,171.21l-12.99,7.38c-3.84,2.36-5.31,7.09-2.95,10.92,1.48,2.66,4.13,4.13,7.09,4.13,1.48,0,2.66-.29,4.13-1.18l12.99-7.38c3.84-2.36,5.31-7.09,2.95-10.92-2.36-3.84-7.38-5.31-11.22-2.95h0Z"/><path d="M622.22,178.59l-12.99-7.38c-3.84-2.36-8.86-.89-10.92,2.95-2.36,3.84-.89,8.86,2.95,10.92l12.99,7.38c1.18,.59,2.66,1.18,4.13,1.18,2.66,0,5.61-1.48,7.09-4.13,1.77-3.84,.59-8.56-3.25-10.92h0Z"/><path d="M634.03,118.37h-15.05c-4.43,0-7.97,3.54-7.97,7.97s3.54,7.97,7.97,7.97h15.05c4.43,0,7.97-3.54,7.97-7.97s-3.54-7.97-7.97-7.97Z"/><path d="M605.1,82.65c1.48,0,2.66-.29,4.13-1.18l12.99-7.38c3.84-2.36,5.31-7.09,2.95-10.92-2.36-3.84-7.09-5.31-10.92-2.95l-12.99,7.38c-3.84,2.36-5.31,7.09-2.95,10.92,1.48,2.95,4.13,4.13,6.79,4.13h0Z"/><path d="M563.18,43.98c1.18,.59,2.66,1.18,4.13,1.18,2.66,0,5.61-1.48,7.09-4.13l7.38-12.99c2.36-3.84,.89-8.86-2.95-10.92-3.84-2.36-8.86-.89-10.92,2.95l-7.38,12.99c-2.36,3.54-1.18,8.56,2.66,10.92h0Z"/></g><path d="M317,110.19c0-15.73-9.29-30.02-23.59-36.45-3.57-22.16-21.8-39.31-43.96-41.1-6.08-12.51-18.94-20.73-33.24-20.73-1.79,0-3.57,.36-5.36,.36h-.36c-1.79,.36-3.93,.72-5.72,1.43-7.15-5.72-16.08-9.29-25.38-9.29-7.51,0-15.01,2.14-21.09,6.43-6.43-2.86-13.58-4.29-21.09-4.29-14.65,0-28.59,6.08-38.24,17.15-3.22-.72-6.08-1.07-9.29-1.07-12.87,0-24.66,6.43-31.45,17.51h-3.22c-.72,0-1.43,.36-2.14,.36s-1.07,.36-1.79,.36-1.43,.36-2.14,.72c-.72,0-1.07,.36-1.79,.36-.72,.36-1.43,.36-1.79,.72-.72,.36-1.43,.36-1.79,.72-.36,.36-1.07,.36-1.43,.72-.72,.36-1.43,.72-2.14,1.07-12.51,6.79-21.09,20.01-22.16,35.02v.36C6.43,91.25,0,106.62,0,122.34c0,31.81,26.09,57.9,57.9,57.9,3.22,0,6.79-.36,10.01-.72,4.29,1.43,8.93,2.14,13.58,2.5,9.29,22.87,27.88,35.02,53.25,35.02s53.61,24.66,53.61,53.61v5.36h40.74l-4.65-33.24c28.23,2.86,55.04-15.37,62.19-43.6,1.07-5,1.79-10.01,1.79-14.65,16.8-6.08,28.59-22.16,28.59-40.39,0-6.08-1.07-11.79-3.57-17.15,2.14-5.36,3.57-11.08,3.57-16.8h0Zm-15.37,19.3c2.5,4.65,3.57,9.29,3.57,14.65,0,12.15-7.15,23.23-18.23,28.23-4.65-21.09-21.09-38.24-42.17-43.6-3.22-.72-6.43,1.07-7.15,4.29-.72,3.22,1.07,6.43,4.29,7.15,18.94,4.65,32.88,20.73,34.67,40.03,.72,5.36,0,10.72-1.07,16.08-6.43,25.02-31.45,40.03-56.47,33.6l-8.22-2.14,5,36.45h-16.44c-3.57-33.59-37.17-59.68-65.04-59.68-19.3,0-32.88-7.86-40.74-23.59,0-.36,0-.72-.36-1.07-6.08-12.51-.72-27.88,12.15-33.95,2.86-1.43,4.29-5,2.86-7.86-1.43-2.86-5-4.29-7.86-2.86-13.58,6.43-21.09,20.01-21.09,33.95-3.22-.36-6.43-1.07-9.29-2.14l-1.43-.72-1.43,.36c-2.86,.72-6.08,1.07-9.29,1.07-25.38,0-46.46-20.73-46.46-46.46,0-9.29,2.86-18.58,8.22-26.09,4.29,13.58,15.73,24.3,29.66,27.88-1.07,1.79-1.79,3.57-2.14,5.36-1.43,6.43-.72,12.87,2.86,18.58,1.07,1.79,2.86,2.86,5,2.86,1.07,0,2.14-.36,2.86-.72,2.86-1.79,3.57-5.36,2.14-7.86-1.79-2.86-2.14-6.43-1.43-9.65,.72-3.22,2.86-6.08,5.72-7.86,2.86-1.79,3.57-5.36,2.14-7.86-1.43-2.14-3.93-3.22-6.43-2.5-16.8-.36-30.74-14.29-30.74-31.09s13.94-31.09,31.09-31.09h.72l4.65,.36,1.79-3.57c4.29-8.93,13.22-14.29,22.87-14.29,3.22,0,6.08,.72,9.29,1.79l3.93,1.43,2.5-3.57c7.51-10.01,19.3-15.73,31.81-15.73,6.43,0,13.22,1.79,18.94,4.65l3.57,1.79,2.86-2.5c4.65-3.93,10.36-6.08,16.44-6.08,5,0,10.01,1.43,13.94,4.29-8.58,6.79-14.29,17.15-14.29,28.95,0,3.22,2.5,5.72,5.72,5.72s5.72-2.5,5.72-5.72c0-9.65,5.36-17.87,12.87-22.16l1.79-.72c3.57-1.43,7.15-2.5,10.72-2.5,10.72,0,20.01,6.79,23.94,16.8l1.43,3.93h3.93c19.3,0,35.38,15.37,36.81,34.31l.36,3.93,3.57,1.07c11.44,3.93,19.3,14.65,19.3,26.8,0,4.65-1.07,9.65-3.57,13.58l-1.43,2.86,1.06,2.86Zm-122.94,29.66c0-10.72-5.36-20.73-14.29-26.8-15.37-7.15-26.09-21.8-28.23-38.6-.36-2.5,1.43-5,3.93-5.36,2.5-.36,5,1.43,5.36,3.93,2.14,15.37,12.51,28.23,27.16,33.24,10.36,3.57,21.44,2.86,31.45-1.79,10.01-4.65,17.15-13.22,20.73-23.59,.72-2.5,3.57-3.57,6.08-2.86,2.5,.72,3.57,3.57,2.86,6.08-4.29,12.87-13.58,22.87-25.73,28.59-6.79,3.22-14.29,5-21.8,5-1.43,0-2.86,0-4.65-.36,3.93,6.43,6.43,13.94,6.43,22.16,0,2.5-2.14,4.65-4.65,4.65s-4.64-1.78-4.64-4.29h0Zm88.27-53.61c0,2.5-2.14,4.65-4.65,4.65s-4.65-2.14-4.65-4.65c0-21.09-17.15-38.24-38.24-38.24-2.5,0-4.65-2.14-4.65-4.65s2.14-4.65,4.65-4.65c26.09,0,47.53,21.45,47.53,47.53h0Zm-122.94-47.89c0-2.5,2.14-4.65,4.65-4.65,20.37,0,37.17,16.44,37.17,37.17,0,2.5-2.14,4.65-4.65,4.65s-4.65-2.14-4.65-4.65c0-15.37-12.51-27.88-27.88-27.88-2.5,0-4.64-2.14-4.64-4.64h0Zm-11.08,106.14c-.72,1.43-2.5,2.14-3.93,2.14-.72,0-1.79-.36-2.5-.72-2.14-1.43-2.86-4.29-1.43-6.43,7.86-12.51,3.93-28.95-8.58-36.81-2.14-1.43-2.86-4.29-1.43-6.43,1.43-2.14,4.29-2.86,6.43-1.43,16.8,10.72,21.8,32.88,11.44,49.67h0Zm-4.29-82.2c-7.15,0-13.58-3.22-18.58-7.86-8.22,11.79-21.8,18.23-35.38,18.23-7.15,0-14.65-1.79-21.44-5.72-2.14-1.43-2.86-4.29-1.79-6.43,1.43-2.14,4.29-2.86,6.43-1.79,16.08,9.29,36.81,3.93,46.46-12.51-1.79-3.93-2.86-8.22-2.86-12.51,0-2.5,2.14-4.65,4.65-4.65s4.65,2.14,4.65,4.65c-.36,10.01,7.86,18.58,17.87,18.94,2.5,0,4.65,2.14,4.65,4.65,0,3.22-2.14,5.01-4.64,5.01h0Zm109,90.78c2.14,1.43,2.5,4.29,1.07,6.43-8.93,12.87-23.23,20.01-37.88,20.01-8.93,0-17.87-2.5-25.73-7.86-2.14-1.43-2.5-4.29-1.07-6.43,1.43-2.14,4.29-2.5,6.43-1.07,8.22,5.36,17.87,7.51,27.52,5.72s17.87-7.15,23.59-15.37c1.07-2.14,3.93-2.86,6.08-1.43h0Z"/></g></g></svg>