<?xml version="1.0" encoding="UTF-8"?><svg xmlns="http://www.w3.org/2000/svg" viewBox="0 0 384 384"><defs><style>.d{fill:#fff;}</style></defs><g id="a"/><g id="b"><g id="c"><g><path class="d" d="M0,44.26V0c127.98,0,255.96,0,384,0V384H0C0,345.08,0,306.08,0,267.08c.24,.81,.57,1.61,.72,2.44,2.8,16.34,15.75,33.94,38.68,32.9,12.83-.58,25.7-.09,38.55-.11,5.76,0,9.21-2.82,9.26-7.48,.06-4.69-3.36-7.57-9.1-7.58-13.23-.02-26.46-.2-39.68,.06-10.21,.2-16.99-4.67-20.6-13.7-1.76-4.4-2.64-9.44-2.67-14.19-.2-43.64-.12-87.27-.12-130.91,0-1.33,0-2.66,0-4.1H340.56v75.96c-5.94-.33-10.78,1.43-14.87,5.45-.67,.66-2.43,.74-3.46,.39-2.94-1-5.68-2.61-8.65-3.5-2.44-.73-3.17-1.92-3.35-4.44-.67-9.68-7.05-15.91-16.68-16.29-5.35-.21-10.75-.21-16.07,.25-6.81,.59-13.22,5.58-13.73,12.31-.5,6.51-3.62,8.99-9.05,10.33-.83,.2-1.68,.58-2.37,1.08-2.08,1.5-3.54,1.09-5.45-.68-7.05-6.53-16.66-6.31-23.56,.34-3.42,3.29-6.81,6.62-10.03,10.1-5.96,6.45-6.05,15.86-.38,22.56,.88,1.03,1.82,2.01,2.61,2.88-1.56,3.92-2.9,7.69-4.61,11.28-.49,1.04-1.99,2.15-3.11,2.25-11.36,1.05-17.34,7.41-17.41,18.83-.03,4.46,0,8.92,0,13.75-1.79,0-3.14,0-4.48,0-12.85,0-25.7-.03-38.55,.02-5.52,.02-8.89,3.77-8.1,8.79,.61,3.87,3.73,6.24,8.49,6.25,18.72,.03,37.43,.01,56.15,.01q6.14,0,8.33,5.55c.64,1.62,1.18,3.33,2.1,4.79,1.4,2.24,1.17,3.73-.75,5.76-6.22,6.56-6.3,16.04-.27,22.76,3.5,3.9,7.25,7.59,11.13,11.12,5.2,4.73,13.66,6.58,18.6,2.09,5.97-5.41,10.5-2.97,16.07-.64,2.73,1.14,4.01,2.17,4.21,5.4,.57,9.44,7.61,15.83,16.99,15.96,4.62,.06,9.24,.1,13.85-.02,7.14-.19,14.63-4.71,15.23-11.5,.71-7.98,5.22-10.45,11.42-12.3,.12-.04,.24-.08,.34-.14,2.14-1.45,3.72-1.14,5.72,.77,6.5,6.2,16.1,6.26,22.72,.24,3.88-3.52,7.59-7.26,11.09-11.16,4.87-5.42,6.27-13.99,1.63-19.35-4.37-5.04-3.52-8.94-.78-13.68,.43-.74,.74-1.61,.89-2.46,.46-2.52,1.81-3.21,4.4-3.28,9.38-.24,16.3-7.49,16.49-16.93,.08-4,.03-8,.01-12-.03-11.14-6.06-17.56-17.2-18.61-1.14-.11-2.66-1.16-3.15-2.19-1.78-3.69-3.19-7.56-4.78-11.45,.14-.23,.28-.62,.54-.84,7.83-6.67,8.5-19.07-.44-27.06-1.39-1.24-2.16-3.88-2.17-5.88-.12-51.14-.08-102.28-.11-153.42,0-3.12-.09-6.26-.4-9.36-1.72-17.44-15.3-35.79-38.52-35.67-92.95,.47-185.91,.34-278.87,.07-18.54-.05-30.14,11.81-34.59,23.28C2.11,36.07,1.19,40.22,0,44.26ZM168.85,205.64c-1.57,1.79-2.95,3.37-4.34,4.94-4.64,5.22-9.36,10.37-13.89,15.68-2.95,3.46-2.61,7.96,.52,10.74,2.97,2.64,7.57,2.63,10.43-.5,7.39-8.1,14.69-16.29,21.81-24.64,2.98-3.49,3.27-8.38,.38-11.82-7.38-8.77-15.03-17.32-22.8-25.74-2.59-2.81-7.05-2.47-9.84,.04-2.79,2.51-3.3,6.66-1.15,9.86,.62,.92,1.42,1.74,2.16,2.58,5.52,6.24,11.04,12.46,16.73,18.88Zm-109.43,.02c6.02-6.79,11.83-13.29,17.59-19.84,3.5-3.98,3.45-8.64,0-11.61-3.35-2.88-7.75-2.34-11.2,1.51-6.67,7.43-13.33,14.89-19.91,22.4-4.34,4.96-4.32,10.09,.08,15.13,6.57,7.52,13.21,14.99,19.92,22.39,1.12,1.24,2.67,2.39,4.23,2.86,3.46,1.03,6.5-.06,8.38-3.24,1.95-3.29,1.39-6.51-1.1-9.33-5.86-6.65-11.77-13.25-18-20.27Zm69.62-30.09c.25-5.77-3.95-9.69-8.59-8.79-3.77,.73-5.66,3.31-6.49,6.9-1.9,8.14-3.85,16.27-5.78,24.41-2.93,12.39-5.93,24.76-8.75,37.18-1,4.43,1.51,8.22,5.61,9.15,3.91,.89,7.53-1.37,8.88-5.57,.27-.83,.46-1.68,.66-2.53,3.14-13.11,6.28-26.22,9.41-39.33,1.76-7.4,3.5-14.82,5.06-21.42Zm-15.88,111.69c-4.22,.07-7.63,3.59-7.46,7.72,.16,3.97,3.6,7.29,7.59,7.31,4.22,.02,7.61-3.38,7.58-7.62-.03-4.26-3.39-7.48-7.71-7.41Z"/><path d="M0,44.26c1.19-4.04,2.11-8.19,3.63-12.1C8.08,20.68,19.69,8.82,38.23,8.87c92.95,.27,185.91,.4,278.87-.07,23.22-.12,36.8,18.23,38.52,35.67,.31,3.1,.4,6.24,.4,9.36,.02,51.14,0,102.28,.11,153.42,0,2,.78,4.63,2.17,5.88,8.94,8,8.28,20.39,.44,27.06-.27,.23-.4,.62-.54,.84,1.59,3.89,3,7.75,4.78,11.45,.49,1.03,2.01,2.08,3.15,2.19,11.14,1.05,17.16,7.47,17.2,18.61,.01,4,.06,8-.01,12-.19,9.43-7.11,16.68-16.49,16.93-2.59,.07-3.94,.76-4.4,3.28-.15,.85-.46,1.71-.89,2.46-2.74,4.74-3.59,8.63,.78,13.68,4.64,5.36,3.24,13.93-1.63,19.35-3.5,3.9-7.21,7.63-11.09,11.16-6.62,6.02-16.22,5.96-22.72-.24-2-1.91-3.58-2.23-5.72-.77-.1,.07-.23,.11-.34,.14-6.2,1.85-10.71,4.32-11.42,12.3-.6,6.8-8.1,11.32-15.23,11.5-4.61,.12-9.23,.09-13.85,.02-9.38-.13-16.42-6.52-16.99-15.96-.19-3.22-1.47-4.25-4.21-5.4-5.57-2.33-10.11-4.77-16.07,.64-4.94,4.48-13.4,2.64-18.6-2.09-3.87-3.53-7.63-7.22-11.13-11.12-6.03-6.71-5.95-16.2,.27-22.76,1.92-2.02,2.15-3.52,.75-5.76-.91-1.46-1.45-3.17-2.1-4.79q-2.2-5.55-8.33-5.55c-18.72,0-37.43,.02-56.15-.01-4.76,0-7.88-2.38-8.49-6.25-.79-5.02,2.59-8.76,8.1-8.79,12.85-.05,25.7-.02,38.55-.02,1.34,0,2.69,0,4.48,0,0-4.83-.02-9.29,0-13.75,.07-11.42,6.05-17.78,17.41-18.83,1.12-.1,2.62-1.21,3.11-2.25,1.7-3.59,3.04-7.36,4.61-11.28-.79-.87-1.73-1.85-2.61-2.88-5.68-6.69-5.58-16.11,.38-22.56,3.22-3.48,6.61-6.81,10.03-10.1,6.91-6.65,16.52-6.87,23.56-.34,1.91,1.77,3.37,2.19,5.45,.68,.69-.5,1.54-.88,2.37-1.08,5.43-1.34,8.56-3.82,9.05-10.33,.51-6.73,6.92-11.72,13.73-12.31,5.33-.46,10.72-.46,16.07-.25,9.63,.39,16.01,6.62,16.68,16.29,.18,2.52,.9,3.71,3.35,4.44,2.96,.89,5.71,2.5,8.65,3.5,1.02,.35,2.79,.27,3.46-.39,4.09-4.03,8.93-5.78,14.87-5.45V124.4H15.05c0,1.44,0,2.77,0,4.1,0,43.64-.08,87.28,.12,130.91,.02,4.75,.91,9.79,2.67,14.19,3.61,9.03,10.4,13.9,20.6,13.7,13.22-.26,26.45-.08,39.68-.06,5.73,0,9.15,2.89,9.1,7.58-.06,4.66-3.5,7.48-9.26,7.48-12.85,.02-25.72-.47-38.55,.11-22.93,1.04-35.87-16.55-38.68-32.9-.14-.83-.47-1.63-.72-2.44C0,192.81,0,118.53,0,44.26ZM15.24,108.68H340.85c0-3.33,0-6.43,0-9.52-.03-17.13,.24-34.27-.19-51.39-.37-14.9-9.9-23.71-24.58-23.71-12.23,0-24.46,0-36.68,0-80.48,0-160.96,.03-241.44-.05-7.03,0-12.64,2.39-16.91,7.91-4.3,5.55-6,11.98-6,18.93,0,18.13,0,36.26,0,54.39,0,1.09,.12,2.19,.19,3.44Zm334.64,221.09c-.64-.82-1.11-1.54-1.69-2.15-1.38-1.44-2.83-2.82-4.22-4.26-3.65-3.76-3.75-6.36-1.44-11.12,2.65-5.48,5.18-11.06,7.11-16.82,2.29-6.83,3.61-8.18,10.83-8.18,8.69,0,7.76,.65,7.78-7.91q.02-9.13-9.17-9.39c-5.27-.15-7.21-2.04-9.02-7.21-2.04-5.86-4.34-11.68-7.09-17.24-2.89-5.84-2.88-8.06,1.62-12.62q5.86-5.93,.02-11.78-6.25-6.26-12.55-.13c-4.11,4-6.66,4.07-11.7,1.65-5.8-2.79-11.79-5.28-17.87-7.38-5.41-1.87-7.23-3.81-7.3-9.73q-.1-8.37-8.29-8.37-8.93,0-9.02,8.82c-.06,5.7-1.81,7.56-7.15,9.4-5.74,1.98-11.43,4.24-16.85,6.97-5.98,3.01-8.16,3-12.89-1.66-6.57-6.47-4.91-6.46-11.55,.12q-6.31,6.26-.19,12.56c4.17,4.3,4.23,6.59,1.62,12.03-2.68,5.59-5.06,11.37-7.06,17.24-1.85,5.4-3.86,7.27-9.71,7.35-8.55,.11-8.59,.11-8.54,8.49,.05,10.15-1.14,8.7,8.71,8.8,5.92,.06,7.72,1.76,9.6,7.35,1.89,5.65,4.11,11.24,6.77,16.56,3.09,6.18,3.06,8.34-1.77,13.2-6.49,6.52-6.25,4.8,.06,11.23,6.4,6.51,6.44,6.47,13.06,.08,3.81-3.68,6.39-3.8,11.1-1.51,5.47,2.65,11.02,5.24,16.77,7.15,7,2.34,8.38,3.71,8.41,11.13,.03,8.52-.8,7.6,7.62,7.62q9.53,.02,9.69-9.38c0-.37,0-.75,.02-1.12,.08-3.87,2.14-6.09,5.67-7.46,6.82-2.66,13.61-5.4,20.28-8.4,3.66-1.65,6.73-1.36,9.58,1.37,1.71,1.64,3.4,3.31,5.04,5.03,1.36,1.42,2.61,1.7,4.11,.14,2.68-2.79,5.47-5.48,8.16-8.26,.57-.59,.93-1.39,1.46-2.19Z"/><path d="M168.85,205.64c-5.69-6.42-11.21-12.65-16.73-18.88-.74-.84-1.54-1.65-2.16-2.58-2.15-3.2-1.64-7.35,1.15-9.86,2.79-2.51,7.26-2.85,9.84-.04,7.77,8.42,15.43,16.97,22.8,25.74,2.89,3.44,2.6,8.33-.38,11.82-7.12,8.34-14.42,16.54-21.81,24.64-2.86,3.14-7.47,3.15-10.43,.5-3.12-2.78-3.47-7.28-.52-10.74,4.53-5.31,9.25-10.46,13.89-15.68,1.39-1.57,2.77-3.15,4.34-4.94Z"/><path d="M59.41,205.65c6.24,7.02,12.15,13.62,18,20.27,2.48,2.82,3.04,6.04,1.1,9.33-1.88,3.18-4.92,4.27-8.38,3.24-1.57-.47-3.11-1.62-4.23-2.86-6.72-7.39-13.35-14.86-19.92-22.39-4.4-5.04-4.43-10.17-.08-15.13,6.58-7.52,13.23-14.97,19.91-22.4,3.46-3.85,7.85-4.39,11.2-1.51,3.45,2.96,3.49,7.63,0,11.61-5.76,6.55-11.57,13.05-17.59,19.84Z"/><path d="M129.03,175.57c-1.56,6.6-3.3,14.01-5.06,21.42-3.13,13.11-6.27,26.22-9.41,39.33-.2,.85-.4,1.7-.66,2.53-1.35,4.2-4.97,6.46-8.88,5.57-4.09-.93-6.61-4.72-5.61-9.15,2.81-12.42,5.82-24.79,8.75-37.18,1.93-8.14,3.88-16.27,5.78-24.41,.84-3.59,2.72-6.17,6.49-6.9,4.64-.9,8.85,3.02,8.59,8.79Z"/><path d="M113.15,287.26c4.33-.07,7.68,3.15,7.71,7.41,.03,4.24-3.36,7.64-7.58,7.62-3.99-.02-7.43-3.34-7.59-7.31-.16-4.13,3.24-7.65,7.46-7.72Z"/><path class="d" d="M15.24,108.68c-.07-1.26-.19-2.35-.19-3.44-.01-18.13,0-36.26,0-54.39,0-6.94,1.7-13.37,6-18.93,4.27-5.51,9.88-7.92,16.91-7.91,80.48,.08,160.96,.05,241.44,.05,12.23,0,24.46,0,36.68,0,14.68,0,24.2,8.81,24.58,23.71,.43,17.12,.16,34.26,.19,51.39,0,3.1,0,6.2,0,9.52H15.24Zm242.92-16.47v.03c10.98,0,21.95,.05,32.93-.02,7.9-.05,14.68-2.91,19.71-9.09,6.57-8.07,7.97-17.17,3.68-26.67-4.57-10.12-12.91-14.97-23.86-15.03-21.7-.12-43.41-.07-65.11,.01-2.59,0-5.25,.35-7.75,1.03-11.79,3.22-19.72,14.79-18.47,26.65,1.35,12.82,11.6,22.71,24.45,23.02,11.47,.28,22.95,.06,34.42,.06Zm-97.18-25.18c.07-14.06-11.31-25.59-25.29-25.6-13.78-.02-25.19,11.33-25.34,25.21-.16,13.93,11.38,25.58,25.33,25.58,13.84,0,25.23-11.34,25.3-25.19Zm-116.18-.07c.05,13.94,11.31,25.23,25.18,25.27,14.04,.03,25.38-11.4,25.32-25.51-.06-13.93-11.32-25.24-25.19-25.29-13.97-.06-25.36,11.44-25.31,25.54Z"/><path class="d" d="M349.89,329.76c-.52,.8-.88,1.6-1.46,2.19-2.69,2.78-5.48,5.47-8.16,8.26-1.5,1.56-2.75,1.28-4.11-.14-1.64-1.71-3.32-3.39-5.04-5.03-2.86-2.73-5.92-3.02-9.58-1.37-6.67,3-13.46,5.74-20.28,8.4-3.53,1.38-5.59,3.6-5.67,7.46,0,.37-.01,.75-.02,1.12q-.15,9.38-9.69,9.38c-8.42-.02-7.59,.9-7.62-7.62-.03-7.42-1.41-8.8-8.41-11.13-5.75-1.92-11.31-4.5-16.77-7.15-4.72-2.29-7.29-2.17-11.1,1.51-6.62,6.39-6.66,6.43-13.06-.08-6.32-6.42-6.56-4.71-.06-11.23,4.84-4.86,4.87-7.01,1.77-13.2-2.66-5.32-4.88-10.91-6.77-16.56-1.87-5.6-3.68-7.29-9.6-7.35-9.84-.1-8.65,1.34-8.71-8.8-.04-8.37,0-8.37,8.54-8.49,5.85-.08,7.86-1.95,9.71-7.35,2-5.87,4.38-11.64,7.06-17.24,2.61-5.45,2.56-7.73-1.62-12.03q-6.09-6.28,.19-12.56c6.63-6.58,4.98-6.59,11.55-.12,4.73,4.66,6.92,4.67,12.89,1.66,5.42-2.73,11.11-4.99,16.85-6.97,5.34-1.84,7.09-3.7,7.15-9.4q.09-8.82,9.02-8.82,8.19,0,8.29,8.37c.07,5.92,1.89,7.87,7.3,9.73,6.08,2.1,12.07,4.59,17.87,7.38,5.04,2.42,7.59,2.35,11.7-1.65q6.3-6.13,12.55,.13,5.84,5.85-.02,11.78c-4.51,4.57-4.51,6.78-1.62,12.62,2.75,5.56,5.05,11.38,7.09,17.24,1.8,5.17,3.74,7.06,9.02,7.21q9.17,.26,9.17,9.39c-.01,8.56,.91,7.91-7.78,7.91-7.22,0-8.54,1.34-10.83,8.18-1.93,5.76-4.46,11.35-7.11,16.82-2.3,4.76-2.21,7.36,1.44,11.12,1.39,1.43,2.84,2.81,4.22,4.26,.58,.61,1.05,1.33,1.69,2.15Zm-109.09-51.2c.03,25.46,20.85,46.26,46.22,46.19,25.15-.07,45.94-20.9,46.02-46.1,.08-25.42-20.68-46.23-46.13-46.26-25.5-.03-46.14,20.64-46.12,46.18Z"/><path d="M258.17,92.2c-11.47,0-22.96,.22-34.42-.06-12.85-.32-23.1-10.2-24.45-23.02-1.25-11.87,6.68-23.43,18.47-26.65,2.49-.68,5.16-1.02,7.75-1.03,21.7-.08,43.41-.13,65.11-.01,10.95,.06,19.29,4.91,23.86,15.03,4.29,9.49,2.89,18.6-3.68,26.67-5.03,6.18-11.81,9.04-19.71,9.09-10.98,.07-21.95,.02-32.93,.02v-.03Zm.11-35.6c-11.1,0-22.2-.11-33.29,.04-6.3,.09-10.71,4.52-10.67,10.21,.03,5.71,4.45,10.18,10.72,10.22,21.95,.11,43.89,.07,65.84,.03,4.31,0,7.76-1.81,9.74-5.79,3.48-6.99-1.45-14.54-9.79-14.67-10.85-.18-21.7-.04-32.54-.04Z"/><path d="M160.98,67.02c-.07,13.85-11.46,25.19-25.3,25.19-13.95,0-25.49-11.66-25.33-25.58,.16-13.88,11.56-25.23,25.34-25.21,13.98,.02,25.36,11.54,25.29,25.6Zm-15.06-.27c-.04-5.61-4.75-10.19-10.39-10.1-5.55,.09-9.92,4.51-9.96,10.08-.04,5.7,4.51,10.36,10.12,10.35,5.55,0,10.27-4.76,10.24-10.33Z"/><path d="M44.81,66.95c-.05-14.1,11.34-25.59,25.31-25.54,13.87,.06,25.13,11.36,25.19,25.29,.06,14.11-11.28,25.54-25.32,25.51-13.87-.03-25.13-11.33-25.18-25.27Zm35.38-.19c-.03-5.69-4.64-10.21-10.31-10.12-5.52,.09-9.95,4.56-10,10.07-.05,5.61,4.59,10.36,10.14,10.37,5.57,.01,10.19-4.68,10.17-10.33Z"/><path d="M240.79,278.56c-.03-25.54,20.61-46.21,46.12-46.18,25.45,.03,46.2,20.85,46.13,46.26-.08,25.2-20.87,46.03-46.02,46.1-25.38,.07-46.19-20.73-46.22-46.19Zm15.13-.09c0,17.12,13.73,31,30.81,31.14,17.04,.14,31.31-14.16,31.17-31.24-.14-17.14-13.98-30.88-31.09-30.85-17.13,.02-30.88,13.81-30.89,30.96Z"/><path class="d" d="M258.28,56.6c10.85,0,21.7-.14,32.54,.04,8.34,.14,13.28,7.69,9.79,14.67-1.98,3.98-5.43,5.78-9.74,5.79-21.95,.04-43.89,.09-65.84-.03-6.27-.03-10.69-4.51-10.72-10.22-.03-5.69,4.38-10.13,10.67-10.21,11.1-.15,22.2-.04,33.29-.05Z"/><path class="d" d="M145.92,66.75c.04,5.56-4.68,10.32-10.24,10.33-5.61,0-10.16-4.66-10.12-10.35,.04-5.56,4.42-9.99,9.96-10.08,5.64-.09,10.35,4.49,10.39,10.1Z"/><path class="d" d="M80.19,66.76c.03,5.65-4.6,10.34-10.17,10.33-5.55-.01-10.19-4.76-10.14-10.37,.05-5.51,4.49-9.98,10-10.07,5.67-.1,10.28,4.43,10.31,10.12Z"/><path class="d" d="M255.92,278.47c0-17.16,13.76-30.94,30.89-30.96,17.1-.02,30.95,13.72,31.09,30.85,.14,17.08-14.13,31.38-31.17,31.24-17.09-.14-30.82-14.01-30.81-31.14Z"/></g></g></g></svg>