<?xml version="1.0" encoding="UTF-8"?><svg xmlns="http://www.w3.org/2000/svg" viewBox="0 0 383.36 366.35"><g id="a"/><g id="b"><g id="c"><path d="M0,35.46c1.19-4.04,2.11-8.19,3.63-12.1C8.08,11.88,19.69,.02,38.23,.07,131.18,.34,224.14,.47,317.1,0c23.22-.12,36.8,18.23,38.52,35.67,.31,3.1,.4,6.24,.4,9.36,.02,51.14,0,102.28,.11,153.42,0,2,.78,4.63,2.17,5.88,8.94,8,8.28,20.39,.44,27.06-.27,.23-.4,.62-.54,.84,1.59,3.89,3,7.75,4.78,11.45,.49,1.03,2.01,2.08,3.15,2.19,11.14,1.05,17.16,7.47,17.2,18.61,.01,4,.06,8-.01,12-.19,9.43-7.11,16.68-16.49,16.93-2.59,.07-3.94,.76-4.4,3.28-.15,.85-.46,1.71-.89,2.46-2.74,4.74-3.59,8.63,.78,13.68,4.64,5.36,3.24,13.93-1.63,19.35-3.5,3.9-7.21,7.63-11.09,11.16-6.62,6.02-16.22,5.96-22.72-.24-2-1.91-3.58-2.23-5.72-.77-.1,.07-.23,.11-.34,.14-6.2,1.85-10.71,4.32-11.42,12.3-.6,6.8-8.1,11.32-15.23,11.5-4.61,.12-9.23,.09-13.85,.02-9.38-.13-16.42-6.52-16.99-15.96-.19-3.22-1.47-4.25-4.21-5.4-5.57-2.33-10.11-4.77-16.07,.64-4.94,4.48-13.4,2.64-18.6-2.09-3.87-3.53-7.63-7.22-11.13-11.12-6.03-6.71-5.95-16.2,.27-22.76,1.92-2.02,2.15-3.52,.75-5.76-.91-1.46-1.45-3.17-2.1-4.79-1.47-3.7-4.24-5.55-8.33-5.55-18.72,0-37.43,.02-56.15-.01-4.76,0-7.88-2.38-8.49-6.25-.79-5.02,2.59-8.76,8.1-8.79,12.85-.05,25.7-.02,38.55-.02h4.48c0-4.83-.02-9.29,0-13.75,.07-11.42,6.05-17.78,17.41-18.83,1.12-.1,2.62-1.21,3.11-2.25,1.7-3.59,3.04-7.36,4.61-11.28-.79-.87-1.73-1.85-2.61-2.88-5.68-6.69-5.58-16.11,.38-22.56,3.22-3.48,6.61-6.81,10.03-10.1,6.91-6.65,16.52-6.87,23.56-.34,1.91,1.77,3.37,2.19,5.45,.68,.69-.5,1.54-.88,2.37-1.08,5.43-1.34,8.56-3.82,9.05-10.33,.51-6.73,6.92-11.72,13.73-12.31,5.33-.46,10.72-.46,16.07-.25,9.63,.39,16.01,6.62,16.68,16.29,.18,2.52,.9,3.71,3.35,4.44,2.96,.89,5.71,2.5,8.65,3.5,1.02,.35,2.79,.27,3.46-.39,4.09-4.03,8.93-5.78,14.87-5.45V115.6H15.05v4.1c0,43.64-.08,87.28,.12,130.91,.02,4.75,.91,9.79,2.67,14.19,3.61,9.03,10.4,13.9,20.6,13.7,13.22-.26,26.45-.08,39.68-.06,5.73,0,9.15,2.89,9.1,7.58-.06,4.66-3.5,7.48-9.26,7.48-12.85,.02-25.72-.47-38.55,.11-22.93,1.04-35.87-16.55-38.68-32.9-.14-.83-.47-1.63-.72-2.44,0-74.26,0-148.54,0-222.81ZM15.24,99.88H340.85v-9.52c-.03-17.13,.24-34.27-.19-51.39-.37-14.9-9.9-23.71-24.58-23.71h-36.68c-80.48,0-160.96,.03-241.44-.05-7.03,0-12.64,2.39-16.91,7.91-4.3,5.55-6,11.98-6,18.93v54.39c0,1.09,.12,2.19,.19,3.44h0Zm334.64,221.09c-.64-.82-1.11-1.54-1.69-2.15-1.38-1.44-2.83-2.82-4.22-4.26-3.65-3.76-3.75-6.36-1.44-11.12,2.65-5.48,5.18-11.06,7.11-16.82,2.29-6.83,3.61-8.18,10.83-8.18,8.69,0,7.76,.65,7.78-7.91,.01-6.09-3.04-9.22-9.17-9.39-5.27-.15-7.21-2.04-9.02-7.21-2.04-5.86-4.34-11.68-7.09-17.24-2.89-5.84-2.88-8.06,1.62-12.62,3.91-3.95,3.91-7.88,.02-11.78-4.17-4.17-8.35-4.22-12.55-.13-4.11,4-6.66,4.07-11.7,1.65-5.8-2.79-11.79-5.28-17.87-7.38-5.41-1.87-7.23-3.81-7.3-9.73-.07-5.58-2.83-8.37-8.29-8.37-5.95,0-8.96,2.94-9.02,8.82-.06,5.7-1.81,7.56-7.15,9.4-5.74,1.98-11.43,4.24-16.85,6.97-5.98,3.01-8.16,3-12.89-1.66-6.57-6.47-4.91-6.46-11.55,.12-4.21,4.17-4.27,8.36-.19,12.56,4.17,4.3,4.23,6.59,1.62,12.03-2.68,5.59-5.06,11.37-7.06,17.24-1.85,5.4-3.86,7.27-9.71,7.35-8.55,.11-8.59,.11-8.54,8.49,.05,10.15-1.14,8.7,8.71,8.8,5.92,.06,7.72,1.76,9.6,7.35,1.89,5.65,4.11,11.24,6.77,16.56,3.09,6.18,3.06,8.34-1.77,13.2-6.49,6.52-6.25,4.8,.06,11.23,6.4,6.51,6.44,6.47,13.06,.08,3.81-3.68,6.39-3.8,11.1-1.51,5.47,2.65,11.02,5.24,16.77,7.15,7,2.34,8.38,3.71,8.41,11.13,.03,8.52-.8,7.6,7.62,7.62,6.35,.01,9.58-3.11,9.69-9.38,0-.37,0-.75,.02-1.12,.08-3.87,2.14-6.09,5.67-7.46,6.82-2.66,13.61-5.4,20.28-8.4,3.66-1.65,6.73-1.36,9.58,1.37,1.71,1.64,3.4,3.31,5.04,5.03,1.36,1.42,2.61,1.7,4.11,.14,2.68-2.79,5.47-5.48,8.16-8.26,.57-.59,.93-1.39,1.46-2.19l-.02-.02Z"/><path d="M168.85,196.84c-5.69-6.42-11.21-12.65-16.73-18.88-.74-.84-1.54-1.65-2.16-2.58-2.15-3.2-1.64-7.35,1.15-9.86s7.26-2.85,9.84-.04c7.77,8.42,15.43,16.97,22.8,25.74,2.89,3.44,2.6,8.33-.38,11.82-7.12,8.34-14.42,16.54-21.81,24.64-2.86,3.14-7.47,3.15-10.43,.5-3.12-2.78-3.47-7.28-.52-10.74,4.53-5.31,9.25-10.46,13.89-15.68,1.39-1.57,2.77-3.15,4.34-4.94v.02Z"/><path d="M59.41,196.85c6.24,7.02,12.15,13.62,18,20.27,2.48,2.82,3.04,6.04,1.1,9.33-1.88,3.18-4.92,4.27-8.38,3.24-1.57-.47-3.11-1.62-4.23-2.86-6.72-7.39-13.35-14.86-19.92-22.39-4.4-5.04-4.43-10.17-.08-15.13,6.58-7.52,13.23-14.97,19.91-22.4,3.46-3.85,7.85-4.39,11.2-1.51,3.45,2.96,3.49,7.63,0,11.61-5.76,6.55-11.57,13.05-17.59,19.84h0Z"/><path d="M129.03,166.77c-1.56,6.6-3.3,14.01-5.06,21.42-3.13,13.11-6.27,26.22-9.41,39.33-.2,.85-.4,1.7-.66,2.53-1.35,4.2-4.97,6.46-8.88,5.57-4.09-.93-6.61-4.72-5.61-9.15,2.81-12.42,5.82-24.79,8.75-37.18,1.93-8.14,3.88-16.27,5.78-24.41,.84-3.59,2.72-6.17,6.49-6.9,4.64-.9,8.85,3.02,8.59,8.79h.01Z"/><path d="M113.15,278.46c4.33-.07,7.68,3.15,7.71,7.41,.03,4.24-3.36,7.64-7.58,7.62-3.99-.02-7.43-3.34-7.59-7.31-.16-4.13,3.24-7.65,7.46-7.72Z"/><path d="M258.17,83.4c-11.47,0-22.96,.22-34.42-.06-12.85-.32-23.1-10.2-24.45-23.02-1.25-11.87,6.68-23.43,18.47-26.65,2.49-.68,5.16-1.02,7.75-1.03,21.7-.08,43.41-.13,65.11,0,10.95,.06,19.29,4.91,23.86,15.03,4.29,9.49,2.89,18.6-3.68,26.67-5.03,6.18-11.81,9.04-19.71,9.09-10.98,.07-21.95,.02-32.93,.02v-.03h0Zm.11-35.61c-11.1,0-22.2-.11-33.29,.04-6.3,.09-10.71,4.52-10.67,10.21,.03,5.71,4.45,10.18,10.72,10.22,21.95,.11,43.89,.07,65.84,.03,4.31,0,7.76-1.81,9.74-5.79,3.48-6.99-1.45-14.54-9.79-14.67-10.85-.18-21.7-.04-32.54-.04h0Z"/><path d="M160.98,58.22c-.07,13.85-11.46,25.19-25.3,25.19s-25.49-11.66-25.33-25.58c.16-13.88,11.56-25.23,25.34-25.21,13.98,.02,25.36,11.54,25.29,25.6h0Zm-15.06-.27c-.04-5.61-4.75-10.19-10.39-10.1-5.55,.09-9.92,4.51-9.96,10.08-.04,5.7,4.51,10.36,10.12,10.35,5.55,0,10.27-4.76,10.24-10.33h-.01Z"/><path d="M44.81,58.15c-.05-14.1,11.34-25.59,25.31-25.54,13.87,.06,25.13,11.36,25.19,25.29,.06,14.11-11.28,25.54-25.32,25.51-13.87-.03-25.13-11.33-25.18-25.27h0Zm35.38-.18c-.03-5.69-4.64-10.21-10.31-10.12-5.52,.09-9.95,4.56-10,10.07-.05,5.61,4.59,10.36,10.14,10.37,5.57,.01,10.19-4.68,10.17-10.33h0Z"/><path d="M240.79,269.76c-.03-25.54,20.61-46.21,46.12-46.18,25.45,.03,46.2,20.85,46.13,46.26-.08,25.2-20.87,46.03-46.02,46.1-25.38,.07-46.19-20.73-46.22-46.19h-.01Zm15.13-.08c0,17.12,13.73,31,30.81,31.14,17.04,.14,31.31-14.16,31.17-31.24-.14-17.14-13.98-30.88-31.09-30.85-17.13,.02-30.88,13.81-30.89,30.96h0Z"/></g></g></svg>