<svg width="1920" height="1080" viewBox="0 0 1920 1080" fill="none" xmlns="http://www.w3.org/2000/svg">
<rect width="1920" height="1080" fill="#F5F5F5"/>
<path d="M112.48 143V106.776H100.704V99.288H132.704V106.776H121.312V143H112.48ZM144.892 156.504L148.988 143H142.14L134.524 110.872H143.42L149.116 135.768H150.78L156.476 110.872H165.052L153.98 156.504H144.892ZM169.52 156.504V110.872H177.968L178.032 112.92C178.629 112.536 179.376 112.131 180.272 111.704C181.211 111.277 182.213 110.915 183.28 110.616C184.347 110.317 185.392 110.168 186.416 110.168C190.725 110.168 193.819 111.555 195.696 114.328C197.573 117.059 198.512 121.219 198.512 126.808C198.512 130.819 198.043 134.061 197.104 136.536C196.165 139.011 194.651 140.824 192.56 141.976C190.512 143.128 187.803 143.704 184.432 143.704C183.365 143.704 182.213 143.619 180.976 143.448C179.739 143.277 178.757 143.107 178.032 142.936V156.504H169.52ZM183.088 136.6C184.795 136.6 186.139 136.237 187.12 135.512C188.101 134.787 188.784 133.699 189.168 132.248C189.595 130.755 189.808 128.877 189.808 126.616C189.808 123.117 189.317 120.707 188.336 119.384C187.397 118.019 186.032 117.336 184.24 117.336C183.557 117.336 182.832 117.421 182.064 117.592C181.296 117.763 180.549 117.976 179.824 118.232C179.099 118.488 178.501 118.744 178.032 119V136.152C178.544 136.195 179.269 136.28 180.208 136.408C181.189 136.536 182.149 136.6 183.088 136.6ZM218.157 143.704C214.53 143.704 211.607 143.107 209.389 141.912C207.213 140.717 205.634 138.883 204.653 136.408C203.671 133.891 203.181 130.648 203.181 126.68C203.181 122.84 203.693 119.725 204.717 117.336C205.741 114.904 207.362 113.112 209.581 111.96C211.799 110.765 214.658 110.168 218.157 110.168C221.698 110.168 224.557 110.765 226.733 111.96C228.951 113.112 230.573 114.904 231.597 117.336C232.663 119.725 233.197 122.84 233.197 126.68C233.197 130.648 232.706 133.891 231.725 136.408C230.743 138.883 229.143 140.717 226.925 141.912C224.749 143.107 221.826 143.704 218.157 143.704ZM218.157 136.664C219.949 136.664 221.293 136.344 222.189 135.704C223.085 135.021 223.682 133.955 223.981 132.504C224.322 131.011 224.493 129.069 224.493 126.68C224.493 124.333 224.301 122.477 223.917 121.112C223.533 119.704 222.893 118.701 221.997 118.104C221.101 117.507 219.821 117.208 218.157 117.208C216.535 117.208 215.255 117.507 214.317 118.104C213.421 118.701 212.781 119.704 212.397 121.112C212.013 122.477 211.821 124.333 211.821 126.68C211.821 129.069 211.97 131.011 212.269 132.504C212.61 133.955 213.229 135.021 214.125 135.704C215.021 136.344 216.365 136.664 218.157 136.664ZM253.164 157.656C249.751 157.656 246.892 157.4 244.588 156.888C242.327 156.376 240.62 155.437 239.468 154.072C238.316 152.749 237.74 150.829 237.74 148.312C237.74 147.203 237.889 146.2 238.188 145.304C238.529 144.451 239.041 143.64 239.724 142.872C240.449 142.104 241.345 141.315 242.412 140.504C241.815 140.077 241.324 139.459 240.94 138.648C240.599 137.795 240.428 136.877 240.428 135.896C240.428 135.384 240.727 134.637 241.324 133.656C241.964 132.632 242.583 131.736 243.18 130.968C242.327 130.584 241.516 130.029 240.748 129.304C239.98 128.536 239.34 127.512 238.828 126.232C238.359 124.952 238.124 123.309 238.124 121.304C238.124 117.251 239.276 114.392 241.58 112.728C243.927 111.021 247.255 110.168 251.564 110.168C252.673 110.168 253.868 110.253 255.148 110.424C256.428 110.595 257.452 110.765 258.22 110.936L268.652 110.744V116.504L263.788 116.44C264.172 116.952 264.513 117.613 264.812 118.424C265.153 119.192 265.324 120.152 265.324 121.304C265.324 124.248 264.812 126.531 263.788 128.152C262.807 129.773 261.313 130.904 259.308 131.544C257.303 132.141 254.764 132.44 251.692 132.44C251.351 132.44 250.881 132.419 250.284 132.376C249.687 132.291 249.196 132.227 248.812 132.184C248.641 132.611 248.471 133.101 248.3 133.656C248.129 134.168 248.044 134.531 248.044 134.744C248.044 135.299 248.215 135.725 248.556 136.024C248.94 136.323 249.687 136.536 250.796 136.664C251.948 136.749 253.676 136.792 255.98 136.792C259.009 136.792 261.42 137.069 263.212 137.624C265.047 138.179 266.348 139.16 267.116 140.568C267.884 141.976 268.268 143.96 268.268 146.52C268.268 150.317 266.924 153.112 264.236 154.904C261.591 156.739 257.9 157.656 253.164 157.656ZM252.716 151.32C255.361 151.32 257.26 151 258.412 150.36C259.607 149.763 260.204 148.76 260.204 147.352C260.204 146.243 259.991 145.432 259.564 144.92C259.18 144.408 258.519 144.067 257.58 143.896C256.641 143.768 255.361 143.704 253.74 143.704C253.313 143.704 252.801 143.683 252.204 143.64C251.607 143.64 250.988 143.619 250.348 143.576C249.751 143.576 249.196 143.555 248.684 143.512C248.215 143.469 247.873 143.448 247.66 143.448C246.721 144.088 246.081 144.664 245.74 145.176C245.399 145.731 245.228 146.456 245.228 147.352C245.228 148.333 245.463 149.101 245.932 149.656C246.401 150.253 247.169 150.68 248.236 150.936C249.345 151.192 250.839 151.32 252.716 151.32ZM251.628 126.424C253.591 126.424 254.977 126.04 255.788 125.272C256.641 124.461 257.068 123.139 257.068 121.304C257.068 119.469 256.641 118.147 255.788 117.336C254.977 116.525 253.591 116.12 251.628 116.12C249.751 116.12 248.385 116.525 247.532 117.336C246.721 118.147 246.316 119.469 246.316 121.304C246.316 123.139 246.721 124.461 247.532 125.272C248.385 126.04 249.751 126.424 251.628 126.424ZM273.145 143V110.872H281.657V114.648C282.382 114.093 283.278 113.517 284.345 112.92C285.412 112.28 286.564 111.704 287.801 111.192C289.081 110.637 290.297 110.275 291.449 110.104V118.36C290.34 118.531 289.166 118.829 287.929 119.256C286.692 119.64 285.518 120.067 284.409 120.536C283.342 121.005 282.425 121.432 281.657 121.816V143H273.145ZM304.279 143.704C300.951 143.704 298.434 142.872 296.727 141.208C295.063 139.501 294.231 136.941 294.231 133.528C294.231 131.139 294.658 129.283 295.511 127.96C296.364 126.595 297.623 125.613 299.287 125.016C300.994 124.376 303.063 123.992 305.495 123.864L313.303 123.16V121.24C313.303 119.704 312.919 118.637 312.151 118.04C311.383 117.4 310.252 117.08 308.759 117.08C307.564 117.08 306.178 117.123 304.599 117.208C303.063 117.293 301.527 117.4 299.991 117.528C298.498 117.656 297.196 117.784 296.087 117.912L295.831 111.896C296.94 111.64 298.263 111.384 299.799 111.128C301.378 110.829 303.02 110.595 304.727 110.424C306.434 110.253 308.012 110.168 309.463 110.168C312.194 110.168 314.476 110.509 316.311 111.192C318.146 111.875 319.532 113.005 320.471 114.584C321.41 116.12 321.879 118.211 321.879 120.856V135.512C321.964 136.109 322.284 136.579 322.839 136.92C323.394 137.219 324.034 137.432 324.759 137.56L324.567 143.448C323.543 143.491 322.54 143.512 321.559 143.512C320.578 143.512 319.746 143.448 319.063 143.32C318.082 143.192 317.228 142.936 316.503 142.552C315.82 142.168 315.266 141.763 314.839 141.336C314.156 141.635 313.239 141.976 312.087 142.36C310.935 142.744 309.676 143.064 308.311 143.32C306.988 143.576 305.644 143.704 304.279 143.704ZM306.327 137.368C307.138 137.368 307.991 137.283 308.887 137.112C309.783 136.941 310.615 136.749 311.383 136.536C312.194 136.28 312.834 136.045 313.303 135.832V128.472L306.775 129.048C305.367 129.176 304.343 129.603 303.703 130.328C303.106 131.011 302.807 131.992 302.807 133.272C302.807 134.552 303.084 135.555 303.639 136.28C304.236 137.005 305.132 137.368 306.327 137.368ZM329.395 156.504V110.872H337.843L337.907 112.92C338.504 112.536 339.251 112.131 340.147 111.704C341.086 111.277 342.088 110.915 343.155 110.616C344.222 110.317 345.267 110.168 346.291 110.168C350.6 110.168 353.694 111.555 355.571 114.328C357.448 117.059 358.387 121.219 358.387 126.808C358.387 130.819 357.918 134.061 356.979 136.536C356.04 139.011 354.526 140.824 352.435 141.976C350.387 143.128 347.678 143.704 344.307 143.704C343.24 143.704 342.088 143.619 340.851 143.448C339.614 143.277 338.632 143.107 337.907 142.936V156.504H329.395ZM342.963 136.6C344.67 136.6 346.014 136.237 346.995 135.512C347.976 134.787 348.659 133.699 349.043 132.248C349.47 130.755 349.683 128.877 349.683 126.616C349.683 123.117 349.192 120.707 348.211 119.384C347.272 118.019 345.907 117.336 344.115 117.336C343.432 117.336 342.707 117.421 341.939 117.592C341.171 117.763 340.424 117.976 339.699 118.232C338.974 118.488 338.376 118.744 337.907 119V136.152C338.419 136.195 339.144 136.28 340.083 136.408C341.064 136.536 342.024 136.6 342.963 136.6ZM364.208 143V97.752H372.72V112.024C373.786 111.64 375.152 111.235 376.816 110.808C378.48 110.381 380.016 110.168 381.424 110.168C384.41 110.168 386.736 110.701 388.4 111.768C390.064 112.792 391.216 114.477 391.856 116.824C392.538 119.171 392.88 122.285 392.88 126.168V143H384.304V126.808C384.304 124.589 384.176 122.819 383.92 121.496C383.664 120.131 383.173 119.149 382.448 118.552C381.765 117.955 380.698 117.656 379.248 117.656C378.096 117.656 376.901 117.805 375.664 118.104C374.469 118.403 373.488 118.68 372.72 118.936V143H364.208ZM407.455 156.504L411.551 143H404.703L397.087 110.872H405.983L411.679 135.768H413.343L419.039 110.872H427.615L416.543 156.504H407.455ZM460.676 143.704C459.055 143.704 457.284 143.597 455.364 143.384C453.444 143.213 451.567 143 449.732 142.744C447.94 142.445 446.404 142.189 445.124 141.976L445.7 135C447.023 135.171 448.559 135.363 450.308 135.576C452.057 135.747 453.785 135.896 455.492 136.024C457.241 136.152 458.756 136.216 460.036 136.216C462.468 136.216 464.239 135.747 465.348 134.808C466.457 133.827 467.012 132.312 467.012 130.264C467.012 129.155 466.777 128.28 466.308 127.64C465.881 126.957 465.092 126.424 463.94 126.04C462.788 125.613 461.188 125.208 459.14 124.824C455.727 124.184 452.953 123.395 450.82 122.456C448.729 121.517 447.193 120.195 446.212 118.488C445.273 116.781 444.804 114.499 444.804 111.64C444.804 108.312 445.423 105.709 446.66 103.832C447.897 101.912 449.668 100.547 451.972 99.736C454.276 98.9253 456.985 98.52 460.1 98.52C461.508 98.52 463.108 98.6053 464.9 98.776C466.735 98.904 468.527 99.0747 470.276 99.288C472.068 99.5013 473.583 99.736 474.82 99.992L474.436 107.032C473.156 106.861 471.663 106.712 469.956 106.584C468.292 106.413 466.628 106.264 464.964 106.136C463.343 106.008 461.956 105.944 460.804 105.944C458.372 105.944 456.58 106.328 455.428 107.096C454.276 107.864 453.7 109.101 453.7 110.808C453.7 112.088 453.956 113.069 454.468 113.752C454.98 114.435 455.833 114.989 457.028 115.416C458.265 115.843 459.951 116.291 462.084 116.76C464.601 117.315 466.735 117.912 468.484 118.552C470.276 119.192 471.705 119.96 472.772 120.856C473.881 121.752 474.692 122.904 475.204 124.312C475.716 125.72 475.972 127.491 475.972 129.624C475.972 133.037 475.353 135.789 474.116 137.88C472.921 139.928 471.172 141.421 468.868 142.36C466.607 143.256 463.876 143.704 460.676 143.704ZM494.703 143.704C491.033 143.704 488.153 143.149 486.062 142.04C484.015 140.888 482.564 139.053 481.711 136.536C480.9 134.019 480.495 130.712 480.495 126.616C480.495 122.563 480.964 119.341 481.903 116.952C482.841 114.52 484.356 112.792 486.447 111.768C488.58 110.701 491.353 110.168 494.767 110.168C495.663 110.168 496.708 110.232 497.903 110.36C499.097 110.488 500.292 110.659 501.487 110.872C502.724 111.043 503.769 111.213 504.623 111.384L504.303 118.232C503.492 118.147 502.575 118.083 501.551 118.04C500.527 117.955 499.524 117.891 498.543 117.848C497.604 117.763 496.836 117.72 496.239 117.72C494.404 117.72 492.953 118.019 491.887 118.616C490.863 119.171 490.137 120.109 489.711 121.432C489.327 122.712 489.135 124.44 489.135 126.616C489.135 128.963 489.327 130.84 489.711 132.248C490.095 133.656 490.777 134.659 491.759 135.256C492.783 135.853 494.276 136.152 496.239 136.152C496.836 136.152 497.625 136.131 498.607 136.088C499.588 136.003 500.591 135.917 501.615 135.832C502.681 135.747 503.62 135.683 504.431 135.64L504.687 142.488C503.833 142.659 502.809 142.829 501.615 143C500.42 143.213 499.204 143.384 497.967 143.512C496.772 143.64 495.684 143.704 494.703 143.704ZM518.592 143.704C515.264 143.704 512.746 142.872 511.04 141.208C509.376 139.501 508.544 136.941 508.544 133.528C508.544 131.139 508.97 129.283 509.824 127.96C510.677 126.595 511.936 125.613 513.6 125.016C515.306 124.376 517.376 123.992 519.808 123.864L527.616 123.16V121.24C527.616 119.704 527.232 118.637 526.464 118.04C525.696 117.4 524.565 117.08 523.072 117.08C521.877 117.08 520.49 117.123 518.912 117.208C517.376 117.293 515.84 117.4 514.304 117.528C512.81 117.656 511.509 117.784 510.4 117.912L510.144 111.896C511.253 111.64 512.576 111.384 514.112 111.128C515.69 110.829 517.333 110.595 519.04 110.424C520.746 110.253 522.325 110.168 523.776 110.168C526.506 110.168 528.789 110.509 530.624 111.192C532.458 111.875 533.845 113.005 534.784 114.584C535.722 116.12 536.192 118.211 536.192 120.856V135.512C536.277 136.109 536.597 136.579 537.152 136.92C537.706 137.219 538.346 137.432 539.072 137.56L538.88 143.448C537.856 143.491 536.853 143.512 535.872 143.512C534.89 143.512 534.058 143.448 533.376 143.32C532.394 143.192 531.541 142.936 530.816 142.552C530.133 142.168 529.578 141.763 529.152 141.336C528.469 141.635 527.552 141.976 526.4 142.36C525.248 142.744 523.989 143.064 522.624 143.32C521.301 143.576 519.957 143.704 518.592 143.704ZM520.64 137.368C521.45 137.368 522.304 137.283 523.2 137.112C524.096 136.941 524.928 136.749 525.696 136.536C526.506 136.28 527.146 136.045 527.616 135.832V128.472L521.088 129.048C519.68 129.176 518.656 129.603 518.016 130.328C517.418 131.011 517.12 131.992 517.12 133.272C517.12 134.552 517.397 135.555 517.952 136.28C518.549 137.005 519.445 137.368 520.64 137.368ZM543.964 143V97.752H552.476V143H543.964ZM572.762 143.704C569.221 143.704 566.405 143.107 564.314 141.912C562.266 140.717 560.794 138.904 559.898 136.472C559.002 134.04 558.554 130.989 558.554 127.32C558.554 123.352 559.109 120.109 560.218 117.592C561.37 115.075 563.034 113.219 565.21 112.024C567.386 110.787 570.074 110.168 573.274 110.168C578.01 110.168 581.573 111.363 583.962 113.752C586.394 116.141 587.61 119.917 587.61 125.08L587.226 129.816H567.13C567.173 132.205 567.663 133.997 568.602 135.192C569.541 136.387 571.162 136.984 573.466 136.984C574.789 136.984 576.239 136.963 577.818 136.92C579.397 136.835 580.954 136.749 582.49 136.664C584.069 136.579 585.413 136.493 586.522 136.408L586.714 142.36C585.647 142.531 584.303 142.723 582.682 142.936C581.061 143.149 579.375 143.32 577.626 143.448C575.919 143.619 574.298 143.704 572.762 143.704ZM567.13 124.376H579.098C579.098 121.475 578.629 119.448 577.69 118.296C576.794 117.144 575.322 116.568 573.274 116.568C571.269 116.568 569.733 117.165 568.666 118.36C567.642 119.555 567.13 121.56 567.13 124.376Z" fill="black"/>
<path d="M144.032 715V671.288H161.44C164.341 671.288 166.837 671.651 168.928 672.376C171.019 673.101 172.64 674.275 173.792 675.896C174.987 677.475 175.584 679.608 175.584 682.296C175.584 684.131 175.392 685.688 175.008 686.968C174.667 688.205 174.112 689.272 173.344 690.168C172.619 691.021 171.659 691.811 170.464 692.536C171.744 693.005 172.853 693.645 173.792 694.456C174.773 695.224 175.52 696.269 176.032 697.592C176.544 698.872 176.8 700.579 176.8 702.712C176.8 705.059 176.437 707.021 175.712 708.6C174.987 710.179 173.941 711.437 172.576 712.376C171.253 713.315 169.696 713.997 167.904 714.424C166.112 714.808 164.149 715 162.016 715H144.032ZM152.864 708.472H161.376C162.869 708.472 164.107 708.301 165.088 707.96C166.112 707.576 166.88 706.915 167.392 705.976C167.947 705.037 168.224 703.736 168.224 702.072C168.224 700.792 168.011 699.747 167.584 698.936C167.157 698.125 166.603 697.528 165.92 697.144C165.237 696.717 164.469 696.419 163.616 696.248C162.805 696.077 161.995 695.992 161.184 695.992H152.864V708.472ZM152.864 689.72H161.12C163.296 689.72 164.853 689.208 165.792 688.184C166.773 687.16 167.264 685.603 167.264 683.512C167.264 681.507 166.731 680.056 165.664 679.16C164.64 678.264 163.019 677.816 160.8 677.816H152.864V689.72ZM196.532 715.704C192.905 715.704 189.982 715.107 187.764 713.912C185.588 712.717 184.009 710.883 183.028 708.408C182.046 705.891 181.556 702.648 181.556 698.68C181.556 694.84 182.068 691.725 183.092 689.336C184.116 686.904 185.737 685.112 187.956 683.96C190.174 682.765 193.033 682.168 196.532 682.168C200.073 682.168 202.932 682.765 205.108 683.96C207.326 685.112 208.948 686.904 209.972 689.336C211.038 691.725 211.572 694.84 211.572 698.68C211.572 702.648 211.081 705.891 210.1 708.408C209.118 710.883 207.518 712.717 205.3 713.912C203.124 715.107 200.201 715.704 196.532 715.704ZM196.532 708.664C198.324 708.664 199.668 708.344 200.564 707.704C201.46 707.021 202.057 705.955 202.356 704.504C202.697 703.011 202.868 701.069 202.868 698.68C202.868 696.333 202.676 694.477 202.292 693.112C201.908 691.704 201.268 690.701 200.372 690.104C199.476 689.507 198.196 689.208 196.532 689.208C194.91 689.208 193.63 689.507 192.692 690.104C191.796 690.701 191.156 691.704 190.772 693.112C190.388 694.477 190.196 696.333 190.196 698.68C190.196 701.069 190.345 703.011 190.644 704.504C190.985 705.955 191.604 707.021 192.5 707.704C193.396 708.344 194.74 708.664 196.532 708.664ZM228.211 715.704C226.675 715.704 225.267 715.512 223.987 715.128C222.707 714.787 221.576 714.232 220.595 713.464C219.656 712.653 218.846 711.608 218.163 710.328C217.523 709.048 217.032 707.491 216.691 705.656C216.35 703.779 216.179 701.603 216.179 699.128C216.179 695.459 216.627 692.365 217.523 689.848C218.462 687.331 219.934 685.432 221.939 684.152C223.944 682.829 226.611 682.168 229.939 682.168C230.92 682.168 232.072 682.253 233.395 682.424C234.76 682.552 235.848 682.68 236.659 682.808V669.752H245.235V715H236.787L236.723 713.144C236.126 713.485 235.336 713.869 234.355 714.296C233.416 714.68 232.414 715 231.347 715.256C230.28 715.555 229.235 715.704 228.211 715.704ZM230.387 708.536C231.155 708.536 231.923 708.451 232.691 708.28C233.502 708.109 234.248 707.917 234.931 707.704C235.656 707.448 236.232 707.213 236.659 707V689.784C236.275 689.699 235.763 689.635 235.123 689.592C234.483 689.507 233.822 689.443 233.139 689.4C232.456 689.315 231.838 689.272 231.283 689.272C229.619 689.272 228.318 689.656 227.379 690.424C226.483 691.192 225.843 692.323 225.459 693.816C225.075 695.267 224.883 697.037 224.883 699.128C224.883 700.963 225.011 702.499 225.267 703.736C225.523 704.931 225.886 705.891 226.355 706.616C226.867 707.299 227.464 707.789 228.147 708.088C228.83 708.387 229.576 708.536 230.387 708.536ZM260.142 728.504L264.238 715H257.39L249.774 682.872H258.67L264.366 707.768H266.03L271.726 682.872H280.302L269.23 728.504H260.142Z" fill="black"/>
<path d="M152.48 331V294.776H140.704V287.288H172.704V294.776H161.312V331H152.48ZM177.02 331V298.872H185.532V331H177.02ZM177.02 293.752V286.456H185.596V293.752H177.02ZM203.909 331.768C201.562 331.768 199.664 331.427 198.213 330.744C196.762 330.061 195.717 328.888 195.077 327.224C194.48 325.517 194.181 323.149 194.181 320.12V305.976H190.405V298.872H194.181V290.36H202.693V298.872H210.885V305.976H202.693V317.88C202.693 319.544 202.757 320.845 202.885 321.784C203.056 322.723 203.397 323.384 203.909 323.768C204.421 324.152 205.21 324.344 206.277 324.344C206.576 324.344 207.024 324.323 207.621 324.28C208.218 324.237 208.816 324.195 209.413 324.152C210.01 324.109 210.501 324.067 210.885 324.024L211.141 330.872C210.117 331.043 208.88 331.235 207.429 331.448C206.021 331.661 204.848 331.768 203.909 331.768ZM215.901 331V285.752H224.413V331H215.901ZM244.7 331.704C241.158 331.704 238.342 331.107 236.252 329.912C234.204 328.717 232.732 326.904 231.836 324.472C230.94 322.04 230.492 318.989 230.492 315.32C230.492 311.352 231.046 308.109 232.156 305.592C233.308 303.075 234.972 301.219 237.148 300.024C239.324 298.787 242.012 298.168 245.212 298.168C249.948 298.168 253.51 299.363 255.9 301.752C258.332 304.141 259.548 307.917 259.548 313.08L259.164 317.816H239.068C239.11 320.205 239.601 321.997 240.54 323.192C241.478 324.387 243.1 324.984 245.404 324.984C246.726 324.984 248.177 324.963 249.756 324.92C251.334 324.835 252.892 324.749 254.428 324.664C256.006 324.579 257.35 324.493 258.46 324.408L258.652 330.36C257.585 330.531 256.241 330.723 254.62 330.936C252.998 331.149 251.313 331.32 249.564 331.448C247.857 331.619 246.236 331.704 244.7 331.704ZM239.068 312.376H251.036C251.036 309.475 250.566 307.448 249.628 306.296C248.732 305.144 247.26 304.568 245.212 304.568C243.206 304.568 241.67 305.165 240.604 306.36C239.58 307.555 239.068 309.56 239.068 312.376Z" fill="black"/>
<path d="M799.776 331.704C796.363 331.704 793.547 331.277 791.328 330.424C789.152 329.528 787.424 328.163 786.144 326.328C784.864 324.493 783.968 322.168 783.456 319.352C782.987 316.493 782.752 313.101 782.752 309.176C782.752 305.208 782.987 301.816 783.456 299C783.968 296.141 784.864 293.795 786.144 291.96C787.424 290.125 789.173 288.76 791.392 287.864C793.653 286.968 796.533 286.52 800.032 286.52C801.44 286.52 802.912 286.605 804.448 286.776C805.984 286.947 807.456 287.16 808.864 287.416C810.315 287.629 811.552 287.864 812.576 288.12L812.32 295.16C811.467 294.989 810.4 294.84 809.12 294.712C807.84 294.541 806.539 294.413 805.216 294.328C803.893 294.243 802.656 294.2 801.504 294.2C799.456 294.2 797.792 294.456 796.512 294.968C795.232 295.48 794.229 296.333 793.504 297.528C792.821 298.723 792.352 300.28 792.096 302.2C791.84 304.077 791.712 306.403 791.712 309.176C791.712 311.907 791.84 314.232 792.096 316.152C792.352 318.029 792.821 319.565 793.504 320.76C794.187 321.912 795.168 322.765 796.448 323.32C797.771 323.832 799.477 324.088 801.568 324.088C803.275 324.088 805.152 324.003 807.2 323.832C809.291 323.619 811.019 323.427 812.384 323.256L812.576 330.232C811.552 330.445 810.336 330.68 808.928 330.936C807.52 331.149 806.027 331.32 804.448 331.448C802.869 331.619 801.312 331.704 799.776 331.704ZM826.467 331.704C823.139 331.704 820.621 330.872 818.915 329.208C817.251 327.501 816.419 324.941 816.419 321.528C816.419 319.139 816.845 317.283 817.699 315.96C818.552 314.595 819.811 313.613 821.475 313.016C823.181 312.376 825.251 311.992 827.683 311.864L835.491 311.16V309.24C835.491 307.704 835.107 306.637 834.339 306.04C833.571 305.4 832.44 305.08 830.947 305.08C829.752 305.08 828.365 305.123 826.787 305.208C825.251 305.293 823.715 305.4 822.179 305.528C820.685 305.656 819.384 305.784 818.275 305.912L818.019 299.896C819.128 299.64 820.451 299.384 821.987 299.128C823.565 298.829 825.208 298.595 826.915 298.424C828.621 298.253 830.2 298.168 831.651 298.168C834.381 298.168 836.664 298.509 838.499 299.192C840.333 299.875 841.72 301.005 842.659 302.584C843.597 304.12 844.067 306.211 844.067 308.856V323.512C844.152 324.109 844.472 324.579 845.027 324.92C845.581 325.219 846.221 325.432 846.947 325.56L846.755 331.448C845.731 331.491 844.728 331.512 843.747 331.512C842.765 331.512 841.933 331.448 841.251 331.32C840.269 331.192 839.416 330.936 838.691 330.552C838.008 330.168 837.453 329.763 837.027 329.336C836.344 329.635 835.427 329.976 834.275 330.36C833.123 330.744 831.864 331.064 830.499 331.32C829.176 331.576 827.832 331.704 826.467 331.704ZM828.515 325.368C829.325 325.368 830.179 325.283 831.075 325.112C831.971 324.941 832.803 324.749 833.571 324.536C834.381 324.28 835.021 324.045 835.491 323.832V316.472L828.963 317.048C827.555 317.176 826.531 317.603 825.891 318.328C825.293 319.011 824.995 319.992 824.995 321.272C824.995 322.552 825.272 323.555 825.827 324.28C826.424 325.005 827.32 325.368 828.515 325.368ZM851.583 331V298.872H860.095V331H851.583ZM851.583 293.752V286.456H860.159V293.752H851.583ZM867.208 331V298.872H875.72V302.648C876.445 302.093 877.341 301.517 878.408 300.92C879.474 300.28 880.626 299.704 881.864 299.192C883.144 298.637 884.36 298.275 885.512 298.104V306.36C884.402 306.531 883.229 306.829 881.992 307.256C880.754 307.64 879.581 308.067 878.472 308.536C877.405 309.005 876.488 309.432 875.72 309.816V331H867.208ZM903.782 331.704C900.155 331.704 897.232 331.107 895.014 329.912C892.838 328.717 891.259 326.883 890.278 324.408C889.296 321.891 888.806 318.648 888.806 314.68C888.806 310.84 889.318 307.725 890.342 305.336C891.366 302.904 892.987 301.112 895.206 299.96C897.424 298.765 900.283 298.168 903.782 298.168C907.323 298.168 910.182 298.765 912.358 299.96C914.576 301.112 916.198 302.904 917.222 305.336C918.288 307.725 918.822 310.84 918.822 314.68C918.822 318.648 918.331 321.891 917.35 324.408C916.368 326.883 914.768 328.717 912.55 329.912C910.374 331.107 907.451 331.704 903.782 331.704ZM903.782 324.664C905.574 324.664 906.918 324.344 907.814 323.704C908.71 323.021 909.307 321.955 909.606 320.504C909.947 319.011 910.118 317.069 910.118 314.68C910.118 312.333 909.926 310.477 909.542 309.112C909.158 307.704 908.518 306.701 907.622 306.104C906.726 305.507 905.446 305.208 903.782 305.208C902.16 305.208 900.88 305.507 899.942 306.104C899.046 306.701 898.406 307.704 898.022 309.112C897.638 310.477 897.446 312.333 897.446 314.68C897.446 317.069 897.595 319.011 897.894 320.504C898.235 321.955 898.854 323.021 899.75 323.704C900.646 324.344 901.99 324.664 903.782 324.664ZM939.095 331V287.288H956.503C959.404 287.288 961.9 287.651 963.991 288.376C966.081 289.101 967.703 290.275 968.854 291.896C970.049 293.475 970.647 295.608 970.647 298.296C970.647 300.131 970.455 301.688 970.071 302.968C969.729 304.205 969.175 305.272 968.407 306.168C967.681 307.021 966.721 307.811 965.527 308.536C966.807 309.005 967.916 309.645 968.854 310.456C969.836 311.224 970.583 312.269 971.095 313.592C971.607 314.872 971.863 316.579 971.863 318.712C971.863 321.059 971.5 323.021 970.775 324.6C970.049 326.179 969.004 327.437 967.639 328.376C966.316 329.315 964.759 329.997 962.967 330.424C961.175 330.808 959.212 331 957.079 331H939.095ZM947.927 324.472H956.439C957.932 324.472 959.169 324.301 960.151 323.96C961.175 323.576 961.943 322.915 962.455 321.976C963.009 321.037 963.287 319.736 963.287 318.072C963.287 316.792 963.073 315.747 962.647 314.936C962.22 314.125 961.665 313.528 960.983 313.144C960.3 312.717 959.532 312.419 958.679 312.248C957.868 312.077 957.057 311.992 956.247 311.992H947.927V324.472ZM947.927 305.72H956.183C958.359 305.72 959.916 305.208 960.855 304.184C961.836 303.16 962.327 301.603 962.327 299.512C962.327 297.507 961.793 296.056 960.727 295.16C959.703 294.264 958.081 293.816 955.863 293.816H947.927V305.72ZM991.594 331.704C987.967 331.704 985.045 331.107 982.826 329.912C980.65 328.717 979.071 326.883 978.09 324.408C977.109 321.891 976.618 318.648 976.618 314.68C976.618 310.84 977.13 307.725 978.154 305.336C979.178 302.904 980.799 301.112 983.018 299.96C985.237 298.765 988.095 298.168 991.594 298.168C995.135 298.168 997.994 298.765 1000.17 299.96C1002.39 301.112 1004.01 302.904 1005.03 305.336C1006.1 307.725 1006.63 310.84 1006.63 314.68C1006.63 318.648 1006.14 321.891 1005.16 324.408C1004.18 326.883 1002.58 328.717 1000.36 329.912C998.186 331.107 995.263 331.704 991.594 331.704ZM991.594 324.664C993.386 324.664 994.73 324.344 995.626 323.704C996.522 323.021 997.119 321.955 997.418 320.504C997.759 319.011 997.93 317.069 997.93 314.68C997.93 312.333 997.738 310.477 997.354 309.112C996.97 307.704 996.33 306.701 995.434 306.104C994.538 305.507 993.258 305.208 991.594 305.208C989.973 305.208 988.693 305.507 987.754 306.104C986.858 306.701 986.218 307.704 985.834 309.112C985.45 310.477 985.258 312.333 985.258 314.68C985.258 317.069 985.407 319.011 985.706 320.504C986.047 321.955 986.666 323.021 987.562 323.704C988.458 324.344 989.802 324.664 991.594 324.664ZM1012.71 331V285.752H1021.23V331H1012.71ZM1039.34 331.704C1037.8 331.704 1036.39 331.512 1035.11 331.128C1033.83 330.787 1032.7 330.232 1031.72 329.464C1030.78 328.653 1029.97 327.608 1029.29 326.328C1028.65 325.048 1028.16 323.491 1027.82 321.656C1027.47 319.779 1027.3 317.603 1027.3 315.128C1027.3 311.459 1027.75 308.365 1028.65 305.848C1029.59 303.331 1031.06 301.432 1033.06 300.152C1035.07 298.829 1037.74 298.168 1041.06 298.168C1042.05 298.168 1043.2 298.253 1044.52 298.424C1045.89 298.552 1046.97 298.68 1047.78 298.808V285.752H1056.36V331H1047.91L1047.85 329.144C1047.25 329.485 1046.46 329.869 1045.48 330.296C1044.54 330.68 1043.54 331 1042.47 331.256C1041.41 331.555 1040.36 331.704 1039.34 331.704ZM1041.51 324.536C1042.28 324.536 1043.05 324.451 1043.82 324.28C1044.63 324.109 1045.37 323.917 1046.06 323.704C1046.78 323.448 1047.36 323.213 1047.78 323V305.784C1047.4 305.699 1046.89 305.635 1046.25 305.592C1045.61 305.507 1044.95 305.443 1044.26 305.4C1043.58 305.315 1042.96 305.272 1042.41 305.272C1040.74 305.272 1039.44 305.656 1038.5 306.424C1037.61 307.192 1036.97 308.323 1036.58 309.816C1036.2 311.267 1036.01 313.037 1036.01 315.128C1036.01 316.963 1036.14 318.499 1036.39 319.736C1036.65 320.931 1037.01 321.891 1037.48 322.616C1037.99 323.299 1038.59 323.789 1039.27 324.088C1039.95 324.387 1040.7 324.536 1041.51 324.536Z" fill="black"/>
<path d="M799.776 523.704C796.363 523.704 793.547 523.277 791.328 522.424C789.152 521.528 787.424 520.163 786.144 518.328C784.864 516.493 783.968 514.168 783.456 511.352C782.987 508.493 782.752 505.101 782.752 501.176C782.752 497.208 782.987 493.816 783.456 491C783.968 488.141 784.864 485.795 786.144 483.96C787.424 482.125 789.173 480.76 791.392 479.864C793.653 478.968 796.533 478.52 800.032 478.52C801.44 478.52 802.912 478.605 804.448 478.776C805.984 478.947 807.456 479.16 808.864 479.416C810.315 479.629 811.552 479.864 812.576 480.12L812.32 487.16C811.467 486.989 810.4 486.84 809.12 486.712C807.84 486.541 806.539 486.413 805.216 486.328C803.893 486.243 802.656 486.2 801.504 486.2C799.456 486.2 797.792 486.456 796.512 486.968C795.232 487.48 794.229 488.333 793.504 489.528C792.821 490.723 792.352 492.28 792.096 494.2C791.84 496.077 791.712 498.403 791.712 501.176C791.712 503.907 791.84 506.232 792.096 508.152C792.352 510.029 792.821 511.565 793.504 512.76C794.187 513.912 795.168 514.765 796.448 515.32C797.771 515.832 799.477 516.088 801.568 516.088C803.275 516.088 805.152 516.003 807.2 515.832C809.291 515.619 811.019 515.427 812.384 515.256L812.576 522.232C811.552 522.445 810.336 522.68 808.928 522.936C807.52 523.149 806.027 523.32 804.448 523.448C802.869 523.619 801.312 523.704 799.776 523.704ZM826.467 523.704C823.139 523.704 820.621 522.872 818.915 521.208C817.251 519.501 816.419 516.941 816.419 513.528C816.419 511.139 816.845 509.283 817.699 507.96C818.552 506.595 819.811 505.613 821.475 505.016C823.181 504.376 825.251 503.992 827.683 503.864L835.491 503.16V501.24C835.491 499.704 835.107 498.637 834.339 498.04C833.571 497.4 832.44 497.08 830.947 497.08C829.752 497.08 828.365 497.123 826.787 497.208C825.251 497.293 823.715 497.4 822.179 497.528C820.685 497.656 819.384 497.784 818.275 497.912L818.019 491.896C819.128 491.64 820.451 491.384 821.987 491.128C823.565 490.829 825.208 490.595 826.915 490.424C828.621 490.253 830.2 490.168 831.651 490.168C834.381 490.168 836.664 490.509 838.499 491.192C840.333 491.875 841.72 493.005 842.659 494.584C843.597 496.12 844.067 498.211 844.067 500.856V515.512C844.152 516.109 844.472 516.579 845.027 516.92C845.581 517.219 846.221 517.432 846.947 517.56L846.755 523.448C845.731 523.491 844.728 523.512 843.747 523.512C842.765 523.512 841.933 523.448 841.251 523.32C840.269 523.192 839.416 522.936 838.691 522.552C838.008 522.168 837.453 521.763 837.027 521.336C836.344 521.635 835.427 521.976 834.275 522.36C833.123 522.744 831.864 523.064 830.499 523.32C829.176 523.576 827.832 523.704 826.467 523.704ZM828.515 517.368C829.325 517.368 830.179 517.283 831.075 517.112C831.971 516.941 832.803 516.749 833.571 516.536C834.381 516.28 835.021 516.045 835.491 515.832V508.472L828.963 509.048C827.555 509.176 826.531 509.603 825.891 510.328C825.293 511.011 824.995 511.992 824.995 513.272C824.995 514.552 825.272 515.555 825.827 516.28C826.424 517.005 827.32 517.368 828.515 517.368ZM851.583 523V490.872H860.095V523H851.583ZM851.583 485.752V478.456H860.159V485.752H851.583ZM867.208 523V490.872H875.72V494.648C876.445 494.093 877.341 493.517 878.408 492.92C879.474 492.28 880.626 491.704 881.864 491.192C883.144 490.637 884.36 490.275 885.512 490.104V498.36C884.402 498.531 883.229 498.829 881.992 499.256C880.754 499.64 879.581 500.067 878.472 500.536C877.405 501.005 876.488 501.432 875.72 501.816V523H867.208ZM903.782 523.704C900.155 523.704 897.232 523.107 895.014 521.912C892.838 520.717 891.259 518.883 890.278 516.408C889.296 513.891 888.806 510.648 888.806 506.68C888.806 502.84 889.318 499.725 890.342 497.336C891.366 494.904 892.987 493.112 895.206 491.96C897.424 490.765 900.283 490.168 903.782 490.168C907.323 490.168 910.182 490.765 912.358 491.96C914.576 493.112 916.198 494.904 917.222 497.336C918.288 499.725 918.822 502.84 918.822 506.68C918.822 510.648 918.331 513.891 917.35 516.408C916.368 518.883 914.768 520.717 912.55 521.912C910.374 523.107 907.451 523.704 903.782 523.704ZM903.782 516.664C905.574 516.664 906.918 516.344 907.814 515.704C908.71 515.021 909.307 513.955 909.606 512.504C909.947 511.011 910.118 509.069 910.118 506.68C910.118 504.333 909.926 502.477 909.542 501.112C909.158 499.704 908.518 498.701 907.622 498.104C906.726 497.507 905.446 497.208 903.782 497.208C902.16 497.208 900.88 497.507 899.942 498.104C899.046 498.701 898.406 499.704 898.022 501.112C897.638 502.477 897.446 504.333 897.446 506.68C897.446 509.069 897.595 511.011 897.894 512.504C898.235 513.955 898.854 515.021 899.75 515.704C900.646 516.344 901.99 516.664 903.782 516.664ZM939.095 523V479.288H956.503C959.404 479.288 961.9 479.651 963.991 480.376C966.081 481.101 967.703 482.275 968.854 483.896C970.049 485.475 970.647 487.608 970.647 490.296C970.647 492.131 970.455 493.688 970.071 494.968C969.729 496.205 969.175 497.272 968.407 498.168C967.681 499.021 966.721 499.811 965.527 500.536C966.807 501.005 967.916 501.645 968.854 502.456C969.836 503.224 970.583 504.269 971.095 505.592C971.607 506.872 971.863 508.579 971.863 510.712C971.863 513.059 971.5 515.021 970.775 516.6C970.049 518.179 969.004 519.437 967.639 520.376C966.316 521.315 964.759 521.997 962.967 522.424C961.175 522.808 959.212 523 957.079 523H939.095ZM947.927 516.472H956.439C957.932 516.472 959.169 516.301 960.151 515.96C961.175 515.576 961.943 514.915 962.455 513.976C963.009 513.037 963.287 511.736 963.287 510.072C963.287 508.792 963.073 507.747 962.647 506.936C962.22 506.125 961.665 505.528 960.983 505.144C960.3 504.717 959.532 504.419 958.679 504.248C957.868 504.077 957.057 503.992 956.247 503.992H947.927V516.472ZM947.927 497.72H956.183C958.359 497.72 959.916 497.208 960.855 496.184C961.836 495.16 962.327 493.603 962.327 491.512C962.327 489.507 961.793 488.056 960.727 487.16C959.703 486.264 958.081 485.816 955.863 485.816H947.927V497.72ZM991.594 523.704C987.967 523.704 985.045 523.107 982.826 521.912C980.65 520.717 979.071 518.883 978.09 516.408C977.109 513.891 976.618 510.648 976.618 506.68C976.618 502.84 977.13 499.725 978.154 497.336C979.178 494.904 980.799 493.112 983.018 491.96C985.237 490.765 988.095 490.168 991.594 490.168C995.135 490.168 997.994 490.765 1000.17 491.96C1002.39 493.112 1004.01 494.904 1005.03 497.336C1006.1 499.725 1006.63 502.84 1006.63 506.68C1006.63 510.648 1006.14 513.891 1005.16 516.408C1004.18 518.883 1002.58 520.717 1000.36 521.912C998.186 523.107 995.263 523.704 991.594 523.704ZM991.594 516.664C993.386 516.664 994.73 516.344 995.626 515.704C996.522 515.021 997.119 513.955 997.418 512.504C997.759 511.011 997.93 509.069 997.93 506.68C997.93 504.333 997.738 502.477 997.354 501.112C996.97 499.704 996.33 498.701 995.434 498.104C994.538 497.507 993.258 497.208 991.594 497.208C989.973 497.208 988.693 497.507 987.754 498.104C986.858 498.701 986.218 499.704 985.834 501.112C985.45 502.477 985.258 504.333 985.258 506.68C985.258 509.069 985.407 511.011 985.706 512.504C986.047 513.955 986.666 515.021 987.562 515.704C988.458 516.344 989.802 516.664 991.594 516.664ZM1012.71 523V477.752H1021.23V523H1012.71ZM1039.34 523.704C1037.8 523.704 1036.39 523.512 1035.11 523.128C1033.83 522.787 1032.7 522.232 1031.72 521.464C1030.78 520.653 1029.97 519.608 1029.29 518.328C1028.65 517.048 1028.16 515.491 1027.82 513.656C1027.47 511.779 1027.3 509.603 1027.3 507.128C1027.3 503.459 1027.75 500.365 1028.65 497.848C1029.59 495.331 1031.06 493.432 1033.06 492.152C1035.07 490.829 1037.74 490.168 1041.06 490.168C1042.05 490.168 1043.2 490.253 1044.52 490.424C1045.89 490.552 1046.97 490.68 1047.78 490.808V477.752H1056.36V523H1047.91L1047.85 521.144C1047.25 521.485 1046.46 521.869 1045.48 522.296C1044.54 522.68 1043.54 523 1042.47 523.256C1041.41 523.555 1040.36 523.704 1039.34 523.704ZM1041.51 516.536C1042.28 516.536 1043.05 516.451 1043.82 516.28C1044.63 516.109 1045.37 515.917 1046.06 515.704C1046.78 515.448 1047.36 515.213 1047.78 515V497.784C1047.4 497.699 1046.89 497.635 1046.25 497.592C1045.61 497.507 1044.95 497.443 1044.26 497.4C1043.58 497.315 1042.96 497.272 1042.41 497.272C1040.74 497.272 1039.44 497.656 1038.5 498.424C1037.61 499.192 1036.97 500.323 1036.58 501.816C1036.2 503.267 1036.01 505.037 1036.01 507.128C1036.01 508.963 1036.14 510.499 1036.39 511.736C1036.65 512.931 1037.01 513.891 1037.48 514.616C1037.99 515.299 1038.59 515.789 1039.27 516.088C1039.95 516.387 1040.7 516.536 1041.51 516.536Z" fill="black"/>
<path d="M787.04 714C786.613 714 786.272 713.872 786.016 713.616C785.76 713.317 785.632 712.955 785.632 712.528V670.736C785.632 670.267 785.76 669.904 786.016 669.648C786.272 669.349 786.613 669.2 787.04 669.2H802.656C807.52 669.2 811.317 670.352 814.048 672.656C816.821 674.917 818.208 678.224 818.208 682.576C818.208 685.819 817.397 688.485 815.776 690.576C814.155 692.667 811.893 694.117 808.992 694.928L818.848 712.016C818.976 712.272 819.04 712.507 819.04 712.72C819.04 713.061 818.912 713.36 818.656 713.616C818.4 713.872 818.101 714 817.76 714H814.944C814.304 714 813.792 713.851 813.408 713.552C813.067 713.253 812.747 712.827 812.448 712.272L803.04 695.888H791.648V712.528C791.648 712.955 791.499 713.317 791.2 713.616C790.901 713.872 790.539 714 790.112 714H787.04ZM802.4 690.64C808.843 690.64 812.064 687.931 812.064 682.512C812.064 677.093 808.843 674.384 802.4 674.384H791.648V690.64H802.4ZM839.091 714.64C835.038 714.64 831.902 713.339 829.683 710.736C827.464 708.091 826.355 704.592 826.355 700.24V682.192C826.355 681.765 826.483 681.424 826.739 681.168C827.038 680.869 827.4 680.72 827.827 680.72H830.771C831.198 680.72 831.539 680.869 831.795 681.168C832.094 681.424 832.243 681.765 832.243 682.192V699.92C832.243 706.405 835.059 709.648 840.691 709.648C843.422 709.648 845.576 708.795 847.155 707.088C848.776 705.339 849.587 702.949 849.587 699.92V682.192C849.587 681.765 849.715 681.424 849.971 681.168C850.27 680.869 850.632 680.72 851.059 680.72H854.003C854.43 680.72 854.771 680.869 855.027 681.168C855.326 681.424 855.475 681.765 855.475 682.192V712.528C855.475 712.955 855.326 713.317 855.027 713.616C854.771 713.872 854.43 714 854.003 714H851.251C850.824 714 850.462 713.872 850.163 713.616C849.907 713.317 849.779 712.955 849.779 712.528V709.648C848.542 711.312 847.091 712.571 845.427 713.424C843.763 714.235 841.651 714.64 839.091 714.64ZM881.306 714.64C876.698 714.64 873.178 713.019 870.746 709.776V712.528C870.746 712.955 870.597 713.317 870.298 713.616C870.042 713.872 869.701 714 869.274 714H866.586C866.159 714 865.797 713.872 865.498 713.616C865.242 713.317 865.114 712.955 865.114 712.528V670.032C865.114 669.563 865.242 669.2 865.498 668.944C865.797 668.688 866.159 668.56 866.586 668.56H869.466C869.893 668.56 870.234 668.709 870.49 669.008C870.789 669.264 870.938 669.605 870.938 670.032V684.816C873.327 681.659 876.783 680.08 881.306 680.08C885.786 680.08 889.135 681.552 891.354 684.496C893.615 687.397 894.81 691.045 894.938 695.44C894.981 695.909 895.002 696.549 895.002 697.36C895.002 698.171 894.981 698.811 894.938 699.28C894.81 703.675 893.615 707.344 891.354 710.288C889.135 713.189 885.786 714.64 881.306 714.64ZM880.09 709.648C883.162 709.648 885.402 708.688 886.81 706.768C888.218 704.848 888.986 702.331 889.114 699.216C889.157 698.789 889.178 698.171 889.178 697.36C889.178 689.168 886.149 685.072 880.09 685.072C877.189 685.072 874.949 686.032 873.37 687.952C871.834 689.829 871.023 692.069 870.938 694.672C870.895 695.141 870.874 695.973 870.874 697.168C870.874 698.32 870.895 699.131 870.938 699.6C871.023 702.331 871.813 704.699 873.306 706.704C874.842 708.667 877.103 709.648 880.09 709.648ZM904.01 674.448C903.583 674.448 903.221 674.32 902.922 674.064C902.666 673.765 902.538 673.403 902.538 672.976V669.648C902.538 669.221 902.666 668.859 902.922 668.56C903.221 668.261 903.583 668.112 904.01 668.112H907.786C908.213 668.112 908.575 668.261 908.874 668.56C909.173 668.859 909.322 669.221 909.322 669.648V672.976C909.322 673.403 909.173 673.765 908.874 674.064C908.575 674.32 908.213 674.448 907.786 674.448H904.01ZM904.522 714C904.095 714 903.733 713.872 903.434 713.616C903.178 713.317 903.05 712.955 903.05 712.528V682.192C903.05 681.765 903.178 681.424 903.434 681.168C903.733 680.869 904.095 680.72 904.522 680.72H907.338C907.765 680.72 908.106 680.869 908.362 681.168C908.661 681.424 908.81 681.765 908.81 682.192V712.528C908.81 712.955 908.661 713.317 908.362 713.616C908.106 713.872 907.765 714 907.338 714H904.522ZM919.961 714C919.534 714 919.172 713.872 918.873 713.616C918.617 713.317 918.489 712.955 918.489 712.528V670.032C918.489 669.563 918.617 669.2 918.873 668.944C919.172 668.688 919.534 668.56 919.961 668.56H922.713C923.14 668.56 923.481 668.709 923.737 669.008C924.036 669.264 924.185 669.605 924.185 670.032V692.368L936.985 681.808C937.625 681.339 938.073 681.04 938.329 680.912C938.585 680.784 938.99 680.72 939.545 680.72H942.745C943.129 680.72 943.428 680.848 943.641 681.104C943.897 681.317 944.025 681.637 944.025 682.064C944.025 682.448 943.79 682.853 943.321 683.28L928.345 695.568L944.921 711.44C945.39 711.909 945.625 712.315 945.625 712.656C945.625 713.04 945.497 713.36 945.241 713.616C945.028 713.872 944.729 714 944.345 714H941.209C940.569 714 940.1 713.936 939.801 713.808C939.545 713.68 939.161 713.381 938.649 712.912L924.185 699.216V712.528C924.185 712.955 924.036 713.317 923.737 713.616C923.481 713.872 923.14 714 922.713 714H919.961ZM968.603 714C968.176 714 967.835 713.872 967.579 713.616C967.323 713.317 967.195 712.955 967.195 712.528V670.736C967.195 670.267 967.323 669.904 967.579 669.648C967.835 669.349 968.176 669.2 968.603 669.2H984.219C989.083 669.2 992.88 670.352 995.611 672.656C998.384 674.917 999.771 678.224 999.771 682.576C999.771 685.819 998.96 688.485 997.339 690.576C995.717 692.667 993.456 694.117 990.555 694.928L1000.41 712.016C1000.54 712.272 1000.6 712.507 1000.6 712.72C1000.6 713.061 1000.47 713.36 1000.22 713.616C999.963 713.872 999.664 714 999.323 714H996.507C995.867 714 995.355 713.851 994.971 713.552C994.629 713.253 994.309 712.827 994.011 712.272L984.603 695.888H973.211V712.528C973.211 712.955 973.061 713.317 972.763 713.616C972.464 713.872 972.101 714 971.675 714H968.603ZM983.963 690.64C990.405 690.64 993.627 687.931 993.627 682.512C993.627 677.093 990.405 674.384 983.963 674.384H973.211V690.64H983.963ZM1021.05 714.64C1016.69 714.64 1013.22 713.296 1010.61 710.608C1008.01 707.877 1006.58 704.165 1006.33 699.472L1006.26 697.296L1006.33 695.184C1006.58 690.576 1008.01 686.907 1010.61 684.176C1013.22 681.445 1016.69 680.08 1021.05 680.08C1025.74 680.08 1029.37 681.573 1031.93 684.56C1034.53 687.547 1035.83 691.6 1035.83 696.72V697.872C1035.83 698.299 1035.68 698.661 1035.38 698.96C1035.13 699.216 1034.79 699.344 1034.36 699.344H1012.15V699.92C1012.28 702.693 1013.13 705.061 1014.71 707.024C1016.29 708.987 1018.38 709.968 1020.98 709.968C1022.99 709.968 1024.61 709.584 1025.85 708.816C1027.13 708.005 1028.09 707.173 1028.73 706.32C1029.11 705.808 1029.41 705.509 1029.62 705.424C1029.84 705.296 1030.2 705.232 1030.71 705.232H1033.53C1033.91 705.232 1034.23 705.339 1034.49 705.552C1034.79 705.765 1034.93 706.043 1034.93 706.384C1034.93 707.323 1034.36 708.453 1033.21 709.776C1032.05 711.099 1030.41 712.251 1028.28 713.232C1026.19 714.171 1023.78 714.64 1021.05 714.64ZM1030.01 694.992V694.8C1030.01 691.813 1029.2 689.381 1027.57 687.504C1025.95 685.627 1023.78 684.688 1021.05 684.688C1018.27 684.688 1016.1 685.627 1014.52 687.504C1012.94 689.381 1012.15 691.813 1012.15 694.8V694.992H1030.01ZM1057.12 728.08C1053.58 728.08 1050.74 727.483 1048.6 726.288C1046.47 725.093 1044.96 723.728 1044.06 722.192C1043.21 720.656 1042.78 719.333 1042.78 718.224C1042.78 717.84 1042.93 717.499 1043.23 717.2C1043.53 716.944 1043.87 716.816 1044.25 716.816H1047.07C1047.45 716.816 1047.77 716.901 1048.03 717.072C1048.28 717.285 1048.5 717.648 1048.67 718.16C1049.86 721.573 1052.57 723.28 1056.8 723.28C1060 723.28 1062.36 722.597 1063.9 721.232C1065.44 719.867 1066.2 717.456 1066.2 714V709.584C1063.73 712.741 1060.27 714.32 1055.84 714.32C1051.31 714.32 1047.92 712.869 1045.66 709.968C1043.44 707.067 1042.27 703.397 1042.14 698.96L1042.08 697.168L1042.14 695.44C1042.27 691.045 1043.44 687.397 1045.66 684.496C1047.92 681.552 1051.31 680.08 1055.84 680.08C1060.32 680.08 1063.82 681.723 1066.33 685.008V682.256C1066.33 681.829 1066.46 681.467 1066.72 681.168C1067.02 680.869 1067.38 680.72 1067.8 680.72H1070.56C1070.98 680.72 1071.32 680.869 1071.58 681.168C1071.88 681.467 1072.03 681.829 1072.03 682.256V713.296C1072.03 723.152 1067.06 728.08 1057.12 728.08ZM1056.99 709.328C1059.98 709.328 1062.22 708.368 1063.71 706.448C1065.24 704.485 1066.08 702.139 1066.2 699.408C1066.25 699.024 1066.27 698.277 1066.27 697.168C1066.27 696.101 1066.25 695.376 1066.2 694.992C1066.08 692.261 1065.24 689.936 1063.71 688.016C1062.22 686.053 1059.98 685.072 1056.99 685.072C1053.92 685.072 1051.68 686.053 1050.27 688.016C1048.9 689.936 1048.16 692.432 1048.03 695.504L1047.96 697.168L1048.03 698.896C1048.16 701.968 1048.9 704.485 1050.27 706.448C1051.68 708.368 1053.92 709.328 1056.99 709.328ZM1094.09 714.64C1090.04 714.64 1086.9 713.339 1084.68 710.736C1082.46 708.091 1081.36 704.592 1081.36 700.24V682.192C1081.36 681.765 1081.48 681.424 1081.74 681.168C1082.04 680.869 1082.4 680.72 1082.83 680.72H1085.77C1086.2 680.72 1086.54 680.869 1086.8 681.168C1087.09 681.424 1087.24 681.765 1087.24 682.192V699.92C1087.24 706.405 1090.06 709.648 1095.69 709.648C1098.42 709.648 1100.58 708.795 1102.16 707.088C1103.78 705.339 1104.59 702.949 1104.59 699.92V682.192C1104.59 681.765 1104.72 681.424 1104.97 681.168C1105.27 680.869 1105.63 680.72 1106.06 680.72H1109C1109.43 680.72 1109.77 680.869 1110.03 681.168C1110.33 681.424 1110.48 681.765 1110.48 682.192V712.528C1110.48 712.955 1110.33 713.317 1110.03 713.616C1109.77 713.872 1109.43 714 1109 714H1106.25C1105.82 714 1105.46 713.872 1105.16 713.616C1104.91 713.317 1104.78 712.955 1104.78 712.528V709.648C1103.54 711.312 1102.09 712.571 1100.43 713.424C1098.76 714.235 1096.65 714.64 1094.09 714.64ZM1121.59 714C1121.16 714 1120.8 713.872 1120.5 713.616C1120.24 713.317 1120.11 712.955 1120.11 712.528V670.032C1120.11 669.563 1120.24 669.2 1120.5 668.944C1120.8 668.688 1121.16 668.56 1121.59 668.56H1124.4C1124.83 668.56 1125.17 668.709 1125.43 669.008C1125.72 669.264 1125.87 669.605 1125.87 670.032V712.528C1125.87 712.955 1125.72 713.317 1125.43 713.616C1125.17 713.872 1124.83 714 1124.4 714H1121.59ZM1144.7 714.64C1142.61 714.64 1140.67 714.213 1138.88 713.36C1137.13 712.507 1135.72 711.355 1134.66 709.904C1133.63 708.411 1133.12 706.768 1133.12 704.976C1133.12 702.16 1134.27 699.856 1136.58 698.064C1138.88 696.272 1142.02 695.077 1145.98 694.48L1155.58 693.136V691.28C1155.58 686.885 1153.04 684.688 1147.97 684.688C1146 684.688 1144.43 685.093 1143.23 685.904C1142.04 686.672 1141.16 687.589 1140.61 688.656C1140.44 689.083 1140.24 689.381 1140.03 689.552C1139.86 689.68 1139.6 689.744 1139.26 689.744H1136.77C1136.38 689.744 1136.04 689.616 1135.74 689.36C1135.49 689.061 1135.36 688.72 1135.36 688.336C1135.36 687.355 1135.81 686.224 1136.7 684.944C1137.64 683.621 1139.07 682.491 1140.99 681.552C1142.91 680.571 1145.26 680.08 1148.03 680.08C1152.81 680.08 1156.22 681.189 1158.27 683.408C1160.36 685.627 1161.41 688.4 1161.41 691.728V712.528C1161.41 712.955 1161.26 713.317 1160.96 713.616C1160.7 713.872 1160.36 714 1159.94 714H1157.12C1156.69 714 1156.35 713.872 1156.1 713.616C1155.84 713.317 1155.71 712.955 1155.71 712.528V709.712C1154.77 711.12 1153.41 712.293 1151.62 713.232C1149.82 714.171 1147.52 714.64 1144.7 714.64ZM1145.98 709.968C1148.8 709.968 1151.1 709.051 1152.9 707.216C1154.69 705.381 1155.58 702.715 1155.58 699.216V697.424L1148.1 698.512C1145.02 698.939 1142.7 699.664 1141.12 700.688C1139.54 701.712 1138.75 702.992 1138.75 704.528C1138.75 706.277 1139.46 707.621 1140.86 708.56C1142.31 709.499 1144.02 709.968 1145.98 709.968ZM1172.15 714C1171.72 714 1171.36 713.872 1171.06 713.616C1170.8 713.317 1170.68 712.955 1170.68 712.528V682.256C1170.68 681.829 1170.8 681.467 1171.06 681.168C1171.36 680.869 1171.72 680.72 1172.15 680.72H1174.84C1175.3 680.72 1175.67 680.869 1175.92 681.168C1176.22 681.424 1176.37 681.787 1176.37 682.256V685.072C1178.12 682.171 1181.09 680.72 1185.27 680.72H1187.76C1188.23 680.72 1188.6 680.848 1188.85 681.104C1189.11 681.36 1189.24 681.723 1189.24 682.192V684.56C1189.24 684.987 1189.11 685.349 1188.85 685.648C1188.6 685.904 1188.23 686.032 1187.76 686.032H1184.12C1181.77 686.032 1179.91 686.715 1178.55 688.08C1177.22 689.445 1176.56 691.301 1176.56 693.648V712.528C1176.56 712.955 1176.41 713.317 1176.12 713.616C1175.82 713.872 1175.45 714 1175.03 714H1172.15Z" fill="black"/>
<path d="M799.776 907.704C796.363 907.704 793.547 907.277 791.328 906.424C789.152 905.528 787.424 904.163 786.144 902.328C784.864 900.493 783.968 898.168 783.456 895.352C782.987 892.493 782.752 889.101 782.752 885.176C782.752 881.208 782.987 877.816 783.456 875C783.968 872.141 784.864 869.795 786.144 867.96C787.424 866.125 789.173 864.76 791.392 863.864C793.653 862.968 796.533 862.52 800.032 862.52C801.44 862.52 802.912 862.605 804.448 862.776C805.984 862.947 807.456 863.16 808.864 863.416C810.315 863.629 811.552 863.864 812.576 864.12L812.32 871.16C811.467 870.989 810.4 870.84 809.12 870.712C807.84 870.541 806.539 870.413 805.216 870.328C803.893 870.243 802.656 870.2 801.504 870.2C799.456 870.2 797.792 870.456 796.512 870.968C795.232 871.48 794.229 872.333 793.504 873.528C792.821 874.723 792.352 876.28 792.096 878.2C791.84 880.077 791.712 882.403 791.712 885.176C791.712 887.907 791.84 890.232 792.096 892.152C792.352 894.029 792.821 895.565 793.504 896.76C794.187 897.912 795.168 898.765 796.448 899.32C797.771 899.832 799.477 900.088 801.568 900.088C803.275 900.088 805.152 900.003 807.2 899.832C809.291 899.619 811.019 899.427 812.384 899.256L812.576 906.232C811.552 906.445 810.336 906.68 808.928 906.936C807.52 907.149 806.027 907.32 804.448 907.448C802.869 907.619 801.312 907.704 799.776 907.704ZM826.467 907.704C823.139 907.704 820.621 906.872 818.915 905.208C817.251 903.501 816.419 900.941 816.419 897.528C816.419 895.139 816.845 893.283 817.699 891.96C818.552 890.595 819.811 889.613 821.475 889.016C823.181 888.376 825.251 887.992 827.683 887.864L835.491 887.16V885.24C835.491 883.704 835.107 882.637 834.339 882.04C833.571 881.4 832.44 881.08 830.947 881.08C829.752 881.08 828.365 881.123 826.787 881.208C825.251 881.293 823.715 881.4 822.179 881.528C820.685 881.656 819.384 881.784 818.275 881.912L818.019 875.896C819.128 875.64 820.451 875.384 821.987 875.128C823.565 874.829 825.208 874.595 826.915 874.424C828.621 874.253 830.2 874.168 831.651 874.168C834.381 874.168 836.664 874.509 838.499 875.192C840.333 875.875 841.72 877.005 842.659 878.584C843.597 880.12 844.067 882.211 844.067 884.856V899.512C844.152 900.109 844.472 900.579 845.027 900.92C845.581 901.219 846.221 901.432 846.947 901.56L846.755 907.448C845.731 907.491 844.728 907.512 843.747 907.512C842.765 907.512 841.933 907.448 841.251 907.32C840.269 907.192 839.416 906.936 838.691 906.552C838.008 906.168 837.453 905.763 837.027 905.336C836.344 905.635 835.427 905.976 834.275 906.36C833.123 906.744 831.864 907.064 830.499 907.32C829.176 907.576 827.832 907.704 826.467 907.704ZM828.515 901.368C829.325 901.368 830.179 901.283 831.075 901.112C831.971 900.941 832.803 900.749 833.571 900.536C834.381 900.28 835.021 900.045 835.491 899.832V892.472L828.963 893.048C827.555 893.176 826.531 893.603 825.891 894.328C825.293 895.011 824.995 895.992 824.995 897.272C824.995 898.552 825.272 899.555 825.827 900.28C826.424 901.005 827.32 901.368 828.515 901.368ZM851.583 907V874.872H860.095V907H851.583ZM851.583 869.752V862.456H860.159V869.752H851.583ZM867.208 907V874.872H875.72V878.648C876.445 878.093 877.341 877.517 878.408 876.92C879.474 876.28 880.626 875.704 881.864 875.192C883.144 874.637 884.36 874.275 885.512 874.104V882.36C884.402 882.531 883.229 882.829 881.992 883.256C880.754 883.64 879.581 884.067 878.472 884.536C877.405 885.005 876.488 885.432 875.72 885.816V907H867.208ZM903.782 907.704C900.155 907.704 897.232 907.107 895.014 905.912C892.838 904.717 891.259 902.883 890.278 900.408C889.296 897.891 888.806 894.648 888.806 890.68C888.806 886.84 889.318 883.725 890.342 881.336C891.366 878.904 892.987 877.112 895.206 875.96C897.424 874.765 900.283 874.168 903.782 874.168C907.323 874.168 910.182 874.765 912.358 875.96C914.576 877.112 916.198 878.904 917.222 881.336C918.288 883.725 918.822 886.84 918.822 890.68C918.822 894.648 918.331 897.891 917.35 900.408C916.368 902.883 914.768 904.717 912.55 905.912C910.374 907.107 907.451 907.704 903.782 907.704ZM903.782 900.664C905.574 900.664 906.918 900.344 907.814 899.704C908.71 899.021 909.307 897.955 909.606 896.504C909.947 895.011 910.118 893.069 910.118 890.68C910.118 888.333 909.926 886.477 909.542 885.112C909.158 883.704 908.518 882.701 907.622 882.104C906.726 881.507 905.446 881.208 903.782 881.208C902.16 881.208 900.88 881.507 899.942 882.104C899.046 882.701 898.406 883.704 898.022 885.112C897.638 886.477 897.446 888.333 897.446 890.68C897.446 893.069 897.595 895.011 897.894 896.504C898.235 897.955 898.854 899.021 899.75 899.704C900.646 900.344 901.99 900.664 903.782 900.664ZM939.095 907V863.288H956.503C959.404 863.288 961.9 863.651 963.991 864.376C966.081 865.101 967.703 866.275 968.854 867.896C970.049 869.475 970.647 871.608 970.647 874.296C970.647 876.131 970.455 877.688 970.071 878.968C969.729 880.205 969.175 881.272 968.407 882.168C967.681 883.021 966.721 883.811 965.527 884.536C966.807 885.005 967.916 885.645 968.854 886.456C969.836 887.224 970.583 888.269 971.095 889.592C971.607 890.872 971.863 892.579 971.863 894.712C971.863 897.059 971.5 899.021 970.775 900.6C970.049 902.179 969.004 903.437 967.639 904.376C966.316 905.315 964.759 905.997 962.967 906.424C961.175 906.808 959.212 907 957.079 907H939.095ZM947.927 900.472H956.439C957.932 900.472 959.169 900.301 960.151 899.96C961.175 899.576 961.943 898.915 962.455 897.976C963.009 897.037 963.287 895.736 963.287 894.072C963.287 892.792 963.073 891.747 962.647 890.936C962.22 890.125 961.665 889.528 960.983 889.144C960.3 888.717 959.532 888.419 958.679 888.248C957.868 888.077 957.057 887.992 956.247 887.992H947.927V900.472ZM947.927 881.72H956.183C958.359 881.72 959.916 881.208 960.855 880.184C961.836 879.16 962.327 877.603 962.327 875.512C962.327 873.507 961.793 872.056 960.727 871.16C959.703 870.264 958.081 869.816 955.863 869.816H947.927V881.72ZM991.594 907.704C987.967 907.704 985.045 907.107 982.826 905.912C980.65 904.717 979.071 902.883 978.09 900.408C977.109 897.891 976.618 894.648 976.618 890.68C976.618 886.84 977.13 883.725 978.154 881.336C979.178 878.904 980.799 877.112 983.018 875.96C985.237 874.765 988.095 874.168 991.594 874.168C995.135 874.168 997.994 874.765 1000.17 875.96C1002.39 877.112 1004.01 878.904 1005.03 881.336C1006.1 883.725 1006.63 886.84 1006.63 890.68C1006.63 894.648 1006.14 897.891 1005.16 900.408C1004.18 902.883 1002.58 904.717 1000.36 905.912C998.186 907.107 995.263 907.704 991.594 907.704ZM991.594 900.664C993.386 900.664 994.73 900.344 995.626 899.704C996.522 899.021 997.119 897.955 997.418 896.504C997.759 895.011 997.93 893.069 997.93 890.68C997.93 888.333 997.738 886.477 997.354 885.112C996.97 883.704 996.33 882.701 995.434 882.104C994.538 881.507 993.258 881.208 991.594 881.208C989.973 881.208 988.693 881.507 987.754 882.104C986.858 882.701 986.218 883.704 985.834 885.112C985.45 886.477 985.258 888.333 985.258 890.68C985.258 893.069 985.407 895.011 985.706 896.504C986.047 897.955 986.666 899.021 987.562 899.704C988.458 900.344 989.802 900.664 991.594 900.664ZM1012.71 907V861.752H1021.23V907H1012.71ZM1039.34 907.704C1037.8 907.704 1036.39 907.512 1035.11 907.128C1033.83 906.787 1032.7 906.232 1031.72 905.464C1030.78 904.653 1029.97 903.608 1029.29 902.328C1028.65 901.048 1028.16 899.491 1027.82 897.656C1027.47 895.779 1027.3 893.603 1027.3 891.128C1027.3 887.459 1027.75 884.365 1028.65 881.848C1029.59 879.331 1031.06 877.432 1033.06 876.152C1035.07 874.829 1037.74 874.168 1041.06 874.168C1042.05 874.168 1043.2 874.253 1044.52 874.424C1045.89 874.552 1046.97 874.68 1047.78 874.808V861.752H1056.36V907H1047.91L1047.85 905.144C1047.25 905.485 1046.46 905.869 1045.48 906.296C1044.54 906.68 1043.54 907 1042.47 907.256C1041.41 907.555 1040.36 907.704 1039.34 907.704ZM1041.51 900.536C1042.28 900.536 1043.05 900.451 1043.82 900.28C1044.63 900.109 1045.37 899.917 1046.06 899.704C1046.78 899.448 1047.36 899.213 1047.78 899V881.784C1047.4 881.699 1046.89 881.635 1046.25 881.592C1045.61 881.507 1044.95 881.443 1044.26 881.4C1043.58 881.315 1042.96 881.272 1042.41 881.272C1040.74 881.272 1039.44 881.656 1038.5 882.424C1037.61 883.192 1036.97 884.323 1036.58 885.816C1036.2 887.267 1036.01 889.037 1036.01 891.128C1036.01 892.963 1036.14 894.499 1036.39 895.736C1036.65 896.931 1037.01 897.891 1037.48 898.616C1037.99 899.299 1038.59 899.789 1039.27 900.088C1039.95 900.387 1040.7 900.536 1041.51 900.536Z" fill="black"/>
<path d="M158.176 523.704C156.555 523.704 154.784 523.597 152.864 523.384C150.944 523.213 149.067 523 147.232 522.744C145.44 522.445 143.904 522.189 142.624 521.976L143.2 515C144.523 515.171 146.059 515.363 147.808 515.576C149.557 515.747 151.285 515.896 152.992 516.024C154.741 516.152 156.256 516.216 157.536 516.216C159.968 516.216 161.739 515.747 162.848 514.808C163.957 513.827 164.512 512.312 164.512 510.264C164.512 509.155 164.277 508.28 163.808 507.64C163.381 506.957 162.592 506.424 161.44 506.04C160.288 505.613 158.688 505.208 156.64 504.824C153.227 504.184 150.453 503.395 148.32 502.456C146.229 501.517 144.693 500.195 143.712 498.488C142.773 496.781 142.304 494.499 142.304 491.64C142.304 488.312 142.923 485.709 144.16 483.832C145.397 481.912 147.168 480.547 149.472 479.736C151.776 478.925 154.485 478.52 157.6 478.52C159.008 478.52 160.608 478.605 162.4 478.776C164.235 478.904 166.027 479.075 167.776 479.288C169.568 479.501 171.083 479.736 172.32 479.992L171.936 487.032C170.656 486.861 169.163 486.712 167.456 486.584C165.792 486.413 164.128 486.264 162.464 486.136C160.843 486.008 159.456 485.944 158.304 485.944C155.872 485.944 154.08 486.328 152.928 487.096C151.776 487.864 151.2 489.101 151.2 490.808C151.2 492.088 151.456 493.069 151.968 493.752C152.48 494.435 153.333 494.989 154.528 495.416C155.765 495.843 157.451 496.291 159.584 496.76C162.101 497.315 164.235 497.912 165.984 498.552C167.776 499.192 169.205 499.96 170.272 500.856C171.381 501.752 172.192 502.904 172.704 504.312C173.216 505.72 173.472 507.491 173.472 509.624C173.472 513.037 172.853 515.789 171.616 517.88C170.421 519.928 168.672 521.421 166.368 522.36C164.107 523.256 161.376 523.704 158.176 523.704ZM189.323 523.704C186.549 523.704 184.395 523.128 182.859 521.976C181.365 520.781 180.299 518.989 179.659 516.6C179.061 514.211 178.763 511.203 178.763 507.576V490.872H187.275V507.192C187.275 509.453 187.381 511.245 187.595 512.568C187.851 513.891 188.341 514.829 189.067 515.384C189.792 515.939 190.837 516.216 192.203 516.216C193.525 516.216 194.763 516.045 195.915 515.704C197.067 515.363 197.984 515.021 198.667 514.68V490.872H207.179V523H198.731V521.016C197.28 521.827 195.829 522.488 194.378 523C192.971 523.469 191.285 523.704 189.323 523.704ZM227.008 523.704C225.941 523.704 224.64 523.661 223.104 523.576C221.568 523.491 219.989 523.363 218.368 523.192C216.789 523.021 215.381 522.872 214.144 522.744V477.752H222.72V491.896C223.701 491.512 224.981 491.128 226.56 490.744C228.138 490.36 229.61 490.168 230.976 490.168C233.962 490.168 236.33 490.787 238.08 492.024C239.872 493.219 241.152 495.011 241.92 497.4C242.688 499.789 243.072 502.797 243.072 506.424C243.072 510.691 242.581 514.104 241.6 516.664C240.661 519.181 239.018 520.995 236.672 522.104C234.325 523.171 231.104 523.704 227.008 523.704ZM227.072 516.536C229.162 516.536 230.72 516.173 231.744 515.448C232.768 514.68 233.45 513.549 233.792 512.056C234.176 510.563 234.368 508.728 234.368 506.552C234.368 504.333 234.197 502.563 233.856 501.24C233.514 499.875 232.938 498.893 232.128 498.296C231.36 497.656 230.272 497.336 228.864 497.336C227.797 497.336 226.688 497.485 225.536 497.784C224.384 498.083 223.445 498.36 222.72 498.616V516.28C223.36 516.323 224.106 516.387 224.96 516.472C225.813 516.515 226.517 516.536 227.072 516.536ZM260.222 523.768C257.875 523.768 255.976 523.427 254.526 522.744C253.075 522.061 252.03 520.888 251.39 519.224C250.792 517.517 250.494 515.149 250.494 512.12V497.976H246.718V490.872H250.494V482.36H259.006V490.872H267.198V497.976H259.006V509.88C259.006 511.544 259.07 512.845 259.198 513.784C259.368 514.723 259.71 515.384 260.222 515.768C260.734 516.152 261.523 516.344 262.59 516.344C262.888 516.344 263.336 516.323 263.934 516.28C264.531 516.237 265.128 516.195 265.726 516.152C266.323 516.109 266.814 516.067 267.198 516.024L267.454 522.872C266.43 523.043 265.192 523.235 263.742 523.448C262.334 523.661 261.16 523.768 260.222 523.768ZM271.958 523V490.872H280.47V523H271.958ZM271.958 485.752V478.456H280.534V485.752H271.958ZM298.847 523.768C296.5 523.768 294.601 523.427 293.151 522.744C291.7 522.061 290.655 520.888 290.015 519.224C289.417 517.517 289.119 515.149 289.119 512.12V497.976H285.343V490.872H289.119V482.36H297.631V490.872H305.823V497.976H297.631V509.88C297.631 511.544 297.695 512.845 297.823 513.784C297.993 514.723 298.335 515.384 298.847 515.768C299.359 516.152 300.148 516.344 301.215 516.344C301.513 516.344 301.961 516.323 302.559 516.28C303.156 516.237 303.753 516.195 304.351 516.152C304.948 516.109 305.439 516.067 305.823 516.024L306.079 522.872C305.055 523.043 303.817 523.235 302.367 523.448C300.959 523.661 299.785 523.768 298.847 523.768ZM310.839 523V477.752H319.351V523H310.839ZM339.637 523.704C336.096 523.704 333.28 523.107 331.189 521.912C329.141 520.717 327.669 518.904 326.773 516.472C325.877 514.04 325.429 510.989 325.429 507.32C325.429 503.352 325.984 500.109 327.093 497.592C328.245 495.075 329.909 493.219 332.085 492.024C334.261 490.787 336.949 490.168 340.149 490.168C344.885 490.168 348.448 491.363 350.837 493.752C353.269 496.141 354.485 499.917 354.485 505.08L354.101 509.816H334.005C334.048 512.205 334.538 513.997 335.477 515.192C336.416 516.387 338.037 516.984 340.341 516.984C341.664 516.984 343.114 516.963 344.693 516.92C346.272 516.835 347.829 516.749 349.365 516.664C350.944 516.579 352.288 516.493 353.397 516.408L353.589 522.36C352.522 522.531 351.178 522.723 349.557 522.936C347.936 523.149 346.25 523.32 344.501 523.448C342.794 523.619 341.173 523.704 339.637 523.704ZM334.005 504.376H345.973C345.973 501.475 345.504 499.448 344.565 498.296C343.669 497.144 342.197 496.568 340.149 496.568C338.144 496.568 336.608 497.165 335.541 498.36C334.517 499.555 334.005 501.56 334.005 504.376Z" fill="black"/>
<path d="M144.032 907V863.288H161.44C164.341 863.288 166.837 863.651 168.928 864.376C171.019 865.101 172.64 866.275 173.792 867.896C174.987 869.475 175.584 871.608 175.584 874.296C175.584 876.131 175.392 877.688 175.008 878.968C174.667 880.205 174.112 881.272 173.344 882.168C172.619 883.021 171.659 883.811 170.464 884.536C171.744 885.005 172.853 885.645 173.792 886.456C174.773 887.224 175.52 888.269 176.032 889.592C176.544 890.872 176.8 892.579 176.8 894.712C176.8 897.059 176.437 899.021 175.712 900.6C174.987 902.179 173.941 903.437 172.576 904.376C171.253 905.315 169.696 905.997 167.904 906.424C166.112 906.808 164.149 907 162.016 907H144.032ZM152.864 900.472H161.376C162.869 900.472 164.107 900.301 165.088 899.96C166.112 899.576 166.88 898.915 167.392 897.976C167.947 897.037 168.224 895.736 168.224 894.072C168.224 892.792 168.011 891.747 167.584 890.936C167.157 890.125 166.603 889.528 165.92 889.144C165.237 888.717 164.469 888.419 163.616 888.248C162.805 888.077 161.995 887.992 161.184 887.992H152.864V900.472ZM152.864 881.72H161.12C163.296 881.72 164.853 881.208 165.792 880.184C166.773 879.16 167.264 877.603 167.264 875.512C167.264 873.507 166.731 872.056 165.664 871.16C164.64 870.264 163.019 869.816 160.8 869.816H152.864V881.72ZM192.948 907.704C190.174 907.704 188.02 907.128 186.484 905.976C184.99 904.781 183.924 902.989 183.284 900.6C182.686 898.211 182.388 895.203 182.388 891.576V874.872H190.9V891.192C190.9 893.453 191.006 895.245 191.22 896.568C191.476 897.891 191.966 898.829 192.692 899.384C193.417 899.939 194.462 900.216 195.828 900.216C197.15 900.216 198.388 900.045 199.54 899.704C200.692 899.363 201.609 899.021 202.292 898.68V874.872H210.804V907H202.356V905.016C200.905 905.827 199.454 906.488 198.003 907C196.596 907.469 194.91 907.704 192.948 907.704ZM229.097 907.768C226.75 907.768 224.851 907.427 223.401 906.744C221.95 906.061 220.905 904.888 220.265 903.224C219.667 901.517 219.369 899.149 219.369 896.12V881.976H215.593V874.872H219.369V866.36H227.881V874.872H236.073V881.976H227.881V893.88C227.881 895.544 227.945 896.845 228.073 897.784C228.243 898.723 228.585 899.384 229.097 899.768C229.609 900.152 230.398 900.344 231.465 900.344C231.763 900.344 232.211 900.323 232.809 900.28C233.406 900.237 234.003 900.195 234.601 900.152C235.198 900.109 235.689 900.067 236.073 900.024L236.329 906.872C235.305 907.043 234.067 907.235 232.617 907.448C231.209 907.661 230.035 907.768 229.097 907.768ZM252.097 907.768C249.75 907.768 247.851 907.427 246.401 906.744C244.95 906.061 243.905 904.888 243.265 903.224C242.667 901.517 242.369 899.149 242.369 896.12V881.976H238.593V874.872H242.369V866.36H250.881V874.872H259.073V881.976H250.881V893.88C250.881 895.544 250.945 896.845 251.073 897.784C251.243 898.723 251.585 899.384 252.097 899.768C252.609 900.152 253.398 900.344 254.465 900.344C254.763 900.344 255.211 900.323 255.809 900.28C256.406 900.237 257.003 900.195 257.601 900.152C258.198 900.109 258.689 900.067 259.073 900.024L259.329 906.872C258.305 907.043 257.067 907.235 255.617 907.448C254.209 907.661 253.035 907.768 252.097 907.768ZM277.657 907.704C274.03 907.704 271.107 907.107 268.889 905.912C266.713 904.717 265.134 902.883 264.153 900.408C263.171 897.891 262.681 894.648 262.681 890.68C262.681 886.84 263.193 883.725 264.217 881.336C265.241 878.904 266.862 877.112 269.081 875.96C271.299 874.765 274.158 874.168 277.657 874.168C281.198 874.168 284.057 874.765 286.233 875.96C288.451 877.112 290.073 878.904 291.097 881.336C292.163 883.725 292.697 886.84 292.697 890.68C292.697 894.648 292.206 897.891 291.225 900.408C290.243 902.883 288.643 904.717 286.425 905.912C284.249 907.107 281.326 907.704 277.657 907.704ZM277.657 900.664C279.449 900.664 280.793 900.344 281.689 899.704C282.585 899.021 283.182 897.955 283.481 896.504C283.822 895.011 283.993 893.069 283.993 890.68C283.993 888.333 283.801 886.477 283.417 885.112C283.033 883.704 282.393 882.701 281.497 882.104C280.601 881.507 279.321 881.208 277.657 881.208C276.035 881.208 274.755 881.507 273.817 882.104C272.921 882.701 272.281 883.704 271.897 885.112C271.513 886.477 271.321 888.333 271.321 890.68C271.321 893.069 271.47 895.011 271.769 896.504C272.11 897.955 272.729 899.021 273.625 899.704C274.521 900.344 275.865 900.664 277.657 900.664ZM298.52 907V874.872H307.032V876.92C307.715 876.493 308.547 876.088 309.528 875.704C310.509 875.277 311.533 874.915 312.6 874.616C313.709 874.317 314.776 874.168 315.8 874.168C318.787 874.168 321.091 874.701 322.712 875.768C324.376 876.792 325.549 878.499 326.232 880.888C326.915 883.235 327.256 886.392 327.256 890.36V907H318.68V890.808C318.68 888.589 318.552 886.819 318.296 885.496C318.04 884.131 317.549 883.149 316.824 882.552C316.099 881.955 315.032 881.656 313.624 881.656C312.856 881.656 312.045 881.741 311.192 881.912C310.381 882.04 309.592 882.232 308.824 882.488C308.099 882.744 307.501 883 307.032 883.256V907H298.52Z" fill="black"/>
<line x1="140" y1="403.5" x2="1775" y2="403.5" stroke="black"/>
<line x1="140" y1="595.5" x2="1775" y2="595.5" stroke="black"/>
<line x1="140" y1="787.5" x2="1775" y2="787.5" stroke="black"/>
<path d="M1601.78 715V708.088L1611.44 698.168C1613.27 696.291 1614.85 694.648 1616.18 693.24C1617.5 691.789 1618.5 690.424 1619.18 689.144C1619.91 687.864 1620.27 686.499 1620.27 685.048C1620.27 682.915 1619.67 681.485 1618.48 680.76C1617.29 679.992 1615.37 679.608 1612.72 679.608C1611.65 679.608 1610.48 679.672 1609.2 679.8C1607.92 679.928 1606.68 680.077 1605.49 680.248C1604.34 680.419 1603.33 680.589 1602.48 680.76L1602.03 673.976C1602.97 673.72 1604.12 673.443 1605.49 673.144C1606.9 672.845 1608.41 672.589 1610.03 672.376C1611.7 672.12 1613.32 671.992 1614.9 671.992C1619.5 671.992 1623.02 672.973 1625.46 674.936C1627.89 676.856 1629.1 679.843 1629.1 683.896C1629.1 686.115 1628.78 688.077 1628.14 689.784C1627.55 691.491 1626.59 693.133 1625.26 694.712C1623.98 696.248 1622.28 697.933 1620.14 699.768L1611.7 707.832H1629.68V715H1601.78ZM1651.35 715.704C1648.62 715.704 1646.26 715.341 1644.25 714.616C1642.25 713.848 1640.58 712.632 1639.26 710.968C1637.98 709.261 1637 707.043 1636.31 704.312C1635.67 701.581 1635.35 698.232 1635.35 694.264C1635.35 690.168 1635.67 686.691 1636.31 683.832C1637 680.973 1638 678.691 1639.32 676.984C1640.65 675.235 1642.29 673.976 1644.25 673.208C1646.26 672.44 1648.6 672.056 1651.29 672.056C1654.06 672.056 1656.45 672.44 1658.46 673.208C1660.46 673.976 1662.11 675.235 1663.39 676.984C1664.71 678.691 1665.67 680.973 1666.27 683.832C1666.91 686.648 1667.23 690.125 1667.23 694.264C1667.23 699.512 1666.65 703.715 1665.5 706.872C1664.39 709.987 1662.66 712.248 1660.31 713.656C1657.97 715.021 1654.98 715.704 1651.35 715.704ZM1651.35 708.28C1652.55 708.28 1653.57 708.088 1654.43 707.704C1655.32 707.277 1656.07 706.552 1656.67 705.528C1657.26 704.504 1657.69 703.075 1657.95 701.24C1658.25 699.405 1658.39 697.08 1658.39 694.264C1658.39 691.277 1658.25 688.824 1657.95 686.904C1657.69 684.984 1657.29 683.491 1656.73 682.424C1656.18 681.315 1655.45 680.547 1654.55 680.12C1653.66 679.651 1652.59 679.416 1651.35 679.416C1650.12 679.416 1649.05 679.651 1648.15 680.12C1647.26 680.547 1646.51 681.293 1645.91 682.36C1645.36 683.427 1644.93 684.941 1644.63 686.904C1644.34 688.824 1644.19 691.299 1644.19 694.328C1644.19 697.144 1644.34 699.469 1644.63 701.304C1644.98 703.139 1645.45 704.568 1646.04 705.592C1646.64 706.573 1647.37 707.277 1648.22 707.704C1649.11 708.088 1650.16 708.28 1651.35 708.28Z" fill="black"/>
<path d="M1601.78 524V517.088L1611.44 507.168C1613.27 505.291 1614.85 503.648 1616.18 502.24C1617.5 500.789 1618.5 499.424 1619.18 498.144C1619.91 496.864 1620.27 495.499 1620.27 494.048C1620.27 491.915 1619.67 490.485 1618.48 489.76C1617.29 488.992 1615.37 488.608 1612.72 488.608C1611.65 488.608 1610.48 488.672 1609.2 488.8C1607.92 488.928 1606.68 489.077 1605.49 489.248C1604.34 489.419 1603.33 489.589 1602.48 489.76L1602.03 482.976C1602.97 482.72 1604.12 482.443 1605.49 482.144C1606.9 481.845 1608.41 481.589 1610.03 481.376C1611.7 481.12 1613.32 480.992 1614.9 480.992C1619.5 480.992 1623.02 481.973 1625.46 483.936C1627.89 485.856 1629.1 488.843 1629.1 492.896C1629.1 495.115 1628.78 497.077 1628.14 498.784C1627.55 500.491 1626.59 502.133 1625.26 503.712C1623.98 505.248 1622.28 506.933 1620.14 508.768L1611.7 516.832H1629.68V524H1601.78ZM1651.35 524.704C1648.62 524.704 1646.26 524.341 1644.25 523.616C1642.25 522.848 1640.58 521.632 1639.26 519.968C1637.98 518.261 1637 516.043 1636.31 513.312C1635.67 510.581 1635.35 507.232 1635.35 503.264C1635.35 499.168 1635.67 495.691 1636.31 492.832C1637 489.973 1638 487.691 1639.32 485.984C1640.65 484.235 1642.29 482.976 1644.25 482.208C1646.26 481.44 1648.6 481.056 1651.29 481.056C1654.06 481.056 1656.45 481.44 1658.46 482.208C1660.46 482.976 1662.11 484.235 1663.39 485.984C1664.71 487.691 1665.67 489.973 1666.27 492.832C1666.91 495.648 1667.23 499.125 1667.23 503.264C1667.23 508.512 1666.65 512.715 1665.5 515.872C1664.39 518.987 1662.66 521.248 1660.31 522.656C1657.97 524.021 1654.98 524.704 1651.35 524.704ZM1651.35 517.28C1652.55 517.28 1653.57 517.088 1654.43 516.704C1655.32 516.277 1656.07 515.552 1656.67 514.528C1657.26 513.504 1657.69 512.075 1657.95 510.24C1658.25 508.405 1658.39 506.08 1658.39 503.264C1658.39 500.277 1658.25 497.824 1657.95 495.904C1657.69 493.984 1657.29 492.491 1656.73 491.424C1656.18 490.315 1655.45 489.547 1654.55 489.12C1653.66 488.651 1652.59 488.416 1651.35 488.416C1650.12 488.416 1649.05 488.651 1648.15 489.12C1647.26 489.547 1646.51 490.293 1645.91 491.36C1645.36 492.427 1644.93 493.941 1644.63 495.904C1644.34 497.824 1644.19 500.299 1644.19 503.328C1644.19 506.144 1644.34 508.469 1644.63 510.304C1644.98 512.139 1645.45 513.568 1646.04 514.592C1646.64 515.573 1647.37 516.277 1648.22 516.704C1649.11 517.088 1650.16 517.28 1651.35 517.28Z" fill="black"/>
<path d="M1619.25 331V323.96H1600.05V317.56L1609.65 288.76H1619.5L1608.82 316.6H1619.25L1619.76 305.72L1627.95 305.592V316.6H1631.86V323.96H1627.95V331H1619.25ZM1651.35 331.704C1648.62 331.704 1646.26 331.341 1644.25 330.616C1642.25 329.848 1640.58 328.632 1639.26 326.968C1637.98 325.261 1637 323.043 1636.31 320.312C1635.67 317.581 1635.35 314.232 1635.35 310.264C1635.35 306.168 1635.67 302.691 1636.31 299.832C1637 296.973 1638 294.691 1639.32 292.984C1640.65 291.235 1642.29 289.976 1644.25 289.208C1646.26 288.44 1648.6 288.056 1651.29 288.056C1654.06 288.056 1656.45 288.44 1658.46 289.208C1660.46 289.976 1662.11 291.235 1663.39 292.984C1664.71 294.691 1665.67 296.973 1666.27 299.832C1666.91 302.648 1667.23 306.125 1667.23 310.264C1667.23 315.512 1666.65 319.715 1665.5 322.872C1664.39 325.987 1662.66 328.248 1660.31 329.656C1657.97 331.021 1654.98 331.704 1651.35 331.704ZM1651.35 324.28C1652.55 324.28 1653.57 324.088 1654.43 323.704C1655.32 323.277 1656.07 322.552 1656.67 321.528C1657.26 320.504 1657.69 319.075 1657.95 317.24C1658.25 315.405 1658.39 313.08 1658.39 310.264C1658.39 307.277 1658.25 304.824 1657.95 302.904C1657.69 300.984 1657.29 299.491 1656.73 298.424C1656.18 297.315 1655.45 296.547 1654.55 296.12C1653.66 295.651 1652.59 295.416 1651.35 295.416C1650.12 295.416 1649.05 295.651 1648.15 296.12C1647.26 296.547 1646.51 297.293 1645.91 298.36C1645.36 299.427 1644.93 300.941 1644.63 302.904C1644.34 304.824 1644.19 307.299 1644.19 310.328C1644.19 313.144 1644.34 315.469 1644.63 317.304C1644.98 319.139 1645.45 320.568 1646.04 321.592C1646.64 322.573 1647.37 323.277 1648.22 323.704C1649.11 324.088 1650.16 324.28 1651.35 324.28Z" fill="black"/>
<path d="M1616.11 907V874.232L1606.13 879.992L1603.18 873.656L1617.2 864.76H1624.82V907H1616.11ZM1654.81 907V899.96H1635.61V893.56L1645.21 864.76H1655.07L1644.38 892.6H1654.81L1655.32 881.72L1663.51 881.592V892.6H1667.42V899.96H1663.51V907H1654.81Z" fill="black"/>
</svg>
