<?xml version="1.0" encoding="UTF-8"?><svg id="Layer_2" xmlns="http://www.w3.org/2000/svg" viewBox="0 0 500 500"><defs><style>.cls-1{font-size:19.9px;}.cls-1,.cls-2,.cls-3{fill:#1a1a1a;font-family:OpenSans-Regular, 'Open Sans';}.cls-4{fill:#011f26;}.cls-5{fill:#f5f6f8;fill-rule:evenodd;}.cls-2{font-size:14.4px;}.cls-3{font-size:16.5px;}</style></defs><g id="Layer_1-2"><rect class="cls-4" width="500" height="500"/><g><path class="cls-5" d="M259.22,91.79c0-.25,.19-.46,.44-.45l179.81,1.82c.24,0,.44,.21,.45,.47l1.74,181.73c0,.25-.19,.46-.44,.46h-179.81c-.24,0-.44-.21-.45-.46l-1.74-183.56Z"/><text class="cls-1" transform="translate(283.56 132.14)"><tspan x="0" y="0">“I don&apos;t have a </tspan></text><text class="cls-1" transform="translate(279.36 160)"><tspan x="0" y="0">preferred spot, </tspan></text><text class="cls-1" transform="translate(274.84 187.87)"><tspan x="0" y="0">but I usually opt </tspan></text><text class="cls-1" transform="translate(273.84 215.73)"><tspan x="0" y="0">with whatever is </tspan></text><text class="cls-1" transform="translate(281.73 243.6)"><tspan x="0" y="0">closest to me.”</tspan></text><path class="cls-5" d="M58.35,59.48c0-.23,.18-.42,.4-.42H224.84c.22,0,.4,.19,.4,.42l1.2,168.71c0,.23-.18,.42-.4,.42l-167.29,1.26c-.22,0-.4-.19-.4-.42V59.48h0Z"/><text class="cls-3" transform="translate(108.48 101.7)"><tspan x="0" y="0">&quot;favorite </tspan></text><text class="cls-3" transform="translate(73.1 124.62)"><tspan x="0" y="0">spot?...the [room] </tspan></text><text class="cls-3" transform="translate(74.85 147.54)"><tspan x="0" y="0">is very bright and </tspan></text><text class="cls-3" transform="translate(96.02 170.46)"><tspan x="0" y="0">you can see </tspan></text><text class="cls-3" transform="translate(107.53 193.38)"><tspan x="0" y="0">outside.”</tspan></text><path class="cls-5" d="M103.7,249.77c0-.26,.2-.48,.45-.48h186.35c.25,0,.45,.21,.45,.47l1.35,189.29c0,.26-.2,.47-.45,.48l-187.7,1.41c-.25,0-.45-.21-.45-.47V249.77h0Z"/><text class="cls-2" transform="translate(139.88 285.3)"><tspan x="0" y="0">“[Study spaces at </tspan></text><text class="cls-2" transform="translate(121.65 305.87)"><tspan x="0" y="0">umich. edu] lists some </tspan></text><text class="cls-2" transform="translate(127.88 326.45)"><tspan x="0" y="0">spaces but it doesn&apos;t </tspan></text><text class="cls-2" transform="translate(120.93 347.02)"><tspan x="0" y="0">tell where they are. It&apos;s </tspan></text><text class="cls-2" transform="translate(134.08 367.6)"><tspan x="0" y="0">just some room, in </tspan></text><text class="cls-2" transform="translate(119.97 388.17)"><tspan x="0" y="0">some building, and the </tspan></text><text class="cls-2" transform="translate(117.68 408.75)"><tspan x="0" y="0">amount is very limited.”</tspan></text></g></g></svg>