<?xml version="1.0" encoding="UTF-8"?><svg id="Layer_2" xmlns="http://www.w3.org/2000/svg" viewBox="0 0 505 505"><defs><style>.cls-1{fill:none;}.cls-2{fill:#bfb78f;}</style></defs><rect class="cls-1" width="505" height="505"/><g id="Layer_1-2"><path class="cls-2" d="M220.8,131.2c0-7.6,3-14.8,8.3-20.1,5.3-5.3,12.6-8.3,20.1-8.3s14.8,3,20.1,8.3,8.3,12.6,8.3,20.1-3,14.8-8.3,20.1-12.6,8.3-20.1,8.3-14.8-3-20.1-8.3c-5.3-5.3-8.3-12.6-8.3-20.1h0Zm72.9,242.8c-8-2.6-17.9-10.2-17.9-31.8V200.4c0-1-.4-2-1.1-2.7s-1.7-1.1-2.7-1.1h-56.5c-3.8,0-7.5,1.5-10.2,4.2s-4.2,6.4-4.2,10.2c0,3.1,1,6.1,2.9,8.6s4.4,4.3,7.4,5.2c8.1,2.6,17.9,10.2,17.9,31.8v85.6c0,21.6-9.9,29.2-17.9,31.8-3,.9-5.6,2.7-7.4,5.2-1.9,2.5-2.9,5.5-2.9,8.6,0,3.8,1.5,7.5,4.2,10.2s6.4,4.2,10.2,4.2h74.2c3.8,0,7.5-1.5,10.2-4.2s4.2-6.4,4.2-10.2c0-3.1-1-6.1-2.9-8.6s-4.5-4.3-7.5-5.2h0Zm210.9-121.6c0,66.8-26.5,130.9-73.8,178.2s-111.4,73.8-178.2,73.8-130.9-26.5-178.2-73.8S.6,319.3,.6,252.4,27.1,121.5,74.4,74.3C121.7,27.1,185.7,.4,252.6,.4c66.8,.1,130.9,26.6,178.1,73.9,47.2,47.3,73.8,111.3,73.9,178.1h0Zm-33.7,0c0-57.9-23-113.5-64-154.4-41-41-96.5-64-154.4-64s-113.5,23-154.4,64S34.1,194.5,34.1,252.4s23,113.5,64,154.4c41,41,96.5,64,154.4,64,57.9-.1,113.4-23.1,154.4-64,41-41,64-96.5,64-154.4h0Z"/></g></svg>