<?xml version="1.0" encoding="utf-8"?>
<!-- Generator: Adobe Illustrator 26.3.1, SVG Export Plug-In . SVG Version: 6.00 Build 0)  -->
<svg version="1.1" id="Layer_2_00000018930721202231361280000009542714485830201535_"
	 xmlns="http://www.w3.org/2000/svg" xmlns:xlink="http://www.w3.org/1999/xlink" x="0px" y="0px" viewBox="0 0 504 504"
	 style="enable-background:new 0 0 504 504;" xml:space="preserve">
<style type="text/css">
	.st0{fill:none;}
</style>
<rect x="-0.8" y="-0.2" class="st0" width="505" height="505"/>
<g id="Layer_1-2">
	<path d="M220,131c0-7.6,3-14.8,8.3-20.1c5.3-5.3,12.6-8.3,20.1-8.3s14.8,3,20.1,8.3c5.3,5.3,8.3,12.6,8.3,20.1s-3,14.8-8.3,20.1
		c-5.3,5.3-12.6,8.3-20.1,8.3s-14.8-3-20.1-8.3C223,145.8,220,138.5,220,131L220,131L220,131z M292.9,373.8
		c-8-2.6-17.9-10.2-17.9-31.8V200.2c0-1-0.4-2-1.1-2.7s-1.7-1.1-2.7-1.1h-56.5c-3.8,0-7.5,1.5-10.2,4.2s-4.2,6.4-4.2,10.2
		c0,3.1,1,6.1,2.9,8.6s4.4,4.3,7.4,5.2c8.1,2.6,17.9,10.2,17.9,31.8V342c0,21.6-9.9,29.2-17.9,31.8c-3,0.9-5.6,2.7-7.4,5.2
		c-1.9,2.5-2.9,5.5-2.9,8.6c0,3.8,1.5,7.5,4.2,10.2c2.7,2.7,6.4,4.2,10.2,4.2h74.2c3.8,0,7.5-1.5,10.2-4.2s4.2-6.4,4.2-10.2
		c0-3.1-1-6.1-2.9-8.6S295.9,374.7,292.9,373.8L292.9,373.8L292.9,373.8z M503.8,252.2c0,66.8-26.5,130.9-73.8,178.2
		s-111.4,73.8-178.2,73.8s-130.9-26.5-178.2-73.8S-0.2,319.1-0.2,252.2S26.3,121.3,73.6,74.1S184.9,0.2,251.8,0.2
		c66.8,0.1,130.9,26.6,178.1,73.9C477.1,121.4,503.7,185.4,503.8,252.2L503.8,252.2L503.8,252.2z M470.1,252.2
		c0-57.9-23-113.5-64-154.4c-41-41-96.5-64-154.4-64s-113.5,23-154.4,64s-64,96.5-64,154.4s23,113.5,64,154.4
		c41,41,96.5,64,154.4,64c57.9-0.1,113.4-23.1,154.4-64C447.1,365.6,470.1,310.1,470.1,252.2L470.1,252.2L470.1,252.2z"/>
</g>
</svg>
