<?xml version="1.0" encoding="UTF-8"?><svg id="Layer_2" xmlns="http://www.w3.org/2000/svg" viewBox="0 0 504 504"><defs><style>.cls-1{fill:#fff;}</style></defs><rect class="cls-1" x="-.75" y="-.25" width="505" height="505"/><g id="Layer_1-2"><path d="M219.96,130.98c0-7.55,3-14.79,8.34-20.13,5.34-5.34,12.58-8.34,20.13-8.34s14.79,3,20.12,8.34c5.34,5.34,8.34,12.58,8.34,20.12s-3,14.79-8.34,20.13c-5.34,5.34-12.58,8.34-20.13,8.34s-14.79-3-20.12-8.34c-5.34-5.34-8.34-12.58-8.34-20.13h0Zm72.97,242.81c-8.05-2.58-17.9-10.16-17.9-31.75V200.22c0-1.02-.4-1.99-1.12-2.71s-1.69-1.12-2.71-1.12h-56.52c-3.82,0-7.49,1.52-10.19,4.22s-4.22,6.37-4.22,10.19c.03,3.1,1.04,6.11,2.89,8.59s4.45,4.31,7.41,5.21c8.05,2.58,17.9,10.16,17.9,31.75v85.68c0,21.6-9.85,29.17-17.91,31.75-2.96,.91-5.56,2.73-7.41,5.21-1.85,2.48-2.86,5.49-2.89,8.59,0,3.82,1.52,7.48,4.22,10.19,2.7,2.7,6.37,4.22,10.19,4.22h74.15c3.82,0,7.49-1.52,10.19-4.22s4.22-6.37,4.22-10.19c-.03-3.1-1.04-6.11-2.89-8.59s-4.45-4.31-7.41-5.21h0Zm210.82-121.54c0,66.84-26.55,130.93-73.81,178.19s-111.36,73.81-178.19,73.81-130.93-26.55-178.19-73.81C26.3,383.18-.25,319.08-.25,252.25S26.3,121.32,73.56,74.06C120.82,26.8,184.92,.25,251.75,.25c66.81,.07,130.86,26.65,178.11,73.89,47.24,47.25,73.82,111.3,73.89,178.11h0Zm-33.6-.01c0-57.92-23.01-113.47-63.96-154.43-40.96-40.96-96.51-63.97-154.43-63.97s-113.47,23.01-154.43,63.97c-40.96,40.96-63.96,96.51-63.96,154.43s23.01,113.47,63.96,154.43c40.96,40.96,96.51,63.96,154.43,63.96,57.9-.06,113.42-23.09,154.36-64.04,40.95-40.94,63.98-96.46,64.04-154.36h-.01Z"/></g></svg>