<?xml version="1.0" encoding="UTF-8"?><svg id="Layer_2" xmlns="http://www.w3.org/2000/svg" viewBox="0 0 504 504"><defs><style>.cls-1{fill:#fff;}</style></defs><rect class="cls-1" x="1.38" y="1.12" width="505" height="505"/><path d="M456.88,17.77V489.27c0,8.97-7.3,16.48-16.48,16.48H67.15c-8.97,0-16.27-7.51-16.27-16.48V17.77c0-8.97,7.3-16.27,16.27-16.27H440.39c9.18,0,16.48,7.3,16.48,16.27ZM253.04,237.45h1.67c11.47-.21,21.7-5.01,29.21-12.52,7.72-7.72,12.52-18.36,12.52-30.25s-4.8-22.53-12.52-30.25c-7.72-7.51-18.36-12.31-30.04-12.31s-22.53,4.8-30.04,12.31c-7.72,7.72-12.52,18.57-12.52,30.25s4.8,22.53,12.52,30.25c7.3,7.51,17.73,12.31,29.21,12.52h0Zm58.63,5.42c9.39,3.96,17.94,9.6,24.83,16.69,13.77,13.56,22.11,32.34,22.11,52.99v58.83c0,9.18-7.3,16.48-16.27,16.48H165.41c-8.97,0-16.27-7.3-16.27-16.48v-58.83c0-20.66,8.35-39.43,22.11-52.99l.83-1.04c6.88-6.47,15.02-11.89,23.99-15.44-11.06-13.15-17.52-30.04-17.52-48.4,0-20.66,8.35-39.43,22.11-53.2,13.56-13.56,32.34-22.11,53.2-22.11s39.64,8.55,53.2,22.11c13.56,13.77,22.11,32.55,22.11,53.2,0,18.36-6.68,35.26-17.52,48.19h0Zm-28.16,27.33h-59.26c-11.27,0-21.7,4.38-29.21,11.69l-.63,.83c-7.72,7.72-12.52,18.15-12.52,29.84v42.56h143.96v-42.56c0-11.69-4.8-22.11-12.52-29.84-7.72-7.72-18.15-12.52-29.84-12.52h0Zm140.62,202.79V34.24H83.64V472.99H424.12Z"/></svg>