<?xml version="1.0" encoding="utf-8"?>
<!-- Generator: Adobe Illustrator 26.3.1, SVG Export Plug-In . SVG Version: 6.00 Build 0)  -->
<svg version="1.1" id="Layer_2_00000141443377829818092570000016432196084648107928_"
	 xmlns="http://www.w3.org/2000/svg" xmlns:xlink="http://www.w3.org/1999/xlink" x="0px" y="0px" viewBox="0 0 504 504"
	 style="enable-background:new 0 0 504 504;" xml:space="preserve">
<style type="text/css">
	.st0{fill:none;}
</style>
<rect x="1.4" y="1.1" class="st0" width="505" height="505"/>
<path d="M456.9,17.8v471.5c0,9-7.3,16.5-16.5,16.5H67.2c-9,0-16.3-7.5-16.3-16.5V17.8c0-9,7.3-16.3,16.3-16.3h373.2
	C449.6,1.5,456.9,8.8,456.9,17.8L456.9,17.8z M253,237.4h1.7c11.5-0.2,21.7-5,29.2-12.5c7.7-7.7,12.5-18.4,12.5-30.2
	s-4.8-22.5-12.5-30.2c-7.7-7.5-18.4-12.3-30-12.3s-22.5,4.8-30,12.3c-7.7,7.7-12.5,18.6-12.5,30.2s4.8,22.5,12.5,30.2
	C231.1,232.4,241.6,237.2,253,237.4L253,237.4L253,237.4z M311.7,242.9c9.4,4,17.9,9.6,24.8,16.7c13.8,13.6,22.1,32.3,22.1,53v58.8
	c0,9.2-7.3,16.5-16.3,16.5H165.4c-9,0-16.3-7.3-16.3-16.5v-58.8c0-20.7,8.4-39.4,22.1-53l0.8-1c6.9-6.5,15-11.9,24-15.4
	c-11.1-13.1-17.5-30-17.5-48.4c0-20.7,8.4-39.4,22.1-53.2c13.6-13.6,32.3-22.1,53.2-22.1s39.6,8.6,53.2,22.1
	c13.6,13.8,22.1,32.6,22.1,53.2C329.2,213,322.5,229.9,311.7,242.9L311.7,242.9L311.7,242.9z M283.5,270.2h-59.3
	c-11.3,0-21.7,4.4-29.2,11.7l-0.6,0.8c-7.7,7.7-12.5,18.1-12.5,29.8v42.6h144v-42.6c0-11.7-4.8-22.1-12.5-29.8
	C305.6,275,295.2,270.2,283.5,270.2L283.5,270.2L283.5,270.2z M424.1,473V34.2H83.6V473H424.1L424.1,473z"/>
</svg>
