<?xml version="1.0" encoding="utf-8"?>
<!-- Generator: Adobe Illustrator 26.3.1, SVG Export Plug-In . SVG Version: 6.00 Build 0)  -->
<svg version="1.1" id="Layer_2_00000093162393723750636950000012097687280028417975_"
	 xmlns="http://www.w3.org/2000/svg" xmlns:xlink="http://www.w3.org/1999/xlink" x="0px" y="0px" viewBox="0 0 504 504"
	 style="enable-background:new 0 0 504 504;" xml:space="preserve">
<style type="text/css">
	.st0{fill:none;}
	.st1{fill:#FFFFFF;}
</style>
<rect x="0.7" y="1.9" class="st0" width="505" height="505"/>
<path class="st1" d="M443.5,115.4h-95.3c-6-29.4-25.3-54.4-52.3-67.6c-26.9-13.2-58.5-13.2-85.4,0s-46.2,38.2-52.3,67.6H62.9
	c-15.5,0-30.3,6.2-41.2,17.1S4.6,158.3,4.5,173.8v238.8l0,0c0,15.5,6.2,30.3,17.1,41.2c10.9,10.9,25.8,17.1,41.2,17.1h380.6
	c15.5,0,30.3-6.2,41.2-17.1c10.9-10.9,17.1-25.8,17.1-41.2V173.8c0-15.5-6.2-30.3-17.1-41.2C473.9,121.6,459,115.4,443.5,115.4
	C443.5,115.4,443.5,115.4,443.5,115.4z M253.2,76.8c12,0,23.6,3.8,33.4,10.7s17.1,16.7,21.1,27.9H198.8c4-11.3,11.4-21,21.1-27.9
	C229.6,80.6,241.3,76.8,253.2,76.8L253.2,76.8L253.2,76.8z M62.9,154.3h380.6c10.7,0,19.5,8.7,19.5,19.4v138.8H43.5V173.8
	C43.5,163,52.2,154.3,62.9,154.3C62.9,154.3,62.9,154.3,62.9,154.3z M443.6,432H62.9c-10.7,0-19.5-8.7-19.5-19.5v-61.1h190.3v7.4
	c0,10.7,8.7,19.5,19.4,19.5c10.7,0,19.4-8.7,19.4-19.5v-7.4H463v61.1C463,423.3,454.3,432,443.6,432L443.6,432L443.6,432z"/>
</svg>
