<?xml version="1.0" encoding="UTF-8"?><svg id="Layer_2" xmlns="http://www.w3.org/2000/svg" viewBox="0 0 504 504"><defs><style>.cls-1{fill:#fff;}</style></defs><rect class="cls-1" x=".73" y="1.88" width="505" height="505"/><path d="M443.55,115.4h-95.34c-6.01-29.41-25.31-54.38-52.26-67.61-26.94-13.23-58.5-13.23-85.45,0-26.95,13.23-46.25,38.2-52.26,67.61H62.91c-15.48,.02-30.31,6.17-41.25,17.11-10.94,10.94-17.1,25.77-17.11,41.25v238.78h0c.02,15.47,6.17,30.3,17.11,41.25,10.94,10.94,25.77,17.09,41.25,17.11H443.55c15.48-.02,30.31-6.17,41.25-17.11,10.94-10.94,17.1-25.78,17.11-41.25V173.76c-.02-15.48-6.17-30.31-17.11-41.25-10.94-10.94-25.77-17.1-41.25-17.11h0Zm-190.31-38.61c11.95,.03,23.6,3.76,33.35,10.68,9.75,6.92,17.12,16.67,21.1,27.94h-108.91c3.98-11.27,11.36-21.03,21.1-27.94,9.75-6.92,21.4-10.64,33.35-10.68h0ZM62.92,154.31H443.56c10.74,0,19.45,8.71,19.45,19.45v138.76H43.47V173.76c0-10.74,8.71-19.45,19.45-19.45h0ZM443.56,432H62.92c-10.74-.01-19.45-8.72-19.45-19.46v-61.11H233.78v7.43c0,10.74,8.71,19.45,19.45,19.45s19.45-8.71,19.45-19.45v-7.43h190.31v61.11c0,10.74-8.71,19.45-19.45,19.45h.01Z"/></svg>