<?xml version="1.0" encoding="UTF-8"?><svg id="Layer_2" xmlns="http://www.w3.org/2000/svg" viewBox="0 0 505 505"><defs><style>.cls-1{fill:#011f26;}.cls-2{fill:none;}</style></defs><rect class="cls-2" width="505" height="505"/><path class="cls-1" d="M442.8,113.5h-95.3c-6-29.4-25.3-54.4-52.3-67.6-26.9-13.2-58.5-13.2-85.4,0s-46.2,38.2-52.3,67.6H62.2c-15.5,0-30.3,6.2-41.2,17.1-10.9,10.9-17.1,25.8-17.2,41.3v238.8h0c0,15.5,6.2,30.3,17.1,41.2,10.9,10.9,25.8,17.1,41.2,17.1H442.7c15.5,0,30.3-6.2,41.2-17.1,10.9-10.9,17.1-25.8,17.1-41.2V171.9c0-15.5-6.2-30.3-17.1-41.2-10.7-11-25.6-17.2-41.1-17.2h0Zm-190.3-38.6c12,0,23.6,3.8,33.4,10.7s17.1,16.7,21.1,27.9h-108.9c4-11.3,11.4-21,21.1-27.9,9.7-6.9,21.4-10.7,33.3-10.7h0ZM62.2,152.4H442.8c10.7,0,19.5,8.7,19.5,19.4v138.8H42.8V171.9c0-10.8,8.7-19.5,19.4-19.5h0ZM442.9,430.1H62.2c-10.7,0-19.5-8.7-19.5-19.5v-61.1H233v7.4c0,10.7,8.7,19.5,19.4,19.5s19.4-8.7,19.4-19.5v-7.4h190.5v61.1c0,10.8-8.7,19.5-19.4,19.5h0Z"/></svg>