<?xml version="1.0" encoding="UTF-8"?><svg xmlns="http://www.w3.org/2000/svg" viewBox="0 0 128.44 128.28"><defs><style>.d{fill:#fefefe;}</style></defs><g id="a"/><g id="b"><g id="c"><g><path d="M0,119.71c.01-.4,.04-.8,.04-1.19,0-36.25,0-72.5,0-108.75,0-.4-.03-.8-.04-1.19C.65,3.42,4.5,0,9.69,0,46.07,0,82.46,0,118.84,0c5.53,0,9.6,4.08,9.6,9.6,0,36.36,0,72.71,0,109.07,0,5.52-4.07,9.6-9.6,9.6-36.42,0-72.85,0-109.27,0-5.07,0-8.92-3.46-9.56-8.57Z"/><path class="d" d="M68.58,56.47c1.34-2.15,2.94-4.07,4.95-5.61,3.67-2.81,7.8-4.25,12.45-4.25,4.4,0,8.7,.43,12.7,2.44,5.61,2.82,8.23,7.77,9.55,13.6,.99,4.34,1.2,8.76,1.2,13.19,.01,10.73-.03,21.47,0,32.2,0,.97-.3,1.18-1.21,1.17-5.56-.04-11.12-.04-16.67,0-.92,0-1.11-.27-1.11-1.14,.03-10.18,.03-20.35,.01-30.53,0-2.19-.15-4.38-.62-6.54-1.25-5.69-4.85-8.29-10.67-7.71-5.82,.59-9.03,3.95-9.78,10.22-.2,1.67-.28,3.34-.28,5.01,0,9.78-.01,19.55,.03,29.33,0,1-.17,1.36-1.28,1.35-5.52-.07-11.03-.05-16.55-.01-.89,0-1.23-.16-1.23-1.16,.03-19.59,.03-39.19,0-58.78,0-.86,.19-1.17,1.12-1.16,5.32,.05,10.64,.05,15.95,0,1.01-.01,1.18,.36,1.16,1.24-.05,2.34-.02,4.68-.02,7.02l.3,.1Z"/><path class="d" d="M38.05,78.75c0,9.74-.01,19.47,.02,29.21,0,.98-.23,1.27-1.25,1.26-5.56-.05-11.11-.04-16.67,0-.88,0-1.15-.2-1.14-1.12,.03-19.63,.03-39.26,0-58.89,0-.81,.18-1.1,1.05-1.09,5.64,.04,11.27,.04,16.91,0,.97,0,1.09,.37,1.09,1.19-.02,9.82-.01,19.63-.01,29.45Z"/><path class="d" d="M28.59,39.71c-6,.01-11-4.95-11.03-10.93-.03-6.06,4.95-11.06,11.01-11.06,6.03,0,11.01,4.94,11.02,10.92,.01,6.09-4.93,11.06-11,11.07Z"/></g></g></g></svg>